<?xml version="1.0" encoding="UTF-8"?>
<!DOCTYPE svg PUBLIC "-//W3C//DTD SVG 1.1//EN" "http://www.w3.org/Graphics/SVG/1.1/DTD/svg11.dtd">
<!-- Creator: CorelDRAW 2019 (64-Bit) -->
<svg xmlns="http://www.w3.org/2000/svg" xml:space="preserve" width="41.3308mm" height="51.5848mm" version="1.1" style="shape-rendering:geometricPrecision; text-rendering:geometricPrecision; image-rendering:optimizeQuality; fill-rule:evenodd; clip-rule:evenodd"
viewBox="0 0 1820.91 2272.66"
 xmlns:xlink="http://www.w3.org/1999/xlink"
 xmlns:xodm="http://www.corel.com/coreldraw/odm/2003">
 <defs>
  <style type="text/css">
   <![CDATA[
    .fil0 {fill:#9A4C2F}
    .fil1 {fill:#EBC7B2}
   ]]>
  </style>
 </defs>
 <g id="Layer_x0020_1">
  <metadata id="CorelCorpID_0Corel-Layer"/>
  <path class="fil0" d="M1265.1 2011.92c46.85,6.98 120.48,34.94 136.85,69.87 -9.99,38.53 -83.92,57.31 -130.49,73.59 -28.73,3.62 -70.49,16.74 -105.78,22.42 -114.5,18.45 -238.03,22.28 -353.37,16.49 -97.55,-4.9 -375.41,-38.73 -394.32,-112.51 5.25,-54.94 293.88,-112.79 318.85,-101.5 49.24,52.1 74.06,140.42 173.11,140.42 99.41,-0.01 123.97,-89.9 173.11,-140.55 37.92,-0.67 152.56,17.57 182.03,31.76zm-291.73 260.74l-128.55 0c-106.09,-3.64 -209.38,-16.32 -296.2,-38.15 -80.68,-20.28 -206.82,-57.06 -206.82,-157.16 0,-113.01 269.99,-168.67 341.79,-168.67l-88.14 -120.49c-7.09,-9.46 -15.55,-22.73 -23.06,-30.21 -13.74,-13.68 -65.07,-29.84 -102.75,-52.6 -109.62,-66.24 -202.97,-137.49 -279.4,-239.94 -46.17,-61.9 -83.72,-117.68 -114.15,-192.12 -56.81,-138.97 -76.07,-226.99 -76.07,-385.56 0,-140.08 40.35,-261.1 83.05,-360.83 47.59,-111.15 143.63,-232.88 237.85,-312.56 63.46,-53.67 124.03,-90.67 199.86,-128.61 133.74,-66.92 262.59,-85.77 424.7,-85.77 275.32,0 561.43,166.76 713.81,391.45 141.89,209.2 199.56,475.47 135.8,728.93 -27.17,107.98 -66.17,200.49 -126.02,291.22l-67.27 88.09c-9.41,11.65 -11.43,15.09 -22.64,26.18 -89.1,88.1 -114.16,111.06 -231.62,181.19 -36.44,21.75 -76.89,35.14 -90.02,43.14 -19.27,11.74 -105.95,135.75 -121.17,158.48 53.64,0 159.6,29 210.29,47.16 75.55,27.05 131.5,60.75 131.5,139.27 0,75.02 -148.3,124.8 -206.84,139.39 -87.38,21.77 -191.29,34.52 -297.91,38.17zm207.38 -578.23c-27.54,14.64 -80.78,25.17 -115.35,32.32 -50.26,10.39 -58.74,55.25 -16.42,74.57 25.48,6.23 49.89,-4.71 74.81,-8.79 -9.26,20.65 -39.61,56.86 -53.79,76.49 -17.59,24.36 -33.95,45.58 -52.67,71.62 -35.38,49.22 -81.44,135.18 -139.9,93 -20.83,-14.34 -75.13,-93.52 -93.38,-118.94 -17.91,-24.96 -78.87,-102.34 -87.76,-122.32 30.07,4.81 74.36,23.12 93.5,-3.95 21.31,-30.13 2.35,-54.73 -42.24,-63.12 -62.07,-11.68 -122.2,-31.64 -175.42,-55.74 -115.24,-52.18 -128.08,-70.53 -211.61,-134.7 -53.13,-40.81 -120.65,-127.25 -158.58,-187.73 -358.44,-571.55 90.1,-1325.82 776.94,-1269.16 47.21,3.89 149.07,19.46 184.12,38.23 76.32,15.57 176.93,75.93 231.11,114.24 203.72,144.07 344.91,387.63 349.07,666.15 3.25,217.24 -70.86,374.46 -166.5,511.35 -77.18,110.47 -267.31,260.98 -395.92,286.47z"/>
  <path class="fil0" d="M1114.16 1557.82c-24.2,15.82 -131.34,29.92 -168.62,31.91 -174.21,9.27 -327.14,-46.15 -455.94,-144.02 -131.41,-99.84 -264.09,-292.51 -261.27,-544.64 4.52,-403.86 350.26,-698.57 728.74,-672.05 32.99,2.31 141.33,17.69 161.52,32.5 61.98,13.1 148.61,63.42 189.92,94.5 315.86,237.7 378.02,659.74 136.99,974.04 -74.13,96.67 -215.99,204.6 -331.34,227.76zm506 -385.51c8.65,-37.7 24.05,-72.74 32.17,-114.71 8.31,-42.97 13.31,-84.1 14.47,-129.9 3.58,-140.69 -20.52,-158.87 -37.02,-256.93 -18.61,-38.63 -32.24,-78.41 -51.89,-117.95 -49.07,-98.77 -150.75,-210.75 -244.1,-270.94 -531.11,-342.41 -1165.56,35.46 -1180.9,605.68 -10.65,396.04 273.03,696.99 606.42,763.75 201.15,40.29 414.65,-9.77 555.16,-101.67 38.79,-25.37 66.29,-48.25 99.1,-74.05 15.77,-12.4 26.53,-28.87 41.94,-42.35 64.79,-56.67 128.14,-170.76 164.66,-260.94z"/>
  <path class="fil1" d="M1048.98 1801.31c-42.32,-19.32 -33.84,-64.17 16.42,-74.57 34.57,-7.15 87.81,-17.67 115.35,-32.32 128.62,-25.48 318.74,-175.99 395.93,-286.46 95.64,-136.89 169.75,-294.11 166.5,-511.35 -4.16,-278.52 -145.35,-522.08 -349.07,-666.15 -54.18,-38.32 -154.79,-98.68 -231.11,-114.24 -35.04,-18.77 -136.9,-34.34 -184.11,-38.23 -686.84,-56.66 -1135.38,697.61 -776.94,1269.16 37.93,60.48 105.45,146.92 158.58,187.73 83.54,64.17 96.37,82.51 211.61,134.7 53.22,24.1 113.35,44.06 175.42,55.74 44.59,8.39 63.55,32.99 42.24,63.12 -19.14,27.07 -63.43,8.76 -93.5,3.95 8.89,19.98 69.85,97.36 87.76,122.32 18.24,25.43 72.55,104.61 93.38,118.94 58.46,42.18 104.52,-43.78 139.9,-93 18.72,-26.04 35.08,-47.26 52.67,-71.62 14.17,-19.64 44.53,-55.85 53.79,-76.49 -24.93,4.08 -49.33,15.02 -74.81,8.79zm571.18 -629c-36.51,90.18 -99.87,204.27 -164.66,260.94 -15.41,13.48 -26.17,29.95 -41.94,42.35 -32.81,25.8 -60.31,48.67 -99.1,74.05 -140.51,91.9 -354.01,141.95 -555.16,101.67 -333.38,-66.76 -617.07,-367.71 -606.42,-763.75 15.34,-570.22 649.8,-948.09 1180.9,-605.68 93.35,60.19 195.03,172.17 244.1,270.94 19.65,39.55 33.28,79.33 51.89,117.96 16.5,98.06 40.6,116.24 37.02,256.93 -1.17,45.8 -6.16,86.93 -14.47,129.9 -8.12,41.97 -23.52,77.02 -32.17,114.71z"/>
  <path class="fil0" d="M1206.18 671.16c5.77,157.22 0.48,324.02 0.61,482.34 0.07,90.37 -9.89,140.04 -74.17,169.7 -47.54,21.93 -163.31,12.86 -223.97,12.85 -201.04,-0.07 -298.15,29.28 -298.06,-187.48 0.04,-86.35 -4.32,-420.29 1.27,-477.75l594.31 0.34zm-460.32 -79.98c0,-51.87 -7.07,-91.35 29.5,-113.66 28.6,-17.45 94.68,-9.49 133.32,-9.7 151.3,-0.81 163.02,-11.05 163.02,123.61l-325.84 -0.25zm-79.77 -0.84c-85.86,5.61 -221.88,-27.36 -200.82,53.62 6.78,26.08 30.84,26.94 63.65,26.95 12.16,145.62 -11.61,440.15 3,558.7 9.8,79.51 58.6,137.56 115.83,164.91 65.01,31.06 179.52,20.84 260.94,20.4 81.57,-0.43 195.72,10.86 261,-20.46 156.74,-75.21 117.46,-269.91 117.46,-443.2 0,-86.89 -5.84,-196.38 1.08,-280.53 100.45,-0.03 68.02,-71.12 33.59,-78.1 -36.94,-7.49 -125.61,0.86 -170.73,-2.11 0,-84.48 -1.5,-128.7 -52.2,-170.03 -52.72,-42.98 -112.94,-31.13 -190.21,-31.55 -74.12,-0.4 -142.31,-10.34 -190.9,31 -49.91,42.46 -51.69,84.96 -51.69,170.4z"/>
  <path class="fil1" d="M729.89 796c45.02,-13.38 50.3,32.43 50.08,71.31l-0.08 246.73c0.03,40.14 7.89,85.88 -26.78,96.18 -50.32,14.96 -53.68,-31.3 -53.45,-71.51l0.07 -246.65c-0.04,-42.95 -9.68,-84.22 30.15,-96.06zm337.36 1.3c45.75,-15.15 50.7,30.99 50.46,70.07l-0.08 246.66c0.04,40.7 9.11,86.5 -28.94,96.54 -48.59,12.82 -51.48,-31.95 -51.25,-71.8l0.07 -246.71c-0.04,-47.42 -9.51,-81.76 29.74,-94.75zm-158.58 -3.11c48.9,7.81 39.55,41.63 39.45,88l0.01 246.65c0.15,45.36 5.56,75.36 -39.46,83.58 -46.71,-8.37 -39.5,-41.92 -39.41,-88.52l-0.01 -246.65c-0.16,-45.01 -8.01,-75.55 39.42,-83.06zm0 541.86c60.66,0.02 176.43,9.08 223.97,-12.85 64.28,-29.66 74.24,-79.33 74.17,-169.7 -0.13,-158.32 5.16,-325.12 -0.61,-482.34l-594.31 -0.34c-5.6,57.45 -1.23,391.4 -1.27,477.75 -0.09,216.76 97.03,187.41 298.06,187.48z"/>
  <path class="fil0" d="M729.89 796c-39.84,11.84 -30.19,53.11 -30.15,96.06l-0.07 246.65c-0.23,40.21 3.12,86.47 53.45,71.51 34.67,-10.31 26.81,-56.04 26.78,-96.18l0.08 -246.73c0.22,-38.88 -5.06,-84.68 -50.08,-71.31z"/>
  <path class="fil0" d="M1067.24 797.31c-39.25,13 -29.78,47.33 -29.74,94.75l-0.07 246.71c-0.23,39.85 2.66,84.63 51.25,71.8 38.04,-10.04 28.97,-55.83 28.94,-96.54l0.08 -246.66c0.23,-39.08 -4.71,-85.21 -50.46,-70.07z"/>
  <path class="fil0" d="M908.66 1212.42c45.02,-8.22 39.62,-38.22 39.46,-83.58l-0.01 -246.65c0.1,-46.37 9.45,-80.19 -39.45,-88 -47.43,7.51 -39.58,38.05 -39.42,83.06l0.01 246.65c-0.09,46.59 -7.3,80.15 39.41,88.52z"/>
 </g>
</svg>
