<?xml version="1.0" encoding="UTF-8"?>
<!DOCTYPE svg PUBLIC "-//W3C//DTD SVG 1.1//EN" "http://www.w3.org/Graphics/SVG/1.1/DTD/svg11.dtd">
<!-- Creator: CorelDRAW 2019 (64-Bit) -->
<svg xmlns="http://www.w3.org/2000/svg" xml:space="preserve" width="27px" height="32px" version="1.1" style="shape-rendering:geometricPrecision; text-rendering:geometricPrecision; image-rendering:optimizeQuality; fill-rule:evenodd; clip-rule:evenodd"
viewBox="0 0 4.54 5.29"
 xmlns:xlink="http://www.w3.org/1999/xlink"
 xmlns:xodm="http://www.corel.com/coreldraw/odm/2003">
 <defs>
  <style type="text/css">
   <![CDATA[
    .fil1 {fill:#008131}
    .fil0 {fill:#70D697}
   ]]>
  </style>
 </defs>
 <g id="Layer_x0020_1">
  <metadata id="CorelCorpID_0Corel-Layer"/>
  <path class="fil0" d="M2.27 5.29c0.35,0 0.62,-0.78 0.86,-0.93 0.04,-0.02 0.14,-0.05 0.23,-0.1 0.29,-0.18 0.35,-0.24 0.58,-0.46 0.02,-0.02 0.03,-0.03 0.05,-0.06l0.17 -0.22c0.15,-0.23 0.25,-0.46 0.31,-0.73 0.16,-0.63 0.02,-1.29 -0.33,-1.81 -0.38,-0.56 -1.1,-0.98 -1.78,-0.98 -0.41,0 -0.73,0.05 -1.06,0.21 -0.19,0.1 -0.34,0.19 -0.5,0.32 -0.23,0.2 -0.47,0.51 -0.59,0.78 -0.11,0.25 -0.21,0.55 -0.21,0.9 0,0.4 0.05,0.62 0.19,0.96 0.08,0.19 0.17,0.33 0.28,0.48 0.19,0.26 0.43,0.44 0.7,0.6 0.09,0.06 0.22,0.1 0.26,0.13 0.02,0.02 0.04,0.05 0.05,0.08 0.14,0.18 0.53,0.83 0.79,0.83z"/>
  <path class="fil1" d="M2.66 4.3c-0.13,0.03 -0.15,0.14 -0.05,0.19 0.07,0.02 0.13,-0.01 0.19,-0.02 -0.02,0.05 -0.1,0.14 -0.13,0.19 -0.35,0.48 -0.34,0.63 -0.72,0.11 -0.04,-0.06 -0.19,-0.25 -0.21,-0.3 0.07,0.01 0.18,0.06 0.23,-0.01 0.05,-0.08 0,-0.14 -0.11,-0.16 -0.15,-0.03 -0.3,-0.08 -0.43,-0.14 -0.29,-0.13 -0.32,-0.17 -0.53,-0.33 -0.13,-0.11 -0.3,-0.32 -0.4,-0.47 -0.89,-1.43 0.23,-3.31 1.94,-3.17 0.12,0.01 0.37,0.05 0.46,0.1 0.19,0.04 0.44,0.19 0.58,0.28 0.5,0.36 0.85,0.97 0.87,1.67 0,0.54 -0.18,0.93 -0.42,1.27 -0.3,0.43 -0.77,0.69 -1.27,0.79z"/>
  <g id="_1004676544">
   <path class="fil0" d="M1.07 3.01l0.68 0 0 0.39 -0.68 0 0 -0.39zm0.2 -2.1l0.26 0c0.06,0.01 0.05,0.04 0.05,0.13l0 0.52c0,0.09 -0.01,0.12 0.04,0.13 0.14,0.05 0.22,0.16 0.22,0.31l0 1.44c0,0.02 -0.02,0.04 -0.03,0.04l-0.79 0c-0.02,0 -0.04,-0.01 -0.04,-0.04l0 -1.48c0,-0.04 0.03,-0.1 0.04,-0.13 0.04,-0.06 0.08,-0.09 0.13,-0.12 0.06,-0.03 0.09,0 0.09,-0.08l0 -0.59c0,-0.02 -0.02,-0.13 0.03,-0.13zm-0.2 1.42l0.68 0 0 0.59 -0.68 0 0 -0.59zm0 -0.31c0,-0.05 0,-0.1 0.02,-0.14 0.02,-0.03 0.05,-0.06 0.09,-0.08 0.06,-0.03 0.15,-0.03 0.15,-0.18l0 -0.45 0.16 0 0 0.48c0,0.11 0.11,0.13 0.14,0.14 0.07,0.03 0.12,0.11 0.12,0.17l0 0.28 -0.68 0 0 -0.22zm0.26 -1.02l0.16 0 0 0.08 -0.16 0 0 -0.08z"/>
   <path class="fil0" d="M2.78 1.76c0,-0.13 0.09,-0.27 0.19,-0.35 0.09,-0.06 0.07,-0.1 0.07,-0.24l0.17 0c0,0.13 -0.02,0.18 0.06,0.24 0.04,0.03 0.08,0.07 0.11,0.1 0.07,0.1 0.09,0.21 0.09,0.33l0 1.56 -0.69 0 0 -1.64zm0.26 -0.76l0.17 0 0 0.08 -0.17 0 0 -0.08zm-0.09 0.32c-0.08,0.05 -0.13,0.1 -0.18,0.19 -0.05,0.08 -0.08,0.19 -0.08,0.3l0 1.63c0,0.02 0.02,0.04 0.04,0.04l0.78 0c0.03,0 0.04,-0.01 0.04,-0.04l0 -1.68c0,-0.08 -0.03,-0.16 -0.06,-0.23 -0.04,-0.07 -0.1,-0.14 -0.16,-0.19 -0.05,-0.04 -0.03,-0.04 -0.03,-0.18 0,-0.04 0,-0.09 0,-0.14 0,-0.02 0.01,-0.11 -0.04,-0.11l-0.27 0c-0.06,0 -0.04,0.1 -0.04,0.18 0,0.08 0,0.15 0,0.23z"/>
   <path class="fil0" d="M1.97 2.23c0,-0.1 0.03,-0.18 0.07,-0.26 0.06,-0.12 0.14,-0.22 0.14,-0.42l0 -0.38 0.17 0 0 0.38c0,0.2 0.08,0.3 0.14,0.42 0.04,0.08 0.07,0.16 0.07,0.26l0 1.17 -0.59 0 0 -1.17zm0.21 -1.23l0.17 0 0 0.08 -0.17 0 0 -0.08zm-0.3 1.25l0 1.19c0,0.02 0.02,0.04 0.04,0.04l0.7 0c0.02,0 0.03,-0.02 0.03,-0.04l0 -1.19c0,-0.15 -0.05,-0.27 -0.11,-0.38 -0.04,-0.06 -0.07,-0.14 -0.09,-0.21 -0.02,-0.14 -0.01,-0.51 -0.01,-0.69 0,-0.03 -0.01,-0.06 -0.04,-0.06l-0.26 0c-0.06,0 -0.04,0.08 -0.04,0.16 0,0.16 0,0.45 -0.02,0.59 -0.03,0.21 -0.2,0.29 -0.2,0.59z"/>
   <path class="fil0" d="M2.95 2.11l0.35 0 0 1.03 -0.35 0 0 -1.03zm-0.09 -0.03l0 1.09c0,0.03 0.02,0.06 0.05,0.06l0.43 0c0.02,0 0.04,-0.02 0.04,-0.05l0 -1.12c0,-0.01 -0.01,-0.03 -0.04,-0.03l-0.44 0c-0.02,0 -0.04,0.03 -0.04,0.05z"/>
   <path class="fil0" d="M2.14 2.63c0,-0.17 0.25,-0.17 0.25,0 0,0.16 -0.25,0.16 -0.25,0zm-0.09 -0.01c0,0.12 0.1,0.22 0.2,0.22 0.08,0 0.12,-0.01 0.17,-0.07 0.06,-0.06 0.08,-0.15 0.04,-0.23 -0.04,-0.11 -0.17,-0.16 -0.28,-0.11 -0.07,0.03 -0.13,0.11 -0.13,0.19z"/>
  </g>
 </g>
</svg>
