<?xml version="1.0" encoding="UTF-8"?>
<!DOCTYPE svg PUBLIC "-//W3C//DTD SVG 1.1//EN" "http://www.w3.org/Graphics/SVG/1.1/DTD/svg11.dtd">
<!-- Creator: CorelDRAW 2019 (64-Bit) -->
<svg xmlns="http://www.w3.org/2000/svg" xml:space="preserve" width="41.3308mm" height="51.5848mm" version="1.1" style="shape-rendering:geometricPrecision; text-rendering:geometricPrecision; image-rendering:optimizeQuality; fill-rule:evenodd; clip-rule:evenodd"
viewBox="0 0 523.05 652.82"
 xmlns:xlink="http://www.w3.org/1999/xlink"
 xmlns:xodm="http://www.corel.com/coreldraw/odm/2003">
 <defs>
  <style type="text/css">
   <![CDATA[
    .fil0 {fill:#232981}
    .fil1 {fill:#C0C4FC}
   ]]>
  </style>
 </defs>
 <g id="Layer_x0020_1">
  <metadata id="CorelCorpID_0Corel-Layer"/>
  <path class="fil0" d="M363.4 577.92c13.46,2.01 34.61,10.04 39.31,20.07 -2.87,11.07 -24.11,16.46 -37.48,21.14 -8.25,1.04 -20.25,4.81 -30.38,6.44 -32.89,5.3 -68.37,6.4 -101.5,4.74 -28.02,-1.41 -107.84,-11.13 -113.27,-32.32 1.51,-15.78 84.42,-32.4 91.59,-29.16 14.14,14.96 21.27,40.34 49.73,40.33 28.55,-0 35.61,-25.82 49.73,-40.37 10.89,-0.19 43.82,5.05 52.29,9.12zm-83.8 74.9l-36.93 0c-30.47,-1.05 -60.14,-4.69 -85.08,-10.96 -23.18,-5.83 -59.41,-16.39 -59.41,-45.14 0,-32.46 77.55,-48.45 98.18,-48.45l-25.32 -34.61c-2.04,-2.72 -4.47,-6.53 -6.62,-8.68 -3.95,-3.93 -18.69,-8.57 -29.52,-15.11 -31.49,-19.03 -58.3,-39.49 -80.26,-68.92 -13.26,-17.78 -24.05,-33.8 -32.79,-55.19 -16.32,-39.92 -21.85,-65.2 -21.85,-110.75 0,-40.24 11.59,-75 23.86,-103.65 13.67,-31.93 41.26,-66.89 68.32,-89.78 18.23,-15.42 35.63,-26.04 57.41,-36.94 38.42,-19.22 75.43,-24.64 121.99,-24.64 79.08,0 161.27,47.9 205.04,112.44 40.76,60.09 57.32,136.58 39.01,209.38 -7.8,31.02 -19.01,57.59 -36.2,83.65l-19.32 25.3c-2.7,3.35 -3.28,4.34 -6.5,7.52 -25.59,25.31 -32.79,31.9 -66.53,52.05 -10.47,6.25 -22.09,10.09 -25.86,12.39 -5.54,3.37 -30.43,38.99 -34.81,45.52 15.41,0 45.84,8.33 60.41,13.55 21.7,7.77 37.77,17.45 37.77,40 0,21.55 -42.6,35.85 -59.42,40.04 -25.1,6.25 -54.95,9.92 -85.57,10.96zm59.57 -166.1c-7.91,4.21 -23.2,7.23 -33.13,9.28 -14.44,2.99 -16.87,15.87 -4.72,21.42 7.32,1.79 14.33,-1.35 21.49,-2.52 -2.66,5.93 -11.38,16.33 -15.45,21.97 -5.05,7 -9.75,13.09 -15.13,20.57 -10.16,14.14 -23.39,38.83 -40.19,26.72 -5.98,-4.12 -21.58,-26.86 -26.82,-34.17 -5.14,-7.17 -22.66,-29.4 -25.21,-35.14 8.64,1.38 21.36,6.64 26.86,-1.14 6.12,-8.65 0.67,-15.72 -12.13,-18.13 -17.83,-3.35 -35.1,-9.09 -50.39,-16.01 -33.1,-14.99 -36.79,-20.26 -60.79,-38.69 -15.26,-11.72 -34.66,-36.55 -45.55,-53.93 -102.96,-164.18 25.88,-380.84 223.17,-364.56 13.56,1.12 42.82,5.59 52.89,10.98 21.92,4.47 50.82,21.81 66.39,32.82 58.52,41.38 99.08,111.35 100.27,191.35 0.93,62.4 -20.35,107.56 -47.83,146.88 -22.17,31.73 -76.78,74.97 -113.73,82.29z"/>
  <path class="fil0" d="M320.04 447.48c-6.95,4.54 -37.73,8.6 -48.44,9.16 -50.04,2.66 -93.97,-13.26 -130.97,-41.37 -37.75,-28.68 -75.86,-84.02 -75.05,-156.45 1.3,-116.01 100.61,-200.66 209.33,-193.05 9.48,0.66 40.6,5.08 46.4,9.33 17.8,3.76 42.69,18.22 54.55,27.15 90.73,68.28 108.58,189.51 39.35,279.79 -21.3,27.77 -62.04,58.77 -95.18,65.42zm145.35 -110.74c2.48,-10.83 6.91,-20.9 9.24,-32.95 2.39,-12.34 3.82,-24.16 4.16,-37.31 1.03,-40.41 -5.89,-45.64 -10.63,-73.8 -5.35,-11.1 -9.26,-22.52 -14.91,-33.88 -14.1,-28.37 -43.3,-60.54 -70.12,-77.83 -152.56,-98.36 -334.81,10.18 -339.21,173.98 -3.06,113.76 78.43,200.21 174.19,219.39 57.78,11.57 119.11,-2.81 159.47,-29.2 11.14,-7.29 19.04,-13.86 28.47,-21.27 4.53,-3.56 7.62,-8.29 12.05,-12.16 18.61,-16.28 36.81,-49.05 47.3,-74.95z"/>
  <path class="fil1" d="M301.32 517.43c-12.16,-5.55 -9.72,-18.43 4.72,-21.42 9.93,-2.05 25.22,-5.08 33.13,-9.28 36.95,-7.32 91.56,-50.55 113.73,-82.29 27.47,-39.32 48.76,-84.48 47.83,-146.88 -1.19,-80 -41.75,-149.97 -100.27,-191.35 -15.56,-11.01 -44.46,-28.35 -66.39,-32.82 -10.07,-5.39 -39.33,-9.86 -52.89,-10.98 -197.29,-16.28 -326.14,200.39 -223.17,364.56 10.89,17.37 30.29,42.2 45.55,53.93 23.99,18.43 27.68,23.7 60.78,38.69 15.29,6.92 32.56,12.66 50.39,16.01 12.81,2.41 18.26,9.48 12.13,18.13 -5.5,7.78 -18.22,2.52 -26.86,1.14 2.55,5.74 20.06,27.97 25.21,35.14 5.24,7.3 20.84,30.05 26.82,34.17 16.79,12.11 30.02,-12.58 40.19,-26.72 5.38,-7.48 10.08,-13.58 15.13,-20.57 4.07,-5.64 12.79,-16.04 15.45,-21.97 -7.16,1.17 -14.17,4.31 -21.49,2.52zm164.07 -180.68c-10.49,25.9 -28.69,58.68 -47.3,74.95 -4.43,3.87 -7.52,8.6 -12.05,12.16 -9.43,7.41 -17.33,13.98 -28.47,21.27 -40.36,26.4 -101.69,40.78 -159.47,29.2 -95.77,-19.18 -177.25,-105.62 -174.19,-219.39 4.41,-163.79 186.65,-272.34 339.21,-173.98 26.81,17.29 56.02,49.46 70.12,77.83 5.65,11.36 9.56,22.79 14.91,33.88 4.74,28.17 11.66,33.39 10.63,73.8 -0.33,13.16 -1.77,24.97 -4.16,37.31 -2.33,12.06 -6.76,22.12 -9.24,32.95z"/>
  <path class="fil0" d="M346.48 192.79c1.66,45.16 0.14,93.07 0.17,138.55 0.02,25.96 -2.84,40.23 -21.3,48.75 -13.66,6.3 -46.91,3.7 -64.34,3.69 -57.75,-0.02 -85.65,8.41 -85.62,-53.85 0.01,-24.8 -1.24,-120.73 0.37,-137.23l170.72 0.1zm-132.23 -22.97c0,-14.9 -2.03,-26.24 8.47,-32.65 8.22,-5.01 27.2,-2.73 38.3,-2.79 43.46,-0.23 46.83,-3.17 46.83,35.51l-93.6 -0.07zm-22.91 -0.24c-24.66,1.61 -63.73,-7.86 -57.69,15.4 1.95,7.49 8.86,7.74 18.28,7.74 3.49,41.83 -3.34,126.43 0.86,160.49 2.82,22.84 16.83,39.51 33.27,47.37 18.67,8.92 51.57,5.99 74.95,5.86 23.43,-0.12 56.22,3.12 74.97,-5.88 45.02,-21.6 33.74,-77.53 33.74,-127.31 0,-24.96 -1.68,-56.41 0.31,-80.58 28.86,-0.01 19.54,-20.43 9.65,-22.43 -10.61,-2.15 -36.08,0.25 -49.04,-0.61 0,-24.27 -0.43,-36.97 -14.99,-48.84 -15.14,-12.35 -32.44,-8.94 -54.64,-9.06 -21.29,-0.11 -40.88,-2.97 -54.84,8.9 -14.34,12.2 -14.85,24.4 -14.85,48.95z"/>
  <path class="fil1" d="M209.66 228.65c12.93,-3.84 14.45,9.32 14.39,20.48l-0.02 70.87c0.01,11.53 2.27,24.67 -7.69,27.63 -14.45,4.3 -15.42,-8.99 -15.35,-20.54l0.02 -70.85c-0.01,-12.34 -2.78,-24.19 8.66,-27.59zm96.91 0.37c13.14,-4.35 14.56,8.9 14.5,20.13l-0.02 70.85c0.01,11.69 2.62,24.85 -8.31,27.73 -13.96,3.68 -14.79,-9.18 -14.72,-20.63l0.02 -70.87c-0.01,-13.62 -2.73,-23.48 8.54,-27.22zm-45.55 -0.89c14.05,2.24 11.36,11.96 11.33,25.28l0 70.85c0.04,13.03 1.6,21.65 -11.34,24.01 -13.42,-2.4 -11.35,-12.04 -11.32,-25.43l-0 -70.85c-0.04,-12.93 -2.3,-21.7 11.32,-23.86zm0 155.65c17.42,0.01 50.68,2.61 64.34,-3.69 18.46,-8.52 21.32,-22.79 21.3,-48.75 -0.04,-45.48 1.48,-93.39 -0.17,-138.55l-170.72 -0.1c-1.61,16.5 -0.36,112.43 -0.37,137.23 -0.03,62.27 27.87,53.83 85.62,53.85z"/>
  <path class="fil0" d="M209.66 228.65c-11.44,3.4 -8.67,15.25 -8.66,27.59l-0.02 70.85c-0.07,11.55 0.9,24.84 15.35,20.54 9.96,-2.96 7.7,-16.1 7.69,-27.63l0.02 -70.87c0.06,-11.17 -1.45,-24.32 -14.39,-20.48z"/>
  <path class="fil0" d="M306.56 229.03c-11.27,3.73 -8.55,13.6 -8.54,27.22l-0.02 70.87c-0.07,11.45 0.77,24.31 14.72,20.63 10.93,-2.88 8.32,-16.04 8.31,-27.73l0.02 -70.85c0.07,-11.23 -1.35,-24.48 -14.5,-20.13z"/>
  <path class="fil0" d="M261.01 348.27c12.93,-2.36 11.38,-10.98 11.34,-24.01l-0 -70.85c0.03,-13.32 2.71,-23.03 -11.33,-25.28 -13.63,2.16 -11.37,10.93 -11.32,23.86l0 70.85c-0.03,13.38 -2.1,23.02 11.32,25.43z"/>
 </g>
</svg>
