<?xml version="1.0" encoding="UTF-8"?>
<!DOCTYPE svg PUBLIC "-//W3C//DTD SVG 1.1//EN" "http://www.w3.org/Graphics/SVG/1.1/DTD/svg11.dtd">
<!-- Creator: CorelDRAW 2019 (64-Bit) -->
<svg xmlns="http://www.w3.org/2000/svg" xml:space="preserve" width="41.3308mm" height="51.5848mm" version="1.1" style="shape-rendering:geometricPrecision; text-rendering:geometricPrecision; image-rendering:optimizeQuality; fill-rule:evenodd; clip-rule:evenodd"
viewBox="0 0 807.86 1008.28"
 xmlns:xlink="http://www.w3.org/1999/xlink"
 xmlns:xodm="http://www.corel.com/coreldraw/odm/2003">
 <defs>
  <style type="text/css">
   <![CDATA[
    .fil0 {fill:#333333}
    .fil1 {fill:#B3B3B3}
   ]]>
  </style>
 </defs>
 <g id="Layer_x0020_1">
  <metadata id="CorelCorpID_0Corel-Layer"/>
  <path class="fil0" d="M561.27 892.6c20.78,3.1 53.45,15.5 60.71,31 -4.43,17.1 -37.23,25.43 -57.89,32.65 -12.74,1.6 -31.27,7.43 -46.93,9.95 -50.8,8.18 -105.6,9.89 -156.77,7.32 -43.28,-2.17 -166.55,-17.18 -174.94,-49.91 2.33,-24.38 130.38,-50.04 141.46,-45.03 21.84,23.11 32.86,62.3 76.8,62.3 44.1,-0 55,-39.88 76.8,-62.36 16.82,-0.3 67.68,7.79 80.76,14.09zm-129.43 115.68l-57.04 0c-47.07,-1.61 -92.89,-7.24 -131.41,-16.93 -35.8,-9 -91.76,-25.32 -91.76,-69.72 0,-50.14 119.78,-74.83 151.64,-74.83l-39.1 -53.45c-3.15,-4.2 -6.9,-10.08 -10.23,-13.4 -6.1,-6.07 -28.87,-13.24 -45.59,-23.34 -48.64,-29.39 -90.05,-61 -123.96,-106.45 -20.48,-27.46 -37.14,-52.21 -50.64,-85.24 -25.2,-61.66 -33.75,-100.7 -33.75,-171.06 0,-62.15 17.9,-115.84 36.85,-160.08 21.11,-49.31 63.72,-103.32 105.52,-138.67 28.15,-23.81 55.03,-40.23 88.67,-57.06 59.34,-29.69 116.5,-38.05 188.42,-38.05 122.14,0 249.08,73.98 316.69,173.67 62.95,92.81 88.54,210.95 60.25,323.39 -12.05,47.91 -29.36,88.95 -55.91,129.2l-29.84 39.08c-4.17,5.17 -5.07,6.7 -10.05,11.62 -39.53,39.08 -50.64,49.27 -102.76,80.39 -16.16,9.65 -34.11,15.59 -39.94,19.14 -8.55,5.21 -47.01,60.23 -53.76,70.31 23.8,0 70.81,12.87 93.3,20.92 33.52,12 58.34,26.95 58.34,61.79 0,33.28 -65.79,55.37 -91.77,61.84 -38.77,9.66 -84.87,15.31 -132.17,16.93zm92 -256.54c-12.21,6.5 -35.84,11.16 -51.17,14.34 -22.3,4.61 -26.06,24.51 -7.28,33.08 11.31,2.76 22.13,-2.09 33.19,-3.9 -4.11,9.16 -17.58,25.22 -23.87,33.94 -7.8,10.81 -15.06,20.22 -23.37,31.78 -15.7,21.83 -36.13,59.97 -62.07,41.26 -9.24,-6.36 -33.33,-41.49 -41.43,-52.77 -7.95,-11.07 -34.99,-45.4 -38.94,-54.27 13.34,2.13 32.99,10.26 41.48,-1.75 9.45,-13.37 1.04,-24.28 -18.74,-28 -27.54,-5.18 -54.22,-14.04 -77.82,-24.73 -51.13,-23.15 -56.82,-31.29 -93.88,-59.76 -23.57,-18.11 -53.53,-56.46 -70.35,-83.29 -159.02,-253.57 39.97,-588.21 344.69,-563.07 20.95,1.73 66.14,8.63 81.69,16.96 33.86,6.91 78.5,33.69 102.53,50.69 90.39,63.92 153.02,171.97 154.87,295.54 1.44,96.38 -31.44,166.13 -73.87,226.86 -34.24,49.01 -118.59,115.79 -175.66,127.09z"/>
  <path class="fil0" d="M494.3 691.14c-10.73,7.02 -58.27,13.28 -74.81,14.16 -77.29,4.11 -145.14,-20.47 -202.28,-63.89 -58.3,-44.3 -117.16,-129.77 -115.91,-241.63 2.01,-179.17 155.39,-309.93 323.31,-298.16 14.64,1.03 62.7,7.85 71.66,14.42 27.5,5.81 65.93,28.13 84.26,41.93 140.13,105.46 167.71,292.7 60.78,432.14 -32.89,42.89 -95.82,90.77 -147,101.05zm224.49 -171.03c3.84,-16.72 10.67,-32.27 14.27,-50.89 3.69,-19.06 5.9,-37.31 6.42,-57.63 1.59,-62.42 -9.1,-70.49 -16.42,-113.99 -8.26,-17.14 -14.31,-34.79 -23.02,-52.33 -21.77,-43.82 -66.88,-93.5 -108.3,-120.2 -235.63,-151.91 -517.11,15.73 -523.92,268.71 -4.73,175.71 121.13,309.23 269.04,338.84 89.24,17.87 183.96,-4.33 246.3,-45.1 17.21,-11.26 29.41,-21.4 43.97,-32.85 6.99,-5.5 11.77,-12.81 18.61,-18.79 28.74,-25.14 56.85,-75.76 73.05,-115.77z"/>
  <path class="fil1" d="M465.39 799.17c-18.78,-8.57 -15.02,-28.47 7.28,-33.08 15.34,-3.17 38.96,-7.84 51.17,-14.34 57.06,-11.31 141.41,-78.08 175.66,-127.09 42.43,-60.73 75.31,-130.49 73.87,-226.86 -1.85,-123.57 -64.48,-231.62 -154.87,-295.54 -24.04,-17 -68.67,-43.78 -102.53,-50.69 -15.55,-8.33 -60.74,-15.23 -81.68,-16.96 -304.72,-25.14 -503.72,309.5 -344.69,563.07 16.83,26.83 46.78,65.18 70.35,83.29 37.06,28.47 42.76,36.61 93.88,59.76 23.61,10.69 50.29,19.55 77.82,24.73 19.78,3.72 28.2,14.63 18.74,28 -8.49,12.01 -28.14,3.89 -41.48,1.75 3.94,8.87 30.99,43.19 38.94,54.27 8.09,11.28 32.19,46.41 41.43,52.77 25.94,18.71 46.37,-19.42 62.07,-41.26 8.31,-11.55 15.56,-20.97 23.37,-31.78 6.29,-8.71 19.76,-24.78 23.86,-33.94 -11.06,1.81 -21.88,6.66 -33.19,3.9zm253.41 -279.06c-16.2,40.01 -44.31,90.63 -73.05,115.77 -6.84,5.98 -11.61,13.29 -18.61,18.79 -14.56,11.45 -26.76,21.59 -43.97,32.85 -62.33,40.77 -157.06,62.98 -246.3,45.1 -147.91,-29.62 -273.77,-163.14 -269.04,-338.84 6.8,-252.98 288.29,-420.63 523.92,-268.71 41.41,26.7 86.52,76.39 108.3,120.2 8.72,17.55 14.76,35.19 23.02,52.33 7.32,43.5 18.01,51.57 16.42,113.99 -0.52,20.32 -2.73,38.57 -6.42,57.63 -3.6,18.62 -10.43,34.17 -14.27,50.89z"/>
  <path class="fil0" d="M535.13 297.76c2.56,69.75 0.21,143.75 0.27,213.99 0.03,40.09 -4.38,62.13 -32.9,75.29 -21.09,9.73 -72.46,5.71 -99.37,5.7 -89.19,-0.03 -132.28,12.99 -132.24,-83.18 0.02,-38.31 -1.92,-186.47 0.56,-211.96l263.67 0.15zm-204.23 -35.48c0,-23.01 -3.14,-40.53 13.09,-50.43 12.69,-7.74 42.01,-4.21 59.15,-4.3 67.13,-0.36 72.32,-4.9 72.32,54.84l-144.56 -0.11zm-35.39 -0.37c-38.09,2.49 -98.44,-12.14 -89.1,23.79 3.01,11.57 13.68,11.95 28.24,11.95 5.39,64.61 -5.15,195.28 1.33,247.87 4.35,35.28 26,61.03 51.39,73.16 28.84,13.78 79.64,9.25 115.77,9.05 36.19,-0.19 86.83,4.82 115.8,-9.08 69.54,-33.37 52.11,-119.75 52.11,-196.63 0,-38.55 -2.59,-87.13 0.48,-124.46 44.57,-0.01 30.18,-31.55 14.9,-34.65 -16.39,-3.32 -55.73,0.38 -75.75,-0.94 0,-37.48 -0.66,-57.1 -23.16,-75.44 -23.39,-19.07 -50.11,-13.81 -84.39,-14 -32.88,-0.18 -63.14,-4.59 -84.7,13.75 -22.14,18.84 -22.93,37.69 -22.93,75.6z"/>
  <path class="fil1" d="M323.82 353.15c19.97,-5.93 22.32,14.39 22.22,31.64l-0.04 109.46c0.01,17.81 3.5,38.1 -11.88,42.67 -22.33,6.64 -23.81,-13.89 -23.71,-31.73l0.03 -109.43c-0.02,-19.06 -4.3,-37.36 13.38,-42.62zm149.67 0.58c20.3,-6.72 22.49,13.75 22.39,31.09l-0.04 109.43c0.02,18.06 4.04,38.37 -12.84,42.83 -21.56,5.69 -22.84,-14.17 -22.74,-31.86l0.03 -109.45c-0.02,-21.04 -4.22,-36.27 13.19,-42.04zm-70.35 -1.38c21.7,3.47 17.55,18.47 17.5,39.04l0 109.43c0.07,20.12 2.46,33.44 -17.51,37.08 -20.72,-3.71 -17.53,-18.6 -17.49,-39.27l-0 -109.43c-0.07,-19.97 -3.56,-33.52 17.49,-36.85zm0 240.4c26.91,0.01 78.27,4.03 99.37,-5.7 28.52,-13.16 32.94,-35.19 32.9,-75.29 -0.06,-70.24 2.29,-144.24 -0.27,-213.99l-263.67 -0.15c-2.48,25.49 -0.55,173.65 -0.56,211.96 -0.04,96.17 43.04,83.15 132.24,83.18z"/>
  <path class="fil0" d="M323.82 353.15c-17.67,5.25 -13.39,23.56 -13.38,42.62l-0.03 109.43c-0.1,17.84 1.39,38.36 23.71,31.73 15.38,-4.57 11.89,-24.86 11.88,-42.67l0.04 -109.46c0.1,-17.25 -2.25,-37.57 -22.22,-31.64z"/>
  <path class="fil0" d="M473.49 353.73c-17.41,5.77 -13.21,21 -13.19,42.04l-0.03 109.45c-0.1,17.68 1.18,37.55 22.74,31.86 16.88,-4.45 12.86,-24.77 12.84,-42.83l0.04 -109.43c0.1,-17.34 -2.09,-37.81 -22.39,-31.09z"/>
  <path class="fil0" d="M403.13 537.9c19.97,-3.65 17.58,-16.96 17.51,-37.08l-0 -109.43c0.04,-20.57 4.19,-35.58 -17.5,-39.04 -21.05,3.33 -17.56,16.88 -17.49,36.85l0 109.43c-0.04,20.67 -3.24,35.56 17.49,39.27z"/>
 </g>
</svg>
