<?xml version="1.0" encoding="UTF-8"?>
<!DOCTYPE svg PUBLIC "-//W3C//DTD SVG 1.1//EN" "http://www.w3.org/Graphics/SVG/1.1/DTD/svg11.dtd">
<!-- Creator: CorelDRAW 2019 (64-Bit) -->
<svg xmlns="http://www.w3.org/2000/svg" xml:space="preserve" width="27px" height="32px" version="1.1" style="shape-rendering:geometricPrecision; text-rendering:geometricPrecision; image-rendering:optimizeQuality; fill-rule:evenodd; clip-rule:evenodd"
viewBox="0 0 15.35 17.88"
 xmlns:xlink="http://www.w3.org/1999/xlink"
 xmlns:xodm="http://www.corel.com/coreldraw/odm/2003">
 <defs>
  <style type="text/css">
   <![CDATA[
    .fil1 {fill:#9A4C2F}
    .fil0 {fill:#EBC7B2}
   ]]>
  </style>
 </defs>
 <g id="Layer_x0020_1">
  <metadata id="CorelCorpID_0Corel-Layer"/>
  <path class="fil0" d="M7.67 17.88c1.2,0 2.11,-2.63 2.93,-3.13 0.11,-0.06 0.45,-0.18 0.76,-0.36 0.99,-0.59 1.2,-0.79 1.95,-1.53 0.1,-0.09 0.11,-0.12 0.19,-0.22l0.57 -0.74c0.5,-0.77 0.83,-1.55 1.06,-2.46 0.54,-2.13 0.05,-4.38 -1.14,-6.14 -1.29,-1.89 -3.7,-3.3 -6.02,-3.3 -1.37,0 -2.45,0.16 -3.58,0.72 -0.64,0.32 -1.15,0.63 -1.69,1.09 -0.79,0.67 -1.6,1.69 -2,2.63 -0.36,0.84 -0.7,1.86 -0.7,3.04 0,1.34 0.16,2.08 0.64,3.25 0.26,0.63 0.57,1.1 0.96,1.62 0.65,0.87 1.43,1.47 2.36,2.02 0.32,0.2 0.75,0.33 0.86,0.45 0.07,0.06 0.14,0.17 0.2,0.25 0.46,0.63 1.78,2.81 2.65,2.81z"/>
  <path class="fil1" d="M8.99 14.56c-0.42,0.09 -0.5,0.47 -0.14,0.63 0.22,0.05 0.42,-0.04 0.63,-0.07 -0.08,0.17 -0.33,0.48 -0.45,0.64 -1.17,1.62 -1.16,2.13 -2.41,0.39 -0.15,-0.21 -0.67,-0.87 -0.74,-1.04 0.25,0.05 0.63,0.2 0.79,-0.03 0.18,-0.25 0.02,-0.46 -0.36,-0.53 -0.52,-0.1 -1.03,-0.27 -1.48,-0.47 -0.97,-0.44 -1.08,-0.6 -1.78,-1.14 -0.45,-0.34 -1.02,-1.07 -1.34,-1.58 -3.02,-4.82 0.76,-11.17 6.55,-10.7 0.4,0.04 1.26,0.17 1.55,0.33 0.65,0.13 1.49,0.64 1.95,0.96 1.72,1.21 2.91,3.27 2.94,5.61 0.03,1.84 -0.59,3.16 -1.4,4.31 -1.01,1.44 -2.62,2.34 -4.31,2.69z"/>
  <path class="fil0" d="M4.48 8.08c-0.22,0 -0.39,-0.06 -0.48,-0.06 0.15,-0.32 0.1,-0.27 0.31,-0.58 0.22,-0.33 0.57,-0.66 0.9,-0.88l0.28 -0.18c0.13,-0.07 0.24,-0.08 0.24,-0.24 0,-0.08 -0.07,-0.15 -0.17,-0.15 -0.1,0 -0.43,0.22 -0.54,0.3l-0.36 0.28c-0.16,0.14 -0.28,0.24 -0.42,0.43l-0.44 0.63c0,-0.42 0.04,-0.64 0.19,-0.93 0.08,-0.17 0.21,-0.34 0.34,-0.48 0.41,-0.45 1.22,-0.7 1.82,-0.7l0.21 0c0,0.34 -0.08,0.68 -0.15,0.95 -0.14,0.53 -0.37,1.08 -0.85,1.38 -0.2,0.13 -0.56,0.23 -0.88,0.23zm-1.01 -0.61c0,0.39 0.12,0.68 0.12,0.7 0,0.19 -0.31,0.88 0.06,0.88 0.19,0 0.15,-0.26 0.2,-0.53 0.01,-0.05 0.04,-0.14 0.04,-0.2 0.1,0.05 0.48,0.09 0.63,0.09 1.14,0 1.76,-0.85 2,-1.84 0.12,-0.49 0.17,-0.68 0.17,-1.21 0,-0.22 -0.29,-0.17 -0.5,-0.17 -0.65,0 -1.41,0.23 -1.88,0.61 -0.5,0.41 -0.84,0.99 -0.84,1.67z"/>
  <path class="fil0" d="M8.04 10.45c0.25,-0.28 0.58,-0.86 0.59,-1.18 0.06,0.04 0.15,0.26 0.2,0.34 0.07,0.12 0.14,0.22 0.23,0.33 0.38,0.49 1.04,0.94 1.64,1.14 0.06,0.02 0.13,0.05 0.21,0.07 0.06,0.02 0.18,0.04 0.22,0.06 0.07,0.04 0.05,0.11 0,0.15 -0.08,0.05 -0.67,0.1 -0.75,0.1 -0.31,-0.01 -0.66,-0.07 -0.96,-0.15 -0.44,-0.13 -1.14,-0.51 -1.38,-0.86zm-3.5 0.67c-0.03,-0.02 -0.03,-0.1 0,-0.12 0.22,-0.16 0.82,-0.08 1.77,-0.83 0.17,-0.13 0.31,-0.27 0.45,-0.44 0.38,-0.48 0.56,-0.87 0.68,-1.49 0.08,-0.38 -0.05,-0.88 0.5,-0.88 0.49,0 0.45,0.82 0.45,1.2 0,0.5 -0.16,1.01 -0.35,1.33 -0.42,0.73 -1.17,1.16 -2.02,1.31 -0.48,0.09 -0.66,0.07 -1.14,0 -0.13,-0.02 -0.24,-0.02 -0.34,-0.08zm4.25 -2.46c0,-0.07 0.19,0.07 0.26,0.1 0.09,0.04 0.19,0.07 0.29,0.1 0.62,0.15 1.28,0.07 1.87,-0.1 0.14,-0.04 0.25,-0.09 0.37,-0.12 -0.04,0.18 -0.45,0.65 -0.61,0.78 -0.33,0.28 -0.82,0.56 -1.3,0.62 -0.07,0 -0.07,0 -0.19,-0.12 -0.03,-0.04 -0.05,-0.06 -0.08,-0.1 -0.25,-0.24 -0.6,-0.76 -0.61,-1.16zm-0.69 -1.63c-0.17,0 -0.11,-0.04 -0.32,0 0.01,-0.11 0.02,-0.22 0.02,-0.34 0.11,0 0.22,0 0.32,0 0,0.11 -0.02,0.23 -0.02,0.34zm-3.9 3.99c0.01,0.11 0.02,0.25 0.06,0.34 0.07,0.11 0.27,0.22 1.33,0.22 0.59,0 1.31,-0.23 1.78,-0.54 0.12,-0.08 0.36,-0.24 0.43,-0.35 0.09,0.06 0.15,0.14 0.23,0.22 0.49,0.5 1.48,0.87 2.27,0.87 0.28,0 0.9,-0.01 1.08,-0.2 0.18,-0.18 0.18,-0.54 -0.14,-0.68 -0.16,-0.05 -0.32,-0.1 -0.47,-0.15 -0.17,-0.06 -0.73,-0.32 -0.82,-0.44 0.22,0 0.71,-0.25 0.93,-0.4 0.28,-0.19 0.49,-0.39 0.71,-0.66 0.1,-0.13 0.34,-0.43 0.34,-0.61 0,-0.17 -0.14,-0.3 -0.3,-0.33 -0.11,-0.02 -0.37,0.09 -0.5,0.12 -0.76,0.19 -1.42,0.28 -2.15,-0.05 -0.1,-0.05 -0.19,-0.14 -0.27,-0.16 0,-0.37 -0.07,-0.92 -0.28,-1.06 0.03,-0.15 0.01,-0.27 0.02,-0.45 0,-0.43 -0.11,-0.35 -0.53,-0.36 -0.4,-0.01 -0.43,-0.05 -0.46,0.32 -0.03,0.45 0.12,0.36 -0.13,0.62 -0.35,0.39 0.04,1 -0.71,2.08 -0.27,0.37 -0.68,0.72 -1.1,0.93 -0.58,0.28 -1.02,0.33 -1.12,0.39 -0.1,0.06 -0.2,0.19 -0.2,0.33z"/>
  <path class="fil0" d="M10.28 5.77l-0.34 -0.49 0.23 -0.15 0.33 0.49 -0.22 0.15zm0.13 1.19c-0.11,0.17 -0.21,0.22 -0.34,0.27 0.45,0.2 0.85,0.06 1.08,-0.24 0.17,-0.22 0.26,-0.02 0.56,-0.35 0.17,-0.18 0.22,-0.44 0.22,-0.68 -0.31,0.32 -0.56,0.23 -0.59,0.25 -0.02,0.02 -0.16,0.5 -0.74,0.56 -0.01,0 -0.09,0.01 -0.09,0 -0.01,0.03 -0.02,0.08 -0.1,0.19zm-1.68 -2c-0.05,0.03 -0.09,0.07 -0.12,0.12 1.14,-0.19 1.81,1.01 1.28,1.93 0.2,-0.04 0.34,-0.18 0.39,-0.39 0.06,-0.25 0.38,0.05 0.7,-0.31 0.21,-0.24 0.09,-0.41 0.32,-0.37 0.21,0.03 0.36,-0.04 0.49,-0.22 -1.32,0.11 -1.82,-1.13 -1.31,-1.91 -0.16,0.03 -0.32,0.19 -0.37,0.36 -0.09,0.32 -0.25,-0.04 -0.63,0.28 -0.3,0.25 -0.14,0.47 -0.39,0.43 -0.12,-0.02 -0.25,0 -0.36,0.08zm1.31 -1.19c0.1,-0.11 0.21,-0.15 0.29,-0.18 -0.36,-0.15 -0.82,-0.13 -1.07,0.22 -0.16,0.21 -0.24,0.06 -0.52,0.31 -0.2,0.18 -0.29,0.47 -0.28,0.73 0.16,-0.16 0.28,-0.23 0.59,-0.23 0.14,-0.33 0.45,-0.6 0.83,-0.57 0.05,-0.12 0.05,-0.15 0.16,-0.28zm-2.05 -0.35c0.19,0.28 0.57,0.48 0.87,0.27 0.04,-0.02 -0.07,-0.72 -1.01,-0.55l0.14 0.28zm-0.07 0.33c-0.15,-0.14 -0.45,-0.63 -0.34,-0.77 0.1,-0.13 0.76,-0.24 1.17,0.05 0,-0.2 0.11,-0.48 0.3,-0.6l0.16 0.19c-0.28,0.23 -0.2,0.64 -0.08,0.94 0.42,-0.44 0.97,-0.38 1.45,-0.14 0.61,0.3 0.1,0.22 -0.03,0.96 -0.09,0.51 0.38,1.11 1.08,1.09 0.41,-0.01 0.53,-0.22 0.56,0.33 0.02,0.61 -0.2,1.2 -0.83,1.34 -0.11,0.18 -0.38,0.36 -0.57,0.41 -0.49,0.13 -1.19,-0.2 -1.26,-0.34 -0.08,-0.18 0.46,-0.52 0.24,-1.2 -0.19,-0.57 -0.73,-0.8 -1.26,-0.64 -0.19,0.05 -0.24,0.08 -0.29,-0.19 -0.07,-0.4 -0.01,-0.83 0.24,-1.15 -0.21,-0.05 -0.38,-0.12 -0.54,-0.28z"/>
 </g>
</svg>
