<?xml version="1.0" encoding="UTF-8"?>
<!DOCTYPE svg PUBLIC "-//W3C//DTD SVG 1.1//EN" "http://www.w3.org/Graphics/SVG/1.1/DTD/svg11.dtd">
<!-- Creator: CorelDRAW 2019 (64-Bit) -->
<svg xmlns="http://www.w3.org/2000/svg" xml:space="preserve" width="27px" height="32px" version="1.1" style="shape-rendering:geometricPrecision; text-rendering:geometricPrecision; image-rendering:optimizeQuality; fill-rule:evenodd; clip-rule:evenodd"
viewBox="0 0 6.24 7.26"
 xmlns:xlink="http://www.w3.org/1999/xlink"
 xmlns:xodm="http://www.corel.com/coreldraw/odm/2003">
 <defs>
  <style type="text/css">
   <![CDATA[
    .fil1 {fill:#333333}
    .fil0 {fill:#B3B3B3}
    .fil2 {fill:#B3B3B3;fill-rule:nonzero}
   ]]>
  </style>
 </defs>
 <g id="Layer_x0020_1">
  <metadata id="CorelCorpID_0Corel-Layer"/>
  <path class="fil0" d="M3.12 7.26c0.48,0 0.85,-1.06 1.19,-1.27 0.04,-0.02 0.18,-0.07 0.3,-0.14 0.41,-0.24 0.49,-0.32 0.8,-0.62 0.04,-0.04 0.04,-0.05 0.08,-0.09l0.23 -0.31c0.2,-0.31 0.33,-0.62 0.43,-0.99 0.22,-0.87 0.02,-1.78 -0.47,-2.5 -0.52,-0.77 -1.5,-1.34 -2.44,-1.34 -0.56,0 -1,0.06 -1.46,0.29 -0.26,0.13 -0.46,0.26 -0.68,0.44 -0.32,0.28 -0.65,0.69 -0.82,1.07 -0.14,0.35 -0.28,0.76 -0.28,1.24 0,0.54 0.07,0.84 0.26,1.32 0.1,0.26 0.23,0.45 0.39,0.66 0.26,0.35 0.58,0.59 0.96,0.82 0.13,0.08 0.3,0.13 0.35,0.18 0.03,0.03 0.05,0.07 0.08,0.1 0.18,0.26 0.72,1.14 1.08,1.14z"/>
  <path class="fil1" d="M3.65 5.91c-0.17,0.04 -0.2,0.19 -0.06,0.26 0.09,0.02 0.17,-0.02 0.26,-0.03 -0.03,0.07 -0.14,0.19 -0.19,0.26 -0.47,0.66 -0.47,0.87 -0.98,0.16 -0.06,-0.09 -0.27,-0.35 -0.3,-0.42 0.11,0.01 0.26,0.08 0.32,-0.02 0.08,-0.1 0.01,-0.18 -0.14,-0.21 -0.21,-0.04 -0.42,-0.11 -0.6,-0.19 -0.4,-0.18 -0.44,-0.24 -0.73,-0.46 -0.18,-0.14 -0.41,-0.44 -0.54,-0.65 -1.23,-1.95 0.31,-4.54 2.66,-4.34 0.16,0.01 0.51,0.06 0.63,0.13 0.26,0.05 0.61,0.26 0.79,0.39 0.7,0.49 1.19,1.33 1.2,2.28 0.01,0.74 -0.24,1.28 -0.57,1.75 -0.41,0.59 -1.06,0.95 -1.75,1.09z"/>
  <path class="fil2" d="M3.14 3.85l-0.21 0 0 -0.84c0,-0.39 -0.56,-0.39 -0.56,0l0 0.84 -0.22 0 0 -0.84c0,-0.39 -0.56,-0.39 -0.56,0l0 0.84 -0.21 0 0 -0.83c0,-0.52 0.66,-0.66 0.88,-0.28 0.22,-0.38 0.88,-0.24 0.88,0.28l0 0.83zm0.44 0l-0.21 0 0 -1.29 0.21 0 0 1.29zm-0.21 -1.49c0,-0.1 -0.03,-0.26 0.1,-0.26 0.14,0 0.11,0.16 0.11,0.26l-0.21 0zm1.25 0.84c0.25,0.15 0.23,0.4 0.23,0.65l-0.22 0c0,-0.18 0.03,-0.34 -0.08,-0.46 -0.13,-0.15 -0.53,-0.14 -0.53,0.23l0 0.23 -0.21 0c0,-0.25 -0.03,-0.5 0.22,-0.65 -0.25,-0.15 -0.22,-0.39 -0.22,-0.64l0.21 0c0,0.17 -0.03,0.34 0.08,0.45 0.13,0.16 0.53,0.14 0.53,-0.23l0 -0.22 0.22 0c0,0.25 0.02,0.49 -0.23,0.64z"/>
 </g>
</svg>
