<?xml version="1.0" encoding="UTF-8"?>
<!DOCTYPE svg PUBLIC "-//W3C//DTD SVG 1.1//EN" "http://www.w3.org/Graphics/SVG/1.1/DTD/svg11.dtd">
<!-- Creator: CorelDRAW 2019 (64-Bit) -->
<svg xmlns="http://www.w3.org/2000/svg" xml:space="preserve" width="27px" height="32px" version="1.1" style="shape-rendering:geometricPrecision; text-rendering:geometricPrecision; image-rendering:optimizeQuality; fill-rule:evenodd; clip-rule:evenodd"
viewBox="0 0 7.99 9.31"
 xmlns:xlink="http://www.w3.org/1999/xlink"
 xmlns:xodm="http://www.corel.com/coreldraw/odm/2003">
 <defs>
  <style type="text/css">
   <![CDATA[
    .fil1 {fill:#CCCC33}
    .fil2 {fill:#FF6600}
    .fil0 {fill:#FFFFCC}
   ]]>
  </style>
 </defs>
 <g id="Layer_x0020_1">
  <metadata id="CorelCorpID_0Corel-Layer"/>
  <path class="fil0" d="M3.99 9.31c0.63,0 1.1,-1.37 1.53,-1.63 0.06,-0.03 0.23,-0.09 0.39,-0.19 0.52,-0.31 0.63,-0.41 1.02,-0.79 0.05,-0.05 0.06,-0.07 0.1,-0.12l0.29 -0.39c0.27,-0.39 0.44,-0.8 0.56,-1.27 0.28,-1.12 0.02,-2.28 -0.6,-3.2 -0.67,-0.99 -1.92,-1.72 -3.13,-1.72 -0.71,0 -1.28,0.08 -1.86,0.38 -0.34,0.16 -0.6,0.33 -0.88,0.56 -0.42,0.35 -0.84,0.88 -1.05,1.37 -0.18,0.44 -0.36,0.97 -0.36,1.59 0,0.69 0.08,1.08 0.33,1.69 0.14,0.32 0.3,0.57 0.5,0.84 0.34,0.45 0.75,0.76 1.23,1.05 0.17,0.1 0.39,0.17 0.45,0.23 0.03,0.04 0.07,0.1 0.1,0.14 0.24,0.32 0.93,1.46 1.38,1.46z"/>
  <path class="fil1" d="M4.68 7.58c-0.23,0.04 -0.26,0.24 -0.08,0.32 0.12,0.03 0.22,-0.02 0.33,-0.03 -0.04,0.09 -0.17,0.25 -0.23,0.33 -0.61,0.84 -0.61,1.11 -1.26,0.2 -0.08,-0.11 -0.35,-0.45 -0.38,-0.53 0.13,0.02 0.32,0.1 0.41,-0.02 0.09,-0.13 0.01,-0.24 -0.19,-0.28 -0.27,-0.05 -0.54,-0.14 -0.77,-0.24 -0.5,-0.23 -0.56,-0.31 -0.93,-0.59 -0.23,-0.18 -0.53,-0.56 -0.69,-0.83 -1.58,-2.51 0.39,-5.82 3.41,-5.57 0.2,0.02 0.65,0.09 0.8,0.17 0.34,0.07 0.78,0.33 1.02,0.5 0.89,0.63 1.51,1.7 1.53,2.92 0.01,0.96 -0.31,1.65 -0.73,2.25 -0.52,0.75 -1.36,1.22 -2.24,1.4z"/>
  <g id="_899577824">
   <path class="fil2" d="M5.01 2.56c0,-0.05 0.03,-0.08 0.08,-0.08l0.42 0c0.11,0 0.09,0.11 0.09,0.22l-0.59 0 0 -0.14zm0.08 0.28l0 0.21c0,0.08 -0.11,0.09 -0.18,0.13 -0.17,0.11 -0.33,0.33 -0.33,0.54 0.48,0 0.97,0 1.45,0 -0.03,-0.23 -0.14,-0.41 -0.32,-0.53 -0.22,-0.14 -0.19,0 -0.19,-0.35l-0.43 0zm-0.14 0.15l0 -0.15c-0.12,0 -0.08,-0.11 -0.08,-0.31 0,-0.1 0.1,-0.2 0.2,-0.2l0.47 0c0.1,0 0.2,0.1 0.2,0.2 0,0.2 0.03,0.31 -0.07,0.31l0 0.16c0.11,0.03 0.27,0.18 0.35,0.28 0.07,0.1 0.16,0.29 0.16,0.47 0,0.7 0,1.41 0,2.11 0,0.07 -0.05,0.15 -0.08,0.18 -0.04,0.04 -0.12,0.09 -0.18,0.09 -0.22,0 -0.17,0.01 -0.32,-0.09 -0.06,0.03 -0.11,0.09 -0.2,0.09 -0.27,0 -0.22,0.02 -0.39,-0.09 -0.15,0.1 -0.1,0.09 -0.32,0.09 -0.12,0 -0.26,-0.14 -0.26,-0.27l0 -2.11c0,-0.2 0.1,-0.39 0.18,-0.5 0.07,-0.08 0.22,-0.21 0.34,-0.26zm1.08 2.19l-1.46 0 0 0.63c0,0.11 0.06,0.17 0.18,0.17 0.26,0 0.14,-0.22 0.24,-0.22 0.13,0 0.07,0.07 0.12,0.15 0.05,0.1 0.34,0.1 0.39,0 0.04,-0.09 -0.01,-0.15 0.11,-0.15 0.11,0 0,0.22 0.23,0.22 0.2,0 0.19,-0.11 0.19,-0.27 0,-0.18 0,-0.35 0,-0.53zm0 -1.31c-0.48,0 -0.97,0 -1.46,0l0 1.16 1.46 0 0 -1.16z"/>
   <path class="fil2" d="M2.68 4.38l1.46 0 0 0.14 -1.46 0 0 -0.14zm0.15 0.29c0.05,0.44 0.09,0.87 0.13,1.31l0.89 0c0,-0.12 0.05,-0.51 0.07,-0.66l0.04 -0.5c0.01,-0.04 0.02,-0.11 0.02,-0.15l-1.15 0zm-0.15 0l-0.08 0c-0.04,0 -0.07,-0.03 -0.07,-0.07l0 -0.31c0,-0.03 0.04,-0.06 0.07,-0.06l0.73 0 0 -0.36c0,-0.06 0.26,-0.3 0.28,-0.3 0.07,0 0.09,0.02 0.09,0.1 0,0.04 -0.22,0.2 -0.22,0.24l0 0.32 0.73 0c0.04,0 0.07,0.03 0.07,0.07 0,0.38 0.03,0.37 -0.15,0.37 0,0.14 -0.04,0.41 -0.06,0.57 -0.02,0.26 -0.05,0.52 -0.07,0.77 -0.01,0.06 -0.02,0.12 -0.08,0.12l-1.02 0c-0.1,0 -0.09,-0.16 -0.1,-0.3 -0.04,-0.39 -0.08,-0.77 -0.12,-1.16z"/>
   <path class="fil2" d="M4.43 1.9l0.44 0 0 0.14 -0.44 0 0 -0.14zm-2.63 0.61l0 3.4c0,0.11 0.09,0.22 0.2,0.22l0.62 0c0.06,0 0.1,-0.15 -0.02,-0.15l-0.42 0c-0.1,0 -0.2,0.02 -0.23,-0.06 -0.01,-0.06 0,-3.16 0,-3.73l0.44 0 0 0.67c0,0.1 0.1,0.2 0.2,0.2l0.32 0c0.09,0 0.15,-0.05 0.18,-0.11 0.04,-0.08 0,-0.18 0.11,-0.18l0.42 0c0.1,0 0.06,0.1 0.1,0.18 0.03,0.05 0.1,0.11 0.18,0.11l0.33 0c0.1,0 0.2,-0.1 0.2,-0.2l0 -0.67 0.51 0c0.04,0 0.07,-0.03 0.07,-0.07l0 -0.3c0,-0.04 -0.03,-0.07 -0.07,-0.07l-0.58 0c-0.1,0 -0.08,0.13 -0.08,0.26l0 0.67c0,0.27 0.04,0.24 -0.35,0.24 -0.1,0 -0.07,-0.11 -0.11,-0.18 -0.03,-0.06 -0.09,-0.11 -0.18,-0.11l-0.47 0c-0.08,0 -0.14,0.05 -0.17,0.11 -0.05,0.07 -0.01,0.18 -0.11,0.18l-0.28 0c-0.05,0 -0.07,-0.03 -0.08,-0.08 0,-0.05 0,-0.12 0,-0.17l0 -0.82c0,-0.06 -0.01,-0.1 -0.07,-0.1l-0.59 0c-0.04,0 -0.07,0.03 -0.07,0.07l0 0.69zm0.15 -0.61l0.44 0 0 0.14 -0.44 0 0 -0.14z"/>
  </g>
 </g>
</svg>
