<?xml version="1.0" encoding="UTF-8"?>
<!DOCTYPE svg PUBLIC "-//W3C//DTD SVG 1.1//EN" "http://www.w3.org/Graphics/SVG/1.1/DTD/svg11.dtd">
<!-- Creator: CorelDRAW 2019 (64-Bit) -->
<svg xmlns="http://www.w3.org/2000/svg" xml:space="preserve" width="41.3309mm" height="51.5848mm" version="1.1" style="shape-rendering:geometricPrecision; text-rendering:geometricPrecision; image-rendering:optimizeQuality; fill-rule:evenodd; clip-rule:evenodd"
viewBox="0 0 23038.91 28754.7"
 xmlns:xlink="http://www.w3.org/1999/xlink"
 xmlns:xodm="http://www.corel.com/coreldraw/odm/2003">
 <defs>
  <style type="text/css">
   <![CDATA[
    .fil0 {fill:#E32A0C}
    .fil1 {fill:#FFD5CF}
   ]]>
  </style>
 </defs>
 <g id="Layer_x0020_1">
  <metadata id="CorelCorpID_0Corel-Layer"/>
  <path class="fil0" d="M16006.6 25455.69c592.71,88.35 1524.34,442.09 1731.36,884.08 -126.37,487.52 -1061.78,725.16 -1650.98,931.12 -363.44,45.76 -891.77,211.77 -1338.27,283.67 -1448.81,233.39 -3011.66,281.95 -4471,208.7 -1234.2,-61.99 -4749.77,-490.03 -4989.13,-1423.5 66.39,-695.17 3718.31,-1427.12 4034.31,-1284.25 622.92,659.16 936.98,1776.68 2190.24,1776.63 1257.72,-0.11 1568.54,-1137.43 2190.35,-1778.3 479.78,-8.42 1930.2,222.25 2303.12,401.85zm-3691.11 3299.01l-1626.51 0c-1342.28,-46.04 -2649.06,-206.47 -3747.63,-482.73 -1020.87,-256.64 -2616.84,-721.98 -2616.84,-1988.39 0,-1429.85 3415.96,-2134.11 4324.4,-2134.11l-1115.13 -1524.45c-89.75,-119.74 -196.72,-287.58 -291.76,-382.17 -173.92,-173.08 -823.37,-377.49 -1300.14,-665.57 -1386.99,-838.03 -2568.12,-1739.56 -3535.03,-3035.85 -584.24,-783.18 -1059.28,-1488.94 -1444.29,-2430.82 -718.74,-1758.34 -962.51,-2871.91 -962.51,-4878.31 0,-1772.39 510.49,-3303.53 1050.8,-4565.32 602.19,-1406.27 1817.38,-2946.44 3009.38,-3954.66 802.92,-679.11 1569.38,-1147.18 2528.76,-1627.18 1692.18,-846.73 3322.43,-1085.14 5373.47,-1085.14 3483.35,0 7103.33,2109.86 9031.41,4952.73 1795.19,2646.94 2525.03,6015.85 1718.15,9222.72 -343.76,1366.2 -837.25,2536.68 -1594.46,3684.7l-851.13 1114.57c-119.01,147.44 -144.54,190.97 -286.46,331.28 -1127.34,1114.63 -1444.29,1405.21 -2930.5,2292.53 -460.99,275.2 -972.82,444.6 -1139.04,545.83 -243.82,148.5 -1340.5,1717.6 -1533.03,2005.12 678.67,0 2019.28,366.95 2660.71,596.67 955.82,342.26 1663.69,768.58 1663.69,1762.08 0,949.13 -1876.24,1579.02 -2617.06,1763.58 -1105.54,275.42 -2420.29,436.74 -3769.26,482.9zm2623.8 -7316.05c-348.34,185.29 -1021.98,318.4 -1459.4,408.87 -635.97,131.5 -743.27,699.01 -207.75,943.44 322.42,78.82 631.17,-59.59 946.51,-111.21 -117.06,261.21 -501.18,719.36 -680.56,967.8 -222.47,308.2 -429.5,576.71 -666.35,906.21 -447.61,622.7 -1030.51,1710.35 -1770.11,1176.73 -263.55,-181.39 -950.69,-1183.19 -1181.46,-1504.94 -226.59,-315.78 -997.96,-1294.79 -1110.39,-1547.64 380.39,60.82 940.77,292.54 1182.97,-50 269.63,-381.22 29.71,-692.49 -534.46,-798.62 -785.36,-147.77 -1546.13,-400.29 -2219.45,-705.2 -1458.06,-660.22 -1620.49,-892.33 -2677.43,-1704.22 -672.26,-516.4 -1526.57,-1610.07 -2006.4,-2375.25 -4535.16,-7231.49 1139.99,-16774.78 9830.09,-16057.93 597.39,49.28 1886.11,246.22 2329.54,483.73 965.63,196.94 2238.57,960.67 2924.09,1445.46 2577.65,1822.84 4363.98,4904.46 4416.6,8428.45 41.08,2748.56 -896.56,4737.84 -2106.62,6469.82 -976.61,1397.75 -3382.13,3302.02 -5009.42,3624.49z"/>
  <path class="fil0" d="M14096.85 19710.24c-306.14,200.12 -1661.69,378.6 -2133.49,403.69 -2204.17,117.23 -4139.05,-583.9 -5768.69,-1822.17 -1662.58,-1263.24 -3341.32,-3700.92 -3305.65,-6890.95 57.14,-5109.76 4431.59,-8838.6 9220.33,-8503.09 417.46,29.26 1788.28,223.86 2043.69,411.16 784.13,165.78 1880.2,802.36 2402.84,1195.68 3996.35,3007.48 4782.88,8347.34 1733.32,12324.02 -937.98,1223.1 -2732.78,2588.63 -4192.34,2881.67zm6402.09 -4877.59c109.42,-476.93 304.3,-920.37 406.98,-1451.37 105.13,-543.66 168.34,-1064.07 183.11,-1643.51 45.32,-1780.03 -259.54,-2010.13 -468.4,-3250.8 -235.51,-488.75 -407.92,-992.05 -656.54,-1492.4 -620.86,-1249.64 -1907.4,-2666.56 -3088.42,-3428 -6719.82,-4332.37 -14747.26,448.62 -14941.36,7663.27 -134.79,5010.92 3454.54,8818.64 7672.63,9663.31 2545.1,509.71 5246.44,-123.58 7024.12,-1286.32 490.76,-321.02 838.76,-610.44 1253.87,-936.87 199.5,-156.86 335.68,-365.23 530.73,-535.8 819.69,-716.96 1621.27,-2160.53 2083.27,-3301.52z"/>
  <path class="fil1" d="M13272.14 22790.97c-535.52,-244.49 -428.21,-811.89 207.75,-943.44 437.36,-90.47 1111.06,-223.58 1459.4,-408.93 1627.29,-322.42 4032.81,-2226.69 5009.42,-3624.44 1210.06,-1731.98 2147.71,-3721.26 2106.62,-6469.82 -52.62,-3523.93 -1838.95,-6605.55 -4416.6,-8428.45 -685.52,-484.79 -1958.46,-1248.52 -2924.09,-1445.46 -443.38,-237.52 -1732.15,-434.46 -2329.54,-483.73 -8690.1,-716.91 -14365.26,8826.45 -9830.09,16057.93 479.83,765.18 1334.14,1858.85 2006.4,2375.25 1056.94,811.89 1219.37,1044 2677.43,1704.22 673.31,304.91 1434.15,557.43 2219.45,705.2 564.17,106.13 804.09,417.34 534.46,798.62 -242.2,342.54 -802.58,110.82 -1182.97,50 112.43,252.85 883.8,1231.86 1110.39,1547.64 230.77,321.75 917.91,1323.55 1181.46,1504.94 739.59,533.62 1322.49,-553.97 1770.11,-1176.73 236.85,-329.49 443.88,-598.01 666.35,-906.21 179.38,-248.5 563.45,-706.59 680.56,-967.8 -315.39,51.62 -624.09,190.03 -946.51,111.21zm7226.8 -7958.31c-461.99,1141 -1263.57,2584.56 -2083.27,3301.52 -195.04,170.57 -331.22,378.94 -530.73,535.8 -415.12,326.43 -763.12,615.84 -1253.87,936.87 -1777.69,1162.73 -4479.03,1796.03 -7024.12,1286.32 -4218.1,-844.67 -7807.42,-4652.39 -7672.63,-9663.31 194.1,-7214.65 8221.53,-11995.64 14941.36,-7663.32 1181.02,761.5 2467.56,2178.42 3088.42,3428 248.61,500.4 421.02,1003.7 656.59,1492.45 208.81,1240.66 513.67,1470.77 468.35,3250.8 -14.77,579.44 -77.98,1099.86 -183.11,1643.51 -102.68,531 -297.55,974.44 -406.98,1451.37z"/>
  <path class="fil0" d="M15261.21 8491.77c72.97,1989.17 6.08,4099.64 7.69,6102.75 0.95,1143.45 -125.03,1771.89 -938.31,2147.15 -601.52,277.49 -2066.38,162.77 -2833.79,162.55 -2543.65,-0.89 -3772.44,370.47 -3771.21,-2372.13 0.45,-1092.55 -54.74,-5317.73 16.11,-6044.67l7519.51 4.35zm-5824.21 -1011.95c0,-656.31 -89.47,-1155.82 373.2,-1438.1 361.83,-220.8 1197.96,-120.07 1686.88,-122.69 1914.37,-10.2 2062.64,-139.8 2062.64,1563.91l-4122.72 -3.12zm-1009.22 -10.65c-1086.42,70.96 -2807.31,-346.22 -2540.91,678.44 85.79,330 390.2,340.81 805.31,340.92 153.85,1842.46 -146.99,5569.02 37.9,7068.88 124.03,1006.04 741.38,1740.51 1465.58,2086.5 822.48,392.99 2271.34,263.66 3301.41,258.14 1032.07,-5.46 2476.36,137.46 3302.36,-258.87 1983.04,-951.53 1486.15,-3414.96 1486.15,-5607.54 0,-1099.41 -73.91,-2484.73 13.66,-3549.41 1270.99,-0.33 860.72,-899.8 425.04,-988.09 -467.35,-94.76 -1589.28,10.87 -2160.14,-26.7 0,-1068.86 -18.95,-1628.35 -660.44,-2151.33 -667.07,-543.77 -1429.07,-393.93 -2406.63,-399.17 -937.76,-5.02 -1800.54,-130.88 -2415.38,392.2 -631.4,537.19 -653.92,1074.94 -653.92,2156.01z"/>
  <path class="fil1" d="M9234.82 10071.35c569.58,-169.23 636.47,410.32 633.63,902.19l-1 3121.7c0.39,507.93 99.89,1086.53 -338.8,1216.97 -636.69,189.3 -679.17,-396 -676.21,-904.76l0.95 -3120.75c-0.5,-543.43 -122.52,-1065.58 381.45,-1215.36zm4268.38 16.5c578.89,-191.64 641.49,392.09 638.48,886.53l-1.06 3120.86c0.5,515.01 115.22,1094.39 -366.12,1221.43 -614.73,162.27 -651.35,-404.25 -648.45,-908.49l0.89 -3121.47c-0.5,-600.01 -120.35,-1034.42 376.26,-1198.86zm-2006.4 -39.41c618.74,98.83 500.4,526.71 499.17,1113.4l0.11 3120.75c1.95,573.93 70.24,953.53 -499.29,1057.49 -591.04,-105.91 -499.84,-530.45 -498.67,-1119.98l-0.11 -3120.75c-2.01,-569.52 -101.4,-955.87 498.78,-1050.92zm0 6855.78c767.41,0.22 2232.27,114.94 2833.79,-162.55 813.28,-375.26 939.26,-1003.7 938.31,-2147.15 -1.62,-2003.11 65.27,-4113.58 -7.69,-6102.75l-7519.51 -4.35c-70.85,726.94 -15.66,4952.12 -16.11,6044.67 -1.23,2742.59 1227.56,2371.23 3771.21,2372.13z"/>
  <path class="fil0" d="M9234.82 10071.35c-503.97,149.78 -381.95,671.92 -381.45,1215.36l-0.95 3120.75c-2.95,508.76 39.52,1094.06 676.21,904.76 438.69,-130.44 339.19,-709.05 338.8,-1216.97l1 -3121.7c2.84,-491.87 -64.05,-1071.43 -633.63,-902.19z"/>
  <path class="fil0" d="M13503.2 10087.85c-496.61,164.44 -376.76,598.84 -376.26,1198.86l-0.89 3121.47c-2.9,504.25 33.72,1070.76 648.45,908.49 481.34,-127.04 366.62,-706.43 366.12,-1221.43l1.06 -3120.86c3.01,-494.44 -59.59,-1078.17 -638.48,-886.53z"/>
  <path class="fil0" d="M11496.8 15340.08c569.52,-103.96 501.24,-483.57 499.29,-1057.49l-0.11 -3120.75c1.23,-586.69 119.57,-1014.57 -499.17,-1113.4 -600.18,95.04 -500.79,481.39 -498.78,1050.92l0.11 3120.75c-1.17,589.53 -92.37,1014.07 498.67,1119.98z"/>
 </g>
</svg>
