<?xml version="1.0" encoding="UTF-8"?>
<!DOCTYPE svg PUBLIC "-//W3C//DTD SVG 1.1//EN" "http://www.w3.org/Graphics/SVG/1.1/DTD/svg11.dtd">
<!-- Creator: CorelDRAW 2019 (64-Bit) -->
<svg xmlns="http://www.w3.org/2000/svg" xml:space="preserve" width="41.3308mm" height="51.5848mm" version="1.1" style="shape-rendering:geometricPrecision; text-rendering:geometricPrecision; image-rendering:optimizeQuality; fill-rule:evenodd; clip-rule:evenodd"
viewBox="0 0 1501.01 1873.4"
 xmlns:xlink="http://www.w3.org/1999/xlink"
 xmlns:xodm="http://www.corel.com/coreldraw/odm/2003">
 <defs>
  <style type="text/css">
   <![CDATA[
    .fil0 {fill:#CCCC33}
    .fil1 {fill:#FFFFCC}
   ]]>
  </style>
 </defs>
 <g id="Layer_x0020_1">
  <metadata id="CorelCorpID_0Corel-Layer"/>
  <path class="fil0" d="M1042.84 1658.47c38.62,5.76 99.32,28.8 112.8,57.6 -8.23,31.76 -69.18,47.24 -107.56,60.66 -23.68,2.98 -58.1,13.8 -87.19,18.48 -94.39,15.21 -196.21,18.37 -291.29,13.6 -80.41,-4.04 -309.45,-31.93 -325.04,-92.74 4.32,-45.29 242.25,-92.98 262.84,-83.67 40.58,42.94 61.05,115.75 142.7,115.75 81.94,-0.01 102.19,-74.1 142.7,-115.86 31.26,-0.55 125.75,14.48 150.05,26.18zm-240.48 214.93l-105.97 0c-87.45,-3 -172.59,-13.45 -244.16,-31.45 -66.51,-16.72 -170.49,-47.04 -170.49,-129.55 0,-93.16 222.56,-139.04 281.74,-139.04l-72.65 -99.32c-5.85,-7.8 -12.82,-18.74 -19.01,-24.9 -11.33,-11.28 -53.64,-24.59 -84.7,-43.36 -90.37,-54.6 -167.32,-113.33 -230.31,-197.79 -38.06,-51.03 -69.01,-97.01 -94.1,-158.37 -46.83,-114.56 -62.71,-187.11 -62.71,-317.83 0,-115.47 33.26,-215.23 68.46,-297.44 39.23,-91.62 118.4,-191.96 196.06,-257.65 52.31,-44.24 102.25,-74.74 164.75,-106.01 110.25,-55.17 216.46,-70.7 350.09,-70.7 226.94,0 462.79,137.46 588.41,322.68 116.96,172.45 164.51,391.94 111.94,600.87 -22.4,89.01 -54.55,165.27 -103.88,240.06l-55.45 72.62c-7.75,9.61 -9.42,12.44 -18.67,21.58 -73.45,72.62 -94.1,91.55 -190.93,149.36 -30.03,17.93 -63.38,28.97 -74.21,35.56 -15.89,9.67 -87.33,111.9 -99.88,130.64 44.22,0 131.56,23.91 173.35,38.87 62.27,22.3 108.39,50.07 108.39,114.8 0,61.84 -122.24,102.87 -170.5,114.9 -72.03,17.94 -157.68,28.45 -245.57,31.46zm170.94 -476.65c-22.69,12.07 -66.58,20.74 -95.08,26.64 -41.43,8.57 -48.42,45.54 -13.54,61.47 21.01,5.14 41.12,-3.88 61.67,-7.25 -7.63,17.02 -32.65,46.87 -44.34,63.05 -14.49,20.08 -27.98,37.57 -43.41,59.04 -29.16,40.57 -67.14,111.43 -115.32,76.66 -17.17,-11.82 -61.94,-77.09 -76.97,-98.05 -14.76,-20.57 -65.02,-84.36 -72.34,-100.83 24.78,3.96 61.29,19.06 77.07,-3.26 17.57,-24.84 1.94,-45.12 -34.82,-52.03 -51.16,-9.63 -100.73,-26.08 -144.6,-45.94 -94.99,-43.01 -105.58,-58.14 -174.44,-111.03 -43.8,-33.64 -99.46,-104.9 -130.72,-154.75 -295.47,-471.14 74.27,-1092.9 640.44,-1046.19 38.92,3.21 122.88,16.04 151.77,31.52 62.91,12.83 145.84,62.59 190.51,94.17 167.94,118.76 284.32,319.53 287.75,549.12 2.67,179.07 -58.42,308.68 -137.25,421.52 -63.63,91.06 -220.35,215.13 -326.37,236.14z"/>
  <path class="fil0" d="M918.42 1284.14c-19.95,13.04 -108.26,24.67 -139,26.3 -143.6,7.64 -269.66,-38.04 -375.84,-118.72 -108.32,-82.3 -217.69,-241.12 -215.37,-448.95 3.73,-332.91 288.72,-575.84 600.71,-553.99 27.2,1.91 116.51,14.58 133.15,26.79 51.09,10.8 122.5,52.27 156.55,77.9 260.37,195.94 311.61,543.84 112.93,802.92 -61.11,79.69 -178.04,168.65 -273.14,187.74zm417.1 -317.78c7.13,-31.07 19.83,-59.96 26.51,-94.56 6.85,-35.42 10.97,-69.33 11.93,-107.08 2.95,-115.97 -16.91,-130.96 -30.51,-211.79 -15.35,-31.84 -26.58,-64.63 -42.78,-97.23 -40.45,-81.42 -124.27,-173.73 -201.21,-223.34 -437.8,-282.26 -960.8,29.23 -973.45,499.27 -8.78,326.47 225.07,574.54 499.88,629.58 165.82,33.21 341.81,-8.05 457.63,-83.8 31.97,-20.91 54.65,-39.77 81.69,-61.04 13,-10.22 21.87,-23.79 34.58,-34.91 53.4,-46.71 105.63,-140.76 135.73,-215.1z"/>
  <path class="fil1" d="M864.69 1484.86c-34.89,-15.93 -27.9,-52.9 13.54,-61.47 28.5,-5.89 72.39,-14.57 95.08,-26.64 106.02,-21.01 262.74,-145.07 326.37,-236.14 78.84,-112.84 139.93,-242.44 137.25,-421.52 -3.43,-229.59 -119.81,-430.36 -287.75,-549.12 -44.66,-31.58 -127.6,-81.34 -190.51,-94.17 -28.89,-15.47 -112.85,-28.31 -151.77,-31.52 -566.17,-46.71 -935.91,575.05 -640.44,1046.19 31.26,49.85 86.92,121.11 130.72,154.75 68.86,52.9 79.44,68.02 174.44,111.03 43.87,19.87 93.44,36.32 144.6,45.94 36.76,6.91 52.39,27.19 34.82,52.03 -15.78,22.32 -52.29,7.22 -77.07,3.26 7.33,16.47 57.58,80.26 72.34,100.83 15.04,20.96 59.8,86.23 76.97,98.05 48.19,34.77 86.16,-36.09 115.32,-76.66 15.43,-21.47 28.92,-38.96 43.41,-59.04 11.69,-16.19 36.71,-46.04 44.34,-63.05 -20.55,3.36 -40.66,12.38 -61.67,7.25zm470.83 -518.49c-30.1,74.34 -82.32,168.39 -135.73,215.1 -12.71,11.11 -21.58,24.69 -34.58,34.91 -27.05,21.27 -49.72,40.12 -81.69,61.04 -115.82,75.75 -291.81,117.01 -457.63,83.8 -274.82,-55.03 -508.67,-303.11 -499.88,-629.58 12.65,-470.04 535.65,-781.53 973.45,-499.27 76.94,49.61 160.76,141.93 201.21,223.34 16.2,32.6 27.43,65.39 42.78,97.23 13.6,80.83 33.47,95.82 30.51,211.79 -0.96,37.75 -5.08,71.66 -11.93,107.08 -6.69,34.6 -19.39,63.49 -26.51,94.56z"/>
  <path class="fil0" d="M994.28 553.25c4.75,129.6 0.4,267.1 0.5,397.6 0.06,74.5 -8.15,115.44 -61.13,139.89 -39.19,18.08 -134.63,10.6 -184.62,10.59 -165.72,-0.06 -245.78,24.14 -245.7,-154.55 0.03,-71.18 -3.57,-346.46 1.05,-393.82l489.9 0.28zm-379.45 -65.93c0,-42.76 -5.83,-75.3 24.31,-93.69 23.58,-14.39 78.05,-7.82 109.9,-7.99 124.72,-0.66 134.38,-9.11 134.38,101.89l-268.6 -0.2zm-65.75 -0.69c-70.78,4.62 -182.9,-22.56 -165.54,44.2 5.59,21.5 25.42,22.2 52.47,22.21 10.02,120.04 -9.58,362.83 2.47,460.55 8.08,65.54 48.3,113.4 95.48,135.94 53.59,25.6 147.98,17.18 215.09,16.82 67.24,-0.36 161.34,8.96 215.15,-16.87 129.2,-61.99 96.82,-222.49 96.82,-365.34 0,-71.63 -4.82,-161.88 0.89,-231.25 82.81,-0.02 56.08,-58.62 27.69,-64.38 -30.45,-6.17 -103.54,0.71 -140.74,-1.74 0,-69.64 -1.23,-106.09 -43.03,-140.16 -43.46,-35.43 -93.11,-25.67 -156.79,-26.01 -61.1,-0.33 -117.31,-8.53 -157.36,25.55 -41.14,35 -42.6,70.03 -42.6,140.47z"/>
  <path class="fil1" d="M601.65 656.16c37.11,-11.03 41.47,26.73 41.28,58.78l-0.07 203.38c0.03,33.09 6.51,70.79 -22.07,79.29 -41.48,12.33 -44.24,-25.8 -44.06,-58.95l0.06 -203.32c-0.03,-35.41 -7.98,-69.42 24.85,-79.18zm278.09 1.07c37.72,-12.49 41.79,25.55 41.6,57.76l-0.07 203.33c0.03,33.55 7.51,71.3 -23.86,79.58 -40.05,10.57 -42.44,-26.34 -42.25,-59.19l0.06 -203.37c-0.03,-39.09 -7.84,-67.39 24.51,-78.11zm-130.72 -2.57c40.31,6.44 32.6,34.32 32.52,72.54l0.01 203.32c0.13,37.39 4.58,62.12 -32.53,68.9 -38.51,-6.9 -32.57,-34.56 -32.49,-72.97l-0.01 -203.32c-0.13,-37.1 -6.61,-62.28 32.5,-68.47zm0 446.66c50,0.01 145.43,7.49 184.62,-10.59 52.99,-24.45 61.19,-65.39 61.13,-139.89 -0.11,-130.5 4.25,-268 -0.5,-397.6l-489.9 -0.28c-4.62,47.36 -1.02,322.64 -1.05,393.82 -0.08,178.68 79.98,154.49 245.7,154.55z"/>
  <path class="fil0" d="M601.65 656.16c-32.83,9.76 -24.88,43.78 -24.85,79.18l-0.06 203.32c-0.19,33.15 2.57,71.28 44.06,58.95 28.58,-8.5 22.1,-46.2 22.07,-79.29l0.07 -203.38c0.19,-32.05 -4.17,-69.8 -41.28,-58.78z"/>
  <path class="fil0" d="M879.74 657.23c-32.35,10.71 -24.55,39.02 -24.51,78.11l-0.06 203.37c-0.19,32.85 2.2,69.76 42.25,59.19 31.36,-8.28 23.89,-46.02 23.86,-79.58l0.07 -203.33c0.19,-32.21 -3.89,-70.24 -41.6,-57.76z"/>
  <path class="fil0" d="M749.02 999.42c37.1,-6.77 32.66,-31.5 32.53,-68.9l-0.01 -203.32c0.08,-38.22 7.79,-66.1 -32.52,-72.54 -39.1,6.19 -32.62,31.36 -32.5,68.47l0.01 203.32c-0.08,38.41 -6.02,66.07 32.49,72.97z"/>
 </g>
</svg>
