<?xml version="1.0" encoding="UTF-8"?>
<!DOCTYPE svg PUBLIC "-//W3C//DTD SVG 1.1//EN" "http://www.w3.org/Graphics/SVG/1.1/DTD/svg11.dtd">
<!-- Creator: CorelDRAW 2019 (64-Bit) -->
<svg xmlns="http://www.w3.org/2000/svg" xml:space="preserve" width="27px" height="32px" version="1.1" style="shape-rendering:geometricPrecision; text-rendering:geometricPrecision; image-rendering:optimizeQuality; fill-rule:evenodd; clip-rule:evenodd"
viewBox="0 0 3.17 3.69"
 xmlns:xlink="http://www.w3.org/1999/xlink"
 xmlns:xodm="http://www.corel.com/coreldraw/odm/2003">
 <defs>
  <style type="text/css">
   <![CDATA[
    .fil1 {fill:#232981}
    .fil0 {fill:#C0C4FC}
   ]]>
  </style>
 </defs>
 <g id="Layer_x0020_1">
  <metadata id="CorelCorpID_0Corel-Layer"/>
  <path class="fil0" d="M1.58 3.69c0.25,0 0.44,-0.54 0.61,-0.64 0.02,-0.02 0.09,-0.04 0.16,-0.08 0.2,-0.12 0.24,-0.16 0.4,-0.31 0.02,-0.02 0.02,-0.03 0.04,-0.05l0.12 -0.15c0.1,-0.16 0.17,-0.32 0.21,-0.51 0.12,-0.44 0.02,-0.9 -0.23,-1.27 -0.27,-0.39 -0.76,-0.68 -1.24,-0.68 -0.29,0 -0.51,0.03 -0.74,0.15 -0.14,0.07 -0.24,0.13 -0.35,0.22 -0.17,0.14 -0.33,0.35 -0.42,0.55 -0.07,0.17 -0.14,0.38 -0.14,0.63 0,0.27 0.03,0.42 0.13,0.67 0.06,0.13 0.12,0.22 0.2,0.33 0.13,0.18 0.3,0.3 0.49,0.42 0.06,0.04 0.15,0.07 0.18,0.09 0.01,0.01 0.02,0.04 0.04,0.05 0.09,0.13 0.36,0.58 0.54,0.58z"/>
  <path class="fil1" d="M1.85 3.01c-0.08,0.01 -0.1,0.09 -0.02,0.13 0.04,0.01 0.08,-0.01 0.13,-0.02 -0.02,0.04 -0.07,0.1 -0.1,0.13 -0.24,0.34 -0.24,0.44 -0.5,0.08 -0.03,-0.04 -0.13,-0.18 -0.15,-0.21 0.05,0.01 0.13,0.04 0.16,-0.01 0.04,-0.05 0.01,-0.09 -0.07,-0.11 -0.11,-0.02 -0.21,-0.05 -0.3,-0.09 -0.2,-0.09 -0.23,-0.13 -0.37,-0.24 -0.09,-0.07 -0.21,-0.22 -0.28,-0.32 -0.62,-1 0.16,-2.31 1.35,-2.21 0.09,0 0.26,0.03 0.32,0.06 0.14,0.03 0.31,0.13 0.41,0.2 0.35,0.25 0.6,0.68 0.6,1.16 0.01,0.38 -0.12,0.65 -0.29,0.89 -0.2,0.3 -0.54,0.48 -0.89,0.56z"/>
  <g id="_899565888">
   <path class="fil0" d="M1.41 1.93l0.59 0c0.08,0 0.06,-0.06 0.1,-0.11l0 0.51 -0.69 0 0 -0.4zm0.76 0.38l0 -0.57c0.02,0.03 0.04,0.05 0.07,0.08 0,0.01 0.01,0.01 0.01,0.02 0.02,0.01 0.04,0.04 0.06,0.04 0.01,0 0.17,-0.07 0.18,-0.08l0 0.36c-0.06,0.04 -0.17,0.08 -0.24,0.11 -0.02,0.02 -0.05,0.03 -0.08,0.04zm-0.17 -0.46l-0.68 0c0.01,-0.02 0.07,-0.14 0.08,-0.16l0.68 0c-0.01,0.01 -0.01,0.02 -0.02,0.04l-0.04 0.08c-0.01,0.02 -0.01,0.03 -0.02,0.04zm0.32 -0.05c-0.01,-0.01 -0.02,-0.02 -0.03,-0.03 -0.01,-0.01 -0.01,-0.01 -0.01,-0.02 -0.01,-0.01 -0.01,-0.01 -0.02,-0.02 -0.02,-0.02 -0.04,-0.05 -0.06,-0.07 0.01,-0.01 0.03,-0.01 0.04,-0.02 0.01,0 0.02,-0.01 0.04,-0.02l0.12 -0.05c0.03,-0.01 0.1,-0.05 0.12,-0.06 0.01,0.01 0.02,0.03 0.03,0.04 0.01,0.01 0.08,0.09 0.09,0.11l-0.32 0.14zm-0.78 -0.18c0.02,-0.01 0.15,-0.07 0.16,-0.08 0.01,0 0.07,-0.03 0.08,-0.03l0.58 0c0,0 0,0 -0.01,0l-0.23 0.1c-0.02,0.01 -0.53,0.01 -0.58,0.01zm-0.31 0.26c0,0.06 0.06,0.05 0.11,0.05l0 0.44c0,0.02 0.02,0.03 0.05,0.03l0.75 0c0.01,0 0.24,-0.11 0.27,-0.12 0.02,-0.01 0.03,-0.01 0.05,-0.02 0.13,-0.07 0.11,-0.01 0.11,-0.23 0,-0.09 0,-0.17 0,-0.26l0.09 -0.05c0.04,-0.02 0.11,-0.03 0.06,-0.09l-0.13 -0.15c-0.02,-0.02 -0.03,-0.05 -0.06,-0.05l-0.76 0c-0.01,0 -0.18,0.08 -0.21,0.1l-0.13 0.06c-0.1,0.04 -0.08,0.03 -0.1,0.08l-0.1 0.21z"/>
   <path class="fil0" d="M1.39 0.85l0.12 0.11 -0.12 0 0 -0.11zm-0.77 -0.08l0 1.16c0,0.02 0.03,0.03 0.04,0.03l0.47 0c0.05,0 0.05,-0.07 0,-0.07l-0.44 0 0 -1.08 0.63 0 0 0.18c0,0.02 0.01,0.04 0.03,0.04l0.22 0 0 0.33c0,0.01 0,0.02 0.01,0.03 0.03,0.03 0.06,0.01 0.06,-0.04l0 -0.35c0,-0.03 -0.03,-0.06 -0.06,-0.08 -0.02,-0.02 -0.05,-0.05 -0.07,-0.07 -0.03,-0.02 -0.13,-0.12 -0.16,-0.12l-0.68 0c-0.03,0 -0.05,0.01 -0.05,0.04z"/>
   <path class="fil0" d="M0.83 1.12l0.15 0 0 0.15 -0.15 0 0 -0.15zm-0.08 -0.02l0 0.19c0,0.04 0.02,0.06 0.05,0.06l0.22 0c0.02,0 0.04,-0.02 0.04,-0.04l0 -0.23c0,-0.02 -0.02,-0.04 -0.04,-0.04l-0.22 0c-0.03,0 -0.05,0.02 -0.05,0.06z"/>
   <path class="fil0" d="M1.2 1.15l0.27 0c0.05,0 0.06,-0.08 -0.01,-0.08l-0.25 0c-0.07,0 -0.06,0.08 -0.01,0.08z"/>
   <path class="fil0" d="M1.21 1.32l0.25 0c0.07,0 0.06,-0.07 0.01,-0.07l-0.27 0c-0.05,0 -0.06,0.07 0.01,0.07z"/>
   <path class="fil0" d="M0.76 1.69c0,0.01 -0.01,0.04 0.03,0.04l0.28 0c0.05,0 0.04,-0.07 0.01,-0.07l-0.3 0c-0.01,0 -0.02,0.02 -0.02,0.03z"/>
   <path class="fil0" d="M0.76 1.51c0,0.02 0,0.04 0.02,0.04l0.29 0c0.05,0 0.05,-0.07 0,-0.07l-0.28 0c-0.01,0 -0.03,0.02 -0.03,0.03z"/>
  </g>
 </g>
</svg>
