<?xml version="1.0" encoding="UTF-8"?>
<!DOCTYPE svg PUBLIC "-//W3C//DTD SVG 1.1//EN" "http://www.w3.org/Graphics/SVG/1.1/DTD/svg11.dtd">
<!-- Creator: CorelDRAW 2019 (64-Bit) -->
<svg xmlns="http://www.w3.org/2000/svg" xml:space="preserve" width="27px" height="32px" version="1.1" style="shape-rendering:geometricPrecision; text-rendering:geometricPrecision; image-rendering:optimizeQuality; fill-rule:evenodd; clip-rule:evenodd"
viewBox="0 0 33.36 38.86"
 xmlns:xlink="http://www.w3.org/1999/xlink"
 xmlns:xodm="http://www.corel.com/coreldraw/odm/2003">
 <defs>
  <style type="text/css">
   <![CDATA[
    .fil1 {fill:#E32A0C}
    .fil0 {fill:#FFD5CF}
   ]]>
  </style>
 </defs>
 <g id="Layer_x0020_1">
  <metadata id="CorelCorpID_0Corel-Layer"/>
  <path class="fil0" d="M16.67 38.86c2.61,0 4.59,-5.71 6.37,-6.79 0.24,-0.15 0.98,-0.39 1.65,-0.79 2.15,-1.29 2.61,-1.71 4.24,-3.32 0.21,-0.2 0.25,-0.27 0.42,-0.48l1.23 -1.62c1.1,-1.66 1.81,-3.35 2.31,-5.33 1.17,-4.65 0.11,-9.52 -2.49,-13.36 -2.79,-4.11 -8.03,-7.17 -13.08,-7.17 -2.97,0 -5.33,0.35 -7.78,1.57 -1.39,0.7 -2.5,1.37 -3.66,2.36 -1.73,1.46 -3.49,3.69 -4.36,5.73 -0.78,1.82 -1.52,4.04 -1.52,6.61 0,2.9 0.35,4.51 1.39,7.06 0.56,1.37 1.25,2.39 2.1,3.52 1.4,1.88 3.11,3.18 5.11,4.4 0.7,0.42 1.64,0.71 1.89,0.96 0.14,0.14 0.29,0.38 0.42,0.56 0.99,1.35 3.87,6.09 5.76,6.09z"/>
  <path class="fil1" d="M19.52 31.64c-0.92,0.19 -1.07,1.01 -0.3,1.37 0.47,0.11 0.91,-0.09 1.37,-0.17 -0.17,0.38 -0.72,1.05 -0.98,1.41 -2.54,3.51 -2.52,4.63 -5.24,0.83 -0.33,-0.45 -1.45,-1.87 -1.61,-2.24 0.55,0.09 1.36,0.43 1.71,-0.07 0.39,-0.55 0.04,-1 -0.77,-1.16 -1.14,-0.21 -2.24,-0.58 -3.22,-1.02 -2.11,-0.95 -2.34,-1.29 -3.87,-2.47 -0.98,-0.74 -2.22,-2.33 -2.91,-3.44 -6.57,-10.47 1.65,-24.29 14.24,-23.25 0.86,0.07 2.73,0.36 3.37,0.7 1.4,0.28 3.24,1.39 4.23,2.09 3.74,2.64 6.32,7.11 6.4,12.21 0.06,3.98 -1.3,6.86 -3.05,9.37 -2.19,3.13 -5.69,5.08 -9.37,5.84z"/>
  <path class="fil0" d="M14.76 24.57c-0.2,0.17 0.03,0.35 0.17,0.35l9.36 0c0.33,0 0.33,-0.43 0,-0.43l-9.36 0c-0.06,0 -0.13,0.03 -0.17,0.08zm4.79 -2.28c-0.23,0.23 -0.15,1 -0.15,1.45l4.55 0 0 -1.6 -3.93 0c-0.21,0 -0.37,0.05 -0.47,0.15zm-5.03 1.32l-5.59 0 1.09 1.19c0.15,0.08 0.35,0.13 0.67,0.12l3.26 0c-0.09,-0.47 0.14,-0.97 0.52,-1.07 0.03,-0.01 0.04,-0.01 0.05,-0.24zm4.13 0.13c0,-0.84 -0.14,-1.5 0.36,-1.99 0.22,-0.22 0.52,-0.37 0.82,-0.37l4.12 0 0 -0.42 -8.68 0 0 2.78 3.38 0zm-3.89 -3.89c-0.2,0.17 0.03,0.35 0.17,0.35l9.36 0c0.33,0 0.33,-0.42 0,-0.42l-9.36 0c-0.06,0 -0.13,0.02 -0.17,0.07zm-0.74 0.57c-0.32,-0.71 0.21,-1.4 0.8,-1.4l2.35 0 0 -2.96c-0.56,0.68 -0.74,0.98 -1.59,1.61 -1.84,1.36 -3.61,1.24 -4.87,2.38 -0.13,0.11 -2.05,2.14 -2.18,2.4 -0.05,0.08 -0.05,0.18 -0.05,0.41l6.04 0 0 -1.95c0,-0.09 -0.33,-0.09 -0.5,-0.49zm8.12 -7.06c-0.2,1.58 -0.05,4.21 0.9,5.42 1.19,1.51 2.71,-4.48 1.08,-7.76 -0.81,-1.65 -1.52,0.16 -1.75,1.06 -0.1,0.39 -0.18,0.83 -0.23,1.28zm-13.66 6.56l0 1.36c0.47,-0.55 0.81,-1.04 1.41,-1.55 2.35,-1.98 3.46,-1.24 5.3,-2.73 0.23,-0.2 1.76,-1.75 1.93,-2.12 0.09,-0.18 0.05,-1.22 0.05,-1.48 -0.67,0.8 -1.04,1.3 -2.07,1.94 -1.77,1.11 -2.74,0.78 -4.4,2.06 -0.73,0.56 -1.45,1.5 -2.03,2.22 -0.1,0.13 -0.17,0.13 -0.19,0.3zm0 -8.11l0 6.82c0.7,-0.82 1,-1.33 2.08,-2.08 2.11,-1.46 3.75,-0.78 5.9,-3.48l0.69 -0.88 0.02 -0.38 -8.69 0zm7.96 -1.18l-7.23 0 -0.34 0.43 7.91 0 -0.34 -0.43zm-0.15 -1.18l-6.92 0 0 0.43 6.92 0 0 -0.43zm-2.55 -0.75l1.28 0c0.05,-0.14 0.22,-0.41 -0.15,-0.65 -0.39,-0.24 -0.77,0.26 -1.13,0.65zm-6.01 14.53l0 -11.79c0,-0.3 0.8,-1.09 0.87,-1.32l0.01 -0.94c0.01,-0.42 0.08,-0.48 0.64,-0.48l3.03 0.01c1.08,0.02 1.1,-1.48 2.43,-1.48 0.71,0 1.28,0.68 1.12,1.47 1.3,-0.01 1.23,-0.17 1.2,1.35 0,0.24 0.89,1.05 0.89,1.39l0 7.58 4.36 0c-0.53,-0.91 -0.74,-1.54 -0.88,-2.69 -0.2,-1.65 -0.15,-4.63 0.91,-6.05 0.7,-0.95 1.6,-0.93 2.29,0.02 1.31,1.8 1.26,6.53 0.2,8.4 -0.06,0.09 -0.12,0.21 -0.2,0.35 0.93,0.3 0.89,1.47 0.16,1.81 -0.03,0.01 -0.05,0.02 -0.05,0.05l0 2.88c0,0.07 0.78,0.31 0.55,1.18 -0.1,0.39 -0.42,0.7 -0.86,0.7l-14.04 0c-0.68,0 -1.06,-0.46 -1.4,-0.86 -0.29,-0.34 -1.23,-1.29 -1.23,-1.58z"/>
 </g>
</svg>
