<?xml version="1.0" encoding="UTF-8"?>
<!DOCTYPE svg PUBLIC "-//W3C//DTD SVG 1.1//EN" "http://www.w3.org/Graphics/SVG/1.1/DTD/svg11.dtd">
<!-- Creator: CorelDRAW 2019 (64-Bit) -->
<svg xmlns="http://www.w3.org/2000/svg" xml:space="preserve" width="41.3307mm" height="51.5848mm" version="1.1" style="shape-rendering:geometricPrecision; text-rendering:geometricPrecision; image-rendering:optimizeQuality; fill-rule:evenodd; clip-rule:evenodd"
viewBox="0 0 775.77 968.24"
 xmlns:xlink="http://www.w3.org/1999/xlink"
 xmlns:xodm="http://www.corel.com/coreldraw/odm/2003">
 <defs>
  <style type="text/css">
   <![CDATA[
    .fil0 {fill:#008131}
    .fil1 {fill:#70D697}
   ]]>
  </style>
 </defs>
 <g id="Layer_x0020_1">
  <metadata id="CorelCorpID_0Corel-Layer"/>
  <path class="fil0" d="M538.98 857.15c19.96,2.98 51.33,14.89 58.3,29.77 -4.26,16.42 -35.75,24.42 -55.59,31.35 -12.24,1.54 -30.03,7.13 -45.06,9.55 -48.78,7.86 -101.41,9.49 -150.55,7.03 -41.56,-2.09 -159.94,-16.5 -168,-47.93 2.23,-23.41 125.2,-48.05 135.84,-43.24 20.98,22.2 31.55,59.83 73.75,59.82 42.35,-0 52.81,-38.3 73.75,-59.88 16.16,-0.28 64.99,7.48 77.55,13.53zm-124.29 111.09l-54.77 0c-45.2,-1.55 -89.2,-6.95 -126.19,-16.25 -34.38,-8.64 -88.11,-24.31 -88.11,-66.95 0,-48.15 115.03,-71.86 145.61,-71.86l-37.55 -51.33c-3.02,-4.03 -6.62,-9.68 -9.82,-12.87 -5.86,-5.83 -27.72,-12.71 -43.78,-22.41 -46.7,-28.22 -86.48,-58.57 -119.03,-102.22 -19.67,-26.37 -35.67,-50.14 -48.63,-81.85 -24.2,-59.21 -32.41,-96.7 -32.41,-164.26 0,-59.68 17.19,-111.24 35.38,-153.72 20.28,-47.35 61.2,-99.21 101.33,-133.16 27.04,-22.87 52.84,-38.63 85.15,-54.79 56.98,-28.51 111.87,-36.54 180.94,-36.54 117.29,0 239.19,71.04 304.11,166.77 60.45,89.13 85.02,202.57 57.85,310.55 -11.57,46 -28.19,85.42 -53.69,124.07l-28.66 37.53c-4.01,4.96 -4.87,6.43 -9.65,11.15 -37.96,37.53 -48.63,47.32 -98.68,77.19 -15.52,9.27 -32.76,14.97 -38.35,18.38 -8.21,5 -45.14,57.84 -51.62,67.52 22.85,0 67.99,12.36 89.59,20.09 32.18,11.52 56.02,25.88 56.02,59.33 0,31.96 -63.18,53.17 -88.12,59.38 -37.23,9.27 -81.5,14.71 -126.92,16.26zm88.35 -246.35c-11.73,6.24 -34.41,10.72 -49.14,13.77 -21.41,4.43 -25.03,23.54 -7,31.77 10.86,2.65 21.25,-2.01 31.87,-3.74 -3.94,8.8 -16.88,24.22 -22.92,32.59 -7.49,10.38 -14.46,19.42 -22.44,30.51 -15.07,20.97 -34.7,57.59 -59.6,39.62 -8.87,-6.11 -32.01,-39.84 -39.78,-50.67 -7.63,-10.63 -33.6,-43.6 -37.39,-52.11 12.81,2.05 31.68,9.85 39.83,-1.68 9.08,-12.84 1,-23.32 -18,-26.89 -26.44,-4.98 -52.06,-13.48 -74.73,-23.75 -49.1,-22.23 -54.57,-30.05 -90.16,-57.38 -22.63,-17.39 -51.4,-54.21 -67.56,-79.98 -152.71,-243.5 38.39,-564.85 331,-540.71 20.12,1.66 63.51,8.29 78.44,16.29 32.51,6.63 75.38,32.35 98.46,48.67 86.8,61.38 146.95,165.14 148.72,283.81 1.38,92.55 -30.19,159.53 -70.94,217.85 -32.88,47.07 -113.88,111.19 -168.68,122.05z"/>
  <path class="fil0" d="M474.67 663.69c-10.31,6.74 -55.95,12.75 -71.84,13.59 -74.22,3.95 -139.37,-19.66 -194.25,-61.36 -55.98,-42.54 -112.51,-124.62 -111.31,-232.03 1.93,-172.06 149.22,-297.62 310.47,-286.32 14.05,0.99 60.21,7.54 68.81,13.84 26.4,5.58 63.31,27.02 80.91,40.26 134.56,101.27 161.05,281.07 58.36,414.98 -31.58,41.18 -92.02,87.17 -141.17,97.03zm215.57 -164.24c3.68,-16.06 10.25,-30.99 13.7,-48.87 3.54,-18.31 5.67,-35.83 6.17,-55.34 1.53,-59.94 -8.74,-67.69 -15.77,-109.46 -7.93,-16.46 -13.74,-33.4 -22.11,-50.25 -20.91,-42.08 -64.23,-89.79 -103.99,-115.43 -226.27,-145.88 -496.57,15.11 -503.11,258.04 -4.54,168.73 116.32,296.94 258.36,325.39 85.7,17.16 176.66,-4.16 236.52,-43.31 16.52,-10.81 28.24,-20.55 42.22,-31.55 6.72,-5.28 11.3,-12.3 17.87,-18.04 27.6,-24.14 54.59,-72.75 70.15,-111.17z"/>
  <path class="fil1" d="M446.9 767.42c-18.03,-8.23 -14.42,-27.34 7,-31.77 14.73,-3.05 37.41,-7.53 49.14,-13.77 54.79,-10.86 135.8,-74.98 168.68,-122.04 40.75,-58.32 72.32,-125.3 70.94,-217.85 -1.77,-118.66 -61.92,-222.42 -148.72,-283.81 -23.08,-16.32 -65.95,-42.04 -98.46,-48.67 -14.93,-8 -58.33,-14.63 -78.44,-16.29 -292.62,-24.14 -483.71,297.21 -331,540.71 16.16,25.77 44.93,62.59 67.56,79.98 35.59,27.34 41.06,35.15 90.16,57.38 22.67,10.27 48.29,18.77 74.73,23.75 19,3.57 27.08,14.05 18,26.89 -8.16,11.53 -27.02,3.73 -39.83,1.68 3.79,8.51 29.76,41.48 37.39,52.11 7.77,10.83 30.91,44.57 39.78,50.67 24.91,17.97 44.53,-18.65 59.6,-39.62 7.98,-11.09 14.95,-20.14 22.44,-30.51 6.04,-8.37 18.97,-23.79 22.92,-32.59 -10.62,1.74 -21.01,6.4 -31.87,3.74zm243.34 -267.97c-15.55,38.42 -42.55,87.03 -70.15,111.17 -6.57,5.74 -11.15,12.76 -17.87,18.04 -13.98,10.99 -25.7,20.74 -42.22,31.55 -59.86,39.15 -150.82,60.48 -236.52,43.31 -142.04,-28.44 -262.9,-156.66 -258.36,-325.39 6.54,-242.93 276.84,-403.92 503.11,-258.04 39.77,25.64 83.09,73.35 103.99,115.43 8.37,16.85 14.18,33.8 22.11,50.25 7.03,41.78 17.3,49.52 15.77,109.46 -0.5,19.51 -2.63,37.03 -6.17,55.34 -3.46,17.88 -10.02,32.81 -13.7,48.87z"/>
  <path class="fil0" d="M513.88 285.94c2.46,66.98 0.2,138.04 0.26,205.49 0.03,38.5 -4.21,59.66 -31.6,72.3 -20.25,9.34 -69.58,5.48 -95.42,5.47 -85.65,-0.03 -127.03,12.47 -126.99,-79.87 0.02,-36.79 -1.84,-179.06 0.54,-203.54l253.2 0.15zm-196.11 -34.07c0,-22.1 -3.01,-38.92 12.57,-48.42 12.19,-7.43 40.34,-4.04 56.8,-4.13 64.46,-0.34 69.45,-4.71 69.45,52.66l-138.82 -0.11zm-33.98 -0.36c-36.58,2.39 -94.53,-11.66 -85.56,22.84 2.89,11.11 13.14,11.48 27.12,11.48 5.18,62.04 -4.95,187.52 1.28,238.03 4.18,33.88 24.96,58.61 49.35,70.26 27.69,13.23 76.48,8.88 111.17,8.69 34.75,-0.18 83.38,4.63 111.2,-8.72 66.77,-32.04 50.04,-114.99 50.04,-188.82 0,-37.02 -2.49,-83.67 0.46,-119.52 42.8,-0.01 28.98,-30.3 14.31,-33.27 -15.74,-3.19 -53.51,0.37 -72.74,-0.9 0,-35.99 -0.64,-54.83 -22.24,-72.44 -22.46,-18.31 -48.12,-13.26 -81.03,-13.44 -31.58,-0.17 -60.63,-4.41 -81.33,13.21 -21.26,18.09 -22.02,36.2 -22.02,72.6z"/>
  <path class="fil1" d="M310.96 339.13c19.18,-5.7 21.43,13.82 21.34,30.38l-0.03 105.11c0.01,17.1 3.36,36.59 -11.41,40.98 -21.44,6.37 -22.87,-13.33 -22.77,-30.47l0.03 -105.08c-0.02,-18.3 -4.13,-35.88 12.84,-40.92zm143.73 0.56c19.49,-6.45 21.6,13.2 21.5,29.85l-0.04 105.09c0.02,17.34 3.88,36.85 -12.33,41.13 -20.7,5.46 -21.93,-13.61 -21.83,-30.59l0.03 -105.11c-0.02,-20.2 -4.05,-34.83 12.67,-40.37zm-67.56 -1.33c20.83,3.33 16.85,17.74 16.81,37.49l0 105.08c0.07,19.33 2.37,32.11 -16.81,35.61 -19.9,-3.57 -16.83,-17.86 -16.79,-37.71l-0 -105.08c-0.07,-19.18 -3.41,-32.19 16.8,-35.39zm0 230.85c25.84,0.01 75.17,3.87 95.42,-5.47 27.39,-12.64 31.63,-33.8 31.6,-72.3 -0.05,-67.45 2.2,-138.51 -0.26,-205.49l-253.2 -0.15c-2.39,24.48 -0.53,166.75 -0.54,203.54 -0.04,92.35 41.33,79.84 126.99,79.87z"/>
  <path class="fil0" d="M310.96 339.13c-16.97,5.04 -12.86,22.63 -12.84,40.92l-0.03 105.08c-0.1,17.13 1.33,36.84 22.77,30.47 14.77,-4.39 11.42,-23.88 11.41,-40.98l0.03 -105.11c0.1,-16.56 -2.16,-36.08 -21.34,-30.38z"/>
  <path class="fil0" d="M454.68 339.68c-16.72,5.54 -12.69,20.16 -12.67,40.37l-0.03 105.11c-0.1,16.98 1.14,36.05 21.83,30.59 16.21,-4.28 12.34,-23.79 12.33,-41.13l0.04 -105.09c0.1,-16.65 -2.01,-36.3 -21.5,-29.85z"/>
  <path class="fil0" d="M387.12 516.54c19.18,-3.5 16.88,-16.28 16.81,-35.61l-0 -105.08c0.04,-19.76 4.03,-34.16 -16.81,-37.49 -20.21,3.2 -16.86,16.21 -16.8,35.39l0 105.08c-0.04,19.85 -3.11,34.15 16.79,37.71z"/>
 </g>
</svg>
