<?xml version="1.0" encoding="UTF-8"?>
<!DOCTYPE svg PUBLIC "-//W3C//DTD SVG 1.1//EN" "http://www.w3.org/Graphics/SVG/1.1/DTD/svg11.dtd">
<!-- Creator: CorelDRAW 2019 (64-Bit) -->
<svg xmlns="http://www.w3.org/2000/svg" xml:space="preserve" width="30px" height="26px" version="1.1" style="shape-rendering:geometricPrecision; text-rendering:geometricPrecision; image-rendering:optimizeQuality; fill-rule:evenodd; clip-rule:evenodd"
viewBox="0 0 3.79 3.24"
 xmlns:xlink="http://www.w3.org/1999/xlink"
 xmlns:xodm="http://www.corel.com/coreldraw/odm/2003">
 <defs>
  <style type="text/css">
   <![CDATA[
    .fil1 {fill:#333333}
    .fil0 {fill:#B3B3B3}
   ]]>
  </style>
 </defs>
 <g id="Layer_x0020_1">
  <metadata id="CorelCorpID_0Corel-Layer"/>
  <g id="_1123207696">
   <path class="fil0" d="M1.89 0.56c0.29,0 0.51,0.34 0.73,0.5 0.34,0.25 0.61,0.39 0.61,0.84 0,0.74 0.48,1.21 -0.26,1.21 -0.02,0 -0.8,-0.08 -1.3,-0.09 -0.57,0 -0.88,0.07 -0.91,0.07 -0.65,-0.09 -0.39,-0.13 -0.39,-0.81 0,-0.3 -0.1,-0.42 0.06,-0.65 0.14,-0.17 0.59,-0.33 0.89,-0.57 0.26,-0.2 0.37,-0.5 0.57,-0.5z"/>
   <g>
    <path class="fil1" d="M0.16 2.6c0.03,-0.02 0.07,-0.05 0.1,-0.07 0.01,0.02 0.06,0.11 0.1,0.13 0.03,0.01 0.05,0 0.08,0.03 0.01,0.01 0.04,0.04 0.04,0.07 -0.02,0.01 -0.05,0.03 -0.07,0.04 -0.04,0.03 -0.05,0.03 -0.05,0.08 0,0.05 0.05,0.08 0.09,0.05 0.02,-0.01 0.04,-0.02 0.06,-0.04 0.02,-0.01 0.03,-0.02 0.05,-0.03l0.07 0.1 -0.21 0.14c-0.05,-0.08 -0.1,-0.15 -0.16,-0.23 -0.06,-0.09 -0.01,-0.09 -0.03,-0.15 -0.01,-0.03 -0.05,-0.08 -0.07,-0.1 0,-0.02 0,-0.02 0,-0.02zm-0.16 -0.01l0 -0.01c0,-0.02 0.02,-0.04 0.05,-0.06l0.19 -0.15c-0.03,0 -0.12,-0.03 -0.15,-0.04 -0.14,-0.05 -0.08,-0.17 -0.06,-0.25l0.08 -0.24c0.04,-0.09 0.08,-0.06 0.1,-0.14 0.02,-0.06 0.03,-0.14 0.08,-0.16 0.02,-0.01 0.21,0.05 0.24,0.06 0.01,-0.03 0.04,-0.04 0.06,-0.07l0.13 -0.12c0.03,-0.03 0.05,-0.03 0.09,-0.01l-0.04 -0.25c-0.03,-0.24 -0.06,-0.2 0.49,-0.2 0.04,0 0.07,0.02 0.07,0.06 0,0.08 -0.04,0.29 -0.05,0.38 -0.01,0.07 -0.01,0.12 -0.08,0.13 -0.06,0.02 -0.13,0.01 -0.2,0.01 0.03,0.03 0.06,0.05 0.09,0.08 0.14,0.14 0.07,0.15 0.13,0.21 0.02,0.03 0.07,0.04 0.11,0.06 0,-0.12 0,-0.25 0,-0.37 0,-0.07 -0.01,-0.12 0.02,-0.17 0.02,-0.03 0.06,-0.07 0.11,-0.07 0.22,0 0.18,-0.02 0.18,0.25l0.13 0c0,-0.08 -0.02,-0.25 0.13,-0.25 0.2,0 0.19,-0.02 0.19,0.2 0,0.09 0,0.17 0,0.26 0.04,-0.03 0.05,-0.06 0.12,-0.06 0.06,0 0.08,0.02 0.12,0.06 0.05,0.05 0.08,0.05 0.08,0.11 0,0.04 -0.12,0.15 -0.15,0.17l0.09 0.09c0.04,-0.03 0.14,-0.22 0.3,-0.06 0.02,0.02 0.08,0.07 0.08,0.09 0,0.06 -0.03,0.06 -0.06,0.1 -0.06,0.07 -0.13,0.14 -0.2,0.2l-0.13 0.14c-0.03,0.04 -0.09,0.1 -0.13,0.13 -0.08,0.06 -0.15,0 -0.18,-0.03l-0.14 -0.13c-0.04,-0.04 -0.09,-0.1 -0.13,-0.13 -0.09,-0.07 -0.16,-0.14 -0.09,-0.25l-0.19 0c-0.01,0.04 -0.02,0.04 -0.04,0.07 0.07,0.08 0.16,0.16 0.24,0.24 0.04,0.04 0.08,0.08 0.12,0.13 0.04,0.04 0.1,0.07 0.1,0.14 0,0.09 -0.05,0.11 -0.1,0.17 -0.03,0.02 -0.04,0.03 -0.07,0.05 -0.02,0.03 -0.04,0.04 -0.06,0.06 -0.04,0.04 -0.07,0.08 -0.12,0.12 -0.14,0.15 -0.18,0.1 -0.3,-0.01l-0.19 -0.2c-0.03,-0.02 -0.04,-0.04 -0.06,-0.07 -0.03,-0.02 -0.12,-0.1 -0.13,-0.13 -0.04,0.01 -0.06,0.09 -0.14,0.13 0,0.03 0.02,0.04 0.03,0.07 0.03,0.1 -0.09,0.16 -0.16,0.2 -0.02,0.02 -0.03,0.03 -0.05,0.04 -0.14,0.1 -0.17,0.09 -0.28,-0.06 -0.03,-0.05 -0.07,-0.1 -0.1,-0.15 -0.09,-0.12 -0.05,-0.16 -0.07,-0.21 -0.02,-0.06 -0.09,-0.1 -0.1,-0.16zm0.7 0.12c-0.04,-0.01 -0.13,-0.1 -0.17,-0.11 0.02,-0.02 0.02,-0.04 0.04,-0.07l0.06 -0.14c0.02,-0.03 0.03,-0.05 0.04,-0.08 0.06,0.04 0.21,0.15 0.24,0.16 -0.01,0.03 -0.03,0.04 -0.05,0.06l-0.05 0.06c-0.01,0.01 -0.01,0.02 -0.02,0.03l-0.09 0.09zm0.63 -0.41l0.33 0.33c0.02,0.03 0.03,0.04 0.05,0.06 0.02,0.02 0.04,0.04 0.05,0.06 -0.03,0.05 -0.12,0.12 -0.17,0.17 -0.05,0.05 -0.14,0.15 -0.18,0.18l-0.38 -0.39c-0.02,-0.02 -0.04,-0.03 -0.05,-0.06l0.03 -0.04c0.1,0.07 0.15,0.21 0.23,0.13 0.02,-0.02 0.03,-0.03 0.05,-0.05 0.18,-0.17 0.18,-0.16 0.08,-0.26 -0.03,-0.03 -0.06,-0.06 -0.08,-0.09l0.04 -0.04zm0.46 -0.27l-0.33 0 0 -0.61c0,-0.03 0.02,-0.02 0.05,-0.02 0,0.29 -0.03,0.25 0.29,0.25 0.11,0 0.1,-0.05 0.1,-0.19 0,-0.07 0,-0.06 0.06,-0.06l0 0.46c0,0.02 -0.06,0.07 -0.08,0.09 -0.02,0.02 -0.06,0.08 -0.09,0.08zm-1.2 -0.28l0.02 0c0,0.1 0.06,0.16 0.12,0.23 0.03,0.03 0.06,0.07 0.1,0.08 0.05,0.03 0.08,0.04 0.1,0.09 0.03,0.1 0.08,0.13 0.15,0.21 0.01,0.01 0.02,0.03 0.04,0.04 0.06,0.02 0.04,-0.01 0.09,0.05 0,0.01 0.01,0.01 0.02,0.02 0.02,0.02 0.03,0.03 0.04,0.05l-0.08 0.08c-0.02,-0.01 -0.11,-0.09 -0.11,-0.12 -0.01,-0.03 0.01,-0.04 -0.05,-0.08l-0.38 -0.25c-0.07,0 -0.09,0.09 -0.13,0.17 -0.02,0.04 -0.09,0.18 -0.1,0.22 -0.02,-0.02 -0.08,-0.11 -0.09,-0.14 0.16,0.04 0.17,-0.11 0.22,-0.28 0.02,-0.08 0.06,-0.15 0.03,-0.24 -0.03,-0.08 0.01,-0.05 0.01,-0.13zm1.51 0.27c0,0.05 0.13,0.15 0.17,0.18 0.08,0.08 0.1,0.07 0.18,-0.01 0.02,-0.02 0.02,-0.03 0.05,-0.06l0.03 -0.02 0.04 0.04c-0.02,0.03 -0.18,0.17 -0.22,0.22l-0.22 0.23c-0.06,-0.05 -0.19,-0.21 -0.27,-0.27 -0.02,-0.01 -0.07,-0.06 -0.08,-0.09l0.32 -0.33c0.02,-0.03 0.09,-0.1 0.12,-0.11l0.03 0.03 -0.11 0.13c-0.02,0.02 -0.04,0.03 -0.04,0.06zm-1.67 -0.16c0,0.02 0.03,0.05 0.03,0.09 0,0.04 -0.01,0.05 -0.02,0.08 -0.04,0 -0.08,-0.02 -0.12,-0.03 -0.08,-0.02 -0.13,0.09 -0.02,0.13 0.02,0.01 0.08,0.03 0.1,0.03 0,0.04 -0.03,0.08 -0.03,0.12 -0.03,-0.01 -0.08,-0.03 -0.12,-0.04 -0.04,-0.01 -0.07,-0.02 -0.12,-0.03 0,-0.04 0.03,-0.11 0.04,-0.15 0.08,-0.29 0.08,-0.16 0.13,-0.23 0.02,-0.02 0.05,-0.12 0.05,-0.15 0.03,0.01 0.09,0.03 0.12,0.04 -0.01,0.03 -0.04,0.11 -0.04,0.14zm0.24 -0.24c0.04,-0.01 0.06,-0.05 0.09,-0.07 0.03,0.02 0.04,0.05 0.08,0.06 0.06,0.02 0.08,0 0.18,0.12 0.09,0.12 0.03,0.1 0.1,0.18 0.07,0.07 0.09,0.04 0.17,0.12 0.02,0.02 0.02,0.03 0.04,0.04 0.02,0.03 0.02,0.02 0.03,0.05 -0.1,0.06 -0.02,-0.02 -0.15,0.11 -0.01,0.02 -0.03,0.04 -0.04,0.05 -0.01,-0.04 -0.04,-0.05 -0.06,-0.08 -0.09,-0.1 -0.06,-0.18 -0.19,-0.24 -0.05,-0.02 -0.05,-0.02 -0.08,-0.06 -0.02,-0.02 -0.02,-0.02 -0.04,-0.04 -0.06,-0.07 -0.05,-0.03 -0.07,-0.15 0,-0.04 -0.04,-0.06 -0.06,-0.09zm0.23 -0.54l0.29 0c0,0.11 -0.04,0.21 -0.04,0.32l-0.21 0c0,-0.03 -0.04,-0.31 -0.04,-0.32z"/>
    <path class="fil1" d="M2.15 1.1c-0.05,0 -0.08,-0.02 -0.12,-0.03 0,-0.05 0.06,-0.17 0.07,-0.24l0.14 0.04c0.05,0.02 0.1,0.04 0.15,0.05 0.11,0.03 -0.01,0.08 0.23,0.14 -0.01,0.02 -0.03,0.1 -0.03,0.12 -0.01,0 -0.14,-0.04 -0.14,-0.04 -0.05,0 -0.07,0.06 -0.18,0 0.01,-0.06 0.03,-0.07 0.03,-0.15 0,-0.04 -0.09,-0.09 -0.12,0.01 -0.01,0.03 -0.03,0.07 -0.03,0.1zm-0.85 -0.53c0.01,-0.01 0.03,-0.02 0.05,-0.03 0.02,-0.01 0.03,-0.02 0.04,-0.03 0.02,0.03 0.07,0.11 0.1,0.12 0.07,0.03 0.06,-0.01 0.13,0.1 -0.07,0.05 -0.16,0.09 -0.12,0.16 0.03,0.03 0.07,0.03 0.1,0.01 0.02,-0.01 0.03,-0.02 0.05,-0.03 0.02,-0.01 0.03,-0.03 0.05,-0.03 0.01,0.01 0.06,0.08 0.06,0.1l-0.15 0.1c-0.02,0.02 -0.03,0.03 -0.05,0.04 -0.01,-0.03 -0.06,-0.09 -0.08,-0.12 -0.03,-0.04 -0.05,-0.07 -0.08,-0.11 -0.08,-0.12 0.02,-0.09 -0.07,-0.21 0,-0.01 -0.01,-0.02 -0.02,-0.03 -0.01,-0.02 -0.01,-0.02 -0.01,-0.04zm0.53 -0.06c0,0.09 0.12,0.07 0.19,0.07l0 0.12 -0.25 0 0 -0.3c0,-0.08 0.07,-0.09 0.07,-0.15l0 -0.11 0.12 0 0 0.11c0,0.07 0.06,0.03 0.06,0.2 -0.06,0 -0.19,-0.02 -0.19,0.06zm-0.19 0.04c-0.05,-0.03 -0.07,-0.03 -0.1,-0.05 0,-0.01 -0.01,-0.03 -0.02,-0.04 -0.12,-0.16 -0.09,-0.13 -0.29,0 -0.14,0.09 -0.11,0.09 -0.03,0.22 0.08,0.11 0,0.1 0.08,0.22 0.03,0.05 0.18,0.27 0.21,0.28 0.1,0.08 0.2,-0.04 0.35,-0.14 0.11,-0.07 0.02,-0.2 0.02,-0.21l0.1 0c-0.02,0.12 -0.11,0.23 -0.04,0.32 0.04,0.04 0.15,0.07 0.21,0.09 0.31,0.1 0.22,0.04 0.32,0.04 0.04,0 0.12,0.03 0.16,0.04 0.09,0.02 0.1,-0.11 0.14,-0.24 0.02,-0.07 0.03,-0.1 -0.04,-0.13 -0.05,-0.01 -0.13,-0.03 -0.15,-0.05 -0.02,-0.03 -0.04,-0.06 -0.11,-0.09 -0.07,-0.04 -0.25,-0.08 -0.3,-0.1 0,-0.12 0.02,-0.32 -0.01,-0.41 -0.04,-0.09 -0.05,0 -0.05,-0.16 0,-0.17 0,-0.14 -0.32,-0.14 -0.05,0 -0.07,0.04 -0.07,0.1 0,0.07 0.02,0.12 -0.01,0.15 -0.06,0.09 -0.05,0.16 -0.05,0.3z"/>
    <path class="fil1" d="M3.03 2.6c-0.04,-0.03 -0.18,-0.14 -0.21,-0.15 0.12,-0.21 0.22,-0.16 0.26,-0.31 0.01,-0.06 0,-0.06 0.04,-0.1 0.06,-0.08 0.06,-0.12 0.15,-0.14 0.03,-0.01 0.06,-0.04 0.07,-0.08 0.05,0.02 0.06,0.05 0.11,0.06 -0.01,0.05 -0.04,0.05 -0.05,0.1 -0.01,0.11 0.02,0.06 -0.08,0.2 -0.07,0.1 -0.15,0.08 -0.19,0.23 -0.02,0.1 -0.09,0.14 -0.1,0.19zm-0.34 -0.15c0,0.08 0.06,0.11 0.11,0.14 0.21,0.15 0.25,0.21 0.38,0.02 0.02,-0.03 0.03,-0.05 0.05,-0.08 0.04,-0.06 0.02,-0.13 0.08,-0.17 0.09,-0.06 0.04,0.01 0.14,-0.13 0.15,-0.22 0.04,-0.17 0.11,-0.27 0.06,-0.08 0.07,-0.1 0,-0.15 -0.03,-0.02 -0.05,-0.03 -0.07,-0.05 -0.03,-0.02 -0.05,-0.03 -0.07,-0.05 -0.02,-0.01 -0.05,-0.04 -0.07,-0.04 -0.07,-0.02 -0.09,0.08 -0.13,0.1 -0.06,0.04 -0.07,-0.01 -0.22,0.2 -0.01,0.02 -0.02,0.03 -0.02,0.04 -0.04,0.06 0,0.1 -0.08,0.16 -0.01,0.01 -0.02,0.02 -0.04,0.03 -0.05,0.03 -0.17,0.18 -0.17,0.25z"/>
    <path class="fil1" d="M2.46 3c-0.02,-0.01 -0.09,-0.03 -0.12,-0.03 0.02,-0.08 0.06,-0.16 0.08,-0.24l0.28 0.09c0.11,0.04 0.01,0.09 0.23,0.14 0,0.02 -0.02,0.1 -0.03,0.12 -0.01,-0.01 -0.13,-0.05 -0.14,-0.05 -0.04,0 -0.06,0.06 -0.17,0.01 0,-0.08 0.1,-0.2 -0.05,-0.2 -0.03,0 -0.04,0.04 -0.05,0.07 -0.01,0.02 -0.03,0.06 -0.03,0.09zm0.3 0.17c0.02,0 0.07,0.02 0.09,0.03 0.13,0.03 0.13,0.08 0.21,-0.19 0.04,-0.15 0.04,-0.13 -0.13,-0.19 -0.1,-0.03 -0.04,-0.05 -0.14,-0.11 -0.03,-0.01 -0.34,-0.11 -0.37,-0.11 -0.11,0 -0.13,0.1 -0.16,0.18 -0.06,0.2 -0.09,0.26 0.09,0.32 0.05,0.02 0.09,0.03 0.14,0.05 0.25,0.08 0.2,0.02 0.27,0.02z"/>
    <path class="fil1" d="M3.26 2.8c0.03,-0.01 0.04,-0.03 0.06,-0.04l0.16 -0.14c0.01,0.02 0.03,0.04 0.04,0.06l0.08 0.14c0.02,0.03 0.03,0.04 0.05,0.07 -0.04,0.02 -0.12,0.1 -0.16,0.13l-0.18 -0.16c-0.01,-0.01 -0.02,-0.02 -0.03,-0.03 -0.02,-0.03 -0.02,-0.03 -0.02,-0.03zm0.53 0.09l0 0.02c0,0.02 -0.02,0.05 -0.06,0.08 -0.03,0.02 -0.05,0.04 -0.08,0.06 -0.21,0.19 -0.17,0.12 -0.33,-0.01l-0.1 -0.09c-0.04,-0.04 -0.13,-0.11 -0.13,-0.15 0,-0.04 0.04,-0.06 0.09,-0.1 0.31,-0.25 0.31,-0.32 0.41,-0.15l0.14 0.23c0.04,0.05 0.06,0.09 0.06,0.11z"/>
    <path class="fil1" d="M2.57 1.6c0.01,-0.02 0.03,-0.03 0.05,-0.04 0.02,-0.02 0.04,-0.03 0.06,-0.05l0.11 -0.09c0.03,0.04 0.06,0.09 0.08,0.13l0.09 0.14c-0.03,0.02 -0.06,0.04 -0.08,0.06l-0.09 0.07 -0.16 -0.16c-0.03,-0.02 -0.04,-0.03 -0.06,-0.06zm-0.17 0c0,0.04 0.13,0.14 0.18,0.19 0.03,0.04 0.17,0.18 0.21,0.18 0.04,0 0.07,-0.04 0.09,-0.06l0.16 -0.12c0.11,-0.09 0.07,-0.09 -0.07,-0.32 -0.15,-0.26 -0.12,-0.26 -0.27,-0.14l-0.26 0.21c-0.02,0.01 -0.04,0.02 -0.04,0.06z"/>
    <path class="fil1" d="M3.1 1.59c0.16,0 0.13,0.02 0.13,-0.11 0,-0.04 -0.04,-0.03 -0.13,-0.03l0 0.14z"/>
    <path class="fil1" d="M2.21 1.51c0,0.03 0.03,0.02 0.11,0.02 0.03,0 0.02,-0.05 0.02,-0.13l-0.13 0 0 0.11z"/>
    <polygon class="fil1" points="0,1.65 0.13,1.65 0.13,1.52 0,1.52 "/>
    <polygon class="fil1" points="0.88,3.17 1.02,3.17 1.02,3.04 0.88,3.04 "/>
    <polygon class="fil1" points="0,3.23 0.13,3.23 0.13,3.1 0,3.1 "/>
    <polygon class="fil1" points="0.44,1.4 0.57,1.4 0.57,1.27 0.44,1.27 "/>
    <polygon class="fil1" points="3.67,2.54 3.79,2.54 3.79,2.4 3.67,2.4 "/>
    <polygon class="fil1" points="1.96,3.04 2.09,3.04 2.09,2.91 1.96,2.91 "/>
    <polygon class="fil1" points="3.54,2.34 3.67,2.34 3.67,2.22 3.54,2.22 "/>
   </g>
  </g>
 </g>
</svg>
