<?xml version="1.0" encoding="UTF-8"?>
<!DOCTYPE svg PUBLIC "-//W3C//DTD SVG 1.1//EN" "http://www.w3.org/Graphics/SVG/1.1/DTD/svg11.dtd">
<!-- Creator: CorelDRAW 2019 (64-Bit) -->
<svg xmlns="http://www.w3.org/2000/svg" xml:space="preserve" width="21px" height="24px" version="1.1" style="shape-rendering:geometricPrecision; text-rendering:geometricPrecision; image-rendering:optimizeQuality; fill-rule:evenodd; clip-rule:evenodd"
viewBox="0 0 1.29 1.49"
 xmlns:xlink="http://www.w3.org/1999/xlink"
 xmlns:xodm="http://www.corel.com/coreldraw/odm/2003">
 <defs>
  <style type="text/css">
   <![CDATA[
    .fil0 {fill:#333333}
    .fil1 {fill:#B3B3B3}
   ]]>
  </style>
 </defs>
 <g id="Layer_x0020_1">
  <metadata id="CorelCorpID_0Corel-Layer"/>
  <g id="_1046459152">
   <path class="fil0" d="M1.07 0.41c0.01,0.23 0.01,0.47 0.01,0.7 0,0.13 -0.02,0.2 -0.11,0.24 -0.07,0.03 -0.24,0.02 -0.33,0.02 -0.29,0 -0.43,0.04 -0.43,-0.27 0,-0.12 0,-0.61 0.01,-0.69l0.85 0zm-0.66 -0.12c0,-0.07 -0.01,-0.13 0.04,-0.16 0.04,-0.03 0.14,-0.01 0.19,-0.01 0.22,-0.01 0.24,-0.02 0.24,0.17l-0.47 0zm-0.12 0c-0.12,0.01 -0.32,-0.04 -0.29,0.08 0.01,0.04 0.05,0.04 0.1,0.04 0.01,0.21 -0.02,0.64 0,0.81 0.01,0.11 0.08,0.2 0.17,0.24 0.09,0.04 0.26,0.03 0.37,0.03 0.12,-0.01 0.29,0.01 0.38,-0.03 0.23,-0.11 0.17,-0.39 0.17,-0.65 0,-0.12 -0.01,-0.28 0,-0.4 0.15,0 0.1,-0.1 0.05,-0.11 -0.05,-0.01 -0.18,0 -0.25,-0.01 0,-0.12 0,-0.18 -0.07,-0.24 -0.08,-0.06 -0.16,-0.05 -0.28,-0.05 -0.1,0 -0.2,-0.01 -0.27,0.05 -0.07,0.06 -0.08,0.12 -0.08,0.24z"/>
   <path class="fil1" d="M0.39 0.59c0.06,-0.02 0.07,0.05 0.07,0.1l0 0.36c0,0.06 0.01,0.12 -0.04,0.14 -0.07,0.02 -0.08,-0.05 -0.08,-0.1l0 -0.36c0,-0.06 -0.01,-0.12 0.05,-0.14zm0.48 0c0.07,-0.02 0.08,0.05 0.08,0.1l0 0.36c0,0.06 0.01,0.13 -0.05,0.14 -0.07,0.02 -0.07,-0.05 -0.07,-0.1l0 -0.36c0,-0.07 -0.01,-0.12 0.04,-0.14zm-0.23 0c0.07,0.01 0.06,0.06 0.06,0.13l0 0.35c0,0.07 0.01,0.11 -0.06,0.12 -0.06,-0.01 -0.05,-0.06 -0.05,-0.13l0 -0.35c0,-0.07 -0.01,-0.11 0.05,-0.12zm0 0.78c0.09,0 0.26,0.01 0.33,-0.02 0.09,-0.04 0.11,-0.11 0.11,-0.24 0,-0.23 0,-0.47 -0.01,-0.7l-0.85 0c-0.01,0.08 -0.01,0.57 -0.01,0.69 0,0.31 0.14,0.27 0.43,0.27z"/>
   <path class="fil0" d="M0.39 0.59c-0.06,0.02 -0.05,0.08 -0.05,0.14l0 0.36c0,0.05 0.01,0.12 0.08,0.1 0.05,-0.02 0.04,-0.08 0.04,-0.14l0 -0.36c0,-0.05 -0.01,-0.12 -0.07,-0.1z"/>
   <path class="fil0" d="M0.87 0.59c-0.05,0.02 -0.04,0.07 -0.04,0.14l0 0.36c0,0.05 0,0.12 0.07,0.1 0.06,-0.01 0.05,-0.08 0.05,-0.14l0 -0.36c0,-0.05 -0.01,-0.12 -0.08,-0.1z"/>
   <path class="fil0" d="M0.64 1.19c0.07,-0.01 0.06,-0.05 0.06,-0.12l0 -0.35c0,-0.07 0.01,-0.12 -0.06,-0.13 -0.06,0.01 -0.05,0.05 -0.05,0.12l0 0.35c0,0.07 -0.01,0.12 0.05,0.13z"/>
  </g>
 </g>
</svg>
