<?xml version="1.0" encoding="UTF-8"?>
<!DOCTYPE svg PUBLIC "-//W3C//DTD SVG 1.1//EN" "http://www.w3.org/Graphics/SVG/1.1/DTD/svg11.dtd">
<!-- Creator: CorelDRAW 2019 (64-Bit) -->
<svg xmlns="http://www.w3.org/2000/svg" xml:space="preserve" width="33px" height="17px" version="1.1" style="shape-rendering:geometricPrecision; text-rendering:geometricPrecision; image-rendering:optimizeQuality; fill-rule:evenodd; clip-rule:evenodd"
viewBox="0 0 7.9 4.07"
 xmlns:xlink="http://www.w3.org/1999/xlink"
 xmlns:xodm="http://www.corel.com/coreldraw/odm/2003">
 <defs>
  <style type="text/css">
   <![CDATA[
    .fil1 {fill:#333333}
    .fil0 {fill:#B3B3B3}
   ]]>
  </style>
 </defs>
 <g id="Layer_x0020_1">
  <metadata id="CorelCorpID_0Corel-Layer"/>
  <g id="_1056049936">
   <path class="fil0" d="M3 1.4l-0.19 0 0 -0.67c0,-0.17 -0.18,-0.35 -0.35,-0.35l-1.39 0c-0.2,0 -0.36,0.13 -0.46,0.24 -0.08,0.1 -0.17,0.37 -0.22,0.5 -0.46,1.32 -0.38,0.51 -0.38,2.22 0,0.18 0.17,0.35 0.35,0.35l0.79 0c0.09,0 0.11,-0.05 0.14,-0.13 0.01,0.25 0.32,0.51 0.58,0.51 0.26,0 0.35,-0.03 0.53,-0.21 0.12,-0.13 0.15,-0.26 0.15,-0.5l0.05 0.05c0.06,0.05 0.21,0.03 0.33,0.03 0,0.1 -0.02,0.25 0.13,0.25l0.89 0c0.15,0 0.13,-0.15 0.13,-0.25l0.51 0 0 0.12 0.27 0c0,0.25 0.31,0.51 0.57,0.51l0.1 0c0.25,0 0.56,-0.26 0.57,-0.51l0.27 0 0 -0.12c0.36,0 0.38,0.03 0.38,-0.24 0.1,0.03 0.27,0.24 0.38,0.24l0.64 0c0.08,0 0.13,-0.05 0.13,-0.13l0 -1.78c0,-0.09 -0.26,-0.35 -0.32,-0.41 -0.07,-0.07 -0.11,-0.12 -0.18,-0.19l-0.7 -0.77c-0.04,-0.05 -0.12,-0.16 -0.2,-0.16l-3.44 0c-0.19,0 -0.12,0.3 -0.11,0.45 0.01,0.16 -0.01,0.38 0.02,0.58l0.03 0.37z"/>
   <path class="fil1" d="M5.1 3.44c0,-0.31 0.39,-0.52 0.65,-0.27 0.35,0.35 -0.19,0.89 -0.54,0.53 -0.05,-0.05 -0.11,-0.17 -0.11,-0.26zm-3.31 -1.15l0.38 0 0 -0.25 -0.38 0 0 0.25zm3.43 1.12c0,0.38 0.51,0.38 0.51,0 0,-0.12 -0.11,-0.23 -0.28,-0.23 -0.1,0 -0.23,0.13 -0.23,0.23zm-3.56 0c0,0.38 0.51,0.38 0.51,0 0,-0.12 -0.11,-0.23 -0.29,-0.23 -0.1,0 -0.22,0.13 -0.22,0.23zm-0.46 -1.37l-0.3 0c0,-0.33 0,-0.25 0.11,-0.61l0.11 -0.41 0.92 0 0 0.63 -0.38 0c-0.14,0 -0.37,0.39 -0.46,0.39zm-0.56 -0.26l0 0.29c0,0.1 0.13,0.22 0.22,0.22 0.52,0 0.43,0.05 0.64,-0.17 0.04,-0.03 0.19,-0.19 0.22,-0.2 0.07,-0.03 0.28,0.01 0.38,-0.01 0.08,-0.02 0.2,-0.12 0.2,-0.22l0 -0.7c0,-0.1 -0.13,-0.23 -0.23,-0.23l-0.98 0c-0.21,0 -0.25,0.31 -0.29,0.45 -0.03,0.09 -0.16,0.51 -0.16,0.57zm0.89 1.66c0,-0.27 0.32,-0.5 0.6,-0.31 0.36,0.24 0.06,0.83 -0.37,0.65 -0.13,-0.06 -0.23,-0.21 -0.23,-0.34zm1.66 -0.26l0.63 0 0 0.26 -0.63 0 0 -0.26zm4.28 -1.78c0.04,0.03 0.17,0.17 0.17,0.21l0 1.57 -0.44 0c-0.04,0 -0.09,-0.06 -0.18,-0.11l0.45 -1.67zm-7.21 1.27l0.13 0 0 0.26 -0.13 0 0 -0.26zm5.92 0.13l0.32 0 0 0.38 -0.13 0 0 -0.12c0,-0.11 -0.14,-0.19 -0.19,-0.26zm-0.57 0c0.13,0 0.17,-0.02 0.22,0.03l0.26 0.25c0.05,0.06 0.03,0.09 0.03,0.23 -0.01,0 -0.01,-0.01 -0.01,-0.01l-0.01 -0.04c-0.07,-0.19 -0.2,-0.35 -0.4,-0.43l-0.09 -0.03zm-0.77 0.51c0,-0.26 -0.04,-0.16 0.16,-0.35 0.03,-0.04 0.09,-0.1 0.12,-0.13 0.06,-0.05 0.1,-0.03 0.23,-0.03 0,0 -0.01,0 -0.01,0.01 -0.06,0.02 -0.11,0.03 -0.17,0.06 -0.26,0.15 -0.3,0.4 -0.33,0.44zm-0.25 -0.25l0 0.12 -0.51 0c0,-0.1 0.02,-0.25 -0.13,-0.25l-0.89 0c-0.15,0 -0.13,0.15 -0.13,0.25l-0.12 0 0 -0.38 1.97 0c-0.05,0.07 -0.19,0.15 -0.19,0.26zm-2.55 -0.26c0.14,0 0.17,-0.02 0.23,0.03l0.25 0.25c0.05,0.06 0.03,0.09 0.03,0.23 0,0 0,-0.01 0,-0.01 -0.03,-0.06 -0.04,-0.1 -0.07,-0.17 -0.07,-0.12 -0.21,-0.25 -0.34,-0.3l-0.1 -0.03zm-0.76 0.51c0,-0.26 -0.04,-0.16 0.15,-0.35 0.19,-0.19 0.1,-0.16 0.36,-0.16l-0.18 0.07c-0.16,0.09 -0.25,0.23 -0.31,0.39l-0.02 0.05zm1.53 -1.66l0.2 0c0,0.32 0.03,0.59 0.03,0.9l-0.23 0 0 -0.9zm-2.55 0.59c0,-0.08 0.13,-0.36 0.16,-0.46l0.34 -0.89c0.06,-0.15 0.19,-0.25 0.39,-0.25l1.26 0c0.18,0 0.14,0.23 0.14,0.41l0 1.69c-0.07,-0.05 -0.15,-0.19 -0.25,-0.19l-0.77 0c-0.08,0 -0.11,0.05 -0.15,0.1l-0.26 0.25c-0.14,0.14 -0.1,0.15 -0.1,0.54l-0.62 0c-0.16,0 -0.14,-0.17 -0.14,-0.26l0.16 0c0.1,0 0.22,-0.12 0.22,-0.22l0 -0.32c0,-0.1 -0.12,-0.22 -0.22,-0.22l-0.16 0 0 -0.18zm6.44 -0.59l0.37 0.18 -0.25 0.93c-0.04,0.15 0,0.1 -0.05,0.12l-0.07 -1.23zm-0.06 -1.16l0.44 0.47c0.04,0.06 0.06,0.07 0.11,0.12 0.05,0.05 0.07,0.06 0.05,0.13 -0.02,0.1 -0.08,0.26 -0.09,0.37 -0.12,-0.07 -0.27,-0.15 -0.39,-0.2 -0.04,-0.02 -0.02,-0.01 -0.07,-0.03 0,-0.1 -0.03,-0.82 -0.05,-0.86zm-1.14 -0.24l0.87 0 0.1 2.01c0.01,0.09 0.01,0.17 0.01,0.29l-0.87 0 -0.1 -2.01c-0.01,-0.09 -0.01,-0.17 -0.01,-0.29zm-1.15 0l0.87 0c0,0.12 0.02,0.16 0.02,0.27l0.1 2.03 -0.88 0 -0.1 -2.01c-0.01,-0.09 -0.01,-0.17 -0.01,-0.29zm-1.15 0l0.88 0c0,0.12 0.02,0.16 0.01,0.27l0.08 1.45c0.01,0.1 0,0.19 0.01,0.29 0.01,0.09 0.01,0.17 0.01,0.29l-0.88 0c0,-0.12 -0.01,-0.16 -0.01,-0.27l-0.08 -1.74c-0.01,-0.09 -0.02,-0.17 -0.02,-0.29zm-0.2 1.15l-0.19 0 0 -0.67c0,-0.17 -0.18,-0.35 -0.35,-0.35l-1.39 0c-0.2,0 -0.36,0.13 -0.46,0.25 -0.08,0.09 -0.17,0.36 -0.22,0.49 -0.46,1.32 -0.38,0.51 -0.38,2.22 0,0.18 0.17,0.35 0.35,0.35l0.79 0c0.09,0 0.11,-0.05 0.14,-0.13 0.01,0.25 0.32,0.51 0.58,0.51 0.26,0 0.35,-0.03 0.53,-0.21 0.12,-0.13 0.15,-0.26 0.15,-0.5l0.05 0.05c0.06,0.05 0.21,0.03 0.33,0.03 0,0.1 -0.02,0.25 0.13,0.25l0.89 0c0.15,0 0.13,-0.15 0.13,-0.25l0.51 0 0 0.12 0.27 0c0,0.25 0.31,0.51 0.57,0.51l0.1 0c0.25,0 0.56,-0.26 0.57,-0.51l0.27 0 0 -0.12c0.36,0 0.38,0.03 0.38,-0.24 0.1,0.03 0.27,0.24 0.38,0.24l0.64 0c0.08,0 0.13,-0.05 0.13,-0.13l0 -1.78c0,-0.09 -0.26,-0.35 -0.32,-0.41 -0.07,-0.07 -0.11,-0.12 -0.18,-0.19l-0.7 -0.77c-0.04,-0.05 -0.12,-0.16 -0.2,-0.16l-3.44 0c-0.19,0 -0.12,0.3 -0.11,0.45 0.01,0.16 -0.01,0.38 0.02,0.58l0.03 0.37z"/>
  </g>
 </g>
</svg>
