<?xml version="1.0" encoding="UTF-8"?>
<!DOCTYPE svg PUBLIC "-//W3C//DTD SVG 1.1//EN" "http://www.w3.org/Graphics/SVG/1.1/DTD/svg11.dtd">
<!-- Creator: CorelDRAW 2019 (64-Bit) -->
<svg xmlns="http://www.w3.org/2000/svg" xml:space="preserve" width="64px" height="64px" version="1.1" style="shape-rendering:geometricPrecision; text-rendering:geometricPrecision; image-rendering:optimizeQuality; fill-rule:evenodd; clip-rule:evenodd"
viewBox="0 0 14.12 14.12"
 xmlns:xlink="http://www.w3.org/1999/xlink"
 xmlns:xodm="http://www.corel.com/coreldraw/odm/2003">
 <defs>
  <style type="text/css">
   <![CDATA[
    .fil0 {fill:#6DA544}
    .fil3 {fill:#B3B3B3}
    .fil2 {fill:#D80027}
    .fil1 {fill:#F0F0F0}
   ]]>
  </style>
 </defs>
 <g id="Layer_x0020_1">
  <metadata id="CorelCorpID_0Corel-Layer"/>
  <g id="_1413323392">
   <path class="fil0" d="M1.23 9.12l11.66 0c-0.85,2.4 -3.14,4.12 -5.83,4.12 -2.69,0 -4.98,-1.72 -5.83,-4.12z"/>
   <path class="fil1" d="M1.23 9.12l11.66 0c0.23,-0.64 0.35,-1.34 0.35,-2.06 0,-0.72 -0.12,-1.41 -0.35,-2.06l-11.66 0c-0.22,0.65 -0.35,1.34 -0.35,2.06 0,0.72 0.13,1.42 0.35,2.06z"/>
   <path class="fil2" d="M12.89 5l-11.66 0c0.85,-2.4 3.14,-4.12 5.83,-4.12 2.69,0 4.98,1.72 5.83,4.12z"/>
  </g>
  <path class="fil3" d="M7.06 0c1.95,0 3.72,0.79 5,2.07 1.27,1.28 2.06,3.04 2.06,4.99 0,1.95 -0.79,3.72 -2.06,5 -1.28,1.27 -3.05,2.06 -5,2.06 -1.95,0 -3.71,-0.79 -4.99,-2.06 -1.28,-1.28 -2.07,-3.05 -2.07,-5 0,-1.95 0.79,-3.71 2.07,-4.99 1.28,-1.28 3.04,-2.07 4.99,-2.07zm0 0.59c3.58,0 6.48,2.9 6.48,6.47 0,3.58 -2.9,6.48 -6.48,6.48 -3.57,0 -6.47,-2.9 -6.47,-6.48 0,-3.57 2.9,-6.47 6.47,-6.47z"/>
 </g>
</svg>
