<?xml version="1.0" encoding="UTF-8"?>
<!DOCTYPE svg PUBLIC "-//W3C//DTD SVG 1.1//EN" "http://www.w3.org/Graphics/SVG/1.1/DTD/svg11.dtd">
<!-- Creator: CorelDRAW 2019 (64-Bit) -->
<svg xmlns="http://www.w3.org/2000/svg" xml:space="preserve" width="64px" height="64px" version="1.1" style="shape-rendering:geometricPrecision; text-rendering:geometricPrecision; image-rendering:optimizeQuality; fill-rule:evenodd; clip-rule:evenodd"
viewBox="0 0 6.62 6.62"
 xmlns:xlink="http://www.w3.org/1999/xlink"
 xmlns:xodm="http://www.corel.com/coreldraw/odm/2003">
 <defs>
  <style type="text/css">
   <![CDATA[
    .fil1 {fill:#41479B}
    .fil4 {fill:#B3B3B3}
    .fil0 {fill:#CE869E}
    .fil2 {fill:#F3F3F3}
    .fil3 {fill:#FF4B55}
   ]]>
  </style>
 </defs>
 <g id="Layer_x0020_1">
  <metadata id="CorelCorpID_0Corel-Layer"/>
  <g id="_1403330288">
   <g>
    <path class="fil0" d="M3.77 6.17l0.01 -2.4 2.39 0c0,0 0,-0.01 0,-0.01l-2.41 0.01 0 2.4c0,0 0.01,0 0.01,0z"/>
    <path class="fil0" d="M6.17 2.84l-2.4 0 0 -2.39c0,0 -0.01,0 -0.01,0l0 2.4 2.41 0.01c0,-0.01 0,-0.01 0,-0.02z"/>
    <path class="fil0" d="M2.86 6.17l0 -2.4 -2.41 -0.01c0,0 0,0.01 0,0.01l2.39 0 0 2.4c0.01,0 0.01,0 0.02,0z"/>
    <path class="fil0" d="M0.45 2.86l2.4 0 0.01 -2.41c-0.01,0 -0.01,0 -0.02,0l0 2.39 -2.39 0c0,0.01 0,0.01 0,0.02z"/>
   </g>
   <g>
    <path class="fil1" d="M2.55 6.1l0 -1.74c-0.04,0.01 -0.83,0.53 -1.38,0.9 0.36,0.4 0.84,0.69 1.38,0.84z"/>
    <path class="fil1" d="M1.17 1.36c0.53,0.35 1.34,0.89 1.38,0.89l0 -1.73c-0.54,0.14 -1.02,0.44 -1.38,0.84z"/>
    <path class="fil1" d="M5.45 5.26l-0.9 -0.59c-0.07,-0.05 -0.43,-0.3 -0.48,-0.31l0 1.74c0.54,-0.15 1.01,-0.44 1.38,-0.84z"/>
    <path class="fil1" d="M4.07 0.52l0 1.73c0.05,-0.01 0.41,-0.25 0.48,-0.3l0.9 -0.59c-0.37,-0.4 -0.84,-0.7 -1.38,-0.84z"/>
    <path class="fil1" d="M0.52 2.55l0.78 0c-0.14,-0.11 -0.29,-0.2 -0.43,-0.29 -0.08,-0.05 -0.14,-0.09 -0.2,-0.14 -0.06,0.14 -0.12,0.28 -0.15,0.43z"/>
    <path class="fil1" d="M0.67 4.49c0.06,-0.04 0.12,-0.08 0.19,-0.13 0.14,-0.09 0.3,-0.19 0.44,-0.29l-0.78 0c0.03,0.15 0.09,0.29 0.15,0.42z"/>
    <path class="fil1" d="M5.95 2.13l-0.19 0.12c-0.15,0.1 -0.3,0.19 -0.45,0.29l0.79 0.01c-0.04,-0.15 -0.09,-0.29 -0.15,-0.42z"/>
    <path class="fil1" d="M6.1 4.07l-0.79 0 0.64 0.42c0.06,-0.14 0.11,-0.28 0.15,-0.42z"/>
   </g>
   <g>
    <path class="fil2" d="M0.91 1.68c0.43,0.28 1.29,0.84 1.32,0.87l-0.51 0c-0.05,-0.01 -0.07,-0.02 -0.1,-0.05 -0.14,-0.09 -0.27,-0.17 -0.4,-0.26l-0.47 -0.3c-0.03,0.06 -0.06,0.12 -0.08,0.18 0.06,0.05 0.12,0.09 0.2,0.14 0.14,0.09 0.29,0.18 0.43,0.29l-0.78 0c-0.03,0.09 -0.05,0.19 -0.07,0.29l2.39 0 0 -2.39c-0.1,0.02 -0.2,0.04 -0.29,0.07l0 1.73c-0.04,0 -0.85,-0.54 -1.38,-0.89 -0.09,0.1 -0.18,0.21 -0.26,0.32z"/>
    <path class="fil2" d="M4.07 6.1l0 -1.74c0.05,0.01 0.41,0.26 0.48,0.31l0.9 0.59c0.08,-0.1 0.16,-0.2 0.24,-0.3l-1.37 -0.89c0.11,0 0.23,0 0.34,0 0.17,0 0.17,-0.02 0.29,0.05l0.9 0.58c0.03,-0.07 0.07,-0.14 0.1,-0.21l-0.64 -0.42 0.79 0c0.03,-0.1 0.05,-0.2 0.07,-0.3l-2.39 0 -0.01 2.4c0.1,-0.02 0.2,-0.04 0.3,-0.07z"/>
    <path class="fil2" d="M6.1 2.55l-0.79 -0.01c0.15,-0.1 0.3,-0.19 0.45,-0.29l0.19 -0.12c-0.05,-0.12 -0.11,-0.23 -0.17,-0.33 -0.25,0.15 -0.51,0.33 -0.54,0.35l-0.47 0.31c-0.15,0.09 -0.1,0.09 -0.31,0.09 -0.13,0 -0.25,0 -0.38,0 0.05,-0.05 0.94,-0.62 1.53,-1 -0.05,-0.07 -0.11,-0.13 -0.16,-0.19l-0.9 0.59c-0.07,0.05 -0.43,0.29 -0.48,0.3l0 -1.73c-0.1,-0.03 -0.2,-0.05 -0.3,-0.07l0 2.39 2.4 0c-0.02,-0.1 -0.04,-0.2 -0.07,-0.29z"/>
    <path class="fil2" d="M0.52 4.07l0.78 0c-0.14,0.1 -0.3,0.2 -0.44,0.29 -0.07,0.05 -0.13,0.09 -0.19,0.13 0.05,0.11 0.1,0.22 0.16,0.32 0.02,-0.01 0.04,-0.02 0.06,-0.04l0.95 -0.61c0.15,-0.1 0.09,-0.09 0.3,-0.09 0.13,0 0.26,0 0.39,0 -0.03,0.03 -0.43,0.28 -0.51,0.34 -0.08,0.05 -0.17,0.11 -0.25,0.16l-0.76 0.49c0.05,0.07 0.1,0.13 0.16,0.2 0.55,-0.37 1.34,-0.89 1.38,-0.9l0 1.74c0.09,0.03 0.19,0.05 0.29,0.07l0 -2.4 -2.39 0c0.02,0.1 0.04,0.2 0.07,0.3z"/>
   </g>
   <g>
    <path class="fil3" d="M0.45 3.76l2.41 0.01 0 2.4c0.14,0.02 0.29,0.03 0.45,0.03 0.15,0 0.3,-0.01 0.45,-0.03l0 -2.4 2.41 -0.01c0.02,-0.15 0.03,-0.3 0.03,-0.45 0,-0.16 -0.01,-0.31 -0.03,-0.45l-2.41 -0.01 0 -2.4c-0.15,-0.02 -0.3,-0.04 -0.45,-0.04 -0.16,0 -0.31,0.02 -0.45,0.04l-0.01 2.41 -2.4 0c-0.02,0.14 -0.04,0.29 -0.04,0.45 0,0.15 0.02,0.3 0.04,0.45z"/>
    <path class="fil3" d="M1.01 5.06l0.76 -0.49c0.08,-0.05 0.17,-0.11 0.25,-0.16 0.08,-0.06 0.48,-0.31 0.51,-0.34 -0.13,0 -0.26,0 -0.39,0 -0.21,0 -0.15,-0.01 -0.3,0.09l-0.95 0.61c-0.02,0.02 -0.04,0.03 -0.06,0.04 0.06,0.09 0.11,0.17 0.18,0.25z"/>
    <path class="fil3" d="M5.61 1.55c-0.59,0.38 -1.48,0.95 -1.53,1 0.13,0 0.25,0 0.38,0 0.21,0 0.16,0 0.31,-0.09l0.47 -0.31c0.03,-0.02 0.29,-0.2 0.54,-0.35 -0.06,-0.09 -0.11,-0.17 -0.17,-0.25z"/>
    <path class="fil3" d="M5.85 4.7l-0.9 -0.58c-0.12,-0.07 -0.12,-0.05 -0.29,-0.05 -0.11,0 -0.23,0 -0.34,0l1.37 0.89c0.05,-0.08 0.11,-0.17 0.16,-0.26z"/>
    <path class="fil3" d="M0.75 1.94l0.47 0.3c0.13,0.09 0.26,0.17 0.4,0.26 0.03,0.03 0.05,0.04 0.1,0.05l0.51 0c-0.03,-0.03 -0.89,-0.59 -1.32,-0.87 -0.05,0.09 -0.11,0.17 -0.16,0.26z"/>
   </g>
  </g>
  <path class="fil4" d="M3.31 0c0.91,0 1.74,0.37 2.34,0.97 0.6,0.6 0.97,1.42 0.97,2.34 0,0.91 -0.37,1.74 -0.97,2.34 -0.6,0.6 -1.43,0.97 -2.34,0.97 -0.92,0 -1.74,-0.37 -2.34,-0.97 -0.6,-0.6 -0.97,-1.43 -0.97,-2.34 0,-0.92 0.37,-1.74 0.97,-2.34 0.6,-0.6 1.42,-0.97 2.34,-0.97zm0 0.28c1.67,0 3.03,1.35 3.03,3.03 0,1.67 -1.36,3.03 -3.03,3.03 -1.68,0 -3.03,-1.36 -3.03,-3.03 0,-1.68 1.35,-3.03 3.03,-3.03z"/>
 </g>
</svg>
