<?xml version="1.0" encoding="UTF-8"?>
<!DOCTYPE svg PUBLIC "-//W3C//DTD SVG 1.1//EN" "http://www.w3.org/Graphics/SVG/1.1/DTD/svg11.dtd">
<!-- Creator: CorelDRAW 2019 (64-Bit) -->
<svg xmlns="http://www.w3.org/2000/svg" xml:space="preserve" width="55px" height="64px" version="1.1" style="shape-rendering:geometricPrecision; text-rendering:geometricPrecision; image-rendering:optimizeQuality; fill-rule:evenodd; clip-rule:evenodd"
viewBox="0 0 4.96 5.72"
 xmlns:xlink="http://www.w3.org/1999/xlink"
 xmlns:xodm="http://www.corel.com/coreldraw/odm/2003">
 <defs>
  <style type="text/css">
   <![CDATA[
    .fil0 {fill:#008131}
    .fil1 {fill:#70D697}
   ]]>
  </style>
 </defs>
 <g id="Layer_x0020_1">
  <metadata id="CorelCorpID_0Corel-Layer"/>
  <path class="fil0" d="M4.13 1.58c0.03,0.87 0,1.79 0,2.67 0,0.51 -0.05,0.78 -0.41,0.95 -0.26,0.12 -0.91,0.07 -1.25,0.07 -1.11,0 -1.65,0.16 -1.65,-1.04 0,-0.48 -0.02,-2.34 0.01,-2.66l3.3 0.01zm-2.56 -0.45c0,-0.29 -0.04,-0.51 0.16,-0.63 0.16,-0.1 0.53,-0.05 0.75,-0.05 0.84,-0.01 0.9,-0.07 0.9,0.68l-1.81 0zm-0.44 0c-0.48,0.03 -1.23,-0.16 -1.12,0.29 0.04,0.15 0.17,0.15 0.36,0.15 0.06,0.81 -0.07,2.45 0.01,3.11 0.06,0.44 0.33,0.76 0.65,0.91 0.36,0.18 0.99,0.12 1.45,0.12 0.45,-0.01 1.08,0.06 1.44,-0.12 0.88,-0.42 0.66,-1.5 0.66,-2.46 0,-0.48 -0.04,-1.09 0,-1.56 0.56,0 0.38,-0.39 0.19,-0.43 -0.21,-0.04 -0.7,0 -0.95,-0.01 0,-0.47 -0.01,-0.72 -0.29,-0.95 -0.29,-0.24 -0.63,-0.17 -1.05,-0.17 -0.42,0 -0.8,-0.06 -1.07,0.17 -0.27,0.24 -0.28,0.47 -0.28,0.95z"/>
  <path class="fil1" d="M1.48 2.27c0.25,-0.08 0.28,0.18 0.28,0.39l0 1.38c0,0.22 0.04,0.47 -0.15,0.53 -0.28,0.08 -0.3,-0.17 -0.3,-0.4l0 -1.37c0,-0.24 -0.05,-0.47 0.17,-0.53zm1.88 0.01c0.25,-0.09 0.28,0.17 0.28,0.38l0 1.38c0,0.22 0.05,0.48 -0.17,0.53 -0.26,0.07 -0.28,-0.18 -0.28,-0.4l0 -1.37c0,-0.26 -0.05,-0.45 0.17,-0.52zm-0.89 -0.02c0.28,0.04 0.22,0.23 0.22,0.49l0 1.37c0.01,0.25 0.04,0.42 -0.22,0.46 -0.25,-0.04 -0.21,-0.23 -0.21,-0.49l0 -1.37c0,-0.25 -0.05,-0.42 0.21,-0.46zm0 3.01c0.34,0 0.99,0.05 1.25,-0.07 0.36,-0.17 0.41,-0.44 0.41,-0.95 0,-0.88 0.03,-1.8 0,-2.67l-3.3 -0.01c-0.03,0.32 -0.01,2.18 -0.01,2.66 0,1.2 0.54,1.04 1.65,1.04z"/>
  <path class="fil0" d="M1.48 2.27c-0.22,0.06 -0.17,0.29 -0.17,0.53l0 1.37c0,0.23 0.02,0.48 0.3,0.4 0.19,-0.06 0.15,-0.31 0.15,-0.53l0 -1.38c0,-0.21 -0.03,-0.47 -0.28,-0.39z"/>
  <path class="fil0" d="M3.36 2.28c-0.22,0.07 -0.17,0.26 -0.17,0.52l0 1.37c0,0.22 0.02,0.47 0.28,0.4 0.22,-0.05 0.17,-0.31 0.17,-0.53l0 -1.38c0,-0.21 -0.03,-0.47 -0.28,-0.38z"/>
  <path class="fil0" d="M2.47 4.58c0.26,-0.04 0.23,-0.21 0.22,-0.46l0 -1.37c0,-0.26 0.06,-0.45 -0.22,-0.49 -0.26,0.04 -0.21,0.21 -0.21,0.46l0 1.37c0,0.26 -0.04,0.45 0.21,0.49z"/>
 </g>
</svg>
