<?xml version="1.0" encoding="UTF-8"?>
<!DOCTYPE svg PUBLIC "-//W3C//DTD SVG 1.1//EN" "http://www.w3.org/Graphics/SVG/1.1/DTD/svg11.dtd">
<!-- Creator: CorelDRAW 2019 (64-Bit) -->
<svg xmlns="http://www.w3.org/2000/svg" xml:space="preserve" width="55px" height="64px" version="1.1" style="shape-rendering:geometricPrecision; text-rendering:geometricPrecision; image-rendering:optimizeQuality; fill-rule:evenodd; clip-rule:evenodd"
viewBox="0 0 3.53 4.07"
 xmlns:xlink="http://www.w3.org/1999/xlink"
 xmlns:xodm="http://www.corel.com/coreldraw/odm/2003">
 <defs>
  <style type="text/css">
   <![CDATA[
    .fil0 {fill:#539BED}
    .fil1 {fill:#B8D9FF}
   ]]>
  </style>
 </defs>
 <g id="Layer_x0020_1">
  <metadata id="CorelCorpID_0Corel-Layer"/>
  <path class="fil0" d="M2.94 1.12c0.02,0.62 0,1.28 0,1.91 0,0.36 -0.04,0.56 -0.29,0.67 -0.19,0.09 -0.65,0.05 -0.89,0.05 -0.79,0 -1.18,0.12 -1.18,-0.74 0,-0.34 -0.01,-1.66 0.01,-1.89l2.35 0zm-1.82 -0.31c0,-0.21 -0.03,-0.37 0.12,-0.45 0.11,-0.07 0.37,-0.04 0.52,-0.04 0.6,-0.01 0.65,-0.05 0.65,0.49l-1.29 0zm-0.32 -0.01c-0.34,0.02 -0.87,-0.11 -0.79,0.21 0.03,0.11 0.12,0.11 0.25,0.11 0.05,0.58 -0.05,1.74 0.01,2.21 0.04,0.32 0.23,0.55 0.46,0.66 0.26,0.12 0.71,0.08 1.03,0.08 0.33,-0.01 0.78,0.04 1.04,-0.08 0.62,-0.3 0.46,-1.07 0.46,-1.76 0,-0.34 -0.02,-0.78 0.01,-1.11 0.39,0 0.27,-0.28 0.13,-0.31 -0.15,-0.03 -0.5,0 -0.68,-0.01 0,-0.33 0,-0.51 -0.2,-0.67 -0.21,-0.17 -0.45,-0.12 -0.76,-0.12 -0.29,-0.01 -0.56,-0.05 -0.75,0.12 -0.2,0.17 -0.21,0.33 -0.21,0.67z"/>
  <path class="fil1" d="M1.06 1.62c0.17,-0.06 0.2,0.12 0.19,0.28l0 0.98c0,0.15 0.04,0.34 -0.1,0.38 -0.2,0.06 -0.21,-0.13 -0.21,-0.29l0 -0.97c0,-0.17 -0.04,-0.34 0.12,-0.38zm1.33 0c0.18,-0.06 0.2,0.12 0.2,0.28l0 0.98c0,0.16 0.04,0.34 -0.11,0.38 -0.2,0.05 -0.21,-0.13 -0.21,-0.29l0 -0.97c0,-0.19 -0.03,-0.33 0.12,-0.38zm-0.63 -0.01c0.2,0.03 0.16,0.16 0.16,0.35l0 0.97c0,0.18 0.02,0.3 -0.16,0.33 -0.18,-0.03 -0.15,-0.16 -0.15,-0.35l0 -0.97c0,-0.18 -0.03,-0.3 0.15,-0.33zm0 2.14c0.24,0 0.7,0.04 0.89,-0.05 0.25,-0.11 0.29,-0.31 0.29,-0.67 0,-0.63 0.02,-1.29 0,-1.91l-2.35 0c-0.02,0.23 -0.01,1.55 -0.01,1.89 0,0.86 0.39,0.74 1.18,0.74z"/>
  <path class="fil0" d="M1.06 1.62c-0.16,0.04 -0.12,0.21 -0.12,0.38l0 0.97c0,0.16 0.01,0.35 0.21,0.29 0.14,-0.04 0.1,-0.23 0.1,-0.38l0 -0.98c0.01,-0.16 -0.02,-0.34 -0.19,-0.28z"/>
  <path class="fil0" d="M2.39 1.62c-0.15,0.05 -0.12,0.19 -0.12,0.38l0 0.97c0,0.16 0.01,0.34 0.21,0.29 0.15,-0.04 0.11,-0.22 0.11,-0.38l0 -0.98c0,-0.16 -0.02,-0.34 -0.2,-0.28z"/>
  <path class="fil0" d="M1.76 3.26c0.18,-0.03 0.16,-0.15 0.16,-0.33l0 -0.97c0,-0.19 0.04,-0.32 -0.16,-0.35 -0.18,0.03 -0.15,0.15 -0.15,0.33l0 0.97c0,0.19 -0.03,0.32 0.15,0.35z"/>
 </g>
</svg>
