<?xml version="1.0" encoding="UTF-8"?>
<!DOCTYPE svg PUBLIC "-//W3C//DTD SVG 1.1//EN" "http://www.w3.org/Graphics/SVG/1.1/DTD/svg11.dtd">
<!-- Creator: CorelDRAW 2019 (64-Bit) -->
<svg xmlns="http://www.w3.org/2000/svg" xml:space="preserve" width="55px" height="64px" version="1.1" style="shape-rendering:geometricPrecision; text-rendering:geometricPrecision; image-rendering:optimizeQuality; fill-rule:evenodd; clip-rule:evenodd"
viewBox="0 0 91.5 105.52"
 xmlns:xlink="http://www.w3.org/1999/xlink"
 xmlns:xodm="http://www.corel.com/coreldraw/odm/2003">
 <defs>
  <style type="text/css">
   <![CDATA[
    .fil0 {fill:#E32A0C}
    .fil1 {fill:#FFD5CF}
   ]]>
  </style>
 </defs>
 <g id="Layer_x0020_1">
  <metadata id="CorelCorpID_0Corel-Layer"/>
  <path class="fil0" d="M76.18 29.07c0.59,16.12 0.05,33.22 0.06,49.45 0.01,9.26 -1.01,14.36 -7.6,17.4 -4.87,2.24 -16.74,1.31 -22.96,1.31 -20.61,0 -30.57,3 -30.56,-19.22 0.01,-8.85 -0.44,-43.09 0.13,-48.98l60.93 0.04zm-47.19 -8.2c0,-5.32 -0.73,-9.37 3.02,-11.65 2.94,-1.79 9.71,-0.98 13.67,-1 15.51,-0.08 16.71,-1.13 16.71,12.68l-33.4 -0.03zm-8.18 -0.09c-8.8,0.58 -22.74,-2.8 -20.59,5.5 0.7,2.67 3.17,2.76 6.53,2.76 1.25,14.93 -1.19,45.13 0.31,57.28 1,8.15 6,14.1 11.87,16.91 6.67,3.18 18.41,2.13 26.75,2.09 8.36,-0.05 20.07,1.11 26.76,-2.1 16.07,-7.71 12.04,-27.67 12.04,-45.44 0,-8.9 -0.6,-20.13 0.11,-28.76 10.3,0 6.98,-7.29 3.45,-8 -3.79,-0.77 -12.88,0.09 -17.51,-0.22 0,-8.66 -0.15,-13.19 -5.35,-17.43 -5.4,-4.41 -11.58,-3.19 -19.5,-3.23 -7.6,-0.04 -14.59,-1.06 -19.57,3.17 -5.12,4.36 -5.3,8.71 -5.3,17.47z"/>
  <path class="fil1" d="M27.35 41.87c4.62,-1.37 5.16,3.32 5.14,7.31l-0.01 25.29c0,4.12 0.81,8.81 -2.75,9.86 -5.16,1.54 -5.5,-3.21 -5.48,-7.33l0.01 -25.28c0,-4.41 -0.99,-8.64 3.09,-9.85zm34.59 0.13c4.69,-1.55 5.19,3.18 5.17,7.19l-0.01 25.28c0.01,4.18 0.94,8.87 -2.97,9.9 -4.98,1.31 -5.27,-3.28 -5.25,-7.36l0.01 -25.29c-0.01,-4.87 -0.98,-8.39 3.05,-9.72zm-16.26 -0.32c5.01,0.8 4.05,4.27 4.04,9.02l0.01 25.29c0.01,4.65 0.56,7.73 -4.05,8.57 -4.79,-0.86 -4.05,-4.3 -4.04,-9.08l0 -25.28c-0.02,-4.62 -0.82,-7.75 4.04,-8.52zm0 55.55c6.22,0 18.09,0.93 22.96,-1.31 6.59,-3.04 7.61,-8.14 7.6,-17.4 -0.01,-16.23 0.53,-33.33 -0.06,-49.45l-60.93 -0.04c-0.57,5.89 -0.12,40.13 -0.13,48.98 -0.01,22.22 9.95,19.22 30.56,19.22z"/>
  <path class="fil0" d="M27.35 41.87c-4.08,1.21 -3.09,5.44 -3.09,9.85l-0.01 25.28c-0.02,4.12 0.32,8.87 5.48,7.33 3.56,-1.05 2.75,-5.74 2.75,-9.86l0.01 -25.29c0.02,-3.99 -0.52,-8.68 -5.14,-7.31z"/>
  <path class="fil0" d="M61.94 42c-4.03,1.33 -3.06,4.85 -3.05,9.72l-0.01 25.29c-0.02,4.08 0.27,8.67 5.25,7.36 3.91,-1.03 2.98,-5.72 2.97,-9.9l0.01 -25.28c0.02,-4.01 -0.48,-8.74 -5.17,-7.19z"/>
  <path class="fil0" d="M45.68 84.56c4.61,-0.84 4.06,-3.92 4.05,-8.57l-0.01 -25.29c0.01,-4.75 0.97,-8.22 -4.04,-9.02 -4.86,0.77 -4.06,3.9 -4.04,8.52l0 25.28c-0.01,4.78 -0.75,8.22 4.04,9.08z"/>
 </g>
</svg>
