<?xml version="1.0" encoding="UTF-8"?>
<!DOCTYPE svg PUBLIC "-//W3C//DTD SVG 1.1//EN" "http://www.w3.org/Graphics/SVG/1.1/DTD/svg11.dtd">
<!-- Creator: CorelDRAW 2019 (64-Bit) -->
<svg xmlns="http://www.w3.org/2000/svg" xml:space="preserve" width="55px" height="64px" version="1.1" style="shape-rendering:geometricPrecision; text-rendering:geometricPrecision; image-rendering:optimizeQuality; fill-rule:evenodd; clip-rule:evenodd"
viewBox="0 0 5.56 6.41"
 xmlns:xlink="http://www.w3.org/1999/xlink"
 xmlns:xodm="http://www.corel.com/coreldraw/odm/2003">
 <defs>
  <style type="text/css">
   <![CDATA[
    .fil0 {fill:#333333}
    .fil1 {fill:#B3B3B3}
   ]]>
  </style>
 </defs>
 <g id="Layer_x0020_1">
  <metadata id="CorelCorpID_0Corel-Layer"/>
  <path class="fil0" d="M4.63 1.77c0.04,0.98 0,2.02 0,3 0,0.56 -0.06,0.87 -0.46,1.06 -0.3,0.14 -1.02,0.08 -1.39,0.08 -1.26,0 -1.86,0.18 -1.86,-1.17 0,-0.54 -0.03,-2.62 0.01,-2.98l3.7 0.01zm-2.87 -0.5c0,-0.32 -0.04,-0.57 0.19,-0.71 0.17,-0.11 0.59,-0.06 0.83,-0.06 0.94,-0.01 1.01,-0.07 1.01,0.77l-2.03 0zm-0.5 -0.01c-0.53,0.04 -1.38,-0.17 -1.25,0.34 0.05,0.16 0.2,0.16 0.4,0.16 0.08,0.91 -0.07,2.75 0.02,3.49 0.06,0.49 0.36,0.85 0.72,1.02 0.41,0.2 1.12,0.13 1.63,0.13 0.5,0 1.22,0.07 1.62,-0.13 0.98,-0.47 0.73,-1.68 0.73,-2.76 0,-0.54 -0.03,-1.22 0.01,-1.75 0.63,0 0.42,-0.44 0.21,-0.48 -0.23,-0.05 -0.78,0 -1.06,-0.02 0,-0.52 -0.01,-0.8 -0.33,-1.06 -0.33,-0.26 -0.7,-0.19 -1.18,-0.19 -0.47,0 -0.89,-0.07 -1.19,0.19 -0.31,0.27 -0.33,0.53 -0.33,1.06z"/>
  <path class="fil1" d="M1.66 2.54c0.28,-0.08 0.32,0.21 0.31,0.45l0 1.54c0,0.25 0.05,0.53 -0.16,0.59 -0.32,0.1 -0.34,-0.19 -0.34,-0.44l0 -1.54c0,-0.26 -0.06,-0.52 0.19,-0.6zm2.1 0.01c0.29,-0.09 0.32,0.2 0.32,0.44l0 1.54c0,0.25 0.05,0.53 -0.18,0.6 -0.31,0.08 -0.32,-0.2 -0.32,-0.45l0 -1.54c0,-0.29 -0.06,-0.51 0.18,-0.59zm-0.98 -0.02c0.3,0.05 0.24,0.26 0.24,0.55l0 1.54c0,0.28 0.04,0.47 -0.24,0.52 -0.3,-0.05 -0.25,-0.26 -0.25,-0.55l0 -1.54c0,-0.28 -0.05,-0.47 0.25,-0.52zm0 3.38c0.37,0 1.09,0.06 1.39,-0.08 0.4,-0.19 0.46,-0.5 0.46,-1.06 0,-0.98 0.04,-2.02 0,-3l-3.7 -0.01c-0.04,0.36 -0.01,2.44 -0.01,2.98 0,1.35 0.6,1.17 1.86,1.17z"/>
  <path class="fil0" d="M1.66 2.54c-0.25,0.08 -0.19,0.34 -0.19,0.6l0 1.54c0,0.25 0.02,0.54 0.34,0.44 0.21,-0.06 0.16,-0.34 0.16,-0.59l0 -1.54c0.01,-0.24 -0.03,-0.53 -0.31,-0.45z"/>
  <path class="fil0" d="M3.76 2.55c-0.24,0.08 -0.18,0.3 -0.18,0.59l0 1.54c0,0.25 0.01,0.53 0.32,0.45 0.23,-0.07 0.18,-0.35 0.18,-0.6l0 -1.54c0,-0.24 -0.03,-0.53 -0.32,-0.44z"/>
  <path class="fil0" d="M2.78 5.14c0.28,-0.05 0.24,-0.24 0.24,-0.52l0 -1.54c0,-0.29 0.06,-0.5 -0.24,-0.55 -0.3,0.05 -0.25,0.24 -0.25,0.52l0 1.54c0,0.29 -0.05,0.5 0.25,0.55z"/>
 </g>
</svg>
