<?xml version="1.0" encoding="UTF-8"?>
<!DOCTYPE svg PUBLIC "-//W3C//DTD SVG 1.1//EN" "http://www.w3.org/Graphics/SVG/1.1/DTD/svg11.dtd">
<!-- Creator: CorelDRAW 2019 (64-Bit) -->
<svg xmlns="http://www.w3.org/2000/svg" xml:space="preserve" width="55px" height="64px" version="1.1" style="shape-rendering:geometricPrecision; text-rendering:geometricPrecision; image-rendering:optimizeQuality; fill-rule:evenodd; clip-rule:evenodd"
viewBox="0 0 2.64 3.05"
 xmlns:xlink="http://www.w3.org/1999/xlink"
 xmlns:xodm="http://www.corel.com/coreldraw/odm/2003">
 <defs>
  <style type="text/css">
   <![CDATA[
    .fil0 {fill:#DCBA72}
    .fil1 {fill:#FDE4A2}
   ]]>
  </style>
 </defs>
 <g id="Layer_x0020_1">
  <metadata id="CorelCorpID_0Corel-Layer"/>
  <path class="fil0" d="M2.2 0.84c0.02,0.46 0,0.96 0,1.43 0,0.26 -0.03,0.41 -0.22,0.5 -0.14,0.06 -0.48,0.04 -0.66,0.04 -0.6,0 -0.88,0.08 -0.88,-0.56 0,-0.25 -0.02,-1.24 0,-1.41l1.76 0zm-1.36 -0.24c0,-0.15 -0.02,-0.27 0.08,-0.33 0.09,-0.06 0.28,-0.03 0.4,-0.03 0.45,0 0.48,-0.04 0.48,0.36l-0.96 0zm-0.24 0c-0.25,0.02 -0.66,-0.08 -0.59,0.16 0.02,0.08 0.09,0.08 0.18,0.08 0.04,0.43 -0.03,1.3 0.01,1.65 0.03,0.24 0.18,0.41 0.35,0.49 0.19,0.09 0.53,0.06 0.77,0.06 0.24,0 0.58,0.03 0.77,-0.06 0.47,-0.22 0.35,-0.8 0.35,-1.31 0,-0.26 -0.02,-0.58 0,-0.83 0.3,0 0.2,-0.21 0.1,-0.23 -0.11,-0.03 -0.37,0 -0.5,-0.01 0,-0.25 -0.01,-0.38 -0.16,-0.5 -0.15,-0.13 -0.33,-0.09 -0.56,-0.1 -0.22,0 -0.42,-0.03 -0.57,0.1 -0.14,0.12 -0.15,0.25 -0.15,0.5z"/>
  <path class="fil1" d="M0.79 1.21c0.13,-0.04 0.15,0.1 0.15,0.21l0 0.73c0,0.12 0.02,0.25 -0.08,0.29 -0.15,0.04 -0.16,-0.1 -0.16,-0.22l0 -0.73c0,-0.12 -0.03,-0.25 0.09,-0.28zm1 0c0.13,-0.04 0.15,0.09 0.15,0.21l0 0.73c0,0.12 0.02,0.26 -0.09,0.29 -0.14,0.03 -0.15,-0.1 -0.15,-0.22l0 -0.73c0,-0.14 -0.03,-0.24 0.09,-0.28zm-0.47 -0.01c0.14,0.03 0.12,0.13 0.12,0.26l0 0.73c0,0.14 0.01,0.23 -0.12,0.25 -0.14,-0.02 -0.12,-0.12 -0.12,-0.26l0 -0.73c0,-0.13 -0.02,-0.22 0.12,-0.25zm0 1.61c0.18,0 0.52,0.02 0.66,-0.04 0.19,-0.09 0.22,-0.24 0.22,-0.5 0,-0.47 0.02,-0.97 0,-1.43l-1.76 0c-0.02,0.17 0,1.16 0,1.41 0,0.64 0.28,0.56 0.88,0.56z"/>
  <path class="fil0" d="M0.79 1.21c-0.12,0.03 -0.09,0.16 -0.09,0.28l0 0.73c0,0.12 0.01,0.26 0.16,0.22 0.1,-0.04 0.08,-0.17 0.08,-0.29l0 -0.73c0,-0.11 -0.02,-0.25 -0.15,-0.21z"/>
  <path class="fil0" d="M1.79 1.21c-0.12,0.04 -0.09,0.14 -0.09,0.28l0 0.73c0,0.12 0.01,0.25 0.15,0.22 0.11,-0.03 0.09,-0.17 0.09,-0.29l0 -0.73c0,-0.12 -0.02,-0.25 -0.15,-0.21z"/>
  <path class="fil0" d="M1.32 2.44c0.13,-0.02 0.12,-0.11 0.12,-0.25l0 -0.73c0,-0.13 0.02,-0.23 -0.12,-0.26 -0.14,0.03 -0.12,0.12 -0.12,0.25l0 0.73c0,0.14 -0.02,0.24 0.12,0.26z"/>
 </g>
</svg>
