<?xml version="1.0" encoding="UTF-8"?>
<!DOCTYPE svg PUBLIC "-//W3C//DTD SVG 1.1//EN" "http://www.w3.org/Graphics/SVG/1.1/DTD/svg11.dtd">
<!-- Creator: CorelDRAW 2019 (64-Bit) -->
<svg xmlns="http://www.w3.org/2000/svg" xml:space="preserve" width="55px" height="64px" version="1.1" style="shape-rendering:geometricPrecision; text-rendering:geometricPrecision; image-rendering:optimizeQuality; fill-rule:evenodd; clip-rule:evenodd"
viewBox="0 0 5.33 6.14"
 xmlns:xlink="http://www.w3.org/1999/xlink"
 xmlns:xodm="http://www.corel.com/coreldraw/odm/2003">
 <defs>
  <style type="text/css">
   <![CDATA[
    .fil0 {fill:#706F6D}
    .fil1 {fill:#C9C9C7}
   ]]>
  </style>
 </defs>
 <g id="Layer_x0020_1">
  <metadata id="CorelCorpID_0Corel-Layer"/>
  <path class="fil0" d="M4.44 1.69c0.03,0.94 0,1.94 0,2.88 0,0.54 -0.06,0.84 -0.44,1.02 -0.29,0.13 -0.98,0.07 -1.34,0.07 -1.2,0 -1.78,0.18 -1.78,-1.12 0,-0.51 -0.03,-2.51 0.01,-2.85l3.55 0zm-2.75 -0.47c0,-0.31 -0.04,-0.55 0.17,-0.68 0.17,-0.11 0.57,-0.06 0.8,-0.06 0.9,-0.01 0.97,-0.07 0.97,0.74l-1.94 0zm-0.48 -0.01c-0.51,0.03 -1.32,-0.16 -1.2,0.32 0.04,0.16 0.19,0.16 0.38,0.16 0.08,0.87 -0.07,2.63 0.02,3.34 0.06,0.47 0.35,0.82 0.69,0.98 0.39,0.19 1.07,0.13 1.56,0.12 0.49,0 1.17,0.07 1.56,-0.12 0.93,-0.45 0.7,-1.61 0.7,-2.65 0,-0.51 -0.04,-1.17 0.01,-1.67 0.6,0 0.4,-0.42 0.2,-0.47 -0.22,-0.04 -0.75,0.01 -1.02,-0.01 0,-0.5 -0.01,-0.77 -0.31,-1.01 -0.32,-0.26 -0.68,-0.19 -1.14,-0.19 -0.44,0 -0.85,-0.06 -1.14,0.18 -0.3,0.26 -0.31,0.51 -0.31,1.02z"/>
  <path class="fil1" d="M1.59 2.44c0.27,-0.08 0.3,0.19 0.3,0.42l0 1.48c0,0.24 0.05,0.51 -0.16,0.57 -0.3,0.09 -0.32,-0.19 -0.32,-0.43l0 -1.47c0,-0.25 -0.06,-0.5 0.18,-0.57zm2.02 0.01c0.27,-0.09 0.3,0.18 0.3,0.41l0 1.48c0,0.24 0.05,0.51 -0.18,0.57 -0.29,0.08 -0.3,-0.19 -0.3,-0.43l0 -1.47c0,-0.28 -0.06,-0.49 0.18,-0.56zm-0.95 -0.02c0.29,0.04 0.24,0.25 0.24,0.52l0 1.47c0,0.28 0.03,0.45 -0.24,0.5 -0.28,-0.05 -0.24,-0.25 -0.24,-0.52l0 -1.48c0,-0.27 -0.04,-0.45 0.24,-0.49zm0 3.23c0.36,0 1.05,0.06 1.34,-0.07 0.38,-0.18 0.44,-0.48 0.44,-1.02 0,-0.94 0.03,-1.94 0,-2.88l-3.55 0c-0.04,0.34 -0.01,2.34 -0.01,2.85 0,1.3 0.58,1.12 1.78,1.12z"/>
  <path class="fil0" d="M1.59 2.44c-0.24,0.07 -0.18,0.32 -0.18,0.57l0 1.47c0,0.24 0.02,0.52 0.32,0.43 0.21,-0.06 0.16,-0.33 0.16,-0.57l0 -1.48c0,-0.23 -0.03,-0.5 -0.3,-0.42z"/>
  <path class="fil0" d="M3.61 2.45c-0.24,0.07 -0.18,0.28 -0.18,0.56l0 1.47c0,0.24 0.01,0.51 0.3,0.43 0.23,-0.06 0.18,-0.33 0.18,-0.57l0 -1.48c0,-0.23 -0.03,-0.5 -0.3,-0.41z"/>
  <path class="fil0" d="M2.66 4.92c0.27,-0.05 0.24,-0.22 0.24,-0.5l0 -1.47c0,-0.27 0.05,-0.48 -0.24,-0.52 -0.28,0.04 -0.24,0.22 -0.24,0.49l0 1.48c0,0.27 -0.04,0.47 0.24,0.52z"/>
 </g>
</svg>
