<?xml version="1.0" encoding="UTF-8"?>
<!DOCTYPE svg PUBLIC "-//W3C//DTD SVG 1.1//EN" "http://www.w3.org/Graphics/SVG/1.1/DTD/svg11.dtd">
<!-- Creator: CorelDRAW 2019 (64-Bit) -->
<svg xmlns="http://www.w3.org/2000/svg" xml:space="preserve" width="55px" height="64px" version="1.1" style="shape-rendering:geometricPrecision; text-rendering:geometricPrecision; image-rendering:optimizeQuality; fill-rule:evenodd; clip-rule:evenodd"
viewBox="0 0 3.37 3.88"
 xmlns:xlink="http://www.w3.org/1999/xlink"
 xmlns:xodm="http://www.corel.com/coreldraw/odm/2003">
 <defs>
  <style type="text/css">
   <![CDATA[
    .fil0 {fill:#232981}
    .fil1 {fill:#C0C4FC}
   ]]>
  </style>
 </defs>
 <g id="Layer_x0020_1">
  <metadata id="CorelCorpID_0Corel-Layer"/>
  <g id="_1184100896">
   <path class="fil0" d="M2.8 1.07c0.02,0.59 0,1.22 0,1.82 0,0.34 -0.03,0.53 -0.28,0.64 -0.17,0.08 -0.61,0.05 -0.84,0.05 -0.76,0 -1.12,0.11 -1.12,-0.71 0,-0.33 -0.02,-1.59 0,-1.8l2.24 0zm-1.73 -0.3c0,-0.2 -0.03,-0.35 0.11,-0.43 0.11,-0.07 0.35,-0.04 0.5,-0.04 0.57,0 0.62,-0.04 0.62,0.47l-1.23 0zm-0.3 -0.01c-0.33,0.03 -0.84,-0.1 -0.76,0.21 0.02,0.1 0.11,0.1 0.24,0.1 0.04,0.55 -0.05,1.66 0.01,2.11 0.04,0.3 0.22,0.51 0.44,0.62 0.24,0.11 0.67,0.08 0.98,0.07 0.31,0 0.74,0.05 0.98,-0.07 0.6,-0.29 0.45,-1.02 0.45,-1.67 0,-0.33 -0.02,-0.74 0,-1.06 0.38,0 0.26,-0.27 0.13,-0.3 -0.14,-0.03 -0.48,0.01 -0.65,0 0,-0.32 0,-0.49 -0.19,-0.65 -0.2,-0.16 -0.43,-0.11 -0.72,-0.11 -0.28,-0.01 -0.54,-0.04 -0.72,0.11 -0.19,0.16 -0.19,0.32 -0.19,0.64z"/>
   <path class="fil1" d="M1.01 1.54c0.17,-0.05 0.19,0.12 0.18,0.27l0 0.93c0,0.15 0.03,0.32 -0.1,0.36 -0.19,0.06 -0.2,-0.12 -0.2,-0.27l0 -0.93c0,-0.16 -0.03,-0.32 0.12,-0.36zm1.27 0.01c0.17,-0.06 0.19,0.11 0.19,0.26l0 0.93c0,0.15 0.03,0.33 -0.11,0.36 -0.18,0.05 -0.19,-0.12 -0.19,-0.27l0 -0.93c0,-0.18 -0.04,-0.31 0.11,-0.35zm-0.6 -0.02c0.18,0.03 0.15,0.16 0.15,0.34l0 0.93c0,0.17 0.02,0.28 -0.15,0.31 -0.18,-0.03 -0.15,-0.16 -0.15,-0.33l0 -0.93c0,-0.17 -0.03,-0.29 0.15,-0.32zm0 2.05c0.23,0 0.67,0.03 0.84,-0.05 0.25,-0.11 0.28,-0.3 0.28,-0.64 0,-0.6 0.02,-1.23 0,-1.82l-2.24 0c-0.02,0.21 0,1.47 0,1.8 0,0.82 0.36,0.71 1.12,0.71z"/>
   <path class="fil0" d="M1.01 1.54c-0.15,0.04 -0.12,0.2 -0.12,0.36l0 0.93c0,0.15 0.01,0.33 0.2,0.27 0.13,-0.04 0.1,-0.21 0.1,-0.36l0 -0.93c0.01,-0.15 -0.01,-0.32 -0.18,-0.27z"/>
   <path class="fil0" d="M2.28 1.55c-0.15,0.04 -0.11,0.17 -0.11,0.35l0 0.93c0,0.15 0.01,0.32 0.19,0.27 0.14,-0.03 0.11,-0.21 0.11,-0.36l0 -0.93c0,-0.15 -0.02,-0.32 -0.19,-0.26z"/>
   <path class="fil0" d="M1.68 3.11c0.17,-0.03 0.15,-0.14 0.15,-0.31l0 -0.93c0,-0.18 0.03,-0.31 -0.15,-0.34 -0.18,0.03 -0.15,0.15 -0.15,0.32l0 0.93c0,0.17 -0.03,0.3 0.15,0.33z"/>
  </g>
 </g>
</svg>
