<?xml version="1.0" encoding="UTF-8"?>
<!DOCTYPE svg PUBLIC "-//W3C//DTD SVG 1.1//EN" "http://www.w3.org/Graphics/SVG/1.1/DTD/svg11.dtd">
<!-- Creator: CorelDRAW 2019 (64-Bit) -->
<svg xmlns="http://www.w3.org/2000/svg" xml:space="preserve" width="55px" height="64px" version="1.1" style="shape-rendering:geometricPrecision; text-rendering:geometricPrecision; image-rendering:optimizeQuality; fill-rule:evenodd; clip-rule:evenodd"
viewBox="0 0 9.41 10.85"
 xmlns:xlink="http://www.w3.org/1999/xlink"
 xmlns:xodm="http://www.corel.com/coreldraw/odm/2003">
 <defs>
  <style type="text/css">
   <![CDATA[
    .fil1 {fill:#CCCC33}
    .fil0 {fill:#FF6600}
   ]]>
  </style>
 </defs>
 <g id="Layer_x0020_1">
  <metadata id="CorelCorpID_0Corel-Layer"/>
  <path class="fil0" d="M7.83 2.99c0.06,1.65 0.01,3.41 0.01,5.08 0,0.95 -0.11,1.48 -0.78,1.79 -0.51,0.23 -1.73,0.14 -2.36,0.13 -2.12,0 -3.15,0.31 -3.15,-1.97 0,-0.91 -0.04,-4.43 0.02,-5.04l6.26 0.01zm-4.85 -0.84c0,-0.55 -0.07,-0.97 0.31,-1.2 0.3,-0.19 1,-0.1 1.41,-0.1 1.59,-0.01 1.71,-0.12 1.71,1.3l-3.43 0zm-0.84 -0.01c-0.91,0.06 -2.34,-0.29 -2.12,0.56 0.07,0.28 0.33,0.29 0.67,0.29 0.13,1.53 -0.12,4.63 0.04,5.88 0.1,0.84 0.61,1.45 1.22,1.74 0.68,0.33 1.89,0.22 2.75,0.22 0.86,-0.01 2.06,0.11 2.75,-0.22 1.65,-0.79 1.23,-2.84 1.23,-4.67 0,-0.92 -0.06,-2.07 0.02,-2.96 1.05,0 0.71,-0.75 0.35,-0.82 -0.39,-0.08 -1.32,0.01 -1.8,-0.02 0,-0.89 -0.02,-1.36 -0.55,-1.79 -0.56,-0.46 -1.19,-0.33 -2,-0.34 -0.79,0 -1.5,-0.1 -2.02,0.33 -0.52,0.45 -0.54,0.9 -0.54,1.8z"/>
  <path class="fil1" d="M2.81 4.3c0.48,-0.14 0.53,0.35 0.53,0.76l0 2.6c0,0.42 0.08,0.9 -0.28,1.01 -0.53,0.16 -0.57,-0.33 -0.57,-0.75l0 -2.6c0,-0.46 -0.1,-0.89 0.32,-1.02zm3.56 0.02c0.48,-0.16 0.53,0.32 0.53,0.74l0 2.6c0,0.42 0.09,0.91 -0.31,1.01 -0.51,0.14 -0.54,-0.33 -0.54,-0.75l0 -2.6c0,-0.5 -0.1,-0.87 0.32,-1zm-1.67 -0.04c0.51,0.09 0.41,0.44 0.41,0.93l0 2.6c0,0.48 0.06,0.8 -0.41,0.88 -0.5,-0.09 -0.42,-0.44 -0.42,-0.93l0 -2.6c0,-0.47 -0.08,-0.8 0.42,-0.88zm0 5.71c0.63,0.01 1.85,0.1 2.36,-0.13 0.67,-0.31 0.78,-0.84 0.78,-1.79 0,-1.67 0.05,-3.43 -0.01,-5.08l-6.26 -0.01c-0.06,0.61 -0.02,4.13 -0.02,5.04 0,2.28 1.03,1.97 3.15,1.97z"/>
  <path class="fil0" d="M2.81 4.3c-0.42,0.13 -0.32,0.56 -0.32,1.02l0 2.6c0,0.42 0.04,0.91 0.57,0.75 0.36,-0.11 0.28,-0.59 0.28,-1.01l0 -2.6c0,-0.41 -0.05,-0.9 -0.53,-0.76z"/>
  <path class="fil0" d="M6.37 4.32c-0.42,0.13 -0.32,0.5 -0.32,1l0 2.6c0,0.42 0.03,0.89 0.54,0.75 0.4,-0.1 0.31,-0.59 0.31,-1.01l0 -2.6c0,-0.42 -0.05,-0.9 -0.53,-0.74z"/>
  <path class="fil0" d="M4.7 8.69c0.47,-0.08 0.41,-0.4 0.41,-0.88l0 -2.6c0,-0.49 0.1,-0.84 -0.41,-0.93 -0.5,0.08 -0.42,0.41 -0.42,0.88l0 2.6c0,0.49 -0.08,0.84 0.42,0.93z"/>
 </g>
</svg>
