<?xml version="1.0" encoding="UTF-8"?>
<!DOCTYPE svg PUBLIC "-//W3C//DTD SVG 1.1//EN" "http://www.w3.org/Graphics/SVG/1.1/DTD/svg11.dtd">
<!-- Creator: CorelDRAW 2019 (64-Bit) -->
<svg xmlns="http://www.w3.org/2000/svg" xml:space="preserve" width="55px" height="64px" version="1.1" style="shape-rendering:geometricPrecision; text-rendering:geometricPrecision; image-rendering:optimizeQuality; fill-rule:evenodd; clip-rule:evenodd"
viewBox="0 0 11.84 13.65"
 xmlns:xlink="http://www.w3.org/1999/xlink"
 xmlns:xodm="http://www.corel.com/coreldraw/odm/2003">
 <defs>
  <style type="text/css">
   <![CDATA[
    .fil0 {fill:#9A4C2F}
    .fil1 {fill:#EBC7B2}
   ]]>
  </style>
 </defs>
 <g id="Layer_x0020_1">
  <metadata id="CorelCorpID_0Corel-Layer"/>
  <path class="fil0" d="M9.86 3.76c0.07,2.09 0,4.3 0.01,6.4 0,1.2 -0.14,1.86 -0.99,2.25 -0.63,0.29 -2.16,0.17 -2.97,0.17 -2.67,0 -3.95,0.39 -3.95,-2.49 0,-1.14 -0.06,-5.57 0.01,-6.33l7.89 0zm-6.11 -1.06c0,-0.69 -0.09,-1.21 0.39,-1.51 0.38,-0.23 1.26,-0.12 1.77,-0.13 2.01,-0.01 2.16,-0.14 2.16,1.64l-4.32 0zm-1.06 -0.01c-1.14,0.07 -2.94,-0.36 -2.66,0.71 0.09,0.35 0.41,0.36 0.84,0.36 0.16,1.93 -0.15,5.84 0.04,7.41 0.13,1.05 0.78,1.82 1.54,2.19 0.86,0.41 2.38,0.27 3.46,0.27 1.08,-0.01 2.6,0.14 3.46,-0.27 2.08,-1 1.56,-3.58 1.56,-5.88 0,-1.16 -0.08,-2.61 0.02,-3.72 1.33,0 0.9,-0.95 0.44,-1.04 -0.49,-0.1 -1.66,0.01 -2.26,-0.03 0,-1.12 -0.02,-1.71 -0.7,-2.25 -0.7,-0.57 -1.49,-0.42 -2.52,-0.42 -0.98,-0.01 -1.89,-0.14 -2.53,0.41 -0.66,0.56 -0.69,1.13 -0.69,2.26z"/>
  <path class="fil1" d="M3.54 5.42c0.6,-0.18 0.67,0.43 0.66,0.94l0 3.28c0,0.53 0.11,1.14 -0.35,1.27 -0.67,0.2 -0.71,-0.41 -0.71,-0.95l0 -3.27c0,-0.57 -0.13,-1.12 0.4,-1.27zm4.47 0.01c0.61,-0.2 0.68,0.42 0.67,0.93l0 3.28c0,0.54 0.12,1.14 -0.38,1.28 -0.65,0.17 -0.68,-0.43 -0.68,-0.96l0 -3.27c0,-0.63 -0.13,-1.08 0.39,-1.26zm-2.1 -0.04c0.65,0.11 0.53,0.56 0.52,1.17l0 3.27c0.01,0.6 0.08,1 -0.52,1.11 -0.62,-0.11 -0.52,-0.55 -0.52,-1.17l0 -3.27c0,-0.6 -0.11,-1.01 0.52,-1.11zm0 7.19c0.81,0 2.34,0.12 2.97,-0.17 0.85,-0.39 0.99,-1.05 0.99,-2.25 -0.01,-2.1 0.06,-4.31 -0.01,-6.4l-7.89 0c-0.07,0.76 -0.01,5.19 -0.01,6.33 0,2.88 1.28,2.49 3.95,2.49z"/>
  <path class="fil0" d="M3.54 5.42c-0.53,0.15 -0.4,0.7 -0.4,1.27l0 3.27c0,0.54 0.04,1.15 0.71,0.95 0.46,-0.13 0.35,-0.74 0.35,-1.27l0 -3.28c0.01,-0.51 -0.06,-1.12 -0.66,-0.94z"/>
  <path class="fil0" d="M8.01 5.43c-0.52,0.18 -0.39,0.63 -0.39,1.26l0 3.27c0,0.53 0.03,1.13 0.68,0.96 0.5,-0.14 0.38,-0.74 0.38,-1.28l0 -3.28c0.01,-0.51 -0.06,-1.13 -0.67,-0.93z"/>
  <path class="fil0" d="M5.91 10.94c0.6,-0.11 0.53,-0.51 0.52,-1.11l0 -3.27c0.01,-0.61 0.13,-1.06 -0.52,-1.17 -0.63,0.1 -0.52,0.51 -0.52,1.11l0 3.27c0,0.62 -0.1,1.06 0.52,1.17z"/>
 </g>
</svg>
