<?xml version="1.0" encoding="UTF-8"?>
<!DOCTYPE svg PUBLIC "-//W3C//DTD SVG 1.1//EN" "http://www.w3.org/Graphics/SVG/1.1/DTD/svg11.dtd">
<!-- Creator: CorelDRAW 2019 (64-Bit) -->
<svg xmlns="http://www.w3.org/2000/svg" xml:space="preserve" width="334px" height="80px" version="1.1" style="shape-rendering:geometricPrecision; text-rendering:geometricPrecision; image-rendering:optimizeQuality; fill-rule:evenodd; clip-rule:evenodd"
viewBox="0 0 258.01 61.84"
 xmlns:xlink="http://www.w3.org/1999/xlink"
 xmlns:xodm="http://www.corel.com/coreldraw/odm/2003">
 <defs>
  <style type="text/css">
   <![CDATA[
    .fil3 {fill:black}
    .fil9 {fill:#345C0C}
    .fil8 {fill:#539214}
    .fil7 {fill:#60A817}
    .fil5 {fill:#C81E1E}
    .fil4 {fill:#F34235}
    .fil6 {fill:#FEC108}
    .fil2 {fill:#FFDB00}
    .fil0 {fill:#C81E1E;fill-rule:nonzero}
    .fil1 {fill:#F71B1B;fill-rule:nonzero}
    .fil10 {fill:white;fill-rule:nonzero}
   ]]>
  </style>
 </defs>
 <g id="Layer_x0020_1">
  <metadata id="CorelCorpID_0Corel-Layer"/>
  <path class="fil0" d="M119.87 33.93c-1.15,0.13 -2.21,0.07 -3.18,-0.19 -0.96,-0.26 -1.79,-0.7 -2.47,-1.33 -0.68,-0.63 -1.21,-1.43 -1.6,-2.39 -0.39,-0.97 -0.58,-2.08 -0.58,-3.34l0 -16.86 3.28 0 0 4.24 4.48 0 0 3.13 -4.48 0 0 9.49c0,0.87 0.12,1.59 0.37,2.16 0.24,0.57 0.57,1.01 0.99,1.33 0.42,0.32 0.9,0.54 1.45,0.66 0.55,0.11 1.13,0.14 1.74,0.09l0 3.01zm18.42 0l-3.28 0 0 -12.07c0,-1.55 -0.41,-2.82 -1.21,-3.81 -0.81,-0.99 -2.02,-1.48 -3.63,-1.48 -0.75,0 -1.43,0.13 -2.06,0.4 -0.62,0.27 -1.17,0.64 -1.63,1.1 -0.47,0.47 -0.83,1.01 -1.1,1.64 -0.27,0.63 -0.4,1.32 -0.4,2.07l0 12.15 -3.28 0 0 -28.71 3.28 0 -0.04 10.85c0.67,-0.77 1.49,-1.39 2.47,-1.84 0.98,-0.45 2.04,-0.67 3.2,-0.67 1.24,0 2.33,0.21 3.28,0.62 0.95,0.41 1.76,0.99 2.41,1.73 0.66,0.75 1.15,1.64 1.49,2.67 0.33,1.02 0.5,2.16 0.5,3.39l0 11.96zm5.41 -9.95c0,0.49 0.04,0.94 0.12,1.35l12.27 -5.17c-0.62,-1.08 -1.44,-1.94 -2.45,-2.57 -1.02,-0.63 -2.09,-0.94 -3.23,-0.94 -0.79,0 -1.59,0.16 -2.39,0.5 -0.8,0.33 -1.52,0.81 -2.16,1.44 -0.64,0.63 -1.16,1.41 -1.56,2.32 -0.4,0.91 -0.6,1.94 -0.6,3.07zm16.36 3.78c-0.77,2.13 -1.96,3.77 -3.57,4.92 -1.61,1.14 -3.57,1.72 -5.88,1.72 -1.44,0 -2.78,-0.27 -4.02,-0.81 -1.23,-0.54 -2.3,-1.28 -3.22,-2.2 -0.91,-0.93 -1.63,-2.02 -2.16,-3.28 -0.53,-1.26 -0.79,-2.63 -0.79,-4.09 0,-1.44 0.26,-2.8 0.79,-4.07 0.53,-1.28 1.24,-2.38 2.14,-3.32 0.9,-0.94 1.96,-1.69 3.17,-2.24 1.21,-0.55 2.51,-0.83 3.89,-0.83 1.09,0 2.14,0.19 3.17,0.56 1.03,0.37 1.98,0.91 2.85,1.6 0.88,0.69 1.64,1.55 2.28,2.57 0.64,1.01 1.11,2.16 1.39,3.45l-15.24 6.44c0.64,1.01 1.47,1.78 2.49,2.32 1.01,0.54 2.1,0.81 3.26,0.81 1.41,0 2.61,-0.3 3.61,-0.91 0.99,-0.6 1.8,-1.48 2.45,-2.64l3.39 0zm2.17 -5.63c0,-1.5 0.25,-2.81 0.75,-3.94 0.51,-1.13 1.19,-2.06 2.05,-2.78 0.86,-0.72 1.86,-1.23 3.01,-1.52 1.14,-0.3 2.37,-0.37 3.68,-0.22l0 3.05c-1.91,-0.18 -3.43,0.18 -4.54,1.08 -1.12,0.9 -1.67,2.32 -1.67,4.25l0 11.88 -3.28 0 0 -11.8zm13.17 1.85c0,0.49 0.04,0.94 0.11,1.35l12.27 -5.17c-0.61,-1.08 -1.43,-1.94 -2.45,-2.57 -1.01,-0.63 -2.09,-0.94 -3.22,-0.94 -0.79,0 -1.59,0.16 -2.39,0.5 -0.8,0.33 -1.52,0.81 -2.16,1.44 -0.64,0.63 -1.16,1.41 -1.56,2.32 -0.4,0.91 -0.6,1.94 -0.6,3.07zm16.36 3.78c-0.77,2.13 -1.96,3.77 -3.57,4.92 -1.61,1.14 -3.57,1.72 -5.88,1.72 -1.44,0 -2.78,-0.27 -4.02,-0.81 -1.23,-0.54 -2.31,-1.28 -3.22,-2.2 -0.91,-0.93 -1.63,-2.02 -2.16,-3.28 -0.53,-1.26 -0.79,-2.63 -0.79,-4.09 0,-1.44 0.26,-2.8 0.79,-4.07 0.53,-1.28 1.24,-2.38 2.14,-3.32 0.9,-0.94 1.96,-1.69 3.17,-2.24 1.2,-0.55 2.5,-0.83 3.89,-0.83 1.08,0 2.14,0.19 3.17,0.56 1.03,0.37 1.98,0.91 2.85,1.6 0.88,0.69 1.64,1.55 2.28,2.57 0.64,1.01 1.1,2.16 1.39,3.45l-15.24 6.44c0.64,1.01 1.47,1.78 2.49,2.32 1.01,0.54 2.1,0.81 3.26,0.81 1.41,0 2.61,-0.3 3.6,-0.91 0.99,-0.6 1.81,-1.48 2.45,-2.64l3.4 0z"/>
  <path class="fil1" d="M77.3 24.05c0,-0.82 -0.13,-1.58 -0.4,-2.27 -0.27,-0.7 -0.64,-1.3 -1.11,-1.82 -0.46,-0.51 -1,-0.91 -1.62,-1.19 -0.62,-0.28 -1.28,-0.43 -1.98,-0.43 -0.69,0 -1.36,0.15 -1.97,0.45 -0.63,0.29 -1.17,0.7 -1.63,1.21 -0.46,0.52 -0.84,1.12 -1.11,1.82 -0.27,0.69 -0.4,1.44 -0.4,2.23 0,0.78 0.13,1.5 0.4,2.18 0.27,0.69 0.65,1.28 1.11,1.78 0.46,0.5 1,0.9 1.63,1.2 0.61,0.29 1.28,0.44 1.97,0.44 0.7,0 1.36,-0.14 1.98,-0.43 0.62,-0.28 1.16,-0.67 1.62,-1.17 0.47,-0.5 0.84,-1.1 1.11,-1.78 0.27,-0.68 0.4,-1.42 0.4,-2.22zm5.1 -0.05c0,1.44 -0.25,2.79 -0.76,4.05 -0.5,1.27 -1.2,2.37 -2.1,3.31 -0.9,0.94 -1.97,1.69 -3.22,2.23 -1.25,0.54 -2.62,0.81 -4.11,0.81 -1.52,0 -2.9,-0.27 -4.15,-0.81 -1.25,-0.54 -2.32,-1.28 -3.22,-2.22 -0.9,-0.94 -1.6,-2.04 -2.1,-3.3 -0.5,-1.26 -0.76,-2.61 -0.76,-4.05l0 -18.8 5.1 0 0.04 10.71c0.74,-0.8 1.6,-1.39 2.58,-1.77 0.98,-0.38 2.05,-0.56 3.2,-0.56 1.32,0 2.55,0.27 3.71,0.81 1.16,0.54 2.16,1.29 3.01,2.24 0.85,0.95 1.52,2.06 2.02,3.33 0.51,1.26 0.76,2.6 0.76,4.02zm6.79 9.93l-5.09 0 0 -19.87 5.09 0 0 19.87zm-5.13 -22.03l0 -2.86c0,-0.72 0.25,-1.32 0.76,-1.81 0.5,-0.49 1.11,-0.73 1.83,-0.73 0.69,0 1.29,0.24 1.79,0.73 0.5,0.49 0.75,1.09 0.75,1.81l0 2.86 -5.13 0zm7.8 10.53c0,-1.26 0.22,-2.43 0.64,-3.51 0.42,-1.08 1.03,-2.02 1.81,-2.81 0.79,-0.8 1.73,-1.43 2.82,-1.88 1.09,-0.45 2.32,-0.67 3.69,-0.67 1.38,0 2.63,0.22 3.72,0.66 1.09,0.43 2.02,1.04 2.78,1.83 0.76,0.78 1.33,1.72 1.73,2.8 0.4,1.08 0.6,2.27 0.6,3.58l0 11.5 -5.09 0 0 -11.61c0,-0.28 -0.04,-0.64 -0.12,-1.06 -0.07,-0.43 -0.24,-0.85 -0.5,-1.26 -0.26,-0.41 -0.63,-0.76 -1.12,-1.04 -0.49,-0.28 -1.16,-0.42 -2,-0.42 -1.14,0 -2.06,0.34 -2.78,1.04 -0.72,0.69 -1.08,1.61 -1.08,2.74l0 11.61 -5.1 0 0 -11.5z"/>
  <g id="_1187340592">
   <path class="fil2" d="M32.02 29.85c3.22,0.53 1.67,-1.3 0.92,-2.51 -0.36,-0.59 -0.78,-1.18 -1.13,-1.76 -0.38,-0.64 -0.64,-1.4 -0.22,-2.21 0.33,-0.65 2.62,-2.12 3.57,-2.15 1.56,-0.06 2.13,1.45 2.91,2.68 1.6,2.5 3.21,4.85 1.4,8.44 -0.61,1.2 -1.65,2.28 -2.79,2.89 -2.04,1.08 -2.52,0.57 -4.66,0.9 -0.37,1.03 -0.53,1.73 -1.66,1.96 -1.54,0.31 -2.81,-1.6 -4.21,-2.87 -1.88,-1.7 -1.94,-2.7 -0.05,-4.41l1.84 -1.79c0.54,-0.49 1.19,-1.42 2.49,-1.12 1.04,0.24 1.24,0.95 1.59,1.95zm-20.96 -5.45c-0.27,-0.36 -0.48,-0.45 -0.7,-0.94 -0.56,-1.3 0.05,-2.36 1.71,-2.81 1.26,-0.33 4.07,-1.37 5.2,-0.84 1.36,0.64 1.51,3.07 1.88,4.78 0.55,2.55 -0.3,3.5 -2.86,3.03 -0.29,0.84 -1.03,1.2 -0.62,2.13 2.92,0.94 7.03,-1.72 7.02,3.11 0,1.05 0.15,2.97 -1.83,3.2 -1.11,0.14 -3.73,0.07 -4.91,0.01 -3.11,-0.14 -5.03,-2.02 -6.02,-4.07 -1.42,-2.91 -0.2,-5.55 1.13,-7.6zm13.3 -9.9c-2.19,2.79 -2.35,5.95 -5.62,4.08 -1.07,-0.61 -2.63,-1.17 -2.25,-2.93 0.14,-0.63 1.52,-2.74 1.92,-3.4 0.8,-1.31 1.35,-2.06 2.57,-2.87 3.79,-2.5 8.85,-0.6 10.28,3.34 2.61,-0.5 3.37,0.85 2.6,3.26 -0.29,0.86 -0.53,1.69 -0.81,2.57 -1.08,3.42 -2.88,2.13 -6.51,0.82 -2.35,-0.84 -2.29,-2.42 -0.74,-3.85 -0.16,-0.31 -0.38,-0.67 -0.63,-1.04l-0.81 0.02zm5.97 27.9c1.35,-1.15 2.88,-1.2 6.11,-4.75 7.62,-8.39 6.03,-22.66 -3.78,-29.11 -0.43,-0.28 -1.87,-1.06 -2.21,-1.42 -0.55,-0.4 -3.5,-0.82 -4.4,-0.89 -10.3,-0.72 -19.71,7.3 -19.84,18.3 -0.07,6.86 3.54,12.1 7.12,14.82 3.5,2.66 7.66,4.17 12.41,3.92 1.01,-0.05 3.93,-0.44 4.59,-0.87z"/>
   <path class="fil3" d="M31.28 51.43c-0.04,0.06 -1.89,2.72 0,0zm0 0l-2.05 2.74c-1.18,1.4 -1.93,3.55 -4.46,3.55 -2.78,0 -3.35,-2.03 -4.63,-3.73l-1.53 -2.04 -2.4 -3.28c-0.2,-0.26 -0.43,-0.62 -0.63,-0.82 -0.38,-0.37 -1.77,-0.81 -2.8,-1.43 -2.98,-1.81 -5.52,-3.74 -7.6,-6.53 -1.26,-1.69 -2.28,-3.21 -3.11,-5.23 -1.55,-3.78 -2.07,-6.18 -2.07,-10.5 0,-3.81 1.1,-7.1 2.26,-9.82 1.3,-3.02 3.91,-6.34 6.47,-8.51 1.73,-1.46 3.38,-2.46 5.44,-3.5 3.64,-1.82 7.15,-2.33 11.56,-2.33 7.5,0 15.28,4.54 19.43,10.65 3.86,5.7 5.43,12.95 3.7,19.84 -0.74,2.94 -1.8,5.46 -3.43,7.93l-1.83 2.4c-0.26,0.32 -0.31,0.41 -0.62,0.71 -2.42,2.4 -3.11,3.02 -6.3,4.93 -0.99,0.6 -2.1,0.96 -2.45,1.18 -0.44,0.26 -2.15,2.65 -2.95,3.79zm0.86 -5.31c-0.75,0.4 -2.2,0.68 -3.14,0.88 -1.37,0.28 -1.6,1.5 -0.45,2.03 0.69,0.17 1.36,-0.13 2.04,-0.24 -0.25,0.56 -1.08,1.55 -1.47,2.08 -0.48,0.66 -0.92,1.24 -1.43,1.95 -0.96,1.34 -2.22,3.68 -3.81,2.53 -0.57,-0.39 -2.04,-2.54 -2.54,-3.24 -0.49,-0.67 -2.15,-2.78 -2.39,-3.32 0.82,0.13 2.03,0.62 2.55,-0.11 0.58,-0.82 0.06,-1.49 -1.15,-1.72 -1.69,-0.32 -3.33,-0.86 -4.78,-1.52 -3.13,-1.42 -3.48,-1.92 -5.76,-3.66 -1.44,-1.11 -3.28,-3.47 -4.31,-5.11 -9.76,-15.56 2.45,-36.09 21.14,-34.55 1.29,0.11 4.06,0.53 5.01,1.04 2.08,0.43 4.82,2.07 6.29,3.11 5.55,3.92 9.39,10.55 9.51,18.13 0.08,5.92 -1.93,10.2 -4.54,13.92 -2.1,3.01 -7.27,7.11 -10.77,7.8z"/>
   <path class="fil3" d="M30.33 42.4c-0.66,0.43 -3.58,0.82 -4.59,0.87 -4.75,0.25 -8.91,-1.26 -12.41,-3.92 -3.58,-2.72 -7.19,-7.96 -7.12,-14.82 0.13,-11 9.54,-19.02 19.84,-18.3 0.9,0.07 3.85,0.49 4.4,0.89 1.68,0.35 4.04,1.72 5.17,2.57 8.59,6.47 10.28,17.96 3.72,26.51 -2.01,2.63 -5.87,5.57 -9.01,6.2zm13.77 -10.49c0.23,-1.03 0.65,-1.98 0.87,-3.12 0.23,-1.17 0.37,-2.29 0.4,-3.54 0.09,-3.83 -0.56,-4.32 -1.01,-6.99 -0.51,-1.05 -0.88,-2.14 -1.41,-3.21 -1.34,-2.69 -4.11,-5.74 -6.65,-7.38 -14.45,-9.32 -31.72,0.97 -32.14,16.49 -0.29,10.78 7.43,18.97 16.51,20.79 5.47,1.09 11.28,-0.27 15.11,-2.77 1.05,-0.69 1.8,-1.31 2.69,-2.02 0.43,-0.33 0.73,-0.78 1.15,-1.15 1.76,-1.54 3.48,-4.65 4.48,-7.1z"/>
   <path class="fil4" d="M23.88 55.35c0.52,-0.3 0.82,-0.96 1.23,-1.49 0.42,-0.54 0.81,-1.07 1.18,-1.59 0.44,-0.61 2.11,-2.71 2.26,-3.24 -1.15,-0.53 -0.92,-1.75 0.45,-2.03 0.94,-0.2 2.39,-0.48 3.14,-0.88 0.14,-0.18 2.87,-1.71 4.01,-2.6 3.46,-2.71 6.56,-6.72 7.95,-11.04 0,-0.02 0.06,-0.26 0.06,-0.27 0.03,-0.34 0.07,-0.1 -0.06,-0.3 -1,2.45 -2.72,5.56 -4.48,7.1 -0.42,0.37 -0.72,0.82 -1.15,1.15 -0.89,0.71 -1.64,1.33 -2.69,2.02 -3.83,2.5 -9.64,3.86 -15.11,2.77 -9.08,-1.82 -16.8,-10.01 -16.51,-20.79 0.42,-15.52 17.69,-25.81 32.14,-16.49 2.54,1.64 5.31,4.69 6.65,7.38 0.53,1.07 0.9,2.16 1.41,3.21 0.37,-0.44 -1.56,-4.26 -1.85,-4.83 -0.86,-1.66 -1.79,-2.85 -2.86,-4.14 -1.55,-1.88 -3.56,-3.53 -5.69,-4.83l-2.31 -1.3c-0.95,-0.51 -3.72,-0.93 -5.01,-1.04 -18.69,-1.54 -30.9,18.99 -21.14,34.55 1.03,1.64 2.87,4 4.31,5.11 2.28,1.74 2.63,2.24 5.76,3.66 1.45,0.66 3.09,1.2 4.78,1.52 1.21,0.23 1.73,0.9 1.15,1.72 -0.52,0.73 -1.73,0.24 -2.55,0.11 0.24,0.54 1.9,2.65 2.39,3.32 0.5,0.7 1.97,2.85 2.54,3.24z"/>
   <path class="fil3" d="M15.76 31.87l4.85 0.05c0.17,0.59 0.15,1.54 0.03,2.13 -0.74,0.08 -4.78,0.22 -5.1,-0.15 -1.27,0.01 -2.55,-0.98 -3.02,-1.59 -2.12,-2.74 -0.96,-4.63 0.25,-6.73 0.23,-0.39 0.75,-1.07 0.76,-1.54 0.03,-0.97 -0.7,-0.87 -1.12,-1.36l3.95 -1.03 0.9 3.98c-1.56,-0.57 -1.45,-1.43 -3.44,2.21 -1.03,1.88 0.16,3.88 1.94,4.03zm-4.7 -7.47c-1.33,2.05 -2.55,4.69 -1.13,7.6 0.99,2.05 2.91,3.93 6.02,4.07 1.18,0.06 3.8,0.13 4.91,-0.01 1.98,-0.23 1.83,-2.15 1.83,-3.2 0.01,-4.83 -4.1,-2.17 -7.02,-3.11 -0.41,-0.93 0.33,-1.29 0.62,-2.13 2.56,0.47 3.41,-0.48 2.86,-3.03 -0.37,-1.71 -0.52,-4.14 -1.88,-4.78 -1.13,-0.53 -3.94,0.51 -5.2,0.84 -1.66,0.45 -2.27,1.51 -1.71,2.81 0.22,0.49 0.43,0.58 0.7,0.94z"/>
   <path class="fil3" d="M33.77 24.14c0.39,-0.26 1.01,-0.66 1.53,-0.82 1.14,2.08 2.97,3.9 2.86,6.16 -0.12,2.51 -2.03,4.23 -4.43,4.53 -0.82,0.01 -2.05,-0.06 -2.81,0.02 -1.12,0.14 -0.92,0.83 -1.04,1.89 -0.06,-0.07 -2.75,-2.5 -3.03,-2.94 0.31,-0.4 2.68,-2.7 3.06,-2.89 0,2.31 0.76,1.88 2.96,1.87 1.95,-0.01 2.17,-0.55 3.03,-1.64 0.22,-1.07 0.22,-1.11 0,-2.17 -0.19,-0.18 -2.28,-3.55 -2.42,-3.89l0.29 -0.12zm-1.75 5.71c-0.35,-1 -0.55,-1.71 -1.59,-1.95 -1.3,-0.3 -1.95,0.63 -2.49,1.12l-1.84 1.79c-1.89,1.71 -1.83,2.71 0.05,4.41 1.4,1.27 2.67,3.18 4.21,2.87 1.13,-0.23 1.29,-0.93 1.66,-1.96 2.14,-0.33 2.62,0.18 4.66,-0.9 1.14,-0.61 2.18,-1.69 2.79,-2.89 1.81,-3.59 0.2,-5.94 -1.4,-8.44 -0.78,-1.23 -1.35,-2.74 -2.91,-2.68 -0.95,0.03 -3.24,1.5 -3.57,2.15 -0.42,0.81 -0.16,1.57 0.22,2.21 0.35,0.58 0.77,1.17 1.13,1.76 0.75,1.21 2.3,3.04 -0.92,2.51z"/>
   <path class="fil3" d="M24.12 10.45c0.68,-0.59 2.75,0.3 3.31,0.65 0.87,0.55 1.49,1.34 1.95,2.45 0.28,0.32 0.56,0.84 0.63,1.23 1.06,0.49 0.94,0.26 2.07,-0.05l-1.26 3.98 -1.86 -0.74c-0.45,0.01 -1.52,-0.42 -1.97,-0.65 1.1,-0.86 1.94,-0.38 0.62,-2.76 -0.58,-1.05 -1.07,-2.04 -2.6,-2.16 -1.63,-0.13 -2.35,0.81 -2.95,1.81 -0.33,0.56 -1.41,2.49 -1.78,2.85l-1.71 -0.99c0.2,-0.54 0.72,-1.27 1.03,-1.78 0.83,-1.37 2.11,-3.94 4.52,-3.84zm0.24 4.05l0.81 -0.02c0.25,0.37 0.47,0.73 0.63,1.04 -1.55,1.43 -1.61,3.01 0.74,3.85 3.63,1.31 5.43,2.6 6.51,-0.82 0.28,-0.88 0.52,-1.71 0.81,-2.57 0.77,-2.41 0.01,-3.76 -2.6,-3.26 -1.43,-3.94 -6.49,-5.84 -10.28,-3.34 -1.22,0.81 -1.77,1.56 -2.57,2.87 -0.4,0.66 -1.78,2.77 -1.92,3.4 -0.38,1.76 1.18,2.32 2.25,2.93 3.27,1.87 3.43,-1.29 5.62,-4.08z"/>
   <path class="fil5" d="M44.36 18.26c0.45,2.67 1.1,3.16 1.01,6.99 -0.03,1.25 -0.17,2.37 -0.4,3.54 -0.22,1.14 -0.64,2.09 -0.87,3.12 0.13,0.2 0.09,-0.04 0.06,0.3 0,0.01 -0.06,0.25 -0.06,0.27 -1.39,4.32 -4.49,8.33 -7.95,11.04 -1.14,0.89 -3.87,2.42 -4.01,2.6 3.5,-0.69 8.67,-4.79 10.77,-7.8 2.61,-3.72 4.62,-8 4.54,-13.92 -0.12,-7.58 -3.96,-14.21 -9.51,-18.13 -1.47,-1.04 -4.21,-2.68 -6.29,-3.11l2.31 1.3c2.13,1.3 4.14,2.95 5.69,4.83 1.07,1.29 2,2.48 2.86,4.14 0.29,0.57 2.22,4.39 1.85,4.83z"/>
   <path class="fil6" d="M30.33 42.4c3.14,-0.63 7,-3.57 9.01,-6.2 6.56,-8.55 4.87,-20.04 -3.72,-26.51 -1.13,-0.85 -3.49,-2.22 -5.17,-2.57 0.34,0.36 1.78,1.14 2.21,1.42 9.81,6.45 11.4,20.72 3.78,29.11 -3.23,3.55 -4.76,3.6 -6.11,4.75z"/>
   <path class="fil7" d="M15.54 33.9c1.67,0.07 3.35,0.07 5.05,0.07l0 -1.93c-0.76,0 -4.51,0.14 -4.83,-0.17 -1.78,-0.15 -2.97,-2.15 -1.94,-4.03 1.99,-3.64 1.88,-2.78 3.44,-2.21l-0.9 -3.98 -3.95 1.03c0.42,0.49 1.15,0.39 1.12,1.36 -0.01,0.47 -0.53,1.15 -0.76,1.54 -1.21,2.1 -2.37,3.99 -0.25,6.73 0.47,0.61 1.75,1.6 3.02,1.59z"/>
   <path class="fil7" d="M28.96 17.97c0.37,-0.39 1,-2.68 1.05,-3.19 -0.07,-0.39 -0.35,-0.91 -0.63,-1.23 -0.87,-0.01 -0.88,0.28 -1.63,0.48 -0.23,-0.7 -1.44,-2.74 -2.13,-3.29 -0.57,-0.45 -0.77,-0.09 -1.5,-0.29 -2.41,-0.1 -3.69,2.47 -4.52,3.84 -0.31,0.51 -0.83,1.24 -1.03,1.78l1.71 0.99c0.37,-0.36 1.45,-2.29 1.78,-2.85 0.6,-1 1.32,-1.94 2.95,-1.81 1.53,0.12 2.02,1.11 2.6,2.16 1.32,2.38 0.48,1.9 -0.62,2.76 0.45,0.23 1.52,0.66 1.97,0.65z"/>
   <path class="fil7" d="M33.73 34.01c0.3,-0.41 0.5,-0.45 0.81,-0.8 0.22,-0.25 0.47,-0.56 0.68,-0.9 0.17,-0.28 0.94,-1.7 0.68,-1.99 -0.86,1.09 -1.08,1.63 -3.03,1.64 -2.2,0.01 -2.96,0.44 -2.96,-1.87 -0.38,0.19 -2.75,2.49 -3.06,2.89 0.28,0.44 2.97,2.87 3.03,2.94 0.12,-1.06 -0.08,-1.75 1.04,-1.89 0.76,-0.08 1.99,-0.01 2.81,-0.02z"/>
   <path class="fil8" d="M33.77 24.14c0.46,0.26 0.52,0.55 0.79,0.99 0.19,0.32 0.42,0.64 0.61,0.96 0.16,0.28 1.02,1.75 0.73,2.06 0.22,1.06 0.22,1.1 0,2.17 0.26,0.29 -0.51,1.71 -0.68,1.99 -0.21,0.34 -0.46,0.65 -0.68,0.9 -0.31,0.35 -0.51,0.39 -0.81,0.8 2.4,-0.3 4.31,-2.02 4.43,-4.53 0.11,-2.26 -1.72,-4.08 -2.86,-6.16 -0.52,0.16 -1.14,0.56 -1.53,0.82z"/>
   <path class="fil5" d="M28.55 49.03c-0.15,0.53 -1.82,2.63 -2.26,3.24 -0.37,0.52 -0.76,1.05 -1.18,1.59 -0.41,0.53 -0.71,1.19 -1.23,1.49 1.59,1.15 2.85,-1.19 3.81,-2.53 0.51,-0.71 0.95,-1.29 1.43,-1.95 0.39,-0.53 1.22,-1.52 1.47,-2.08 -0.68,0.11 -1.35,0.41 -2.04,0.24z"/>
   <path class="fil8" d="M28.96 17.97l1.86 0.74 1.26 -3.98c-1.13,0.31 -1.01,0.54 -2.07,0.05 -0.05,0.51 -0.68,2.8 -1.05,3.19z"/>
   <path class="fil8" d="M29.38 13.55c-0.46,-1.11 -1.08,-1.9 -1.95,-2.45 -0.56,-0.35 -2.63,-1.24 -3.31,-0.65 0.73,0.2 0.93,-0.16 1.5,0.29 0.69,0.55 1.9,2.59 2.13,3.29 0.75,-0.2 0.76,-0.49 1.63,-0.48z"/>
   <path class="fil7" d="M35.9 28.15c0.29,-0.31 -0.57,-1.78 -0.73,-2.06 -0.19,-0.32 -0.42,-0.64 -0.61,-0.96 -0.27,-0.44 -0.33,-0.73 -0.79,-0.99l-0.29 0.12c0.14,0.34 2.23,3.71 2.42,3.89z"/>
   <path class="fil9" d="M15.54 33.9c0.32,0.37 4.36,0.23 5.1,0.15 0.12,-0.59 0.14,-1.54 -0.03,-2.13l-4.85 -0.05c0.32,0.31 4.07,0.17 4.83,0.17l0 1.93c-1.7,0 -3.38,0 -5.05,-0.07z"/>
  </g>
  <path class="fil10" d="M115.32 50.53c0.83,-1.1 1.59,-1.96 2.25,-2.61 1,-0.96 1.69,-1.46 2.06,-1.5 0.18,-0.02 0.35,0.03 0.49,0.15 0.14,0.11 0.22,0.24 0.24,0.39 0.02,0.21 -0.14,0.59 -0.48,1.12 -0.53,0.83 -0.88,1.53 -1.06,2.1 2.36,-2.94 4.03,-4.47 5,-4.58 0.2,-0.01 0.38,0.03 0.54,0.14 0.18,0.11 0.27,0.28 0.3,0.48 0.03,0.31 -0.17,0.75 -0.6,1.3 -1.9,2.44 -2.78,4.36 -2.62,5.77 0.06,0.57 0.2,0.97 0.44,1.2l0.49 0.51c0.1,0.1 0.16,0.22 0.18,0.38 0.02,0.18 -0.04,0.36 -0.16,0.53 -0.16,0.2 -0.34,0.32 -0.56,0.33 -0.37,0.05 -0.74,-0.15 -1.11,-0.59 -0.44,-0.53 -0.71,-1.17 -0.79,-1.95 -0.11,-1.03 0.06,-2.1 0.54,-3.21 0.16,-0.4 0.45,-0.93 0.85,-1.61 -0.88,0.83 -1.75,1.93 -2.59,3.31 -0.58,0.93 -1.08,1.96 -1.49,3.08 -0.21,0.54 -0.49,0.83 -0.84,0.86 -0.39,0.05 -0.6,-0.15 -0.65,-0.58 -0.05,-0.46 0.16,-1.45 0.63,-2.96 0.27,-0.86 0.63,-1.78 1.06,-2.75 -1.77,1.7 -3,3.88 -3.69,6.54 -0.18,0.59 -0.46,0.91 -0.85,0.95 -0.18,0.02 -0.34,-0.04 -0.46,-0.16 -0.14,-0.12 -0.22,-0.28 -0.24,-0.47 -0.08,-0.67 0.17,-1.91 0.71,-3.74 0.58,-1.92 1.27,-3.67 2.09,-5.25 0.57,-1.1 1.04,-1.67 1.41,-1.72 0.34,-0.04 0.53,0.12 0.58,0.49 0.01,0.15 -0.15,0.57 -0.5,1.25 -0.61,1.26 -1,2.19 -1.17,2.8z"/>
  <path id="1" class="fil10" d="M128.71 51.97c-0.3,0.69 -0.61,1.29 -0.91,1.78 -0.62,0.95 -1.28,1.47 -1.98,1.55 -0.61,0.07 -1.11,-0.17 -1.52,-0.71 -0.25,-0.34 -0.4,-0.77 -0.46,-1.28 -0.13,-1.25 0.11,-2.67 0.73,-4.27 0.7,-1.77 1.62,-3.18 2.76,-4.21 0.75,-0.68 1.5,-1.06 2.26,-1.14 0.48,-0.05 0.88,0.05 1.23,0.31 0.3,0.23 0.47,0.51 0.51,0.83 0.02,0.26 -0.04,0.61 -0.18,1.07 0.2,0.22 0.3,0.42 0.33,0.6 0.02,0.24 -0.1,0.64 -0.36,1.22 -0.26,0.59 -0.51,1.35 -0.74,2.31 -0.25,1.01 -0.34,1.8 -0.28,2.39 0.06,0.47 0.24,0.85 0.55,1.12 0.09,0.07 0.34,0.18 0.74,0.32 0.3,0.1 0.46,0.32 0.5,0.66 0.03,0.21 -0.03,0.4 -0.17,0.55 -0.16,0.17 -0.35,0.26 -0.57,0.28 -0.62,0.07 -1.17,-0.15 -1.66,-0.66 -0.41,-0.4 -0.65,-0.93 -0.72,-1.6 -0.03,-0.22 -0.05,-0.59 -0.06,-1.12zm1.5 -5.78c-0.17,-0.23 -0.34,-0.4 -0.51,-0.5 -0.17,-0.1 -0.34,-0.14 -0.52,-0.12 -0.86,0.09 -1.7,0.94 -2.54,2.55 -0.92,1.77 -1.32,3.23 -1.19,4.37 0.03,0.29 0.1,0.49 0.23,0.63 0.12,0.13 0.29,0.18 0.5,0.16 0.54,-0.06 1.11,-0.7 1.7,-1.92 0.34,-0.67 0.74,-1.66 1.2,-2.95 0.31,-0.83 0.53,-1.39 0.68,-1.67 0.08,-0.15 0.22,-0.33 0.45,-0.55z"/>
  <path id="2" class="fil10" d="M136.78 42.9c-0.62,1.22 -1.15,2.57 -1.62,4.05 -0.68,2.11 -0.97,3.66 -0.86,4.65 0.04,0.29 0.12,0.5 0.25,0.63 0.14,0.14 0.32,0.19 0.56,0.16 0.57,-0.06 1.19,-0.66 1.88,-1.82 0.43,-0.7 0.82,-1.41 1.14,-2.11 0.17,-0.39 0.38,-0.6 0.62,-0.63 0.15,-0.02 0.27,0.02 0.39,0.11 0.1,0.09 0.15,0.19 0.16,0.29 0.05,0.42 -0.39,1.41 -1.33,2.98 -1.12,1.88 -2.22,2.88 -3.3,2.99 -0.57,0.07 -1.09,-0.14 -1.52,-0.63 -0.28,-0.32 -0.45,-0.78 -0.52,-1.4 -0.15,-1.37 0.08,-3.01 0.68,-4.91 0.14,-0.47 0.56,-1.62 1.24,-3.45 -0.3,0.12 -0.53,0.19 -0.69,0.2 -0.24,0.03 -0.46,0 -0.65,-0.1 -0.27,-0.13 -0.42,-0.31 -0.44,-0.55 -0.04,-0.29 0.11,-0.53 0.42,-0.74 0.08,-0.05 0.49,-0.17 1.23,-0.36 0.27,-0.08 0.66,-0.22 1.16,-0.45 0.32,-0.76 0.86,-1.79 1.63,-3.11 0.42,-0.73 0.72,-1.21 0.89,-1.44 0.24,-0.3 0.46,-0.47 0.67,-0.49 0.14,-0.02 0.3,0.04 0.46,0.18 0.15,0.14 0.24,0.28 0.25,0.42 0.03,0.3 -0.22,0.91 -0.75,1.85 -0.36,0.61 -0.62,1.11 -0.79,1.48 1.21,-0.48 2.09,-0.75 2.63,-0.81 0.61,-0.07 0.95,0.16 1.01,0.68 0.02,0.27 -0.06,0.47 -0.26,0.62 -0.1,0.08 -0.4,0.17 -0.86,0.27 -0.19,0.01 -1.02,0.31 -2.49,0.92 -0.4,0.16 -0.8,0.34 -1.19,0.52z"/>
  <path id="3" class="fil10" d="M143.92 42.54c0.9,-0.1 1.4,0.33 1.5,1.27 0.09,0.83 -0.14,1.7 -0.7,2.6 -0.42,0.69 -0.82,1.05 -1.2,1.09 -0.32,0.04 -0.49,-0.12 -0.53,-0.48 -0.02,-0.2 0.01,-0.35 0.08,-0.48 0.03,-0.05 0.15,-0.19 0.37,-0.43 0.18,-0.22 0.36,-0.53 0.53,-0.94 0.12,-0.27 0.17,-0.49 0.15,-0.65 -0.02,-0.18 -0.13,-0.25 -0.33,-0.24 -0.24,0.03 -0.58,0.26 -1.03,0.68 -0.7,0.68 -1.37,1.7 -2,3.06 -0.65,1.42 -0.93,2.51 -0.84,3.28 0.02,0.25 0.12,0.46 0.29,0.63 0.24,0.27 0.55,0.39 0.91,0.35 0.71,-0.08 1.5,-0.61 2.38,-1.6 0.74,-0.84 1.35,-1.68 1.83,-2.5 0.25,-0.45 0.49,-0.69 0.7,-0.71 0.12,-0.01 0.25,0.03 0.36,0.13 0.1,0.11 0.16,0.21 0.17,0.33 0.04,0.42 -0.4,1.29 -1.34,2.61 -1.5,2.09 -2.95,3.21 -4.34,3.36 -0.84,0.08 -1.51,-0.14 -2.01,-0.69 -0.36,-0.41 -0.58,-0.91 -0.64,-1.51 -0.13,-1.17 0.21,-2.59 1.01,-4.24 0.78,-1.58 1.73,-2.9 2.87,-3.93 0.67,-0.6 1.27,-0.93 1.81,-0.99z"/>
  <path id="4" class="fil10" d="M150.53 45.47c0.73,-0.96 1.48,-1.78 2.25,-2.46 0.99,-0.87 1.71,-1.32 2.17,-1.38 0.19,-0.02 0.38,0.04 0.58,0.18 0.22,0.16 0.34,0.36 0.37,0.6 0.03,0.3 -0.16,0.8 -0.58,1.5 -0.8,1.34 -1.4,2.55 -1.77,3.62 -0.34,0.92 -0.49,1.55 -0.45,1.87 0.03,0.3 0.19,0.43 0.49,0.4 0.61,-0.06 1.52,-1.26 2.72,-3.59 0.25,-0.47 0.49,-0.72 0.73,-0.75 0.24,-0.02 0.37,0.1 0.4,0.37 0.05,0.44 -0.29,1.33 -1.01,2.67 -0.63,1.16 -1.32,2.08 -2.07,2.74 -0.53,0.46 -1.03,0.71 -1.49,0.76 -0.48,0.05 -0.85,-0.12 -1.11,-0.51 -0.16,-0.25 -0.26,-0.53 -0.3,-0.84 -0.1,-1.01 0.13,-2.19 0.69,-3.56 0.14,-0.32 0.55,-1.25 1.24,-2.78 -2.17,1.42 -3.84,4.15 -5.01,8.19 -0.1,0.46 -0.29,0.71 -0.6,0.74 -0.21,0.02 -0.39,-0.03 -0.54,-0.16 -0.15,-0.15 -0.24,-0.33 -0.27,-0.56 -0.04,-0.37 0.2,-1.47 0.74,-3.29 0.99,-3.37 1.95,-6.25 2.87,-8.61 0.92,-2.39 1.96,-4.88 3.12,-7.46 0.27,-0.62 0.49,-1.05 0.67,-1.28 0.16,-0.22 0.35,-0.34 0.57,-0.36 0.2,-0.03 0.38,0.06 0.55,0.26 0.13,0.15 0.2,0.32 0.23,0.53 0.03,0.31 -0.11,0.75 -0.41,1.32 -1.01,2.03 -2,4.23 -2.96,6.62 -1.02,2.57 -1.63,4.3 -1.82,5.22z"/>
  <path id="5" class="fil10" d="M168.84 45.7c-0.88,1.28 -1.58,2.25 -2.12,2.89 -1.05,1.26 -1.98,1.93 -2.76,2.02 -0.39,0.04 -0.7,-0.07 -0.96,-0.33 -0.19,-0.21 -0.31,-0.48 -0.34,-0.82 -0.14,-1.22 0.4,-2.92 1.63,-5.1 1.24,-2.21 2.19,-3.36 2.84,-3.43 0.18,-0.02 0.35,0.04 0.5,0.19 0.14,0.11 0.22,0.25 0.24,0.42 0.03,0.25 -0.02,0.47 -0.12,0.67 -0.11,0.2 -0.44,0.65 -0.98,1.37 -0.57,0.73 -1.08,1.52 -1.54,2.35 -0.53,0.95 -0.77,1.63 -0.73,2.03 0.03,0.24 0.16,0.35 0.38,0.32 0.46,-0.05 1.24,-0.76 2.36,-2.12 0.7,-0.86 1.24,-1.59 1.63,-2.16 0.07,-0.13 0.41,-0.7 1.01,-1.74 0.54,-0.92 0.87,-1.46 1.01,-1.63 0.29,-0.43 0.58,-0.67 0.88,-0.7 0.18,-0.02 0.35,0.04 0.52,0.19 0.15,0.13 0.23,0.29 0.25,0.48 0.04,0.33 -0.13,0.9 -0.49,1.72 -0.44,0.99 -0.85,1.93 -1.21,2.79 -0.57,1.34 -1,2.53 -1.28,3.56 0.68,-0.49 1.28,-1.08 1.81,-1.75 0.9,-1.13 1.43,-1.95 1.61,-2.47 0.16,-0.48 0.36,-0.73 0.58,-0.76 0.32,-0.03 0.49,0.11 0.52,0.43 0.07,0.6 -0.34,1.55 -1.22,2.84 -1.06,1.56 -2.43,2.94 -4.1,4.14 -0.7,2.38 -1.39,4.37 -2.08,5.96 -1.29,2.95 -2.77,4.5 -4.46,4.69 -0.69,0.07 -1.27,-0.13 -1.75,-0.62 -0.37,-0.37 -0.59,-0.86 -0.66,-1.48 -0.2,-1.76 0.85,-3.7 3.12,-5.81 0.67,-0.62 1.67,-1.42 3,-2.39 0.54,-0.39 0.97,-0.7 1.27,-0.94 0.14,-0.54 0.38,-1.27 0.7,-2.17 0.36,-0.98 0.67,-1.86 0.94,-2.64zm-2.41 7.02c-1.12,0.74 -2.25,1.74 -3.37,3 -1.14,1.3 -1.65,2.45 -1.54,3.45 0.02,0.22 0.11,0.39 0.25,0.52 0.19,0.18 0.42,0.26 0.69,0.23 0.84,-0.09 1.68,-1.08 2.51,-2.95 0.13,-0.32 0.49,-1.34 1.06,-3.08 0.12,-0.35 0.26,-0.74 0.4,-1.17z"/>
  <path id="6" class="fil10" d="M179.06 38.34c0.92,-0.1 1.45,0.41 1.57,1.54 0.17,1.5 -0.32,3.48 -1.46,5.94 -1.24,2.65 -2.56,4.06 -3.97,4.21 -0.65,0.08 -1.16,-0.17 -1.54,-0.75 -0.18,-0.29 -0.31,-0.65 -0.35,-1.08 -0.16,-1.44 0.16,-3.06 0.97,-4.86 0.76,-1.68 1.71,-3.01 2.87,-4.02 0.67,-0.58 1.31,-0.91 1.91,-0.98zm-1.06 6.59c-0.3,-0.19 -0.47,-0.36 -0.48,-0.48 -0.01,-0.09 0.15,-0.35 0.46,-0.8 0.89,-1.25 1.3,-2.22 1.23,-2.92 -0.01,-0.09 -0.05,-0.18 -0.12,-0.26 -0.11,-0.16 -0.26,-0.23 -0.45,-0.21 -0.36,0.04 -0.85,0.45 -1.47,1.22 -0.81,1 -1.4,2 -1.77,3.02 -0.43,1.15 -0.61,2.08 -0.53,2.81 0.02,0.19 0.09,0.35 0.21,0.49 0.17,0.19 0.37,0.27 0.59,0.24 0.54,-0.06 1.08,-0.53 1.61,-1.41 0.24,-0.37 0.41,-0.74 0.55,-1.12 0.12,-0.38 0.18,-0.57 0.17,-0.58z"/>
  <path id="7" class="fil10" d="M184.9 46.18c-0.41,0.72 -0.77,1.31 -1.1,1.76 -0.58,0.79 -1.19,1.23 -1.84,1.3 -0.55,0.06 -1.01,-0.15 -1.36,-0.61 -0.26,-0.33 -0.41,-0.73 -0.47,-1.22 -0.15,-1.46 0.28,-3.2 1.31,-5.22 0.48,-0.95 0.98,-1.68 1.49,-2.21 0.4,-0.42 0.75,-0.65 1.03,-0.68 0.16,-0.01 0.32,0.04 0.47,0.16 0.13,0.11 0.2,0.23 0.21,0.35 0.02,0.22 -0.15,0.59 -0.51,1.12 -0.81,1.23 -1.41,2.33 -1.79,3.32 -0.44,1.16 -0.63,2.05 -0.56,2.67 0.02,0.16 0.06,0.28 0.15,0.36 0.08,0.07 0.19,0.1 0.33,0.09 0.57,-0.07 1.28,-0.98 2.13,-2.74 0.43,-0.92 0.78,-1.92 1.06,-3.01 0.14,-0.59 0.35,-1.12 0.63,-1.59 0.27,-0.44 0.56,-0.66 0.86,-0.7 0.17,-0.02 0.33,0.04 0.49,0.17 0.16,0.14 0.25,0.31 0.27,0.5 0.04,0.41 -0.25,1.37 -0.87,2.88 -0.42,1.04 -0.6,1.89 -0.53,2.55 0.08,0.7 0.33,1.28 0.75,1.73 0.12,0.13 0.46,0.31 1.01,0.55 0.26,0.11 0.41,0.34 0.45,0.66 0.02,0.21 -0.05,0.39 -0.21,0.56 -0.15,0.16 -0.36,0.25 -0.61,0.28 -0.56,0.06 -1.1,-0.1 -1.61,-0.49 -0.47,-0.36 -0.79,-0.92 -0.99,-1.68 -0.04,-0.1 -0.1,-0.39 -0.19,-0.86z"/>
  <path id="8" class="fil10" d="M190.68 42.53c0.97,-1.3 2.13,-2.6 3.46,-3.89 0.47,-0.46 0.99,-0.91 1.54,-1.33 0.28,-0.2 0.46,-0.31 0.54,-0.32 0.17,-0.02 0.35,0.09 0.55,0.32 0.11,0.13 0.18,0.24 0.19,0.36 0.02,0.2 -0.16,0.51 -0.56,0.9 -1.07,1.05 -1.58,1.81 -1.53,2.27 0.03,0.26 0.19,0.37 0.49,0.34 0.49,-0.05 1.29,-0.55 2.39,-1.48 0.2,-0.16 0.36,-0.24 0.49,-0.26 0.1,-0.01 0.19,0.02 0.29,0.11 0.12,0.09 0.18,0.19 0.19,0.3 0.04,0.34 -0.38,0.91 -1.26,1.71 -0.91,0.85 -1.82,1.32 -2.71,1.42 -0.36,0.04 -0.71,-0.02 -1.03,-0.18 -0.28,-0.13 -0.45,-0.4 -0.49,-0.8 -0.03,-0.29 0.05,-0.62 0.25,-1.01 -0.82,0.73 -1.75,1.93 -2.79,3.6 -0.59,1.03 -1.16,2.28 -1.69,3.74 -0.21,0.55 -0.5,0.84 -0.89,0.88 -0.41,0.05 -0.64,-0.12 -0.68,-0.52 -0.05,-0.38 0.17,-1.45 0.64,-3.19 0.69,-2.58 1.5,-4.62 2.41,-6.1 0.56,-0.92 1.06,-1.4 1.5,-1.45 0.15,-0.02 0.29,0.01 0.42,0.09 0.16,0.09 0.25,0.23 0.26,0.4 0.02,0.17 -0.06,0.42 -0.26,0.75 -0.04,0.06 -0.29,0.47 -0.77,1.23 -0.44,0.72 -0.75,1.43 -0.95,2.11z"/>
  <path id="9" class="fil10" d="M209.5 41.38c-0.83,1.42 -1.45,2.4 -1.86,2.95 -0.51,0.68 -0.96,1.21 -1.34,1.58 -0.43,0.4 -0.85,0.63 -1.26,0.67 -0.4,0.05 -0.72,-0.12 -0.98,-0.49 -0.2,-0.29 -0.33,-0.61 -0.37,-0.99 -0.13,-1.23 0.42,-3.01 1.65,-5.33 1.12,-2.1 2.01,-3.19 2.65,-3.26 0.16,-0.01 0.32,0.04 0.48,0.17 0.15,0.12 0.23,0.27 0.26,0.45 0.02,0.26 -0.16,0.62 -0.55,1.11 -0.84,1.03 -1.54,2.17 -2.1,3.41 -0.48,1.06 -0.7,1.74 -0.67,2.04 0.03,0.23 0.14,0.33 0.35,0.31 0.67,-0.08 1.98,-1.71 3.91,-4.89 0.63,-1.03 1.02,-1.62 1.16,-1.79 0.26,-0.31 0.54,-0.47 0.85,-0.51 0.21,-0.02 0.39,0.02 0.54,0.12 0.14,0.1 0.21,0.21 0.23,0.34 0.01,0.13 -0.19,0.73 -0.62,1.8 -0.99,2.31 -1.45,3.84 -1.37,4.6 0.03,0.29 0.17,0.43 0.41,0.4 0.4,-0.04 0.91,-0.57 1.52,-1.59 0.58,-0.96 1.09,-2.15 1.51,-3.58 0.19,-0.61 0.32,-1.41 0.41,-2.4 0.1,-1.12 0.49,-1.72 1.17,-1.8 0.38,-0.04 0.59,0.16 0.64,0.59 0.16,1.48 -0.44,3.61 -1.8,6.38 -1.42,2.9 -2.72,4.41 -3.89,4.54 -0.87,0.09 -1.36,-0.4 -1.48,-1.47 -0.09,-0.89 0.09,-2.01 0.55,-3.36z"/>
  <path id="10" class="fil10" d="M220.6 42.1c-0.3,0.7 -0.61,1.29 -0.91,1.78 -0.62,0.96 -1.27,1.48 -1.98,1.55 -0.6,0.07 -1.11,-0.17 -1.51,-0.7 -0.25,-0.35 -0.41,-0.78 -0.47,-1.29 -0.13,-1.25 0.11,-2.67 0.73,-4.27 0.7,-1.77 1.62,-3.18 2.76,-4.21 0.75,-0.68 1.5,-1.06 2.26,-1.14 0.48,-0.05 0.89,0.06 1.24,0.31 0.29,0.23 0.46,0.51 0.5,0.84 0.02,0.25 -0.04,0.6 -0.18,1.06 0.2,0.22 0.3,0.42 0.33,0.6 0.02,0.24 -0.09,0.64 -0.36,1.22 -0.26,0.59 -0.51,1.36 -0.74,2.31 -0.25,1.01 -0.34,1.81 -0.27,2.39 0.05,0.48 0.23,0.85 0.54,1.13 0.09,0.07 0.34,0.17 0.74,0.31 0.3,0.1 0.47,0.32 0.51,0.66 0.02,0.22 -0.04,0.4 -0.18,0.56 -0.16,0.16 -0.35,0.25 -0.57,0.28 -0.61,0.07 -1.17,-0.15 -1.66,-0.66 -0.41,-0.4 -0.65,-0.94 -0.72,-1.6 -0.03,-0.23 -0.04,-0.6 -0.06,-1.13zm1.5 -5.77c-0.17,-0.24 -0.34,-0.4 -0.5,-0.5 -0.17,-0.11 -0.35,-0.15 -0.53,-0.12 -0.85,0.09 -1.7,0.94 -2.54,2.54 -0.92,1.77 -1.32,3.23 -1.19,4.37 0.03,0.29 0.1,0.49 0.23,0.63 0.12,0.14 0.29,0.19 0.5,0.16 0.55,-0.06 1.11,-0.7 1.71,-1.92 0.33,-0.67 0.73,-1.66 1.19,-2.94 0.31,-0.84 0.54,-1.4 0.69,-1.68 0.07,-0.15 0.22,-0.33 0.44,-0.54z"/>
  <path id="11" class="fil10" d="M230.19 32.53c0.7,-0.08 1.24,-0.01 1.62,0.2 0.38,0.21 0.6,0.57 0.66,1.08 0.07,0.66 -0.11,1.33 -0.55,2 -0.41,0.64 -1.07,1.19 -1.98,1.65 -0.51,0.25 -0.93,0.39 -1.29,0.43 -0.48,0.05 -0.73,-0.13 -0.78,-0.54 -0.03,-0.28 0.08,-0.51 0.34,-0.68 0.06,-0.04 0.44,-0.18 1.12,-0.41 0.41,-0.14 0.78,-0.38 1.09,-0.72 0.28,-0.29 0.4,-0.59 0.37,-0.89 -0.03,-0.23 -0.11,-0.4 -0.26,-0.5 -0.15,-0.1 -0.36,-0.13 -0.63,-0.11 -0.66,0.08 -1.35,0.43 -2.09,1.04 -0.85,0.7 -1.23,1.46 -1.14,2.29 0.07,0.59 0.45,1.29 1.15,2.1 0.78,0.89 1.21,1.67 1.28,2.33 0.1,0.99 -0.25,1.82 -1.07,2.48 -0.5,0.42 -1.1,0.66 -1.8,0.73 -1.08,0.12 -1.95,-0.18 -2.6,-0.89 -0.46,-0.51 -0.73,-1.15 -0.81,-1.9 -0.1,-0.88 0.05,-1.65 0.43,-2.3 0.25,-0.42 0.53,-0.65 0.85,-0.69 0.28,-0.03 0.43,0.07 0.46,0.29 0.01,0.1 -0.03,0.24 -0.11,0.43 -0.2,0.51 -0.27,1.1 -0.2,1.75 0.06,0.55 0.31,1 0.75,1.34 0.38,0.3 0.81,0.43 1.25,0.38 0.45,-0.05 0.78,-0.24 0.99,-0.56 0.18,-0.26 0.25,-0.59 0.2,-0.98 -0.04,-0.47 -0.39,-1.06 -1.02,-1.76 -0.87,-0.96 -1.35,-1.86 -1.44,-2.71 -0.12,-1.13 0.39,-2.2 1.53,-3.21 1.11,-0.97 2.34,-1.52 3.68,-1.67z"/>
  <path id="12" class="fil10" d="M236.21 32.22c-0.61,1.22 -1.15,2.57 -1.62,4.05 -0.68,2.11 -0.97,3.67 -0.86,4.66 0.04,0.28 0.12,0.49 0.25,0.62 0.14,0.14 0.32,0.19 0.56,0.17 0.57,-0.06 1.19,-0.67 1.88,-1.82 0.43,-0.71 0.82,-1.41 1.14,-2.11 0.17,-0.4 0.38,-0.61 0.62,-0.64 0.15,-0.02 0.28,0.02 0.39,0.12 0.1,0.08 0.15,0.18 0.17,0.28 0.04,0.42 -0.4,1.42 -1.34,2.98 -1.12,1.88 -2.22,2.88 -3.3,3 -0.57,0.06 -1.08,-0.15 -1.52,-0.64 -0.28,-0.31 -0.45,-0.78 -0.52,-1.4 -0.15,-1.37 0.08,-3 0.68,-4.91 0.14,-0.47 0.56,-1.62 1.24,-3.45 -0.29,0.12 -0.53,0.19 -0.68,0.21 -0.25,0.02 -0.46,-0.01 -0.66,-0.11 -0.27,-0.12 -0.42,-0.31 -0.44,-0.55 -0.04,-0.28 0.11,-0.53 0.42,-0.74 0.08,-0.05 0.49,-0.17 1.23,-0.36 0.27,-0.07 0.66,-0.22 1.16,-0.45 0.32,-0.75 0.86,-1.79 1.63,-3.11 0.43,-0.73 0.72,-1.21 0.89,-1.43 0.24,-0.31 0.46,-0.48 0.67,-0.5 0.14,-0.02 0.3,0.05 0.46,0.19 0.16,0.13 0.24,0.27 0.26,0.42 0.03,0.29 -0.22,0.9 -0.76,1.84 -0.36,0.61 -0.62,1.11 -0.79,1.48 1.21,-0.48 2.09,-0.75 2.63,-0.81 0.61,-0.06 0.95,0.16 1.01,0.69 0.03,0.26 -0.06,0.46 -0.26,0.61 -0.1,0.08 -0.39,0.17 -0.86,0.27 -0.19,0.01 -1.02,0.32 -2.49,0.92 -0.4,0.17 -0.8,0.34 -1.19,0.52z"/>
  <path id="13" class="fil10" d="M239.31 39.65l0.04 0.3c0.02,0.26 0.11,0.46 0.25,0.63 0.33,0.39 0.81,0.54 1.46,0.47 1.41,-0.15 2.92,-1.41 4.54,-3.79 0.29,-0.4 0.54,-0.62 0.77,-0.64 0.12,-0.02 0.24,0.03 0.36,0.15 0.08,0.08 0.12,0.16 0.13,0.23 0.05,0.45 -0.42,1.25 -1.39,2.42 -0.75,0.92 -1.58,1.69 -2.48,2.32 -0.91,0.63 -1.77,0.99 -2.6,1.08 -0.84,0.09 -1.53,-0.13 -2.08,-0.66 -0.37,-0.37 -0.59,-0.91 -0.67,-1.61 -0.21,-1.92 0.49,-3.89 2.08,-5.92 1.3,-1.65 2.49,-2.53 3.58,-2.65 0.29,-0.04 0.57,0.03 0.82,0.18 0.33,0.2 0.51,0.5 0.55,0.89 0.06,0.59 -0.14,1.36 -0.6,2.29 -0.95,1.93 -2.53,3.37 -4.76,4.31zm0.24 -1.37c0.76,-0.35 1.36,-0.73 1.77,-1.11 0.73,-0.7 1.28,-1.46 1.66,-2.28 0.14,-0.29 0.2,-0.54 0.18,-0.75 -0.03,-0.23 -0.14,-0.33 -0.36,-0.31 -0.3,0.04 -0.69,0.3 -1.18,0.8 -0.9,0.89 -1.58,2.1 -2.07,3.65z"/>
  <path id="14" class="fil10" d="M257.04 19.4c0.25,-0.03 0.45,0.05 0.61,0.24 0.13,0.15 0.21,0.34 0.23,0.55 0.05,0.47 -0.19,1.38 -0.73,2.73 -2.21,5.51 -4.25,10.14 -6.1,13.88 -0.3,0.62 -0.48,1.02 -0.55,1.23 -0.24,0.58 -0.51,0.89 -0.82,0.93 -0.23,0.02 -0.44,-0.09 -0.64,-0.33 -0.17,-0.2 -0.27,-0.42 -0.3,-0.67 -0.03,-0.32 0.09,-0.78 0.35,-1.38 0.07,-0.17 0.4,-0.83 0.98,-1.97 0.73,-1.61 1.46,-3.19 2.18,-4.75 0.23,-0.54 0.94,-2.25 2.11,-5.11 0.42,-1 0.75,-1.8 0.99,-2.37 0.29,-0.69 0.57,-1.39 0.82,-2.12 0.19,-0.53 0.48,-0.82 0.87,-0.86zm-8.81 21.35c0.25,-0.03 0.47,0.06 0.66,0.26 0.13,0.14 0.21,0.32 0.23,0.54 0.06,0.53 -0.03,1.1 -0.26,1.72 -0.23,0.65 -0.6,1 -1.09,1.06 -0.52,0.06 -0.81,-0.21 -0.87,-0.79 -0.07,-0.59 0.05,-1.21 0.34,-1.85 0.27,-0.59 0.6,-0.9 0.99,-0.94z"/>
 </g>
</svg>
