<?xml version="1.0" encoding="UTF-8"?>
<!DOCTYPE svg PUBLIC "-//W3C//DTD SVG 1.1//EN" "http://www.w3.org/Graphics/SVG/1.1/DTD/svg11.dtd">
<!-- Creator: CorelDRAW 2019 (64-Bit) -->
<svg xmlns="http://www.w3.org/2000/svg" xml:space="preserve" width="187.694mm" height="51.3403mm" version="1.1" style="shape-rendering:geometricPrecision; text-rendering:geometricPrecision; image-rendering:optimizeQuality; fill-rule:evenodd; clip-rule:evenodd"
viewBox="0 0 93725.36 25636.85"
 xmlns:xlink="http://www.w3.org/1999/xlink"
 xmlns:xodm="http://www.corel.com/coreldraw/odm/2003">
 <defs>
  <style type="text/css">
   <![CDATA[
    .fil3 {fill:black}
    .fil11 {fill:#345C0C}
    .fil10 {fill:#35464D}
    .fil0 {fill:#39CF17}
    .fil9 {fill:#539214}
    .fil5 {fill:#5F7A89}
    .fil8 {fill:#60A817}
    .fil6 {fill:#C81E1E}
    .fil4 {fill:#F34235}
    .fil7 {fill:#FEC108}
    .fil2 {fill:#FFDB00}
    .fil1 {fill:black;fill-rule:nonzero}
   ]]>
  </style>
 </defs>
 <g id="Layer_x0020_1">
  <metadata id="CorelCorpID_0Corel-Layer"/>
  <rect class="fil0" x="0" y="1223.14" width="93725.34" height="23190.56" rx="9372.55" ry="2319.06"/>
  <path class="fil1" d="M55705.49 21600.19c185.16,-240.09 349.85,-430.59 496.8,-570.46 221.46,-211.87 372.87,-321.43 454.06,-329.97 40.65,-4.24 76.45,7.34 110.01,33.36 29.41,23.82 46.59,52.83 49.94,84.49 4.94,46.99 -30.21,127.68 -106.51,243.43 -115.65,181.46 -193.2,334.57 -232.85,458.1 520.32,-639.72 887.05,-970.74 1101.52,-993.26 44.39,-4.64 83.89,5.29 119.69,28.41 37.45,26.92 59.07,61.82 63.77,106.26 7.29,69.76 -36.65,164.14 -133.03,284.63 -419.9,532.91 -614.2,954.86 -581.64,1264.46 13.33,126.89 44.39,214.67 94.53,264.56l108.11 113.1c21.27,19.52 34.51,47.69 38.1,81.94 4.14,39.35 -8.34,79.1 -36.45,116.7 -32.66,43.19 -72.41,67.91 -119.34,72.86 -81.24,8.54 -161.54,-35.65 -242.39,-133.58 -96.82,-115.55 -154.2,-258.36 -171.93,-427.1 -23.87,-227.11 16.83,-462.3 120.59,-707.98 37.05,-87.29 99.17,-204.13 188.8,-352.09 -193.85,182.01 -383.95,423.9 -572.81,726.01 -127.33,204.53 -238.29,430.44 -331.77,676.27 -45.24,118.95 -106.61,181.81 -182.76,189.85 -84.94,8.89 -131.83,-33.66 -141.82,-128.83 -10.64,-101.47 37.05,-319.44 141.82,-652.45 60.87,-189.8 138.42,-391.69 234,-605.71 -389.29,373.17 -660.89,851.99 -815.04,1436.48 -40.2,129.98 -102.17,199.34 -189.7,208.53 -39.35,4.14 -72.66,-7.74 -101.12,-34.31 -29.86,-27.61 -47.54,-61.67 -51.93,-103.52 -15.48,-147.21 37.95,-419.65 161.49,-818.79 127.53,-422.65 282.08,-807.05 462.65,-1151.85 124.74,-241.49 228.35,-366.52 309.55,-375.06 74.85,-7.89 115.75,27.56 124.19,107.56 3.6,34.26 -33.06,125.34 -109.71,274.44 -133.83,277.09 -220.11,481.17 -258.81,613.5zm3224.96 292.22c-65.96,153.15 -134.48,282.23 -202.64,390.74 -135.82,209.23 -280.49,321.93 -433.99,338.06 -134.53,14.13 -245.23,-38.35 -332.17,-157.5 -55.48,-76.25 -89.68,-170.18 -101.42,-281.78 -28.96,-275.39 25.47,-587.69 164.34,-938.38 155.2,-390.89 358.88,-698.39 610.81,-926.25 164.14,-146.81 329.87,-229.65 496.11,-247.13 104.06,-10.94 194.95,11.54 271.5,68.91 65.66,50.83 101.67,112.5 109.26,184.81 5.74,54.58 -7.89,132.98 -39.6,233.8 43.54,47.99 66.06,91.83 70.36,132.48 5.44,51.98 -19.82,140.57 -77.1,267.15 -58.22,129.28 -113.65,298.06 -163.44,507.24 -55.03,221.36 -75.05,396.63 -61.47,526.02 10.94,104.06 50.33,185.86 119.54,246.58 19.62,15.88 73.3,38.5 161.34,70.26 65.27,22.67 102.42,71.36 110.26,146.21 4.94,46.94 -8.79,86.89 -39.85,120.94 -34.75,35.7 -76.15,56.78 -125.64,61.97 -134.48,14.13 -256.37,-34.65 -366.72,-144.91 -90.08,-88.04 -143.51,-205.53 -158.84,-351.49 -5.19,-49.49 -8.74,-132.53 -10.64,-247.73zm336.86 -1274.64c-34.9,-51.53 -72.16,-88.63 -109.11,-110.41 -38.3,-22.92 -76.45,-31.71 -115.75,-27.61 -189.05,19.87 -377.31,206.43 -563.27,560.82 -205.18,390.99 -294.62,712.13 -267.95,965.9 6.54,62.17 22.92,107.91 50.43,138.37 26.22,29.36 63.52,42.1 111.65,37.05 119.3,-12.53 244.28,-154 377.46,-424.55 74.3,-147.66 163.04,-364.78 266.65,-648.91 68.96,-185.56 120.14,-309 153.35,-371.47 17.23,-31.36 49.04,-70.56 96.52,-119.2zm1719.47 -740.04c-134.87,266.9 -256.27,564.47 -360.73,888.45 -150.11,463.5 -214.42,803.76 -191.5,1022.02 6.54,62.17 24.17,107.76 54.28,137.92 28.71,29.06 69.76,41.45 121.79,35.95 124.34,-13.03 263.06,-145.61 415.01,-396.39 96.47,-156.35 180.37,-310.15 252.82,-462.75 38.3,-87.39 86.04,-133.48 140.57,-139.17 33.06,-3.5 62.17,4.99 85.99,24.27 22.72,20.72 35.25,42.49 37.5,64.12 9.59,91.33 -89.33,309.55 -297.06,652.05 -248.13,409.72 -490.81,627.58 -729.3,652.65 -126.89,13.33 -238.39,-33.91 -334.37,-141.87 -59.72,-68.16 -97.62,-171.93 -111.85,-307.7 -31.61,-300.71 19.27,-658.79 152.35,-1076.9 31.46,-103.37 124.24,-355.59 275.99,-755.07 -65.27,26.07 -116.35,40.45 -151.85,44.14 -53.33,5.59 -100.32,-2.25 -143.46,-22.12 -59.57,-29.61 -92.03,-69.86 -97.47,-121.84 -6.54,-62.17 23.82,-115.45 92.23,-159.79 19.27,-12.28 110.26,-37.25 271.55,-77.3 58.57,-16.43 143.76,-48.49 254.07,-97.27 71.01,-166.53 192.1,-393.49 361.93,-682.01 93.48,-159.94 159.34,-265.6 196.54,-314.44 53.13,-68.41 101.92,-104.31 146.36,-109.01 32.96,-3.45 66.56,10.94 101.87,41.85 33.76,28.56 52.48,59.92 55.83,91.68 6.79,64.72 -49.64,198.89 -167.98,403.73 -79.55,134.13 -136.22,241.44 -173.92,322.38 263.96,-100.92 455.61,-156.95 572.36,-169.23 134.48,-14.13 207.73,35.9 219.71,150.11 5.99,57.13 -12.43,101.37 -56.43,134.23 -23.92,16.63 -86.04,36 -189.05,57.08 -42.1,1.85 -222.41,68.26 -542.45,196.84 -88.39,37.5 -175.57,74.85 -261.31,113.4zm1850.4 -104.71c195.4,-20.52 303.91,72.01 325.63,278.79 19.08,181.46 -32.91,370.37 -154.4,569.16 -94.63,149.76 -182.41,229.55 -263.61,238.09 -69.81,7.34 -108.21,-28.41 -116.6,-108.36 -4.39,-41.85 2.3,-75.9 18.68,-103.27 6.54,-10.94 32.81,-42 79.85,-94.38 41.15,-47.94 80.35,-114.9 118.3,-204.83 25.77,-60.47 37.45,-107.86 33.86,-142.12 -4.14,-39.35 -29.11,-57.23 -73.5,-52.53 -52.08,5.44 -127.68,54.43 -225.66,148.11 -155,148.41 -302.01,372.97 -441.33,671.13 -143.11,310.1 -206.38,550.24 -188.65,719.02 5.69,54.53 27.26,100.97 63.57,140.82 53.73,59.77 120.49,84.84 200.44,76.45 156.05,-16.43 329.77,-133.48 522.52,-350.05 163.94,-185.26 298.61,-368.72 404.27,-547.89 54.98,-99.42 105.96,-150.95 152.9,-155.9 27.91,-2.95 53.38,7.24 78.75,28.91 21.72,23.37 34.36,46.39 37.05,71.81 9.59,91.38 -89.63,282.63 -296.51,572.51 -330.42,456.81 -648.56,700.64 -953.11,732.65 -182.66,19.18 -329.17,-32.16 -439.33,-152.65 -78.7,-89.28 -124.89,-199.84 -138.77,-331.77 -27.06,-257.62 48.19,-566.96 225.56,-929.44 171.43,-346.4 382.45,-632.88 630.68,-859.08 146.56,-130.83 280.19,-202.64 399.43,-215.17zm1724.51 614.15c163.94,-209.68 331.02,-390.19 502.8,-537.8 218.82,-188.46 378.91,-288.72 481.67,-299.51 41.85,-4.39 85.59,8.99 128.53,39.1 48.54,34.7 76.15,78 81.64,129.98 7.04,67.21 -35.3,176.87 -127.08,328.92 -177.02,293.17 -307.05,556.98 -390.29,790.22 -73.6,202.74 -106.81,338.31 -99.47,408.17 7.04,67.21 42.2,96.87 106.91,90.08 134.53,-14.18 334.07,-276.29 601.22,-785.43 54.58,-103.27 107.86,-157.6 159.89,-163.09 52.03,-5.44 81.89,22.17 88.14,81.84 10.14,96.42 -65.66,290.37 -224.81,582.94 -138.57,255.77 -290.72,456.46 -454.81,603.27 -117.7,100.87 -227.4,156.05 -328.87,166.68 -107.81,11.34 -188.75,-26.32 -246.58,-112.6 -35.2,-54.03 -57.13,-115.9 -64.32,-184.36 -23.22,-220.81 29.11,-480.33 155.55,-778.39 31.01,-71.26 122.64,-273.3 276.09,-607.56 -480.73,308.35 -851.59,905.37 -1112.7,1789.73 -22.87,99.92 -67.26,153.35 -135.77,160.54 -46.94,4.94 -88.04,-7.39 -120.54,-36.05 -34.06,-31.06 -53.78,-72.66 -58.97,-122.09 -8.54,-81.19 45.69,-321.68 164.14,-720.26 219.96,-738.94 432.24,-1368.07 635.62,-1885.85 202.94,-522.92 431.84,-1066.51 686.71,-1632.13 61.37,-136.02 110.56,-229.65 147.76,-278.54 38.45,-48.94 80.5,-76.45 128.68,-81.49 44.44,-4.64 86.29,15.33 122.94,58.92 28.96,31.61 45.94,70.86 50.58,115.3 7.34,69.76 -22.22,166.53 -89.93,291.62 -222.96,441.68 -441.63,923.9 -654.7,1447.87 -228.45,560.27 -365.58,940.28 -410.02,1139.97zm4756.17 -17.58c-192.15,283.18 -348.25,494.56 -465.6,635.17 -234.1,274.74 -437.98,421.9 -611.81,440.18 -83.79,8.79 -154.2,-14.58 -210.23,-71.56 -42,-45.59 -67.56,-105.76 -75.25,-179.37 -28.16,-267.7 93.18,-638.37 362.63,-1114.4 274.94,-484.32 483.52,-733.3 626.89,-748.33 39.3,-4.14 75.45,9.99 109.51,41.05 29.46,23.87 46.89,55.38 50.73,92.18 5.74,54.58 -3.3,102.97 -26.92,146.51 -24.92,43.64 -95.28,143.41 -213.67,298.26 -125.49,160.69 -238.39,331.67 -338.36,515.33 -115.5,207.13 -167.98,355.04 -158.64,443.87 5.49,52.03 33.51,74.75 82.99,69.56 100.27,-10.54 272.5,-165.93 518.18,-465 154.55,-189.4 273.94,-346.95 359.38,-473.93 16.48,-26.12 91.63,-153.35 223.06,-380.11 118.7,-201.04 193.35,-320.48 221.46,-358.08 65.66,-95.43 129.63,-145.76 194.35,-152.55 39.35,-4.14 78,9.74 113.35,40.7 33.76,28.51 51.73,65.12 56.13,106.96 7.59,72.31 -29.36,196.79 -110.56,375.96 -97.67,218.07 -186.66,421.15 -266.8,610.46 -126.89,294.27 -221.41,554.33 -282.23,781.43 147.76,-107.91 279.24,-235.94 394.54,-384 197.29,-246.53 314.44,-425.6 352.44,-539.95 36.6,-103.87 78.2,-159.59 127.63,-164.79 68.56,-7.19 106.56,24.72 113.9,94.48 13.73,130.73 -76.15,337.71 -270.85,621.14 -232.25,341.31 -531.46,643.46 -896.69,903.78 -155.4,523.02 -309.75,958.7 -461.55,1308.2 -283.78,644.31 -610.96,985.32 -981.48,1024.27 -151,15.88 -278.94,-29.71 -383.85,-136.67 -81.64,-81.24 -129.03,-190.45 -143.46,-327.47 -40.65,-386.95 189.4,-810.1 689.9,-1272 146.11,-135.87 366.47,-309.15 659.79,-520.87 119.3,-85.64 212.27,-153.15 279.79,-206.43 31.16,-118.7 83.79,-276.94 154.05,-475.43 80.1,-213.67 148.31,-406.87 207.23,-578.55zm-532.26 1538.9c-248.63,160.84 -496.31,379.26 -744.28,656.8 -249.78,284.08 -363.03,537.2 -339.96,756.72 5.09,48.19 23.17,86.09 53.18,114.95 41.45,40.6 92.08,58.32 151.65,52.03 185.31,-19.47 370.42,-235.19 554.08,-648.31 30.01,-68.56 108.96,-293.67 235.59,-675.17 27.71,-78.6 57.23,-163.79 89.73,-257.02zm3055.68 -3174.18c201.74,-21.17 316.29,92.43 342.31,339.86 34.56,328.67 -73.85,762.06 -323.98,1298.96 -273.74,581.64 -564.67,889.34 -873.02,921.75 -143.36,15.08 -255.72,-41.15 -335.71,-167.38 -41.35,-63.67 -67.46,-141.77 -77.35,-235.64 -33.31,-317.19 39.65,-672.53 217.52,-1067.11 165.58,-365.03 376.01,-657.85 630.08,-876.96 149.41,-128.58 289.42,-199.74 420.15,-213.47zm-236.84 1445.02c-67.51,-44.24 -101.97,-79.15 -104.76,-105.76 -2.15,-20.32 31.46,-79 100.77,-176.07 196.94,-274.69 287.38,-488.17 271.25,-641.72 -2.15,-20.32 -10.49,-38.7 -25.32,-57.68 -22.87,-34.8 -56.58,-50.48 -98.47,-46.09 -78.65,8.29 -187.26,97.97 -324.63,267.6 -177.17,218.77 -306.65,438.88 -388.55,660.49 -96.47,253.87 -136.47,459.45 -119.79,618.1 4.54,43.09 19.77,78.7 44.74,108.16 37.65,40.95 80.65,59.52 130.13,54.33 119.3,-12.53 236.84,-114.7 355.04,-308 51.78,-81.14 91.98,-162.34 120.39,-246.13 28.51,-82.54 41.85,-126.29 39.2,-127.23zm1801.61 236.49c-90.98,159.64 -172.33,288.82 -245.48,386.25 -126.69,173.72 -260.41,268.6 -401.28,283.38 -121.74,12.83 -221.41,-31.91 -298.86,-134.08 -54.93,-71.16 -88.63,-160.04 -99.82,-266.6 -33.61,-319.73 63.57,-700.69 293.02,-1141.77 106.61,-206.13 215.37,-367.67 329.17,-480.98 87.79,-92.58 163.44,-141.62 225.61,-148.16 35.55,-3.75 68.86,8.19 102.42,34.16 27.01,25.37 42.49,50.68 45.44,78.6 4.94,46.94 -32.76,127.88 -112.9,244.03 -179.82,266.5 -313.44,508.89 -398.38,725.66 -97.87,252.72 -140.17,448.32 -125.89,584.09 3.6,34.21 13.98,60.12 32.46,77.4 18.53,17.28 42.3,23.77 71.46,20.67 126.89,-13.33 282.93,-213.12 470.74,-598.52 96.87,-201.29 175.22,-419.9 234.99,-657.15 31.46,-127.68 78.25,-244.23 140.42,-348.3 59.32,-94.68 123.34,-145.06 189.25,-152 36.8,-3.85 71.51,9.19 104.06,37.85 35.35,30.91 55.93,68.51 60.37,110.41 9.29,88.78 -54.63,298.21 -193.1,628.33 -94.08,228 -133.63,413.01 -118.45,557.68 16.13,153.5 70.51,279.94 163.19,380.51 26.02,28.06 99.42,67.76 220.46,120.49 58.02,27.26 90.13,76.45 97.72,148.81 4.79,45.64 -10.19,85.74 -44.84,122.74 -36,35.85 -79.9,57.13 -134.48,62.87 -124.34,13.08 -241.34,-25.97 -353.49,-116.8 -100.72,-79.2 -172.68,-202.44 -215.67,-367.32 -7.44,-22.27 -19.32,-86.49 -38.15,-192.25zm1553.23 -820.03c215.02,-285.63 468.74,-568.86 759.86,-850.84 104.81,-100.87 217.82,-197.39 337.81,-288.28 60.72,-44.84 99.37,-68.11 117.15,-70.01 36.75,-3.85 76.35,18.93 120.14,69.46 24.62,26.92 39,53.68 41.5,77.75 4.69,44.39 -35.85,110.26 -121.74,196.25 -230.15,226.86 -339.91,391.09 -329.22,492.61 5.99,57.03 40.65,81.59 105.36,74.8 105.31,-11.04 278.84,-117.75 517.88,-321.23 41.3,-33.81 76.5,-52.93 105.71,-55.98 20.32,-2.15 40.4,5.99 62.82,24.17 23.82,19.27 37.8,42.2 40.35,66.31 7.84,74.85 -84.19,199.99 -274.74,376.51 -199.79,186.51 -397.88,290.72 -593.33,311.25 -78.65,8.29 -153.25,-5.74 -224.86,-40.55 -60.72,-28.26 -95.18,-87.44 -104.51,-176.27 -6.54,-62.17 12.63,-136.07 56.38,-220.16 -182.11,158.94 -387.95,421.8 -618.9,787.33 -131.73,224.21 -257.02,496.51 -377.16,818.29 -45.04,120.19 -110.11,184.76 -193.9,193.55 -92.63,9.74 -142.76,-28.56 -151.85,-114.9 -8.94,-84.99 39.65,-318.44 144.46,-700.19 157.25,-566.86 336.16,-1012.88 538.15,-1336.81 123.74,-201.59 234.55,-306.9 330.97,-317.04 33.01,-3.45 63.27,3.6 93.18,19.67 34.36,22.07 54.03,50.83 58.02,88.88 3.89,36.75 -16.03,91.48 -58.42,163.94 -7.69,12.33 -64.87,103.02 -170.53,269.3 -96.32,157.65 -165.98,312.54 -210.58,462.2zm4867.48 -325.63c-182.86,310.45 -319.39,524.92 -409.47,644.71 -112.45,150.35 -210.63,265.85 -294.57,346.55 -95.88,88.34 -188.26,136.52 -278.34,145.96 -86.34,9.09 -158.09,-27.01 -214.12,-108.31 -43.84,-63.42 -70.76,-136.22 -79.3,-217.47 -28.36,-270.25 93.78,-657.7 366.32,-1164.84 246.88,-458.25 441.33,-695.5 583.44,-710.43 34.26,-3.6 68.96,9.44 105.31,37.7 32.26,26.12 51.18,60.02 55.33,99.37 5.74,54.58 -34.51,135.77 -120.74,242.29 -185.51,224.76 -340.41,471.94 -464.5,744.13 -106.61,230.55 -156.25,380.76 -149.31,446.72 5.19,49.49 30.71,72.46 75.1,67.81 148.51,-15.63 436.88,-371.77 866.52,-1068.56 139.27,-225.11 224.46,-354.59 255.22,-391.19 58.42,-66.41 121.34,-102.57 188.61,-109.61 44.39,-4.69 83.79,4.04 119.34,24.67 29.31,22.57 45.94,46.44 48.89,74.35 3.05,29.21 -43.54,159.84 -139.62,393.14 -221.76,501.8 -323.78,837.06 -306.45,1002 6.79,64.72 36.75,93.63 88.78,88.19 88.83,-9.34 201.14,-125.04 335.56,-347 128.23,-208.48 240.74,-467.89 336.41,-778.09 41.1,-133.93 71.46,-309 91.33,-522.77 24.27,-244.98 111.85,-376.06 261.56,-391.79 84.99,-8.94 131.83,33.61 141.72,127.48 34.11,324.78 -100.42,790.52 -402.43,1395.69 -314.54,632.13 -600.67,961.15 -858.24,988.22 -191.55,20.12 -299.16,-87.89 -323.98,-323.88 -20.27,-192.85 20.67,-438.33 121.59,-735.05zm2717.72 140.32c-66.01,153.15 -134.53,282.23 -202.69,390.74 -135.82,209.23 -280.49,321.93 -433.99,338.06 -134.53,14.13 -245.23,-38.35 -332.17,-157.5 -55.43,-76.25 -89.68,-170.18 -101.42,-281.78 -28.91,-275.39 25.47,-587.69 164.34,-938.38 155.2,-390.89 358.88,-698.39 610.81,-926.25 164.14,-146.81 329.92,-229.65 496.11,-247.13 104.06,-10.94 194.95,11.54 271.5,68.91 65.66,50.83 101.67,112.5 109.26,184.81 5.74,54.58 -7.84,132.98 -39.6,233.8 43.54,47.99 66.11,91.83 70.36,132.48 5.49,51.98 -19.82,140.57 -77.1,267.15 -58.22,129.28 -113.65,298.06 -163.44,507.24 -55.03,221.31 -75.05,396.63 -61.47,526.02 10.94,104.06 50.33,185.86 119.54,246.58 19.62,15.88 73.3,38.5 161.34,70.26 65.27,22.67 102.42,71.36 110.26,146.21 4.94,46.94 -8.79,86.89 -39.85,120.94 -34.75,35.7 -76.1,56.78 -125.64,61.97 -134.48,14.13 -256.37,-34.65 -366.67,-144.91 -90.13,-88.04 -143.51,-205.58 -158.89,-351.49 -5.19,-49.49 -8.74,-132.53 -10.59,-247.73zm336.81 -1274.64c-34.9,-51.53 -72.16,-88.63 -109.11,-110.41 -38.3,-22.92 -76.45,-31.76 -115.75,-27.61 -189.05,19.87 -377.31,206.43 -563.27,560.82 -205.18,390.99 -294.62,712.13 -267.95,965.9 6.54,62.17 22.92,107.91 50.48,138.37 26.17,29.36 63.47,42.1 111.61,37.05 119.3,-12.53 244.28,-154 377.46,-424.55 74.3,-147.66 163.04,-364.78 266.65,-648.91 68.96,-185.56 120.14,-309 153.35,-371.47 17.28,-31.36 49.04,-70.61 96.52,-119.2zm2052.03 -846.85c153.55,-16.13 271.95,-0.35 353.79,46.24 83.14,46.39 129.88,124.89 141.77,237.79 15.33,145.91 -24.32,293.72 -119.05,442.28 -90.43,140.32 -235.54,260.81 -435.23,362.58 -108.56,53.78 -202.69,85.44 -278.79,93.48 -104.06,10.94 -161.04,-30.56 -170.78,-123.19 -6.54,-62.17 17.73,-112.2 73.85,-151.45 14.48,-9.19 95.93,-39.6 245.88,-89.93 89.18,-29.91 168.43,-81.89 237.49,-157.15 61.22,-64.17 87.69,-129.78 80.6,-197.04 -5.44,-51.98 -24.67,-88.49 -56.53,-110.81 -31.71,-21.02 -77.45,-29.06 -137.07,-22.77 -143.41,15.03 -294.57,89.98 -456.26,223.71 -185.36,152.9 -269.35,318.24 -250.37,498.4 13.58,129.43 95.08,282.48 244.78,461.7 166.78,195.5 257.77,365.53 273.1,511.44 22.97,218.22 -55.63,398.38 -235.49,541.7 -109.86,89.83 -240.39,142.02 -391.39,157.89 -237.29,24.92 -426.4,-41.15 -567.16,-196.99 -99.07,-112.75 -157.3,-251.57 -174.77,-417.81 -20.27,-192.8 12.13,-360.43 96.13,-501.4 54.23,-94.23 115.65,-144.31 185.46,-151.65 60.87,-6.39 95.28,15.68 100.47,65.17 2,19.03 -6.19,50.68 -24.92,92.38 -45.94,112.6 -60.62,241.19 -45.54,384.55 12.78,121.79 66.76,220.01 161.79,294.72 85.29,66.71 176.72,94.33 274.44,84.04 96.42,-10.14 169.23,-49.84 216.92,-120.29 38.75,-59.27 52.93,-131.28 44.14,-215.02 -10.94,-104.06 -83.39,-232.4 -218.87,-386.2 -185.06,-210.23 -287.98,-408.47 -307.55,-595.03 -26.02,-247.38 85.54,-479.78 335.76,-698.49 243.33,-211.63 511.59,-332.12 803.41,-362.83zm1603.62 -96.67c-134.87,266.85 -256.22,564.42 -360.73,888.4 -150.11,463.5 -214.42,803.76 -191.45,1022.02 6.54,62.17 24.12,107.81 54.28,137.97 28.71,29.06 69.76,41.4 121.74,35.95 124.34,-13.08 263.06,-145.66 415.06,-396.39 96.42,-156.35 180.32,-310.2 252.82,-462.75 38.25,-87.39 86.04,-133.48 140.57,-139.22 33.01,-3.45 62.12,5.04 85.94,24.32 22.72,20.72 35.25,42.49 37.55,64.07 9.59,91.33 -89.33,309.55 -297.06,652.1 -248.18,409.67 -490.81,627.58 -729.35,652.65 -126.89,13.33 -238.34,-33.96 -334.32,-141.92 -59.77,-68.11 -97.62,-171.88 -111.9,-307.65 -31.61,-300.71 19.27,-658.84 152.4,-1076.9 31.46,-103.42 124.24,-355.59 275.94,-755.12 -65.22,26.12 -116.35,40.45 -151.85,44.19 -53.28,5.59 -100.32,-2.25 -143.41,-22.12 -59.62,-29.66 -92.03,-69.86 -97.52,-121.89 -6.54,-62.17 23.82,-115.4 92.28,-159.74 19.23,-12.33 110.26,-37.25 271.55,-77.3 58.57,-16.48 143.71,-48.49 254.02,-97.32 71.01,-166.53 192.15,-393.44 361.93,-681.96 93.53,-159.94 159.39,-265.65 196.59,-314.44 53.08,-68.46 101.87,-104.36 146.31,-109.01 33.01,-3.5 66.61,10.89 101.87,41.85 33.81,28.51 52.48,59.92 55.83,91.63 6.79,64.72 -49.64,198.94 -167.93,403.78 -79.55,134.08 -136.27,241.44 -173.92,322.38 263.91,-100.92 455.56,-156.95 572.31,-169.23 134.48,-14.13 207.73,35.9 219.76,150.06 5.99,57.13 -12.48,101.42 -56.48,134.23 -23.92,16.63 -86.04,36 -189,57.08 -42.15,1.9 -222.41,68.26 -542.45,196.84 -88.44,37.55 -175.57,74.9 -261.36,113.45zm963.25 1597.23l6.94 65.91c5.74,54.58 24.62,100.07 55.43,136.57 71.61,83.59 177.92,118.6 318.74,103.82 310.9,-32.71 643.66,-308.85 999.65,-827.33 63.77,-88.78 120.39,-135.82 169.93,-141.02 26.62,-2.8 53.33,7.24 77.85,32.91 17.33,18.68 26.87,35.6 28.71,53.38 10.14,96.47 -91.93,272.7 -304.95,528.56 -167.58,199.79 -349.9,369.02 -548.49,505.29 -198.69,136.37 -388.05,213.97 -569.51,233.05 -186.51,19.62 -339.26,-29.76 -460.5,-146.56 -81.69,-81.19 -130.03,-199.29 -146.16,-352.84 -43.99,-418.71 109.56,-849.15 462.05,-1291.62 284.23,-359.53 546.14,-552.58 783.38,-577.5 64.72,-6.79 125.24,7.39 181.36,41.25 70.21,45.19 109.11,110.41 117.95,194.1 13.73,130.73 -30.21,298.26 -130.68,502.55 -208.33,422.1 -555.13,735.69 -1041.7,939.48zm53.33 -298.11c166.33,-77.75 296.27,-159.39 387.4,-244.68 158.54,-151.35 279.59,-317.99 363.33,-497.45 30.56,-63.47 43.94,-118.8 39,-165.73 -5.19,-49.49 -31.91,-72.31 -78.9,-67.41 -63.42,6.69 -149.76,64.52 -258.71,174.72 -193.9,193.55 -345.55,459.7 -452.11,800.56zm4133.53 -4159.85c54.58,-5.74 98.82,12.73 133.98,53.98 27.96,34.21 45.04,74.8 49.99,121.74 10.69,101.47 -44.04,300.96 -163.19,595.73 -488.82,1207.18 -939.23,2219.22 -1349.85,3035.91 -65.32,135.17 -106.01,224.11 -121.89,268.1 -51.98,128.63 -112.8,196.54 -181.26,203.79 -49.54,5.19 -96.97,-19.32 -139.82,-72.56 -36.65,-43.59 -58.47,-92.63 -64.22,-147.16 -7.19,-68.56 18.08,-169.98 77.45,-300.66 16.58,-37.65 88.73,-181.21 217.47,-433.34 160.84,-349.15 321.98,-695.8 480.93,-1038.35 52.98,-118.45 210.18,-490.31 470.19,-1116.75 91.08,-219.91 165.19,-393.24 219.91,-519.58 63.87,-149.11 124.64,-303.01 179.87,-461.45 42.84,-117.4 106.71,-180.57 190.45,-189.4zm-1952.96 4669.58c54.48,-5.74 102.87,14.83 146.16,60.32 27.41,29.16 44.39,68.46 49.59,117.95 12.28,116.75 -6.54,243.13 -57.77,378.11 -52.98,142.81 -134.63,220.66 -243.73,232.15 -114.15,11.98 -178.07,-46.74 -191.55,-174.92 -13.58,-129.38 12.03,-264.21 77.85,-407.07 59.62,-128.18 131.88,-197.34 219.46,-206.53z"/>
  <path class="fil1" d="M36412.05 12731.86c0,-400.63 -67.61,-776.24 -202.79,-1126.79 -135.22,-350.54 -320.53,-653.5 -555.88,-908.92 -235.39,-255.37 -510.79,-458.2 -826.28,-608.46 -315.49,-150.2 -653.55,-225.36 -1014.08,-225.36 -360.58,0 -698.59,75.15 -1014.08,225.36 -315.49,150.25 -590.93,355.59 -826.33,616 -235.34,260.36 -423.15,563.37 -563.37,908.92 -140.22,345.5 -210.33,718.62 -210.33,1119.25 0,400.58 70.11,776.19 210.33,1126.74 140.22,350.54 330.52,658.54 570.91,923.95 240.39,265.41 518.28,473.24 833.77,623.44 315.49,150.25 648.56,225.36 999.1,225.36 360.53,0 698.59,-75.1 1014.08,-225.36 315.49,-150.2 590.88,-355.54 826.28,-615.95 235.34,-260.41 420.65,-565.86 555.88,-916.41 135.17,-350.54 202.79,-731.15 202.79,-1141.77zm1276.99 0c0,580.9 -102.67,1119.25 -307.95,1615 -205.33,495.76 -483.27,926.45 -833.82,1292.02 -350.54,365.58 -761.21,651 -1231.95,856.34 -470.69,205.28 -971.49,307.95 -1502.3,307.95 -550.88,0 -1061.67,-105.16 -1532.41,-315.49 -470.74,-210.33 -881.36,-498.25 -1231.9,-863.83 -350.59,-365.58 -625.99,-796.27 -826.33,-1292.02 -200.29,-495.76 -300.46,-1029.11 -300.46,-1599.97l0 -7286.39 1231.95 0 0 4552.09c320.48,-400.63 711.08,-718.62 1171.83,-953.96 460.7,-235.39 961.5,-353.09 1502.3,-353.09 540.85,0 1044.14,102.67 1509.89,308 465.7,205.33 873.86,488.27 1224.41,848.85 350.54,360.53 625.99,786.23 826.28,1276.99 200.29,490.76 300.46,1026.57 300.46,1607.51zm2212.23 3891.05l-1276.99 0 0 -7737.05 1276.99 0 0 7737.05zm-1276.99 -8908.88l0 -961.5c0,-170.28 62.57,-315.49 187.76,-435.68 125.19,-120.19 272.95,-180.32 443.22,-180.32 180.27,0 333.02,60.12 458.2,180.32 125.19,120.19 187.81,265.41 187.81,435.68l0 961.5 -1276.99 0zm3954.91 8908.88l-1276.99 0 0 -4702.34c0,-490.76 82.59,-933.94 247.88,-1329.57 165.24,-395.64 390.59,-733.65 676.07,-1014.08 285.43,-280.44 625.94,-498.25 1021.57,-653.5 395.64,-155.25 823.78,-232.9 1284.48,-232.9 460.75,0 888.9,77.65 1284.53,232.9 395.59,155.25 736.14,373.07 1021.57,653.5 285.48,280.44 508.29,618.45 668.53,1014.08 160.29,395.64 240.39,838.81 240.39,1329.57l0 4702.34 -1276.99 0 0 -4747.38c0,-580.95 -172.78,-1059.17 -520.82,-1434.74 -348,-375.61 -821.28,-563.42 -1417.21,-563.42 -595.93,0 -1071.66,187.81 -1424.7,563.42 -353.04,375.56 -528.31,853.79 -528.31,1434.74l0 4747.38zm9423.46 0c-450.71,50.08 -863.88,25.02 -1239.44,-75.1 -375.61,-100.17 -696.1,-272.95 -961.5,-518.33 -265.41,-245.38 -473.24,-555.88 -623.49,-931.44 -150.2,-375.61 -225.36,-808.75 -225.36,-1299.51l0 -6565.27 1276.99 0 0 1652.6 1742.74 0 0 1216.87 -1742.74 0 0 3695.8c0,340.51 47.59,620.94 142.76,841.31 92.63,220.31 222.81,393.09 385.6,518.28 165.24,125.19 353.04,210.33 565.86,255.42 215.32,45.04 440.68,57.58 678.57,37.55l0 1171.83zm7169.94 0l-1276.99 0 0 -4702.34c0,-600.92 -157.75,-1094.18 -470.74,-1479.78 -315.49,-385.65 -786.23,-578.45 -1414.66,-578.45 -290.47,0 -555.88,52.58 -801.26,157.75 -242.88,105.16 -455.71,247.93 -636.02,428.19 -180.27,180.27 -320.48,393.09 -425.65,638.47 -105.16,245.38 -157.75,513.33 -157.75,803.76l0 4732.4 -1276.99 0 0 -11177.43 1276.99 0 -15.03 4221.57c260.41,-300.46 580.9,-538.35 961.5,-713.62 380.61,-175.27 796.27,-262.91 1246.93,-262.91 480.78,0 906.42,80.15 1276.99,240.39 370.62,160.24 683.61,385.6 938.98,676.07 255.42,290.42 448.22,635.97 578.4,1036.6 130.23,400.63 195.3,841.31 195.3,1322.08l0 4657.25zm2107.06 -3876.07c0,190.3 15.03,365.58 45.09,525.82l4777.44 -2013.14c-240.39,-420.65 -558.37,-753.67 -954.01,-999.05 -395.59,-245.38 -813.74,-368.07 -1254.42,-368.07 -310.5,0 -620.99,65.12 -931.49,195.3 -310.45,130.23 -590.88,318.04 -841.31,563.42 -250.37,245.38 -453.21,545.84 -608.46,901.38 -155.2,355.54 -232.85,753.67 -232.85,1194.35zm6369.93 1472.34c-300.46,831.27 -763.66,1469.79 -1389.64,1915.46 -625.99,445.72 -1389.69,668.53 -2291.07,668.53 -560.87,0 -1081.69,-105.16 -1562.42,-315.49 -480.78,-210.33 -898.93,-495.76 -1254.47,-856.34 -355.59,-360.53 -636.02,-786.23 -841.31,-1276.99 -205.33,-490.76 -308,-1021.57 -308,-1592.48 0,-560.87 102.67,-1089.19 308,-1584.94 205.28,-495.81 483.22,-926.45 833.77,-1292.02 350.54,-365.58 761.21,-656.05 1231.95,-871.37 470.74,-215.32 976.53,-323.03 1517.38,-323.03 420.65,0 831.27,72.66 1231.9,217.87 400.63,145.21 771.2,353.04 1111.76,623.49 340.51,270.4 635.97,603.42 886.35,999.05 250.42,395.59 430.69,843.8 540.85,1344.6l-5934.24 2508.89c250.37,390.59 573.41,691.1 968.99,901.43 395.64,210.33 818.79,315.49 1269.5,315.49 550.83,0 1019.08,-117.7 1404.68,-353.09 385.6,-235.34 703.59,-578.4 954.01,-1029.06l1322.03 0zm845.1 -2193.45c0,-580.9 97.62,-1091.68 292.92,-1532.36 195.35,-440.73 460.75,-801.26 796.27,-1081.69 335.51,-280.44 726.11,-478.28 1171.83,-593.43 445.67,-115.2 923.95,-142.71 1434.74,-82.64l0 1186.86c-746.18,-70.11 -1337.06,70.11 -1770.25,420.65 -433.19,350.54 -648.51,901.38 -648.51,1652.55l0 4627.24 -1276.99 0 0 -4597.18zm5126.74 721.11c0,190.3 15.03,365.58 45.09,525.82l4777.44 -2013.14c-240.39,-420.65 -558.37,-753.67 -954.01,-999.05 -395.59,-245.38 -813.74,-368.07 -1254.42,-368.07 -310.5,0 -620.99,65.12 -931.49,195.3 -310.45,130.23 -590.88,318.04 -841.31,563.42 -250.37,245.38 -453.21,545.84 -608.46,901.38 -155.2,355.54 -232.85,753.67 -232.85,1194.35zm6369.93 1472.34c-300.46,831.27 -763.66,1469.79 -1389.64,1915.46 -625.99,445.72 -1389.69,668.53 -2291.07,668.53 -560.87,0 -1081.69,-105.16 -1562.42,-315.49 -480.78,-210.33 -898.93,-495.76 -1254.47,-856.34 -355.59,-360.53 -636.02,-786.23 -841.31,-1276.99 -205.33,-490.76 -308,-1021.57 -308,-1592.48 0,-560.87 102.67,-1089.19 308,-1584.94 205.28,-495.81 483.22,-926.45 833.77,-1292.02 350.54,-365.58 761.21,-656.05 1231.95,-871.37 470.74,-215.32 976.53,-323.03 1517.38,-323.03 420.65,0 831.27,72.66 1231.9,217.87 400.63,145.21 771.2,353.04 1111.76,623.49 340.51,270.4 635.97,603.42 886.35,999.05 250.42,395.59 430.69,843.8 540.85,1344.6l-5934.24 2508.89c250.37,390.59 573.41,691.1 968.99,901.43 395.64,210.33 818.79,315.49 1269.5,315.49 550.83,0 1019.08,-117.7 1404.68,-353.09 385.6,-235.34 703.59,-578.4 954.01,-1029.06l1322.03 0z"/>
  <g id="_936904000">
   <path class="fil2" d="M18379.38 12369.68c1335.42,223.01 694.25,-537.4 384.7,-1038.4 -150.06,-242.78 -324.33,-487.72 -469.64,-730.35 -158.74,-265.06 -264.76,-578.55 -92.78,-914.81 137.57,-268.9 1085.04,-879.06 1479.53,-892.74 649.31,-22.47 883.25,601.82 1209.33,1113.8 659.64,1035.8 1328.17,2009.44 576.4,3494.96 -253.12,500.15 -682.36,946.92 -1155.25,1198.44 -845.65,449.72 -1042.6,237.09 -1932.29,374.06 -150.35,425.55 -216.42,716.17 -686.21,812.15 -637.07,130.18 -1163.74,-662.39 -1744.63,-1188.01 -779.09,-704.98 -803.31,-1121.34 -20.37,-1828.82l759.86 -741.54c225.61,-205.38 494.56,-588.04 1033.06,-463.75 432.29,99.77 516.33,391.84 658.29,805zm-8685.52 -2255.12c-110.96,-149.76 -199.29,-186.81 -287.98,-391.74 -233.25,-538.95 20.42,-977.53 707.83,-1162.44 519.77,-139.77 1685.11,-570.61 2156.05,-348.6 562.87,265.46 622.59,1269.15 776.99,1981.53 228.35,1053.68 -124.94,1447.27 -1183.56,1252.87 -123.69,349.15 -429.69,498.05 -260.11,882.95 1212.82,389.79 2913.32,-713.32 2910.37,1290.22 -0.65,432.64 62.57,1228.7 -759.26,1327.58 -457.36,55.03 -1544.84,26.42 -2035.11,3.45 -1288.98,-60.32 -2082.2,-836.46 -2495.41,-1689.06 -584.39,-1205.93 -79.85,-2300.66 470.19,-3146.76zm5510.69 -4104.47c-907.57,1155.95 -970.19,2464.1 -2325.43,1692.25 -445.62,-253.77 -1092.23,-486.47 -933.14,-1216.42 57.28,-262.76 629.83,-1134.13 796.07,-1408.07 330.87,-545.34 558.27,-853.79 1064.32,-1188.71 1568.01,-1037.8 3666.84,-249.73 4260.17,1381.86 1082.99,-205.93 1397.43,355.04 1075.15,1350.1 -116.45,359.53 -219.17,701.14 -334.47,1067.91 -445.37,1416.41 -1194.05,883.75 -2699.24,340.76 -973.44,-351.14 -945.52,-1003.25 -306.65,-1599.32 -64.17,-126.54 -155.8,-275.14 -260.66,-429.49l-336.11 9.14zm2474.09 11562.98c562.17,-475.93 1196.55,-498.55 2533.16,-1969.74 3158.9,-3477.03 2501.25,-9391.05 -1566.02,-12065.28 -176.57,-116.15 -774.29,-437.83 -917.11,-587.99 -227.7,-166.93 -1449.87,-340.46 -1822.03,-366.52 -4269.5,-299.16 -8169.64,3025.37 -8220.57,7581.05 -31.81,2844.16 1464.9,5017.53 2947.22,6143.82 1452.91,1103.97 3177.97,1729.05 5143.17,1624.59 420.65,-22.37 1629.18,-181.51 1902.18,-359.93z"/>
   <path class="fil3" d="M19381.28 22695.52c528.46,78.8 1359.08,394.14 1543.64,788.23 -112.65,434.64 -946.67,646.51 -1471.99,830.17 -323.98,40.8 -795.07,188.8 -1193.15,252.92 -1291.72,208.08 -2685.11,251.37 -3986.17,186.06 -1100.42,-55.28 -4234.8,-436.88 -4448.17,-1269.15 59.17,-619.79 3315.14,-1272.4 3596.83,-1144.96 555.43,587.69 835.36,1583.99 1952.81,1583.94 1121.34,-0.1 1398.38,-1014.08 1952.81,-1585.44 427.74,-7.54 1720.91,198.14 2053.38,358.23zm-3290.88 2941.33l-1450.17 0c-1196.75,-41.05 -2361.83,-184.11 -3341.26,-430.39 -910.17,-228.85 -2333.12,-643.66 -2333.12,-1772.8 0,-1274.84 3045.59,-1902.73 3855.54,-1902.73l-994.21 -1359.13c-80.05,-106.76 -175.42,-256.37 -260.16,-340.71 -155.05,-154.35 -734.1,-336.56 -1159.14,-593.43 -1236.59,-747.13 -2289.63,-1550.94 -3151.76,-2706.63 -520.82,-698.29 -944.37,-1327.53 -1287.68,-2167.28 -640.82,-1567.71 -858.14,-2560.52 -858.14,-4349.35 0,-1580.25 455.16,-2945.32 936.88,-4070.31 536.9,-1253.77 1620.3,-2626.94 2683.06,-3525.87 715.87,-605.46 1399.18,-1022.77 2254.57,-1450.77 1508.69,-754.87 2962.15,-967.44 4790.83,-967.44 3105.67,0 6333.12,1881.11 8052.14,4415.71 1600.57,2359.93 2251.23,5363.53 1531.86,8222.67 -306.45,1218.07 -746.48,2261.66 -1421.6,3285.18l-758.81 993.76c-106.11,131.43 -128.88,170.28 -255.42,295.37 -1005.09,993.71 -1287.68,1252.82 -2612.76,2043.9 -411.02,245.38 -867.32,396.44 -1015.48,486.67 -217.42,132.38 -1195.2,1531.36 -1366.82,1787.68 605.06,0 1800.31,327.18 2372.17,531.96 852.19,305.2 1483.32,685.26 1483.32,1571.06 0,846.25 -1672.83,1407.77 -2333.27,1572.36 -985.72,245.58 -2157.9,389.34 -3360.58,430.54zm2339.31 -6522.78c-310.6,165.19 -911.22,283.88 -1301.16,364.53 -567.01,117.25 -662.64,623.19 -185.26,841.16 287.48,70.31 562.77,-53.13 843.9,-99.12 -104.36,232.85 -446.82,641.32 -606.76,862.83 -198.34,274.79 -382.95,514.18 -594.13,807.95 -399.08,555.23 -918.71,1524.92 -1578.15,1049.14 -234.94,-161.74 -847.6,-1054.88 -1053.38,-1341.76 -201.99,-281.53 -889.69,-1154.4 -989.96,-1379.81 339.16,54.18 838.76,260.76 1054.68,-44.59 240.39,-339.91 26.52,-617.45 -476.48,-712.03 -700.19,-131.73 -1378.46,-356.89 -1978.78,-628.73 -1300.01,-588.64 -1444.82,-795.62 -2387.15,-1519.43 -599.32,-460.45 -1361.03,-1435.54 -1788.83,-2117.75 -4043.4,-6447.33 1016.38,-14955.87 8764.22,-14316.75 532.61,43.94 1681.62,219.51 2076.95,431.29 860.93,175.57 1995.86,856.49 2607.01,1288.73 2298.16,1625.19 3890.85,4372.67 3937.74,7514.54 36.6,2450.57 -799.36,4224.16 -1878.21,5768.31 -870.72,1246.18 -3015.38,2943.98 -4466.25,3231.5z"/>
   <path class="fil3" d="M17678.64 17573.07c-273,178.42 -1481.53,337.56 -1902.18,359.93 -1965.2,104.46 -3690.26,-520.62 -5143.17,-1624.59 -1482.32,-1126.29 -2979.03,-3299.66 -2947.22,-6143.82 50.93,-4555.68 3951.07,-7880.21 8220.57,-7581.05 372.17,26.07 1594.33,199.59 1822.03,366.52 699.14,147.81 1676.37,715.37 2142.37,1066.07 3563.02,2681.42 4264.21,7442.23 1545.34,10987.68 -836.26,1090.53 -2436.49,2308 -3737.74,2569.26zm5707.89 -4348.7c97.57,-425.2 271.3,-820.58 362.88,-1294.02 93.73,-484.72 150.06,-948.67 163.24,-1465.3 40.4,-1587.04 -231.4,-1792.17 -417.61,-2898.34 -209.98,-435.73 -363.68,-884.45 -585.34,-1330.57 -553.58,-1114.1 -1700.59,-2377.46 -2753.57,-3056.33 -5991.17,-3862.58 -13148.17,400.03 -13321.25,6832.38 -120.19,4467.6 3079.95,7862.49 6840.71,8615.56 2269.1,454.41 4677.52,-110.21 6262.47,-1146.91 437.58,-286.18 747.83,-544.19 1117.95,-835.27 177.87,-139.87 299.26,-325.63 473.14,-477.68 730.85,-639.22 1445.52,-1926.25 1857.39,-2943.53z"/>
   <path class="fil4" d="M15008.16 22940.55c212.57,-125.29 338.16,-397.93 508.44,-617.6 174.47,-225.11 336.66,-446.27 490.51,-660.69 180.42,-251.47 872.32,-1121.44 936.18,-1342.51 -477.38,-217.97 -381.75,-723.91 185.26,-841.16 389.94,-80.65 990.56,-199.34 1301.16,-364.53 59.67,-74.8 1190.75,-708.73 1662.19,-1078.1 1434.84,-1124.14 2720.82,-2786.38 3293.87,-4576.16 2.35,-7.29 28.31,-106.91 28.41,-108.71 9.99,-142.86 29.26,-43.79 -27.66,-126.74 -411.87,1017.28 -1126.54,2304.31 -1857.39,2943.53 -173.87,152.05 -295.27,337.81 -473.14,477.68 -370.12,291.07 -680.37,549.09 -1117.95,835.27 -1584.94,1036.7 -3993.36,1601.32 -6262.47,1146.91 -3760.77,-753.07 -6960.91,-4147.96 -6840.71,-8615.56 173.08,-6432.34 7330.08,-10694.96 13321.25,-6832.38 1052.98,678.87 2199.99,1942.23 2753.57,3056.33 221.66,446.12 375.36,894.84 585.34,1330.57 152.95,-180.07 -644.16,-1763.21 -766.95,-1999.75 -357.79,-689.35 -740.89,-1181.52 -1185.81,-1718.82 -643.36,-776.94 -1476.53,-1461.3 -2356.54,-2000.85l-956.31 -536.3c-395.34,-211.77 -1544.34,-387.35 -2076.95,-431.29 -7747.84,-639.12 -12807.61,7869.43 -8764.22,14316.75 427.79,682.21 1189.5,1657.3 1788.83,2117.75 942.33,723.81 1087.14,930.79 2387.15,1519.43 600.32,271.85 1278.59,497 1978.78,628.73 503,94.58 716.87,372.12 476.48,712.03 -215.92,305.35 -715.52,98.77 -1054.68,44.59 100.27,225.41 787.98,1098.27 989.96,1379.81 205.78,286.88 818.44,1180.02 1053.38,1341.76z"/>
   <path class="fil3" d="M11642.03 13208.59l2011.64 21.32c69.51,242.68 59.62,638.67 9.89,881.36 -305.15,33.06 -1978.68,90.48 -2114.25,-59.77 -524.22,0.85 -1054.83,-408.72 -1251.32,-661.94 -879.31,-1132.93 -397.93,-1916.61 106.31,-2788.53 92.88,-160.64 309.45,-442.38 314.54,-638.12 10.44,-400.63 -290.22,-359.48 -466.19,-562.97l1639.32 -426.15 373.66 1647.71c-649.31,-235.79 -600.97,-591.33 -1425.95,916.51 -426.6,779.69 62.77,1608.41 802.36,1670.58zm-1948.17 -3094.03c-550.04,846.1 -1054.58,1940.83 -470.19,3146.76 413.21,852.59 1206.43,1628.73 2495.41,1689.06 490.26,22.97 1577.75,51.58 2035.11,-3.45 821.83,-98.87 758.61,-894.94 759.26,-1327.58 2.95,-2003.55 -1697.55,-900.43 -2910.37,-1290.22 -169.58,-384.9 136.42,-533.81 260.11,-882.95 1058.62,194.4 1411.92,-199.19 1183.56,-1252.87 -154.4,-712.37 -214.12,-1716.07 -776.99,-1981.53 -470.94,-222.01 -1636.27,208.83 -2156.05,348.6 -687.41,184.91 -941.08,623.49 -707.83,1162.44 88.68,204.93 177.02,241.99 287.98,391.74z"/>
   <path class="fil3" d="M19108.03 10006.5c159.79,-108.41 417.06,-274.74 630.28,-340.46 473.09,860.78 1230.95,1616.15 1187.61,2551.79 -48.14,1038.65 -840.41,1751.67 -1837.06,1878.01 -337.16,4.69 -850,-26.92 -1162.19,9.64 -464.75,54.38 -381.55,341.56 -433.59,780.94 -23.02,-27.96 -1139.32,-1034.16 -1256.32,-1216.77 132.03,-168.73 1111.61,-1120.49 1271.8,-1197 0,957.21 312.09,776.69 1223.51,773.55 807.45,-2.75 901.03,-226.96 1256.22,-678.37 92.93,-443.62 93.78,-462 0.85,-900.78 -76.85,-76.15 -944.52,-1472.04 -1003.45,-1611.81l122.34 -48.74zm-728.65 2363.18c-141.97,-413.16 -226.01,-705.23 -658.29,-805 -538.5,-124.29 -807.45,258.36 -1033.06,463.75l-759.86 741.54c-782.93,707.48 -758.71,1123.84 20.37,1828.82 580.9,525.62 1107.56,1318.19 1744.63,1188.01 469.79,-95.98 535.85,-386.6 686.21,-812.15 889.69,-136.97 1086.64,75.65 1932.29,-374.06 472.89,-251.52 902.13,-698.29 1155.25,-1198.44 751.77,-1485.52 83.24,-2459.16 -576.4,-3494.96 -326.08,-511.98 -560.02,-1136.27 -1209.33,-1113.8 -394.49,13.68 -1341.96,623.84 -1479.53,892.74 -171.98,336.26 -65.96,649.76 92.78,914.81 145.31,242.63 319.58,487.57 469.64,730.35 309.55,501 950.72,1261.41 -384.7,1038.4z"/>
   <path class="fil3" d="M15107.88 4329.38c281.58,-243.28 1137.12,124.14 1372.32,272.9 359.98,227.65 616.35,553.63 806.8,1014.13 116.15,132.83 232.75,346.8 262.06,507.44 437.13,203.59 390.29,111.21 858.34,-18.88l-523.32 1647.91 -772.6 -306.3c-185.41,3.2 -628.78,-171.63 -813.79,-266.7 456.06,-359.63 801.61,-159.54 254.97,-1146.01 -241.69,-436.18 -440.78,-845.6 -1075.55,-894.79 -676.32,-52.43 -973.54,337.21 -1222.01,751.52 -137.82,229.8 -584.64,1031.16 -737.84,1179.82l-708.93 -410.82c81.64,-223.76 297.21,-527.61 425.4,-738.89 343.5,-566.01 874.96,-1632.88 1874.17,-1591.33zm96.67 1680.72l336.11 -9.14c104.86,154.35 196.49,302.96 260.66,429.49 -638.87,596.08 -666.78,1248.18 306.65,1599.32 1505.19,542.99 2253.87,1075.65 2699.24,-340.76 115.3,-366.77 218.02,-708.38 334.47,-1067.91 322.28,-995.06 7.84,-1556.03 -1075.15,-1350.1 -593.33,-1631.58 -2692.15,-2419.66 -4260.17,-1381.86 -506.04,334.91 -733.45,643.36 -1064.32,1188.71 -166.23,273.94 -738.79,1145.31 -796.07,1408.07 -159.09,729.95 487.52,962.65 933.14,1216.42 1355.24,771.85 1417.86,-536.3 2325.43,-1692.25z"/>
   <path class="fil5" d="M19452.93 24313.92c179.47,-278.64 635.08,-300.41 620.09,-827.08 -12.63,-443.27 -487.97,-641.62 -691.75,-791.32 -332.47,-160.09 -1625.64,-365.77 -2053.38,-358.23 -554.43,571.36 -831.47,1585.34 -1952.81,1585.44 -1117.45,0.05 -1397.38,-996.26 -1952.81,-1583.94 -281.68,-127.43 -3537.65,525.17 -3596.83,1144.96 213.37,832.27 3347.75,1213.87 4448.17,1269.15 1301.06,65.32 2694.45,22.02 3986.17,-186.06 398.08,-64.12 869.17,-212.12 1193.15,-252.92z"/>
   <path class="fil6" d="M23495.03 7566.72c186.21,1106.16 458.01,1311.3 417.61,2898.34 -13.18,516.63 -69.51,980.58 -163.24,1465.3 -91.58,473.44 -265.31,868.82 -362.88,1294.02 56.93,82.94 37.65,-16.13 27.66,126.74 -0.1,1.8 -26.07,101.42 -28.41,108.71 -573.06,1789.78 -1859.04,3452.02 -3293.87,4576.16 -471.44,369.37 -1602.52,1003.3 -1662.19,1078.1 1450.87,-287.53 3595.53,-1985.32 4466.25,-3231.5 1078.85,-1544.14 1914.81,-3317.74 1878.21,-5768.31 -46.89,-3141.87 -1639.57,-5889.35 -3937.74,-7514.54 -611.16,-432.24 -1746.08,-1113.15 -2607.01,-1288.73l956.31 536.3c880.01,539.55 1713.17,1223.91 2356.54,2000.85 444.92,537.3 828.02,1029.46 1185.81,1718.82 122.79,236.54 919.91,1819.69 766.95,1999.75z"/>
   <path class="fil7" d="M17678.64 17573.07c1301.26,-261.26 2901.48,-1478.73 3737.74,-2569.26 2718.87,-3545.44 2017.68,-8306.26 -1545.34,-10987.68 -465.99,-350.69 -1443.23,-918.26 -2142.37,-1066.07 142.81,150.15 740.54,471.84 917.11,587.99 4067.27,2674.23 4724.91,8588.24 1566.02,12065.28 -1336.61,1471.19 -1970.99,1493.81 -2533.16,1969.74z"/>
   <path class="fil8" d="M11549.3 14051.5c693.2,27.91 1391.09,25.37 2095.33,25.37l-1.9 -799.96c-313.64,0 -1866.97,60.52 -2000.7,-68.31 -739.59,-62.17 -1228.95,-890.89 -802.36,-1670.58 824.98,-1507.84 776.64,-1152.3 1425.95,-916.51l-373.66 -1647.71 -1639.32 426.15c175.97,203.49 476.63,162.34 466.19,562.97 -5.09,195.75 -221.66,477.48 -314.54,638.12 -504.25,871.92 -985.62,1655.6 -106.31,2788.53 196.49,253.22 727.11,662.79 1251.32,661.94z"/>
   <path class="fil8" d="M17111.47 7446.58c154.55,-160.39 417.76,-1109.76 437.58,-1322.73 -29.31,-160.64 -145.91,-374.61 -262.06,-507.44 -359.58,-6.34 -366.92,115.25 -674.22,199.09 -97.27,-290.92 -597.12,-1136.17 -883.95,-1363.53 -234.5,-185.96 -320.43,-39 -620.94,-122.59 -999.2,-41.55 -1530.66,1025.32 -1874.17,1591.33 -128.18,211.28 -343.75,515.13 -425.4,738.89l708.93 410.82c153.2,-148.66 600.02,-950.02 737.84,-1179.82 248.48,-414.31 545.69,-803.96 1222.01,-751.52 634.78,49.19 833.87,458.6 1075.55,894.79 546.64,986.47 201.09,786.38 -254.97,1146.01 185.01,95.08 628.38,269.9 813.79,266.7z"/>
   <path class="fil8" d="M19088.86 14095.84c126.89,-170.88 206.93,-185.91 335.56,-333.07 90.63,-103.77 197.79,-232.4 282.38,-369.92 72.76,-118.25 391.84,-705.98 281.48,-825.03 -355.19,451.41 -448.77,675.62 -1256.22,678.37 -911.42,3.15 -1223.51,183.66 -1223.51,-773.55 -160.19,76.5 -1139.77,1028.26 -1271.8,1197 117,182.61 1233.3,1188.81 1256.32,1216.77 52.03,-439.38 -31.16,-726.56 433.59,-780.94 312.19,-36.55 825.03,-4.94 1162.19,-9.64z"/>
   <path class="fil9" d="M19108.03 10006.5c187.51,107.06 211.87,226.16 323.53,410.17 79.15,130.43 176.97,265.61 254.07,395.89 68.56,115.85 421.9,727.06 303.51,854.49 92.93,438.78 92.08,457.16 -0.85,900.78 110.36,119.05 -208.73,706.78 -281.48,825.03 -84.59,137.52 -191.75,266.15 -282.38,369.92 -128.63,147.16 -208.68,162.19 -335.56,333.07 996.66,-126.34 1788.93,-839.36 1837.06,-1878.01 43.34,-935.63 -714.52,-1691 -1187.61,-2551.79 -213.22,65.71 -470.49,232.05 -630.28,340.46z"/>
   <path class="fil6" d="M16943.29 20319.76c-63.87,221.06 -755.77,1091.03 -936.18,1342.51 -153.85,214.42 -316.04,435.58 -490.51,660.69 -170.28,219.66 -295.87,492.31 -508.44,617.6 659.44,475.78 1179.07,-493.91 1578.15,-1049.14 211.18,-293.77 395.79,-533.16 594.13,-807.95 159.94,-221.51 502.4,-629.98 606.76,-862.83 -281.13,45.99 -556.43,169.43 -843.9,99.12z"/>
   <path class="fil9" d="M17111.47 7446.58l772.6 306.3 523.32 -1647.91c-468.04,130.08 -421.2,222.46 -858.34,18.88 -19.82,212.97 -283.03,1162.34 -437.58,1322.73z"/>
   <path class="fil9" d="M17287 5616.4c-190.45,-460.5 -446.82,-786.48 -806.8,-1014.13 -235.19,-148.76 -1090.73,-516.18 -1372.32,-272.9 300.51,83.59 386.45,-63.37 620.94,122.59 286.83,227.35 786.68,1072.61 883.95,1363.53 307.3,-83.84 314.64,-205.43 674.22,-199.09z"/>
   <path class="fil10" d="M19452.93 24313.92c525.32,-183.66 1359.33,-395.54 1471.99,-830.17 -184.56,-394.09 -1015.18,-709.43 -1543.64,-788.23 203.79,149.71 679.12,348.05 691.75,791.32 14.98,526.67 -440.63,548.44 -620.09,827.08z"/>
   <path class="fil8" d="M19989.14 11667.05c118.4,-127.43 -234.94,-738.64 -303.51,-854.49 -77.1,-130.28 -174.92,-265.46 -254.07,-395.89 -111.65,-184.01 -136.02,-303.11 -323.53,-410.17l-122.34 48.74c58.92,139.77 926.6,1535.66 1003.45,1611.81z"/>
   <path class="fil11" d="M11549.3 14051.5c135.57,150.25 1809.1,92.83 2114.25,59.77 49.74,-242.68 59.62,-638.67 -9.89,-881.36l-2011.64 -21.32c133.73,128.83 1687.06,68.31 2000.7,68.31l1.9 799.96c-704.24,0 -1402.13,2.55 -2095.33,-25.37z"/>
  </g>
 </g>
</svg>
