<?xml version="1.0" encoding="UTF-8"?>
<!DOCTYPE svg PUBLIC "-//W3C//DTD SVG 1.1//EN" "http://www.w3.org/Graphics/SVG/1.1/DTD/svg11.dtd">
<!-- Creator: CorelDRAW 2019 (64-Bit) -->
<svg xmlns="http://www.w3.org/2000/svg" xml:space="preserve" width="55px" height="64px" version="1.1" style="shape-rendering:geometricPrecision; text-rendering:geometricPrecision; image-rendering:optimizeQuality; fill-rule:evenodd; clip-rule:evenodd"
viewBox="0 0 8.16 9.51"
 xmlns:xlink="http://www.w3.org/1999/xlink"
 xmlns:xodm="http://www.corel.com/coreldraw/odm/2003">
 <defs>
  <style type="text/css">
   <![CDATA[
    .fil1 {fill:black}
    .fil7 {fill:#345C0C}
    .fil6 {fill:#539214}
    .fil5 {fill:#60A817}
    .fil3 {fill:#C81E1E}
    .fil2 {fill:#F34235}
    .fil4 {fill:#FEC108}
    .fil0 {fill:#FFDB00}
   ]]>
  </style>
 </defs>
 <g id="Layer_x0020_1">
  <metadata id="CorelCorpID_0Corel-Layer"/>
  <g id="_1190217008">
   <path class="fil0" d="M5.27 4.91c0.53,0.09 0.28,-0.21 0.15,-0.41 -0.05,-0.09 -0.12,-0.19 -0.18,-0.29 -0.06,-0.1 -0.11,-0.23 -0.04,-0.36 0.06,-0.11 0.43,-0.35 0.59,-0.36 0.26,-0.01 0.35,0.24 0.48,0.45 0.26,0.41 0.53,0.79 0.23,1.38 -0.1,0.2 -0.27,0.38 -0.46,0.48 -0.34,0.18 -0.41,0.1 -0.77,0.15 -0.06,0.17 -0.08,0.28 -0.27,0.32 -0.25,0.05 -0.46,-0.26 -0.69,-0.47 -0.31,-0.28 -0.32,-0.45 -0.01,-0.73l0.3 -0.29c0.09,-0.08 0.2,-0.23 0.41,-0.19 0.17,0.04 0.21,0.16 0.26,0.32zm-3.45 -0.89c-0.04,-0.06 -0.08,-0.08 -0.11,-0.16 -0.1,-0.21 0,-0.39 0.28,-0.46 0.2,-0.05 0.67,-0.23 0.85,-0.14 0.23,0.11 0.25,0.51 0.31,0.79 0.09,0.42 -0.05,0.58 -0.47,0.5 -0.05,0.14 -0.17,0.2 -0.1,0.35 0.48,0.15 1.16,-0.28 1.16,0.51 0,0.17 0.02,0.49 -0.31,0.53 -0.18,0.02 -0.61,0.01 -0.8,0 -0.52,-0.02 -0.83,-0.33 -1,-0.67 -0.23,-0.48 -0.03,-0.92 0.19,-1.25zm2.19 -1.63c-0.36,0.46 -0.38,0.98 -0.92,0.67 -0.18,-0.1 -0.44,-0.19 -0.37,-0.48 0.02,-0.11 0.25,-0.45 0.31,-0.56 0.13,-0.22 0.22,-0.34 0.43,-0.47 0.62,-0.42 1.45,-0.1 1.69,0.54 0.43,-0.08 0.55,0.15 0.43,0.54 -0.05,0.14 -0.09,0.28 -0.14,0.43 -0.17,0.56 -0.47,0.35 -1.07,0.13 -0.39,-0.14 -0.38,-0.4 -0.12,-0.64 -0.03,-0.05 -0.06,-0.1 -0.11,-0.17l-0.13 0.01zm0.98 4.59c0.23,-0.19 0.48,-0.2 1.01,-0.78 1.26,-1.38 0.99,-3.73 -0.62,-4.79 -0.07,-0.05 -0.31,-0.18 -0.37,-0.24 -0.09,-0.06 -0.57,-0.13 -0.72,-0.14 -1.7,-0.12 -3.25,1.2 -3.27,3.01 -0.01,1.13 0.59,1.99 1.17,2.44 0.58,0.44 1.27,0.69 2.05,0.65 0.17,-0.01 0.65,-0.08 0.75,-0.15z"/>
   <path class="fil1" d="M5.15 8.47c-0.01,0.01 -0.31,0.45 0,0zm0 0l-0.34 0.45c-0.19,0.23 -0.31,0.59 -0.73,0.59 -0.46,0 -0.55,-0.34 -0.76,-0.62l-0.26 -0.34 -0.39 -0.54c-0.03,-0.04 -0.07,-0.1 -0.1,-0.13 -0.07,-0.06 -0.3,-0.13 -0.47,-0.24 -0.49,-0.29 -0.9,-0.61 -1.25,-1.07 -0.2,-0.28 -0.37,-0.53 -0.51,-0.86 -0.25,-0.63 -0.34,-1.02 -0.34,-1.73 0,-0.63 0.18,-1.17 0.37,-1.62 0.22,-0.5 0.65,-1.04 1.07,-1.4 0.28,-0.24 0.55,-0.41 0.89,-0.58 0.6,-0.3 1.18,-0.38 1.91,-0.38 1.23,0 2.51,0.75 3.2,1.75 0.63,0.94 0.89,2.14 0.61,3.27 -0.13,0.49 -0.3,0.9 -0.57,1.31l-0.3 0.39c-0.04,0.05 -0.05,0.07 -0.1,0.12 -0.4,0.39 -0.51,0.5 -1.04,0.81 -0.16,0.1 -0.34,0.16 -0.4,0.19 -0.08,0.05 -0.36,0.44 -0.49,0.63zm0.14 -0.88c-0.12,0.07 -0.36,0.12 -0.51,0.15 -0.23,0.05 -0.27,0.25 -0.08,0.33 0.12,0.03 0.23,-0.02 0.34,-0.04 -0.04,0.1 -0.18,0.26 -0.24,0.35 -0.08,0.11 -0.16,0.2 -0.24,0.32 -0.16,0.22 -0.37,0.6 -0.63,0.41 -0.09,-0.06 -0.33,-0.41 -0.42,-0.53 -0.08,-0.11 -0.35,-0.46 -0.39,-0.55 0.14,0.03 0.33,0.11 0.42,-0.01 0.1,-0.14 0.01,-0.25 -0.19,-0.29 -0.28,-0.05 -0.55,-0.14 -0.79,-0.25 -0.51,-0.23 -0.57,-0.31 -0.94,-0.6 -0.24,-0.18 -0.54,-0.57 -0.71,-0.84 -1.61,-2.56 0.4,-5.94 3.48,-5.69 0.21,0.02 0.67,0.09 0.82,0.17 0.34,0.07 0.8,0.34 1.04,0.51 0.91,0.65 1.54,1.74 1.56,2.99 0.02,0.97 -0.31,1.68 -0.74,2.29 -0.35,0.5 -1.2,1.17 -1.78,1.28z"/>
   <path class="fil1" d="M4.99 6.98c-0.1,0.07 -0.58,0.14 -0.75,0.15 -0.78,0.04 -1.47,-0.21 -2.05,-0.65 -0.58,-0.45 -1.18,-1.31 -1.17,-2.44 0.02,-1.81 1.57,-3.13 3.27,-3.01 0.15,0.01 0.63,0.08 0.72,0.14 0.28,0.06 0.67,0.29 0.85,0.43 1.42,1.06 1.7,2.95 0.62,4.36 -0.33,0.43 -0.97,0.92 -1.49,1.02zm2.27 -1.73c0.04,-0.16 0.11,-0.32 0.15,-0.51 0.03,-0.19 0.06,-0.38 0.06,-0.58 0.02,-0.63 -0.09,-0.71 -0.17,-1.15 -0.08,-0.18 -0.14,-0.35 -0.23,-0.53 -0.22,-0.44 -0.67,-0.95 -1.09,-1.22 -2.38,-1.53 -5.23,0.16 -5.29,2.72 -0.05,1.77 1.22,3.12 2.71,3.42 0.9,0.18 1.86,-0.04 2.49,-0.45 0.18,-0.12 0.3,-0.22 0.45,-0.34 0.07,-0.05 0.11,-0.13 0.18,-0.19 0.29,-0.25 0.58,-0.76 0.74,-1.17z"/>
   <path class="fil2" d="M3.93 9.11c0.09,-0.04 0.14,-0.15 0.2,-0.24 0.07,-0.09 0.14,-0.18 0.2,-0.26 0.07,-0.1 0.35,-0.45 0.37,-0.54 -0.19,-0.08 -0.15,-0.28 0.08,-0.33 0.15,-0.03 0.39,-0.08 0.51,-0.15 0.03,-0.03 0.48,-0.28 0.66,-0.42 0.57,-0.45 1.08,-1.11 1.31,-1.82 0,0 0.01,-0.04 0.01,-0.05 0.01,-0.05 0.01,-0.01 -0.01,-0.05 -0.16,0.41 -0.45,0.92 -0.74,1.17 -0.07,0.06 -0.11,0.14 -0.18,0.19 -0.15,0.12 -0.27,0.22 -0.45,0.34 -0.63,0.41 -1.59,0.63 -2.49,0.45 -1.49,-0.3 -2.76,-1.65 -2.71,-3.42 0.06,-2.56 2.91,-4.25 5.29,-2.72 0.42,0.27 0.87,0.78 1.09,1.22 0.09,0.18 0.15,0.35 0.23,0.53 0.07,-0.08 -0.25,-0.7 -0.3,-0.8 -0.14,-0.27 -0.29,-0.47 -0.47,-0.68 -0.26,-0.31 -0.59,-0.58 -0.94,-0.8l-0.38 -0.21c-0.15,-0.08 -0.61,-0.15 -0.82,-0.17 -3.08,-0.25 -5.09,3.13 -3.48,5.69 0.17,0.27 0.47,0.66 0.71,0.84 0.37,0.29 0.43,0.37 0.94,0.6 0.24,0.11 0.51,0.2 0.79,0.25 0.2,0.04 0.29,0.15 0.19,0.29 -0.09,0.12 -0.28,0.04 -0.42,0.01 0.04,0.09 0.31,0.44 0.39,0.55 0.09,0.12 0.33,0.47 0.42,0.53z"/>
   <path class="fil1" d="M2.6 5.25l0.79 0.01c0.03,0.09 0.03,0.25 0.01,0.35 -0.12,0.01 -0.79,0.03 -0.84,-0.03 -0.21,0 -0.42,-0.16 -0.5,-0.26 -0.35,-0.45 -0.16,-0.76 0.04,-1.11 0.04,-0.06 0.13,-0.17 0.13,-0.25 0,-0.16 -0.12,-0.14 -0.19,-0.23l0.65 -0.16 0.15 0.65c-0.26,-0.09 -0.24,-0.23 -0.56,0.36 -0.17,0.31 0.02,0.64 0.32,0.67zm-0.78 -1.23c-0.22,0.33 -0.42,0.77 -0.19,1.25 0.17,0.34 0.48,0.65 1,0.67 0.19,0.01 0.62,0.02 0.8,0 0.33,-0.04 0.31,-0.36 0.31,-0.53 0,-0.79 -0.68,-0.36 -1.16,-0.51 -0.07,-0.15 0.05,-0.21 0.1,-0.35 0.42,0.08 0.56,-0.08 0.47,-0.5 -0.06,-0.28 -0.08,-0.68 -0.31,-0.79 -0.18,-0.09 -0.65,0.09 -0.85,0.14 -0.28,0.07 -0.38,0.25 -0.28,0.46 0.03,0.08 0.07,0.1 0.11,0.16z"/>
   <path class="fil1" d="M5.56 3.98c0.07,-0.05 0.17,-0.11 0.25,-0.14 0.19,0.34 0.49,0.64 0.47,1.01 -0.02,0.42 -0.33,0.7 -0.73,0.75 -0.13,0 -0.33,-0.01 -0.46,0 -0.18,0.03 -0.15,0.14 -0.17,0.31 -0.01,-0.01 -0.45,-0.41 -0.5,-0.48 0.05,-0.07 0.44,-0.44 0.51,-0.47 0,0.38 0.12,0.3 0.48,0.3 0.32,0 0.36,-0.09 0.5,-0.27 0.04,-0.17 0.04,-0.18 0,-0.35 -0.03,-0.03 -0.37,-0.59 -0.4,-0.64l0.05 -0.02zm-0.29 0.93c-0.05,-0.16 -0.09,-0.28 -0.26,-0.32 -0.21,-0.04 -0.32,0.11 -0.41,0.19l-0.3 0.29c-0.31,0.28 -0.3,0.45 0.01,0.73 0.23,0.21 0.44,0.52 0.69,0.47 0.19,-0.04 0.21,-0.15 0.27,-0.32 0.36,-0.05 0.43,0.03 0.77,-0.15 0.19,-0.1 0.36,-0.28 0.46,-0.48 0.3,-0.59 0.03,-0.97 -0.23,-1.38 -0.13,-0.21 -0.22,-0.46 -0.48,-0.45 -0.16,0.01 -0.53,0.25 -0.59,0.36 -0.07,0.13 -0.02,0.26 0.04,0.36 0.06,0.1 0.13,0.2 0.18,0.29 0.13,0.2 0.38,0.5 -0.15,0.41z"/>
   <path class="fil1" d="M3.97 1.72c0.11,-0.1 0.45,0.05 0.55,0.11 0.14,0.09 0.24,0.22 0.32,0.4 0.04,0.05 0.09,0.14 0.1,0.2 0.18,0.08 0.16,0.05 0.34,0l-0.2 0.65 -0.31 -0.12c-0.08,0 -0.25,-0.07 -0.33,-0.11 0.19,-0.14 0.32,-0.06 0.11,-0.45 -0.1,-0.18 -0.18,-0.34 -0.43,-0.36 -0.27,-0.02 -0.39,0.14 -0.49,0.3 -0.05,0.09 -0.23,0.41 -0.29,0.47l-0.28 -0.16c0.03,-0.09 0.12,-0.21 0.17,-0.3 0.13,-0.22 0.35,-0.65 0.74,-0.63zm0.04 0.67l0.13 -0.01c0.05,0.07 0.08,0.12 0.11,0.17 -0.26,0.24 -0.27,0.5 0.12,0.64 0.6,0.22 0.9,0.43 1.07,-0.13 0.05,-0.15 0.09,-0.29 0.14,-0.43 0.12,-0.39 0,-0.62 -0.43,-0.54 -0.24,-0.64 -1.07,-0.96 -1.69,-0.54 -0.21,0.13 -0.3,0.25 -0.43,0.47 -0.06,0.11 -0.29,0.45 -0.31,0.56 -0.07,0.29 0.19,0.38 0.37,0.48 0.54,0.31 0.56,-0.21 0.92,-0.67z"/>
   <path class="fil3" d="M7.3 3.01c0.08,0.44 0.19,0.52 0.17,1.15 0,0.2 -0.03,0.39 -0.06,0.58 -0.04,0.19 -0.11,0.35 -0.15,0.51 0.02,0.04 0.02,0 0.01,0.05 0,0.01 -0.01,0.05 -0.01,0.05 -0.23,0.71 -0.74,1.37 -1.31,1.82 -0.18,0.14 -0.63,0.39 -0.66,0.42 0.58,-0.11 1.43,-0.78 1.78,-1.28 0.43,-0.61 0.76,-1.32 0.74,-2.29 -0.02,-1.25 -0.65,-2.34 -1.56,-2.99 -0.24,-0.17 -0.7,-0.44 -1.04,-0.51l0.38 0.21c0.35,0.22 0.68,0.49 0.94,0.8 0.18,0.21 0.33,0.41 0.47,0.68 0.05,0.1 0.37,0.72 0.3,0.8z"/>
   <path class="fil4" d="M4.99 6.98c0.52,-0.1 1.16,-0.59 1.49,-1.02 1.08,-1.41 0.8,-3.3 -0.62,-4.36 -0.18,-0.14 -0.57,-0.37 -0.85,-0.43 0.06,0.06 0.3,0.19 0.37,0.24 1.61,1.06 1.88,3.41 0.62,4.79 -0.53,0.58 -0.78,0.59 -1.01,0.78z"/>
   <path class="fil5" d="M2.56 5.58c0.27,0.01 0.55,0.01 0.83,0.01l0 -0.31c-0.12,0 -0.74,0.02 -0.79,-0.03 -0.3,-0.03 -0.49,-0.36 -0.32,-0.67 0.32,-0.59 0.3,-0.45 0.56,-0.36l-0.15 -0.65 -0.65 0.16c0.07,0.09 0.19,0.07 0.19,0.23 0,0.08 -0.09,0.19 -0.13,0.25 -0.2,0.35 -0.39,0.66 -0.04,1.11 0.08,0.1 0.29,0.26 0.5,0.26z"/>
   <path class="fil5" d="M4.77 2.96c0.06,-0.07 0.16,-0.44 0.17,-0.53 -0.01,-0.06 -0.06,-0.15 -0.1,-0.2 -0.14,0 -0.15,0.05 -0.27,0.08 -0.04,-0.11 -0.24,-0.45 -0.35,-0.54 -0.09,-0.07 -0.13,-0.02 -0.25,-0.05 -0.39,-0.02 -0.61,0.41 -0.74,0.63 -0.05,0.09 -0.14,0.21 -0.17,0.3l0.28 0.16c0.06,-0.06 0.24,-0.38 0.29,-0.47 0.1,-0.16 0.22,-0.32 0.49,-0.3 0.25,0.02 0.33,0.18 0.43,0.36 0.21,0.39 0.08,0.31 -0.11,0.45 0.08,0.04 0.25,0.11 0.33,0.11z"/>
   <path class="fil5" d="M5.55 5.6c0.05,-0.07 0.09,-0.07 0.14,-0.13 0.03,-0.04 0.08,-0.09 0.11,-0.15 0.03,-0.05 0.16,-0.28 0.11,-0.33 -0.14,0.18 -0.18,0.27 -0.5,0.27 -0.36,0 -0.48,0.08 -0.48,-0.3 -0.07,0.03 -0.46,0.4 -0.51,0.47 0.05,0.07 0.49,0.47 0.5,0.48 0.02,-0.17 -0.01,-0.28 0.17,-0.31 0.13,-0.01 0.33,0 0.46,0z"/>
   <path class="fil6" d="M5.56 3.98c0.08,0.04 0.09,0.09 0.13,0.16 0.03,0.05 0.07,0.1 0.1,0.16 0.03,0.04 0.17,0.28 0.12,0.34 0.04,0.17 0.04,0.18 0,0.35 0.05,0.05 -0.08,0.28 -0.11,0.33 -0.03,0.06 -0.08,0.11 -0.11,0.15 -0.05,0.06 -0.09,0.06 -0.14,0.13 0.4,-0.05 0.71,-0.33 0.73,-0.75 0.02,-0.37 -0.28,-0.67 -0.47,-1.01 -0.08,0.03 -0.18,0.09 -0.25,0.14z"/>
   <path class="fil3" d="M4.7 8.07c-0.02,0.09 -0.3,0.44 -0.37,0.54 -0.06,0.08 -0.13,0.17 -0.2,0.26 -0.06,0.09 -0.11,0.2 -0.2,0.24 0.26,0.19 0.47,-0.19 0.63,-0.41 0.08,-0.12 0.16,-0.21 0.24,-0.32 0.06,-0.09 0.2,-0.25 0.24,-0.35 -0.11,0.02 -0.22,0.07 -0.34,0.04z"/>
   <path class="fil6" d="M4.77 2.96l0.31 0.12 0.2 -0.65c-0.18,0.05 -0.16,0.08 -0.34,0 -0.01,0.09 -0.11,0.46 -0.17,0.53z"/>
   <path class="fil6" d="M4.84 2.23c-0.08,-0.18 -0.18,-0.31 -0.32,-0.4 -0.1,-0.06 -0.44,-0.21 -0.55,-0.11 0.12,0.03 0.16,-0.02 0.25,0.05 0.11,0.09 0.31,0.43 0.35,0.54 0.12,-0.03 0.13,-0.08 0.27,-0.08z"/>
   <path class="fil5" d="M5.91 4.64c0.05,-0.06 -0.09,-0.3 -0.12,-0.34 -0.03,-0.06 -0.07,-0.11 -0.1,-0.16 -0.04,-0.07 -0.05,-0.12 -0.13,-0.16l-0.05 0.02c0.03,0.05 0.37,0.61 0.4,0.64z"/>
   <path class="fil7" d="M2.56 5.58c0.05,0.06 0.72,0.04 0.84,0.03 0.02,-0.1 0.02,-0.26 -0.01,-0.35l-0.79 -0.01c0.05,0.05 0.67,0.03 0.79,0.03l0 0.31c-0.28,0 -0.56,0 -0.83,-0.01z"/>
  </g>
 </g>
</svg>
