<?xml version="1.0" encoding="UTF-8"?>
<!DOCTYPE svg PUBLIC "-//W3C//DTD SVG 1.1//EN" "http://www.w3.org/Graphics/SVG/1.1/DTD/svg11.dtd">
<!-- Creator: CorelDRAW 2019 (64-Bit) -->
<svg xmlns="http://www.w3.org/2000/svg" xml:space="preserve" width="92.4748mm" height="90.3104mm" version="1.1" style="shape-rendering:geometricPrecision; text-rendering:geometricPrecision; image-rendering:optimizeQuality; fill-rule:evenodd; clip-rule:evenodd"
viewBox="0 0 2579.46 2519.09"
 xmlns:xlink="http://www.w3.org/1999/xlink"
 xmlns:xodm="http://www.corel.com/coreldraw/odm/2003">
 <defs>
  <style type="text/css">
   <![CDATA[
    .fil3 {fill:black}
    .fil11 {fill:#345C0C}
    .fil10 {fill:#35464D}
    .fil0 {fill:#39CF17}
    .fil9 {fill:#539214}
    .fil5 {fill:#5F7A89}
    .fil8 {fill:#60A817}
    .fil6 {fill:#C81E1E}
    .fil4 {fill:#F34235}
    .fil7 {fill:#FEC108}
    .fil2 {fill:#FFDB00}
    .fil1 {fill:black;fill-rule:nonzero}
   ]]>
  </style>
 </defs>
 <g id="Layer_x0020_1">
  <metadata id="CorelCorpID_0Corel-Layer"/>
  <rect class="fil0" x="509.94" y="68.32" width="1295.42" height="1295.42" rx="129.54" ry="129.54"/>
  <path class="fil1" d="M315.12 1938.13c0,-19.45 -3.28,-37.69 -9.85,-54.71 -6.57,-17.02 -15.56,-31.73 -26.99,-44.13 -11.43,-12.4 -24.8,-22.25 -40.12,-29.54 -15.32,-7.29 -31.73,-10.94 -49.24,-10.94 -17.51,0 -33.92,3.65 -49.24,10.94 -15.32,7.29 -28.69,17.26 -40.12,29.91 -11.43,12.64 -20.55,27.35 -27.36,44.13 -6.81,16.78 -10.21,34.89 -10.21,54.34 0,19.45 3.4,37.69 10.21,54.71 6.81,17.02 16.05,31.97 27.72,44.86 11.67,12.89 25.17,22.98 40.48,30.27 15.32,7.29 31.49,10.94 48.51,10.94 17.51,0 33.92,-3.65 49.24,-10.94 15.32,-7.29 28.69,-17.26 40.12,-29.91 11.43,-12.64 20.42,-27.48 26.99,-44.5 6.57,-17.02 9.85,-35.5 9.85,-55.44zm62 0c0,28.21 -4.98,54.35 -14.95,78.42 -9.97,24.07 -23.46,44.98 -40.48,62.73 -17.02,17.75 -36.96,31.61 -59.82,41.58 -22.86,9.97 -47.17,14.95 -72.94,14.95 -26.74,0 -51.54,-5.1 -74.4,-15.32 -22.86,-10.21 -42.79,-24.19 -59.82,-41.94 -17.02,-17.75 -30.39,-38.66 -40.12,-62.73 -9.73,-24.07 -14.59,-49.97 -14.59,-77.69l0 -353.78 59.82 0 0 221.02c15.56,-19.45 34.53,-34.89 56.89,-46.32 22.37,-11.43 46.69,-17.14 72.94,-17.14 26.26,0 50.7,4.98 73.31,14.95 22.61,9.97 42.43,23.71 59.45,41.21 17.02,17.51 30.4,38.17 40.12,62 9.73,23.83 14.59,49.85 14.59,78.05zm90.77 188.93l-62 0 0 -375.66 62 0 0 375.66zm-62 -432.56l0 -46.69c0,-8.27 3.04,-15.32 9.12,-21.15 6.08,-5.84 13.25,-8.76 21.52,-8.76 8.75,0 16.17,2.92 22.25,8.76 6.08,5.84 9.12,12.88 9.12,21.15l0 46.69 -62 0zm175.38 432.56l-62 0 0 -228.32c0,-23.83 4.01,-45.35 12.03,-64.55 8.03,-19.21 18.97,-35.62 32.83,-49.24 13.86,-13.62 30.39,-24.19 49.6,-31.73 19.21,-7.54 40,-11.31 62.37,-11.31 22.37,0 43.16,3.77 62.37,11.31 19.21,7.54 35.74,18.11 49.6,31.73 13.86,13.61 24.68,30.03 32.46,49.24 7.78,19.21 11.67,40.72 11.67,64.55l0 228.32 -62 0 0 -230.5c0,-28.2 -8.39,-51.42 -25.29,-69.66 -16.9,-18.23 -39.88,-27.35 -68.81,-27.35 -28.93,0 -52.03,9.12 -69.18,27.35 -17.14,18.24 -25.65,41.46 -25.65,69.66l0 230.5zm440.9 0c-21.88,2.43 -41.94,1.22 -60.18,-3.65 -18.24,-4.86 -33.8,-13.25 -46.69,-25.17 -12.89,-11.91 -22.98,-26.99 -30.27,-45.22 -7.29,-18.24 -10.94,-39.27 -10.94,-63.1l0 -318.77 62 0 0 80.24 84.62 0 0 59.09 -84.62 0 0 179.44c0,16.54 2.31,30.15 6.93,40.85 4.5,10.7 10.82,19.09 18.73,25.17 8.02,6.08 17.14,10.21 27.48,12.4 10.45,2.19 21.4,2.79 32.95,1.82l0 56.9zm331.49 0l-62 0 0 -228.32c0,-29.18 -7.66,-53.13 -22.86,-71.85 -15.32,-18.72 -38.17,-28.08 -68.69,-28.08 -14.1,0 -26.99,2.56 -38.9,7.66 -11.79,5.11 -22.13,12.04 -30.88,20.79 -8.75,8.75 -15.56,19.09 -20.67,31 -5.1,11.92 -7.66,24.92 -7.66,39.03l0 229.77 -62 0 0 -542.7 62 0 -0.73 204.97c12.64,-14.59 28.2,-26.14 46.68,-34.65 18.48,-8.51 38.66,-12.76 60.54,-12.76 23.34,0 44.01,3.89 62,11.67 17.99,7.78 33.19,18.72 45.59,32.83 12.4,14.1 21.76,30.88 28.08,50.33 6.32,19.45 9.48,40.85 9.48,64.19l0 226.13zm85.66 -188.2c0,9.24 0.73,17.75 2.19,25.53l231.96 -97.74c-11.67,-20.43 -27.11,-36.59 -46.32,-48.51 -19.21,-11.91 -39.51,-17.87 -60.91,-17.87 -15.07,0 -30.15,3.16 -45.22,9.48 -15.08,6.32 -28.69,15.44 -40.85,27.36 -12.16,11.91 -22,26.5 -29.54,43.77 -7.54,17.26 -11.31,36.59 -11.31,57.99zm309.28 71.49c-14.59,40.36 -37.08,71.36 -67.47,93 -30.39,21.64 -67.47,32.46 -111.24,32.46 -27.23,0 -52.52,-5.1 -75.86,-15.32 -23.34,-10.21 -43.65,-24.07 -60.91,-41.58 -17.26,-17.51 -30.88,-38.17 -40.85,-62 -9.97,-23.83 -14.95,-49.6 -14.95,-77.32 0,-27.23 4.98,-52.88 14.95,-76.96 9.97,-24.07 23.46,-44.98 40.48,-62.73 17.02,-17.75 36.96,-31.85 59.82,-42.31 22.86,-10.45 47.41,-15.68 73.67,-15.68 20.43,0 40.36,3.53 59.82,10.58 19.45,7.05 37.44,17.14 53.98,30.27 16.53,13.13 30.88,29.3 43.04,48.51 12.16,19.21 20.91,40.97 26.26,65.28l-288.13 121.82c12.16,18.97 27.84,33.56 47.05,43.77 19.21,10.21 39.76,15.32 61.64,15.32 26.75,0 49.48,-5.71 68.2,-17.14 18.72,-11.43 34.16,-28.08 46.32,-49.97l64.19 0zm24.39 -106.5c0,-28.21 4.74,-53.01 14.22,-74.4 9.48,-21.4 22.37,-38.9 38.66,-52.52 16.29,-13.61 35.25,-23.22 56.89,-28.81 21.64,-5.59 44.86,-6.93 69.66,-4.01l0 57.63c-36.23,-3.4 -64.92,3.41 -85.95,20.43 -21.03,17.02 -31.49,43.77 -31.49,80.24l0 224.67 -62 0 0 -223.21zm232.28 35.01c0,9.24 0.73,17.75 2.19,25.53l231.96 -97.74c-11.67,-20.43 -27.11,-36.59 -46.32,-48.51 -19.21,-11.91 -39.51,-17.87 -60.91,-17.87 -15.07,0 -30.15,3.16 -45.22,9.48 -15.08,6.32 -28.69,15.44 -40.85,27.36 -12.16,11.91 -22,26.5 -29.54,43.77 -7.54,17.26 -11.31,36.59 -11.31,57.99zm309.28 71.49c-14.59,40.36 -37.08,71.36 -67.47,93 -30.39,21.64 -67.47,32.46 -111.24,32.46 -27.23,0 -52.52,-5.1 -75.86,-15.32 -23.34,-10.21 -43.65,-24.07 -60.91,-41.58 -17.26,-17.51 -30.88,-38.17 -40.85,-62 -9.97,-23.83 -14.95,-49.6 -14.95,-77.32 0,-27.23 4.98,-52.88 14.95,-76.96 9.97,-24.07 23.46,-44.98 40.48,-62.73 17.02,-17.75 36.96,-31.85 59.82,-42.31 22.86,-10.45 47.41,-15.68 73.67,-15.68 20.43,0 40.36,3.53 59.82,10.58 19.45,7.05 37.44,17.14 53.98,30.27 16.53,13.13 30.88,29.3 43.04,48.51 12.16,19.21 20.91,40.97 26.26,65.28l-288.13 121.82c12.16,18.97 27.84,33.56 47.05,43.77 19.21,10.21 39.76,15.32 61.64,15.32 26.75,0 49.48,-5.71 68.2,-17.14 18.72,-11.43 34.16,-28.08 46.32,-49.97l64.19 0z"/>
  <path class="fil1" d="M817.24 2407.51c9.02,-11.7 17.05,-20.98 24.21,-27.79 10.79,-10.32 18.17,-15.66 22.13,-16.08 1.98,-0.21 3.72,0.36 5.36,1.62 1.43,1.16 2.27,2.57 2.43,4.12 0.24,2.29 -1.47,6.22 -5.19,11.86 -5.63,8.84 -9.41,16.3 -11.34,22.32 25.35,-31.17 43.22,-47.29 53.67,-48.39 2.16,-0.23 4.09,0.26 5.84,1.39 1.83,1.31 2.88,3.01 3.11,5.17 0.36,3.4 -1.79,8 -6.48,13.87 -20.46,25.96 -29.92,46.53 -28.34,61.61 0.65,6.18 2.16,10.46 4.61,12.89l5.27 5.51c1.04,0.95 1.68,2.32 1.86,3.99 0.2,1.91 -0.41,3.85 -1.78,5.69 -1.59,2.11 -3.53,3.31 -5.82,3.55 -3.96,0.42 -7.87,-1.74 -11.81,-6.51 -4.72,-5.63 -7.51,-12.59 -8.37,-20.81 -1.16,-11.07 0.82,-22.53 5.87,-34.5 1.8,-4.25 4.83,-9.95 9.2,-17.16 -9.44,8.87 -18.71,20.66 -27.91,35.37 -6.2,9.96 -11.61,20.97 -16.16,32.95 -2.2,5.79 -5.19,8.86 -8.9,9.25 -4.14,0.44 -6.42,-1.64 -6.91,-6.27 -0.52,-4.95 1.8,-15.57 6.91,-31.79 2.97,-9.25 6.74,-19.08 11.4,-29.51 -18.96,18.18 -32.2,41.51 -39.71,69.99 -1.96,6.33 -4.98,9.71 -9.25,10.16 -1.92,0.2 -3.54,-0.38 -4.93,-1.67 -1.45,-1.35 -2.32,-3.01 -2.53,-5.05 -0.75,-7.17 1.85,-20.45 7.87,-39.89 6.21,-20.59 13.74,-39.32 22.54,-56.12 6.08,-11.77 11.12,-17.86 15.08,-18.28 3.65,-0.38 5.64,1.34 6.05,5.24 0.18,1.67 -1.61,6.11 -5.34,13.38 -6.52,13.5 -10.73,23.44 -12.61,29.89zm157.14 14.24c-3.22,7.46 -6.56,13.75 -9.87,19.04 -6.62,10.2 -13.67,15.69 -21.15,16.47 -6.55,0.69 -11.95,-1.87 -16.18,-7.67 -2.71,-3.72 -4.37,-8.29 -4.95,-13.73 -1.41,-13.42 1.24,-28.63 8.01,-45.72 7.56,-19.05 17.49,-34.03 29.76,-45.13 8,-7.15 16.08,-11.19 24.18,-12.04 5.07,-0.53 9.5,0.57 13.23,3.36 3.2,2.48 4.95,5.48 5.32,9 0.28,2.66 -0.38,6.48 -1.93,11.39 2.12,2.34 3.22,4.47 3.43,6.45 0.27,2.54 -0.97,6.85 -3.76,13.02 -2.84,6.3 -5.54,14.52 -7.97,24.71 -2.68,10.78 -3.66,19.32 -2.99,25.63 0.53,5.07 2.45,9.06 5.83,12.02 0.96,0.77 3.57,1.87 7.86,3.42 3.18,1.1 4.99,3.48 5.38,7.12 0.24,2.29 -0.43,4.24 -1.94,5.89 -1.69,1.74 -3.71,2.76 -6.12,3.02 -6.55,0.69 -12.49,-1.68 -17.87,-7.06 -4.39,-4.29 -6.99,-10.02 -7.74,-17.13 -0.25,-2.41 -0.43,-6.45 -0.52,-12.07zm16.41 -62.11c-1.7,-2.51 -3.52,-4.32 -5.32,-5.38 -1.87,-1.12 -3.72,-1.55 -5.64,-1.34 -9.21,0.97 -18.38,10.06 -27.44,27.32 -10,19.05 -14.35,34.7 -13.06,47.06 0.32,3.03 1.12,5.26 2.46,6.74 1.27,1.43 3.09,2.05 5.44,1.8 5.81,-0.61 11.9,-7.5 18.39,-20.68 3.62,-7.2 7.95,-17.78 12.99,-31.62 3.36,-9.04 5.85,-15.05 7.47,-18.1 0.84,-1.52 2.39,-3.44 4.7,-5.8zm83.78 -36.06c-6.57,13 -12.49,27.5 -17.58,43.29 -7.31,22.58 -10.45,39.17 -9.33,49.8 0.32,3.03 1.18,5.25 2.64,6.72 1.4,1.41 3.4,2.02 5.93,1.75 6.06,-0.64 12.82,-7.1 20.22,-19.32 4.7,-7.62 8.79,-15.11 12.32,-22.55 1.87,-4.26 4.19,-6.5 6.85,-6.78 1.61,-0.17 3.03,0.25 4.19,1.19 1.11,1.01 1.72,2.07 1.83,3.12 0.47,4.45 -4.35,15.08 -14.47,31.77 -12.09,19.96 -23.92,30.58 -35.54,31.8 -6.18,0.65 -11.61,-1.66 -16.29,-6.91 -2.91,-3.32 -4.76,-8.37 -5.45,-14.99 -1.54,-14.65 0.94,-32.1 7.43,-52.47 1.53,-5.04 6.05,-17.32 13.44,-36.79 -3.18,1.27 -5.67,1.97 -7.4,2.15 -2.6,0.27 -4.88,-0.11 -6.99,-1.08 -2.9,-1.44 -4.48,-3.41 -4.75,-5.94 -0.32,-3.03 1.16,-5.62 4.49,-7.79 0.94,-0.6 5.38,-1.82 13.23,-3.77 2.85,-0.8 7,-2.36 12.38,-4.74 3.46,-8.11 9.36,-19.17 17.63,-33.23 4.56,-7.79 7.77,-12.95 9.58,-15.32 2.59,-3.34 4.97,-5.09 7.13,-5.31 1.61,-0.17 3.24,0.54 4.97,2.04 1.65,1.39 2.56,2.92 2.72,4.47 0.33,3.15 -2.42,9.69 -8.18,19.67 -3.88,6.53 -6.64,11.76 -8.48,15.71 12.86,-4.92 22.2,-7.65 27.89,-8.25 6.55,-0.69 10.12,1.75 10.71,7.32 0.29,2.78 -0.61,4.94 -2.75,6.54 -1.16,0.81 -4.19,1.75 -9.21,2.78 -2.05,0.09 -10.84,3.33 -26.43,9.59 -4.31,1.83 -8.55,3.65 -12.73,5.53zm90.16 -5.1c9.52,-1 14.81,3.51 15.87,13.58 0.93,8.84 -1.6,18.04 -7.52,27.73 -4.61,7.3 -8.89,11.19 -12.85,11.6 -3.4,0.36 -5.27,-1.38 -5.68,-5.28 -0.21,-2.04 0.11,-3.7 0.91,-5.03 0.32,-0.54 1.6,-2.04 3.89,-4.6 2,-2.33 3.91,-5.6 5.76,-9.98 1.25,-2.94 1.82,-5.26 1.65,-6.92 -0.2,-1.92 -1.42,-2.79 -3.58,-2.56 -2.54,0.27 -6.22,2.66 -10.99,7.22 -7.55,7.23 -14.72,18.18 -21.5,32.7 -6.98,15.11 -10.06,26.81 -9.19,35.03 0.28,2.66 1.33,4.92 3.1,6.86 2.62,2.91 5.87,4.13 9.77,3.72 7.6,-0.8 16.07,-6.5 25.46,-17.05 7.99,-9.03 14.55,-17.97 19.7,-26.7 2.68,-4.85 5.16,-7.36 7.45,-7.6 1.36,-0.14 2.6,0.35 3.84,1.41 1.06,1.14 1.67,2.26 1.8,3.5 0.47,4.45 -4.37,13.77 -14.44,27.9 -16.1,22.26 -31.6,34.14 -46.44,35.7 -8.9,0.93 -16.04,-1.56 -21.41,-7.44 -3.83,-4.35 -6.08,-9.73 -6.76,-16.17 -1.32,-12.55 2.35,-27.62 10.99,-45.29 8.35,-16.88 18.64,-30.84 30.73,-41.85 7.14,-6.38 13.65,-9.87 19.46,-10.49zm84.02 29.92c7.99,-10.21 16.13,-19.01 24.5,-26.2 10.66,-9.18 18.46,-14.06 23.47,-14.59 2.04,-0.21 4.17,0.44 6.26,1.91 2.36,1.69 3.71,3.8 3.98,6.33 0.34,3.28 -1.72,8.62 -6.19,16.03 -8.62,14.28 -14.96,27.14 -19.02,38.5 -3.59,9.88 -5.21,16.49 -4.85,19.89 0.35,3.27 2.06,4.72 5.21,4.39 6.55,-0.69 16.27,-13.46 29.29,-38.27 2.66,-5.03 5.26,-7.68 7.79,-7.94 2.53,-0.27 3.99,1.08 4.29,3.99 0.49,4.69 -3.2,14.15 -10.95,28.4 -6.76,12.46 -14.17,22.24 -22.16,29.39 -5.73,4.92 -11.08,7.6 -16.02,8.13 -5.26,0.55 -9.2,-1.29 -12.02,-5.49 -1.72,-2.63 -2.78,-5.65 -3.13,-8.98 -1.13,-10.76 1.41,-23.4 7.58,-37.93 1.51,-3.47 5.97,-13.32 13.45,-29.6 -23.42,15.03 -41.49,44.12 -54.21,87.21 -1.11,4.87 -3.28,7.47 -6.62,7.82 -2.29,0.24 -4.29,-0.36 -5.87,-1.76 -1.66,-1.51 -2.62,-3.54 -2.87,-5.95 -0.42,-3.96 2.23,-15.67 8,-35.09 10.71,-36.01 21.06,-66.66 30.97,-91.89 9.89,-25.48 21.04,-51.96 33.46,-79.52 2.99,-6.63 5.39,-11.19 7.2,-13.57 1.87,-2.38 3.92,-3.73 6.27,-3.97 2.16,-0.23 4.2,0.74 5.99,2.87 1.41,1.54 2.24,3.45 2.46,5.62 0.36,3.4 -1.09,8.11 -4.38,14.21 -10.86,21.52 -21.52,45.01 -31.9,70.55 -11.13,27.3 -17.81,45.81 -19.98,55.54zm231.75 -0.85c-9.36,13.8 -16.97,24.1 -22.69,30.95 -11.41,13.38 -21.34,20.55 -29.81,21.44 -4.08,0.43 -7.51,-0.71 -10.24,-3.49 -2.05,-2.22 -3.29,-5.15 -3.67,-8.74 -1.37,-13.05 4.55,-31.1 17.67,-54.3 13.39,-23.6 23.56,-35.73 30.55,-36.46 1.92,-0.2 3.68,0.49 5.34,2 1.44,1.16 2.28,2.7 2.47,4.49 0.28,2.66 -0.16,5.02 -1.31,7.14 -1.21,2.13 -4.64,6.99 -10.41,14.54 -6.12,7.83 -11.62,16.16 -16.49,25.11 -5.63,10.09 -8.18,17.3 -7.73,21.63 0.27,2.53 1.63,3.64 4.04,3.39 4.89,-0.51 13.28,-8.08 25.25,-22.65 7.53,-9.23 13.35,-16.91 17.51,-23.09 0.8,-1.27 4.47,-7.47 10.86,-18.52 5.79,-9.8 9.43,-15.62 10.79,-17.45 3.2,-4.65 6.32,-7.1 9.47,-7.43 1.92,-0.2 3.8,0.48 5.52,1.98 1.65,1.39 2.52,3.17 2.74,5.21 0.37,3.52 -1.43,9.59 -5.39,18.32 -4.76,10.62 -9.09,20.52 -13,29.75 -6.18,14.33 -10.79,27.01 -13.75,38.07 7.2,-5.26 13.61,-11.49 19.22,-18.71 9.61,-12.01 15.32,-20.74 17.17,-26.31 1.78,-5.06 3.81,-7.78 6.22,-8.03 3.34,-0.35 5.19,1.2 5.55,4.61 0.67,6.37 -3.71,16.45 -13.2,30.26 -11.32,16.63 -25.9,31.35 -43.69,44.03 -7.57,25.49 -15.09,46.72 -22.49,63.75 -13.83,31.39 -29.77,48.01 -47.82,49.9 -7.36,0.78 -13.59,-1.44 -18.7,-6.66 -3.98,-3.96 -6.29,-9.28 -6.99,-15.95 -1.98,-18.86 9.23,-39.48 33.61,-61.98 7.12,-6.62 17.86,-15.06 32.15,-25.38 5.81,-4.18 10.34,-7.46 13.63,-10.06 1.52,-5.78 4.08,-13.49 7.5,-23.17 3.91,-10.41 7.23,-19.82 10.1,-28.19zm-25.94 74.98c-12.11,7.84 -24.18,18.48 -36.26,32 -12.17,13.84 -17.69,26.17 -16.56,36.87 0.25,2.35 1.13,4.2 2.59,5.6 2.02,1.97 4.49,2.84 7.39,2.54 9.03,-0.95 18.05,-11.46 27,-31.59 1.46,-3.34 5.31,-14.31 11.48,-32.9 1.35,-3.83 2.79,-7.98 4.37,-12.52zm148.89 -154.66c9.83,-1.03 15.41,4.5 16.68,16.56 1.68,16.01 -3.6,37.13 -15.79,63.29 -13.34,28.34 -27.51,43.33 -42.53,44.91 -6.99,0.73 -12.46,-2 -16.36,-8.16 -2.01,-3.1 -3.29,-6.9 -3.77,-11.48 -1.62,-15.46 1.93,-32.77 10.6,-51.99 8.07,-17.79 18.32,-32.06 30.7,-42.73 7.28,-6.26 14.11,-9.73 20.47,-10.4zm-11.54 70.4c-3.29,-2.15 -4.97,-3.85 -5.1,-5.15 -0.11,-0.99 1.53,-3.85 4.91,-8.58 9.59,-13.38 14,-23.79 13.22,-31.27 -0.1,-0.99 -0.51,-1.89 -1.24,-2.81 -1.11,-1.7 -2.76,-2.46 -4.8,-2.25 -3.83,0.4 -9.12,4.77 -15.82,13.04 -8.63,10.66 -14.95,21.38 -18.93,32.18 -4.7,12.37 -6.65,22.39 -5.84,30.11 0.22,2.1 0.97,3.84 2.18,5.27 1.84,1.99 3.93,2.9 6.34,2.64 5.81,-0.61 11.54,-5.59 17.3,-15.01 2.52,-3.95 4.48,-7.91 5.87,-11.99 1.39,-4.02 2.04,-6.15 1.91,-6.2zm87.78 11.53c-4.43,7.78 -8.4,14.07 -11.96,18.82 -6.18,8.46 -12.69,13.08 -19.55,13.8 -5.94,0.62 -10.79,-1.55 -14.57,-6.53 -2.68,-3.47 -4.32,-7.8 -4.86,-12.99 -1.64,-15.58 3.1,-34.14 14.28,-55.63 5.19,-10.05 10.49,-17.92 16.04,-23.44 4.27,-4.51 7.96,-6.9 10.99,-7.22 1.73,-0.18 3.35,0.4 4.99,1.67 1.32,1.24 2.07,2.47 2.21,3.83 0.24,2.29 -1.6,6.23 -5.5,11.89 -8.76,12.98 -15.27,24.79 -19.41,35.36 -4.77,12.32 -6.83,21.85 -6.13,28.46 0.18,1.67 0.68,2.93 1.58,3.77 0.9,0.84 2.06,1.16 3.48,1.01 6.18,-0.65 13.79,-10.39 22.94,-29.17 4.72,-9.81 8.54,-20.46 11.45,-32.02 1.53,-6.22 3.81,-11.9 6.84,-16.97 2.89,-4.62 6.01,-7.07 9.22,-7.41 1.79,-0.19 3.48,0.45 5.07,1.84 1.72,1.51 2.73,3.34 2.94,5.38 0.45,4.33 -2.66,14.53 -9.41,30.61 -4.59,11.11 -6.51,20.13 -5.77,27.17 0.79,7.48 3.43,13.64 7.95,18.54 1.27,1.37 4.85,3.31 10.74,5.87 2.83,1.33 4.39,3.73 4.76,7.25 0.23,2.23 -0.5,4.18 -2.18,5.98 -1.75,1.75 -3.89,2.78 -6.55,3.06 -6.06,0.64 -11.76,-1.27 -17.22,-5.69 -4.91,-3.86 -8.41,-9.87 -10.51,-17.9 -0.37,-1.09 -0.94,-4.21 -1.86,-9.37zm75.68 -39.95c10.48,-13.92 22.84,-27.72 37.02,-41.46 5.11,-4.91 10.61,-9.62 16.46,-14.04 2.96,-2.19 4.84,-3.32 5.7,-3.41 1.79,-0.19 3.72,0.92 5.85,3.38 1.2,1.31 1.9,2.61 2.03,3.79 0.23,2.16 -1.75,5.37 -5.93,9.56 -11.22,11.05 -16.56,19.05 -16.04,24 0.29,2.78 1.98,3.98 5.14,3.65 5.13,-0.54 13.58,-5.74 25.23,-15.65 2.01,-1.65 3.73,-2.58 5.15,-2.73 0.99,-0.1 1.97,0.29 3.07,1.18 1.16,0.94 1.84,2.06 1.96,3.23 0.38,3.65 -4.1,9.74 -13.38,18.35 -9.73,9.09 -19.39,14.16 -28.91,15.16 -3.83,0.4 -7.47,-0.28 -10.96,-1.97 -2.96,-1.38 -4.64,-4.26 -5.09,-8.59 -0.32,-3.03 0.62,-6.63 2.74,-10.73 -8.87,7.75 -18.9,20.55 -30.16,38.36 -6.42,10.92 -12.52,24.19 -18.37,39.87 -2.2,5.86 -5.37,9 -9.45,9.43 -4.51,0.47 -6.96,-1.39 -7.4,-5.6 -0.44,-4.14 1.93,-15.52 7.04,-34.11 7.66,-27.62 16.38,-49.35 26.22,-65.14 6.03,-9.82 11.43,-14.95 16.13,-15.45 1.61,-0.17 3.08,0.18 4.54,0.96 1.67,1.07 2.64,2.47 2.83,4.33 0.19,1.79 -0.78,4.46 -2.85,7.99 -0.37,0.6 -3.16,5.02 -8.31,13.12 -4.69,7.68 -8.09,15.22 -10.26,22.52zm237.17 -15.87c-8.91,15.13 -15.56,25.57 -19.95,31.41 -5.48,7.33 -10.26,12.95 -14.35,16.88 -4.67,4.31 -9.18,6.65 -13.56,7.12 -4.21,0.44 -7.7,-1.31 -10.43,-5.28 -2.14,-3.09 -3.45,-6.64 -3.87,-10.59 -1.38,-13.17 4.57,-32.04 17.85,-56.76 12.03,-22.33 21.5,-33.89 28.43,-34.62 1.67,-0.18 3.36,0.46 5.13,1.84 1.57,1.27 2.49,2.93 2.7,4.84 0.28,2.66 -1.68,6.61 -5.88,11.81 -9.04,10.95 -16.59,23 -22.63,36.26 -5.2,11.24 -7.61,18.55 -7.28,21.77 0.25,2.41 1.5,3.53 3.66,3.3 7.23,-0.76 21.29,-18.11 42.22,-52.07 6.78,-10.96 10.93,-17.28 12.43,-19.06 2.85,-3.24 5.92,-5 9.19,-5.34 2.16,-0.23 4.08,0.2 5.81,1.2 1.43,1.1 2.24,2.26 2.38,3.63 0.15,1.42 -2.12,7.78 -6.8,19.15 -10.81,24.45 -15.78,40.79 -14.93,48.83 0.33,3.15 1.79,4.56 4.33,4.3 4.33,-0.45 9.8,-6.09 16.35,-16.91 6.25,-10.16 11.73,-22.79 16.39,-37.91 2,-6.52 3.48,-15.05 4.45,-25.47 1.18,-11.94 5.45,-18.33 12.75,-19.1 4.14,-0.44 6.42,1.64 6.9,6.21 1.67,15.83 -4.89,38.52 -19.6,68 -15.33,30.8 -29.27,46.83 -41.82,48.15 -9.34,0.98 -14.58,-4.28 -15.79,-15.78 -0.99,-9.4 1.01,-21.36 5.92,-35.81zm132.42 6.83c-3.22,7.46 -6.56,13.75 -9.87,19.04 -6.62,10.2 -13.67,15.69 -21.15,16.47 -6.55,0.69 -11.95,-1.87 -16.18,-7.67 -2.7,-3.72 -4.37,-8.29 -4.94,-13.73 -1.41,-13.41 1.24,-28.63 8.01,-45.72 7.56,-19.04 17.49,-34.03 29.76,-45.13 8,-7.15 16.08,-11.19 24.18,-12.04 5.07,-0.53 9.5,0.56 13.23,3.36 3.2,2.48 4.95,5.48 5.32,9 0.28,2.66 -0.38,6.48 -1.93,11.39 2.12,2.34 3.22,4.47 3.43,6.45 0.27,2.54 -0.97,6.85 -3.76,13.02 -2.84,6.3 -5.54,14.52 -7.97,24.71 -2.68,10.78 -3.66,19.32 -2.99,25.63 0.53,5.07 2.45,9.06 5.83,12.01 0.95,0.78 3.57,1.87 7.86,3.42 3.18,1.1 4.99,3.48 5.38,7.12 0.24,2.29 -0.43,4.23 -1.94,5.89 -1.69,1.74 -3.71,2.77 -6.12,3.02 -6.55,0.69 -12.49,-1.68 -17.87,-7.06 -4.39,-4.29 -6.99,-10.02 -7.74,-17.12 -0.25,-2.41 -0.43,-6.45 -0.52,-12.07zm16.41 -62.11c-1.7,-2.51 -3.52,-4.32 -5.32,-5.38 -1.87,-1.12 -3.73,-1.55 -5.64,-1.34 -9.21,0.97 -18.38,10.06 -27.44,27.32 -10,19.05 -14.36,34.7 -13.06,47.06 0.32,3.03 1.12,5.26 2.46,6.75 1.27,1.43 3.09,2.05 5.44,1.8 5.81,-0.61 11.9,-7.5 18.39,-20.68 3.62,-7.19 7.95,-17.77 12.99,-31.62 3.36,-9.04 5.85,-15.06 7.47,-18.1 0.84,-1.53 2.39,-3.44 4.7,-5.81zm99.98 -41.26c7.48,-0.79 13.25,-0.02 17.24,2.25 4.05,2.26 6.33,6.09 6.91,11.59 0.75,7.11 -1.18,14.31 -5.8,21.55 -4.4,6.84 -11.48,12.71 -21.21,17.67 -5.29,2.62 -9.87,4.16 -13.59,4.56 -5.07,0.53 -7.84,-1.49 -8.32,-6 -0.32,-3.03 0.86,-5.46 3.6,-7.38 0.7,-0.45 4.67,-1.93 11.98,-4.38 4.35,-1.46 8.21,-3.99 11.57,-7.65 2.98,-3.13 4.27,-6.32 3.93,-9.6 -0.27,-2.53 -1.2,-4.31 -2.76,-5.4 -1.54,-1.02 -3.77,-1.42 -6.68,-1.11 -6.98,0.73 -14.35,4.38 -22.23,10.9 -9.03,7.45 -13.12,15.51 -12.2,24.28 0.66,6.31 4.63,13.77 11.93,22.5 8.13,9.53 12.56,17.81 13.31,24.92 1.12,10.64 -2.71,19.41 -11.48,26.4 -5.35,4.37 -11.71,6.92 -19.07,7.69 -11.56,1.22 -20.78,-2 -27.63,-9.6 -4.83,-5.5 -7.66,-12.26 -8.52,-20.36 -0.99,-9.39 0.59,-17.56 4.68,-24.43 2.64,-4.59 5.64,-7.03 9.04,-7.39 2.97,-0.31 4.64,0.76 4.9,3.17 0.1,0.93 -0.3,2.47 -1.21,4.5 -2.24,5.48 -2.95,11.75 -2.22,18.74 0.62,5.93 3.25,10.72 7.88,14.36 4.15,3.25 8.61,4.6 13.37,4.1 4.7,-0.49 8.25,-2.43 10.57,-5.86 1.89,-2.89 2.58,-6.4 2.15,-10.48 -0.53,-5.07 -4.07,-11.32 -10.67,-18.82 -9.02,-10.24 -14.03,-19.9 -14.98,-28.99 -1.27,-12.06 4.17,-23.38 16.36,-34.04 11.85,-10.31 24.93,-16.18 39.15,-17.68zm78.14 -4.71c-6.57,13 -12.49,27.5 -17.58,43.29 -7.31,22.58 -10.44,39.16 -9.33,49.8 0.32,3.03 1.18,5.25 2.64,6.72 1.4,1.42 3.4,2.02 5.94,1.75 6.06,-0.64 12.82,-7.1 20.22,-19.31 4.7,-7.62 8.78,-15.11 12.32,-22.55 1.87,-4.26 4.19,-6.5 6.85,-6.78 1.61,-0.17 3.02,0.25 4.19,1.19 1.11,1.01 1.72,2.07 1.83,3.12 0.47,4.45 -4.35,15.08 -14.47,31.77 -12.09,19.96 -23.92,30.58 -35.54,31.8 -6.18,0.65 -11.61,-1.66 -16.29,-6.92 -2.91,-3.32 -4.76,-8.37 -5.45,-14.99 -1.54,-14.65 0.94,-32.1 7.42,-52.47 1.53,-5.04 6.06,-17.33 13.45,-36.79 -3.18,1.27 -5.67,1.97 -7.4,2.15 -2.6,0.27 -4.89,-0.11 -6.99,-1.08 -2.9,-1.44 -4.49,-3.4 -4.75,-5.94 -0.32,-3.03 1.16,-5.62 4.49,-7.79 0.94,-0.6 5.38,-1.82 13.23,-3.77 2.85,-0.8 7,-2.36 12.38,-4.74 3.46,-8.11 9.36,-19.17 17.63,-33.23 4.56,-7.79 7.77,-12.94 9.58,-15.32 2.59,-3.33 4.97,-5.09 7.13,-5.31 1.61,-0.17 3.25,0.53 4.97,2.04 1.65,1.39 2.56,2.92 2.72,4.47 0.33,3.15 -2.42,9.69 -8.18,19.67 -3.88,6.53 -6.64,11.76 -8.48,15.7 12.86,-4.91 22.19,-7.65 27.89,-8.25 6.55,-0.69 10.12,1.75 10.71,7.31 0.29,2.78 -0.61,4.94 -2.75,6.54 -1.16,0.81 -4.19,1.75 -9.21,2.78 -2.05,0.09 -10.84,3.32 -26.43,9.59 -4.31,1.83 -8.55,3.65 -12.73,5.53zm46.93 77.83l0.34 3.21c0.28,2.66 1.2,4.87 2.7,6.66 3.49,4.07 8.67,5.78 15.53,5.05 15.15,-1.59 31.36,-15.05 48.71,-40.31 3.11,-4.33 5.87,-6.62 8.28,-6.87 1.3,-0.13 2.6,0.35 3.79,1.6 0.85,0.91 1.31,1.74 1.4,2.6 0.49,4.7 -4.48,13.29 -14.86,25.75 -8.17,9.73 -17.05,17.98 -26.73,24.62 -9.68,6.64 -18.91,10.42 -27.75,11.35 -9.09,0.96 -16.53,-1.45 -22.44,-7.14 -3.98,-3.96 -6.33,-9.71 -7.12,-17.19 -2.15,-20.4 5.34,-41.38 22.51,-62.93 13.85,-17.52 26.61,-26.93 38.17,-28.14 3.15,-0.33 6.1,0.36 8.84,2.01 3.42,2.2 5.32,5.38 5.75,9.46 0.67,6.37 -1.48,14.53 -6.37,24.48 -10.15,20.57 -27.05,35.85 -50.76,45.78zm2.6 -14.53c8.1,-3.79 14.43,-7.77 18.87,-11.92 7.73,-7.38 13.63,-15.49 17.71,-24.24 1.49,-3.09 2.14,-5.79 1.9,-8.08 -0.25,-2.41 -1.56,-3.52 -3.85,-3.28 -3.09,0.32 -7.29,3.14 -12.61,8.51 -9.44,9.43 -16.83,22.4 -22.03,39zm201.4 -202.68c2.66,-0.28 4.82,0.62 6.53,2.63 1.36,1.67 2.19,3.64 2.44,5.93 0.52,4.95 -2.15,14.66 -7.95,29.03 -23.82,58.82 -45.77,108.13 -65.77,147.93 -3.19,6.58 -5.17,10.92 -5.94,13.06 -2.53,6.27 -5.5,9.58 -8.83,9.93 -2.41,0.25 -4.73,-0.94 -6.81,-3.54 -1.79,-2.12 -2.85,-4.51 -3.13,-7.17 -0.35,-3.34 0.88,-8.28 3.77,-14.65 0.81,-1.84 4.32,-8.83 10.6,-21.12 7.84,-17.01 15.69,-33.9 23.43,-50.59 2.58,-5.77 10.24,-23.89 22.91,-54.41 4.44,-10.72 8.05,-19.16 10.71,-25.31 3.11,-7.27 6.08,-14.76 8.76,-22.49 2.09,-5.72 5.2,-8.8 9.28,-9.23zm-95.16 227.52c2.66,-0.28 5.01,0.72 7.12,2.94 1.34,1.42 2.16,3.34 2.42,5.75 0.6,5.69 -0.32,11.85 -2.81,18.42 -2.58,6.96 -6.56,10.75 -11.88,11.31 -5.56,0.59 -8.67,-2.27 -9.33,-8.52 -0.66,-6.3 0.58,-12.88 3.79,-19.84 2.9,-6.24 6.43,-9.61 10.69,-10.06z"/>
  <g id="_1416504992">
   <path class="fil2" d="M1325.15 690.97c74.6,12.46 38.78,-30.02 21.49,-58 -8.38,-13.56 -18.12,-27.24 -26.23,-40.8 -8.87,-14.81 -14.79,-32.32 -5.18,-51.1 7.68,-15.02 60.61,-49.1 82.65,-49.87 36.27,-1.26 49.34,33.62 67.55,62.22 36.85,57.86 74.19,112.25 32.2,195.23 -14.14,27.94 -38.12,52.89 -64.53,66.94 -47.24,25.12 -58.24,13.24 -107.94,20.9 -8.4,23.77 -12.09,40.01 -38.33,45.37 -35.59,7.27 -65.01,-37 -97.45,-66.36 -43.52,-39.38 -44.87,-62.64 -1.14,-102.16l42.45 -41.42c12.6,-11.47 27.63,-32.85 57.71,-25.9 24.15,5.57 28.84,21.89 36.77,44.97zm-485.17 -125.97c-6.2,-8.37 -11.13,-10.44 -16.09,-21.88 -13.03,-30.11 1.14,-54.6 39.54,-64.93 29.03,-7.81 94.13,-31.87 120.44,-19.47 31.44,14.83 34.78,70.89 43.4,110.69 12.76,58.86 -6.98,80.84 -66.11,69.99 -6.91,19.5 -24,27.82 -14.53,49.32 67.75,21.77 162.74,-39.85 162.57,72.07 -0.04,24.17 3.5,68.64 -42.41,74.16 -25.55,3.07 -86.29,1.48 -113.68,0.19 -72,-3.37 -116.31,-46.72 -139.39,-94.35 -32.64,-67.36 -4.46,-128.51 26.26,-175.78zm307.83 -229.27c-50.7,64.57 -54.19,137.64 -129.9,94.53 -24.89,-14.18 -61.01,-27.17 -52.12,-67.95 3.2,-14.68 35.18,-63.35 44.47,-78.65 18.48,-30.46 31.19,-47.69 59.45,-66.4 87.59,-57.97 204.83,-13.95 237.97,77.19 60.5,-11.5 78.06,19.83 60.06,75.42 -6.5,20.08 -12.24,39.17 -18.68,59.65 -24.88,79.12 -66.7,49.37 -150.78,19.03 -54.38,-19.61 -52.82,-56.04 -17.13,-89.34 -3.58,-7.07 -8.7,-15.37 -14.56,-23.99l-18.78 0.51zm138.2 645.91c31.4,-26.59 66.84,-27.85 141.5,-110.03 176.46,-194.23 139.72,-524.58 -87.48,-673.96 -9.86,-6.49 -43.25,-24.46 -51.23,-32.84 -12.72,-9.32 -80.99,-19.02 -101.78,-20.47 -238.49,-16.71 -456.35,169 -459.2,423.48 -1.78,158.87 81.83,280.28 164.63,343.19 81.16,61.67 177.52,96.58 287.3,90.75 23.5,-1.25 91.01,-10.14 106.26,-20.11z"/>
   <path class="fil3" d="M1381.12 1267.77c29.52,4.4 75.92,22.02 86.23,44.03 -6.29,24.28 -52.88,36.11 -82.22,46.37 -18.1,2.28 -44.41,10.55 -66.65,14.13 -72.16,11.62 -149.99,14.04 -222.67,10.39 -61.47,-3.09 -236.55,-24.4 -248.47,-70.89 3.31,-34.62 185.18,-71.08 200.92,-63.96 31.03,32.83 46.66,88.48 109.08,88.48 62.64,-0.01 78.11,-56.65 109.08,-88.56 23.89,-0.42 96.13,11.07 114.7,20.01zm-183.83 164.3l-81.01 0c-66.85,-2.29 -131.93,-10.28 -186.64,-24.04 -50.84,-12.78 -130.33,-35.95 -130.33,-99.03 0,-71.21 170.13,-106.29 215.37,-106.29l-55.54 -75.92c-4.47,-5.96 -9.8,-14.32 -14.53,-19.03 -8.66,-8.62 -41.01,-18.8 -64.75,-33.15 -69.08,-41.73 -127.9,-86.63 -176.06,-151.19 -29.09,-39.01 -52.75,-74.16 -71.93,-121.06 -35.8,-87.57 -47.94,-143.03 -47.94,-242.95 0,-88.27 25.43,-164.53 52.33,-227.37 29.99,-70.04 90.51,-146.74 149.88,-196.95 39.99,-33.82 78.16,-57.13 125.94,-81.04 84.28,-42.17 165.47,-54.04 267.61,-54.04 173.48,0 353.77,105.08 449.79,246.66 89.41,131.83 125.75,299.61 85.57,459.32 -17.12,68.04 -41.7,126.34 -79.41,183.51l-42.39 55.51c-5.93,7.34 -7.2,9.51 -14.27,16.5 -56.14,55.51 -71.93,69.98 -145.95,114.17 -22.96,13.71 -48.45,22.14 -56.72,27.19 -12.14,7.39 -66.76,85.54 -76.35,99.86 33.8,0 100.56,18.28 132.51,29.72 47.6,17.05 82.86,38.28 82.86,87.76 0,47.27 -93.44,78.64 -130.34,87.83 -55.06,13.72 -120.54,21.75 -187.72,24.05zm130.67 -364.36c-17.35,9.23 -50.9,15.86 -72.68,20.36 -31.67,6.55 -37.01,34.81 -10.35,46.99 16.06,3.93 31.44,-2.97 47.14,-5.54 -5.83,13.01 -24.96,35.82 -33.89,48.2 -11.08,15.35 -21.39,28.72 -33.19,45.13 -22.29,31.01 -51.32,85.18 -88.16,58.6 -13.12,-9.03 -47.35,-58.93 -58.84,-74.95 -11.28,-15.73 -49.7,-64.48 -55.3,-77.08 18.95,3.03 46.85,14.57 58.91,-2.49 13.43,-18.99 1.48,-34.49 -26.62,-39.77 -39.11,-7.36 -77,-19.94 -110.53,-35.12 -72.62,-32.88 -80.71,-44.44 -133.35,-84.87 -33.48,-25.72 -76.03,-80.19 -99.92,-118.3 -225.86,-360.15 56.77,-835.43 489.57,-799.73 29.75,2.45 93.93,12.26 116.02,24.09 48.09,9.81 111.49,47.84 145.63,71.99 128.37,90.78 217.34,244.26 219.96,419.76 2.04,136.89 -44.65,235.96 -104.92,322.22 -48.64,69.61 -168.44,164.45 -249.48,180.51z"/>
   <path class="fil3" d="M1286.01 981.63c-15.25,9.97 -82.76,18.86 -106.26,20.11 -109.78,5.84 -206.14,-29.08 -287.3,-90.75 -82.8,-62.91 -166.41,-184.32 -164.63,-343.19 2.85,-254.48 220.71,-440.19 459.2,-423.48 20.79,1.46 89.06,11.15 101.78,20.47 39.05,8.26 93.64,39.96 119.67,59.55 199.03,149.78 238.2,415.72 86.32,613.77 -46.71,60.92 -136.1,128.92 -208.79,143.52zm318.84 -242.92c5.45,-23.75 15.15,-45.84 20.27,-72.28 5.24,-27.08 8.38,-52.99 9.12,-81.85 2.26,-88.65 -12.93,-100.11 -23.33,-161.9 -11.73,-24.34 -20.31,-49.41 -32.7,-74.33 -30.92,-62.23 -94.99,-132.8 -153.81,-170.73 -334.67,-215.76 -734.45,22.35 -744.12,381.65 -6.71,249.56 172.05,439.2 382.12,481.26 126.75,25.38 261.29,-6.16 349.82,-64.07 24.44,-15.99 41.77,-30.4 62.45,-46.66 9.94,-7.81 16.72,-18.19 26.43,-26.68 40.83,-35.71 80.75,-107.6 103.75,-164.42z"/>
   <path class="fil4" d="M1136.84 1281.45c11.87,-7 18.89,-22.23 28.4,-34.5 9.75,-12.57 18.81,-24.93 27.4,-36.91 10.08,-14.05 48.73,-62.64 52.3,-74.99 -26.67,-12.18 -21.32,-40.44 10.35,-46.99 21.78,-4.5 55.33,-11.14 72.68,-20.36 3.33,-4.18 66.52,-39.59 92.85,-60.22 80.15,-62.79 151.98,-155.65 183.99,-255.62 0.13,-0.41 1.58,-5.97 1.59,-6.07 0.56,-7.98 1.63,-2.45 -1.55,-7.08 -23.01,56.82 -62.93,128.72 -103.75,164.42 -9.71,8.49 -16.49,18.87 -26.43,26.68 -20.67,16.26 -38.01,30.67 -62.45,46.66 -88.53,57.91 -223.07,89.45 -349.82,64.07 -210.08,-42.07 -388.83,-231.7 -382.12,-481.26 9.67,-359.31 409.46,-597.42 744.12,-381.65 58.82,37.92 122.89,108.49 153.81,170.73 12.38,24.92 20.97,49.99 32.7,74.33 8.54,-10.06 -35.98,-98.49 -42.84,-111.71 -19.99,-38.51 -41.39,-66 -66.24,-96.01 -35.94,-43.4 -82.48,-81.63 -131.64,-111.77l-53.42 -29.96c-22.08,-11.83 -86.27,-21.64 -116.02,-24.09 -432.79,-35.7 -715.43,439.58 -489.57,799.73 23.9,38.11 66.45,92.58 99.92,118.3 52.64,40.43 60.73,51.99 133.35,84.87 33.53,15.19 71.42,27.76 110.53,35.12 28.1,5.28 40.04,20.79 26.62,39.77 -12.06,17.06 -39.97,5.52 -58.91,2.49 5.6,12.59 44.02,61.35 55.3,77.08 11.49,16.02 45.72,65.92 58.84,74.95z"/>
   <path class="fil3" d="M948.81 737.83l112.37 1.19c3.88,13.56 3.33,35.68 0.55,49.23 -17.05,1.85 -110.53,5.05 -118.1,-3.34 -29.28,0.05 -58.92,-22.83 -69.9,-36.98 -49.12,-63.29 -22.23,-107.06 5.94,-155.77 5.19,-8.97 17.29,-24.71 17.57,-35.65 0.58,-22.38 -16.21,-20.08 -26.04,-31.45l91.57 -23.8 20.87 92.04c-36.27,-13.17 -33.57,-33.03 -79.65,51.2 -23.83,43.55 3.51,89.85 44.82,93.32zm-108.82 -172.83c-30.72,47.26 -58.91,108.41 -26.26,175.78 23.08,47.63 67.39,90.98 139.39,94.35 27.39,1.28 88.13,2.88 113.68,-0.19 45.91,-5.52 42.38,-49.99 42.41,-74.16 0.16,-111.92 -94.82,-50.3 -162.57,-72.07 -9.47,-21.5 7.62,-29.82 14.53,-49.32 59.13,10.86 78.87,-11.13 66.11,-69.99 -8.62,-39.79 -11.96,-95.86 -43.4,-110.69 -26.31,-12.4 -91.4,11.67 -120.44,19.47 -38.4,10.33 -52.57,34.83 -39.54,64.93 4.95,11.45 9.89,13.52 16.09,21.88z"/>
   <path class="fil3" d="M1365.85 558.96c8.93,-6.06 23.3,-15.35 35.21,-19.02 26.43,48.08 68.76,90.28 66.34,142.54 -2.69,58.02 -46.95,97.85 -102.62,104.91 -18.83,0.26 -47.48,-1.5 -64.92,0.54 -25.96,3.04 -21.31,19.08 -24.22,43.62 -1.29,-1.56 -63.64,-57.77 -70.18,-67.97 7.38,-9.43 62.09,-62.59 71.04,-66.86 0,53.47 17.43,43.39 68.35,43.21 45.1,-0.15 50.33,-12.68 70.17,-37.89 5.19,-24.78 5.24,-25.81 0.05,-50.32 -4.29,-4.25 -52.76,-82.23 -56.05,-90.04l6.83 -2.72zm-40.7 132.01c-7.93,-23.08 -12.62,-39.39 -36.77,-44.97 -30.08,-6.94 -45.1,14.43 -57.71,25.9l-42.45 41.42c-43.73,39.52 -42.38,62.78 1.14,102.16 32.45,29.36 61.87,73.63 97.45,66.36 26.24,-5.36 29.93,-21.6 38.33,-45.37 49.7,-7.65 60.7,4.23 107.94,-20.9 26.42,-14.05 50.39,-39.01 64.53,-66.94 41.99,-82.98 4.65,-137.37 -32.2,-195.23 -18.21,-28.6 -31.28,-63.47 -67.55,-62.22 -22.04,0.76 -74.96,34.85 -82.65,49.87 -9.61,18.78 -3.68,36.3 5.18,51.1 8.12,13.55 17.85,27.24 26.23,40.8 17.29,27.99 53.11,70.46 -21.49,58z"/>
   <path class="fil3" d="M1142.41 241.84c15.73,-13.59 63.52,6.93 76.66,15.24 20.11,12.72 34.43,30.93 45.07,56.65 6.49,7.42 13,19.37 14.64,28.35 24.42,11.37 21.8,6.21 47.95,-1.05l-29.23 92.05 -43.16 -17.11c-10.36,0.18 -35.12,-9.59 -45.46,-14.9 25.48,-20.09 44.78,-8.91 14.24,-64.02 -13.5,-24.37 -24.62,-47.24 -60.08,-49.98 -37.78,-2.93 -54.38,18.84 -68.26,41.98 -7.7,12.84 -32.66,57.6 -41.22,65.9l-39.6 -22.95c4.56,-12.5 16.6,-29.47 23.76,-41.27 19.19,-31.62 48.88,-91.21 104.69,-88.89zm5.4 93.88l18.78 -0.51c5.86,8.62 10.98,16.92 14.56,23.99 -35.69,33.3 -37.25,69.72 17.13,89.34 84.08,30.33 125.9,60.09 150.78,-19.03 6.44,-20.49 12.18,-39.57 18.68,-59.65 18,-55.58 0.44,-86.92 -60.06,-75.42 -33.14,-91.14 -150.38,-135.16 -237.97,-77.19 -28.27,18.71 -40.97,35.94 -59.45,66.4 -9.29,15.3 -41.27,63.98 -44.47,78.65 -8.89,40.77 27.23,53.77 52.12,67.95 75.7,43.12 79.2,-29.96 129.9,-94.53z"/>
   <path class="fil5" d="M1385.12 1358.17c10.02,-15.56 35.48,-16.78 34.64,-46.2 -0.71,-24.76 -27.26,-35.84 -38.64,-44.2 -18.57,-8.94 -90.81,-20.43 -114.7,-20.01 -30.97,31.92 -46.45,88.56 -109.08,88.56 -62.42,0 -78.06,-55.65 -109.08,-88.48 -15.73,-7.12 -197.61,29.34 -200.92,63.96 11.92,46.49 187,67.81 248.47,70.89 72.68,3.65 150.51,1.23 222.67,-10.39 22.24,-3.58 48.55,-11.85 66.65,-14.13z"/>
   <path class="fil6" d="M1610.91 422.68c10.4,61.79 25.58,73.25 23.33,161.9 -0.74,28.86 -3.88,54.77 -9.12,81.85 -5.12,26.45 -14.82,48.53 -20.27,72.28 3.18,4.63 2.1,-0.9 1.55,7.08 -0.01,0.1 -1.46,5.67 -1.59,6.07 -32.01,99.98 -103.85,192.83 -183.99,255.62 -26.33,20.63 -89.52,56.04 -92.85,60.22 81.04,-16.06 200.85,-110.9 249.48,-180.51 60.26,-86.26 106.96,-185.33 104.92,-322.22 -2.62,-175.5 -91.59,-328.98 -219.96,-419.76 -34.14,-24.14 -97.54,-62.18 -145.63,-71.99l53.42 29.96c49.16,30.14 95.7,68.37 131.64,111.77 24.85,30.01 46.25,57.51 66.24,96.01 6.86,13.21 51.39,101.65 42.84,111.71z"/>
   <path class="fil7" d="M1286.01 981.63c72.69,-14.59 162.08,-82.6 208.79,-143.52 151.88,-198.05 112.71,-463.99 -86.32,-613.77 -26.03,-19.59 -80.62,-51.29 -119.67,-59.55 7.98,8.39 41.37,26.36 51.23,32.84 227.2,149.38 263.93,479.74 87.48,673.96 -74.66,82.18 -110.1,83.44 -141.5,110.03z"/>
   <path class="fil8" d="M943.63 784.91c38.72,1.56 77.71,1.42 117.04,1.42l-0.11 -44.69c-17.52,0 -104.29,3.38 -111.76,-3.82 -41.31,-3.47 -68.65,-49.77 -44.82,-93.32 46.08,-84.23 43.38,-64.37 79.65,-51.2l-20.87 -92.04 -91.57 23.8c9.83,11.37 26.62,9.07 26.04,31.45 -0.28,10.93 -12.38,26.67 -17.57,35.65 -28.17,48.71 -55.06,92.48 -5.94,155.77 10.98,14.14 40.62,37.02 69.9,36.98z"/>
   <path class="fil8" d="M1254.33 415.96c8.63,-8.96 23.34,-61.99 24.44,-73.89 -1.64,-8.97 -8.15,-20.93 -14.64,-28.35 -20.09,-0.35 -20.5,6.44 -37.66,11.12 -5.43,-16.25 -33.36,-63.47 -49.38,-76.17 -13.1,-10.39 -17.9,-2.18 -34.69,-6.85 -55.82,-2.32 -85.5,57.27 -104.69,88.89 -7.16,11.8 -19.2,28.78 -23.76,41.27l39.6 22.95c8.56,-8.3 33.52,-53.07 41.22,-65.9 13.88,-23.14 30.48,-44.91 68.26,-41.98 35.46,2.75 46.58,25.62 60.08,49.98 30.54,55.1 11.23,43.93 -14.24,64.02 10.33,5.31 35.1,15.08 45.46,14.9z"/>
   <path class="fil8" d="M1364.78 787.39c7.09,-9.55 11.56,-10.38 18.74,-18.61 5.06,-5.8 11.05,-12.98 15.77,-20.66 4.06,-6.61 21.89,-39.44 15.72,-46.09 -19.84,25.22 -25.07,37.74 -70.17,37.89 -50.91,0.18 -68.35,10.26 -68.35,-43.21 -8.95,4.27 -63.67,57.44 -71.04,66.86 6.54,10.2 68.89,66.41 70.18,67.97 2.91,-24.54 -1.74,-40.59 24.22,-43.62 17.44,-2.04 46.09,-0.28 64.92,-0.54z"/>
   <path class="fil9" d="M1365.85 558.96c10.47,5.98 11.84,12.63 18.07,22.91 4.42,7.29 9.89,14.84 14.19,22.11 3.83,6.47 23.57,40.61 16.95,47.73 5.19,24.51 5.14,25.54 -0.05,50.32 6.16,6.65 -11.66,39.48 -15.72,46.09 -4.73,7.68 -10.71,14.87 -15.77,20.66 -7.19,8.22 -11.66,9.06 -18.74,18.61 55.67,-7.06 99.93,-46.89 102.62,-104.91 2.42,-52.26 -39.91,-94.46 -66.34,-142.54 -11.91,3.67 -26.28,12.96 -35.21,19.02z"/>
   <path class="fil6" d="M1244.93 1135.06c-3.57,12.35 -42.22,60.94 -52.3,74.99 -8.59,11.98 -17.65,24.33 -27.4,36.91 -9.51,12.27 -16.53,27.5 -28.4,34.5 36.84,26.58 65.86,-27.59 88.16,-58.6 11.8,-16.41 22.11,-29.78 33.19,-45.13 8.93,-12.37 28.06,-35.19 33.89,-48.2 -15.7,2.57 -31.08,9.46 -47.14,5.54z"/>
   <path class="fil9" d="M1254.33 415.96l43.16 17.11 29.23 -92.05c-26.14,7.27 -23.53,12.43 -47.95,1.05 -1.11,11.9 -15.81,64.93 -24.44,73.89z"/>
   <path class="fil9" d="M1264.13 313.73c-10.64,-25.72 -24.96,-43.93 -45.07,-56.65 -13.14,-8.31 -60.93,-28.83 -76.66,-15.24 16.79,4.67 21.59,-3.54 34.69,6.85 16.02,12.7 43.94,59.92 49.38,76.17 17.17,-4.68 17.58,-11.48 37.66,-11.12z"/>
   <path class="fil10" d="M1385.12 1358.17c29.34,-10.26 75.93,-22.09 82.22,-46.37 -10.31,-22.01 -56.71,-39.63 -86.23,-44.03 11.38,8.36 37.94,19.44 38.64,44.2 0.84,29.42 -24.61,30.64 -34.64,46.2z"/>
   <path class="fil8" d="M1415.07 651.72c6.61,-7.12 -13.12,-41.26 -16.95,-47.73 -4.31,-7.28 -9.77,-14.83 -14.19,-22.11 -6.24,-10.28 -7.6,-16.93 -18.07,-22.91l-6.83 2.72c3.29,7.81 51.76,85.78 56.05,90.04z"/>
   <path class="fil11" d="M943.63 784.91c7.57,8.39 101.06,5.19 118.1,3.34 2.78,-13.56 3.33,-35.68 -0.55,-49.23l-112.37 -1.19c7.47,7.2 94.24,3.82 111.76,3.82l0.11 44.69c-39.34,0 -78.32,0.14 -117.04,-1.42z"/>
  </g>
 </g>
</svg>
