<?xml version="1.0" encoding="UTF-8"?>
<!DOCTYPE svg PUBLIC "-//W3C//DTD SVG 1.1//EN" "http://www.w3.org/Graphics/SVG/1.1/DTD/svg11.dtd">
<!-- Creator: CorelDRAW 2019 (64-Bit) -->
<svg xmlns="http://www.w3.org/2000/svg" xml:space="preserve" width="86.4056mm" height="90.741mm" version="1.1" style="shape-rendering:geometricPrecision; text-rendering:geometricPrecision; image-rendering:optimizeQuality; fill-rule:evenodd; clip-rule:evenodd"
viewBox="0 0 2304.85 2420.5"
 xmlns:xlink="http://www.w3.org/1999/xlink"
 xmlns:xodm="http://www.corel.com/coreldraw/odm/2003">
 <defs>
  <style type="text/css">
   <![CDATA[
    .fil3 {fill:black}
    .fil11 {fill:#345C0C}
    .fil10 {fill:#35464D}
    .fil1 {fill:#39CF17}
    .fil9 {fill:#539214}
    .fil5 {fill:#5F7A89}
    .fil8 {fill:#60A817}
    .fil6 {fill:#C81E1E}
    .fil4 {fill:#F34235}
    .fil7 {fill:#FEC108}
    .fil2 {fill:#FFDB00}
    .fil0 {fill:black;fill-rule:nonzero}
   ]]>
  </style>
 </defs>
 <g id="Layer_x0020_1">
  <metadata id="CorelCorpID_0Corel-Layer"/>
  <path class="fil0" d="M1269.75 2288.69c10.79,-30.4 21.27,-56.96 31.36,-79.76 9.73,-22.04 16.44,-36.02 20.2,-41.86 4.05,-6.45 8.21,-9.9 12.33,-10.33 2.2,-0.23 4.35,0.47 6.31,2.06 1.9,1.67 2.88,3.5 3.09,5.56 0.34,3.19 -1.44,8.83 -5.34,16.77 -16.74,34.54 -31.66,69.39 -44.96,104.57 -15.57,40.87 -22.37,71.07 -20.33,90.44 0.83,7.87 3.05,13.95 6.57,18.17 0.6,0.94 3.32,2.88 8.15,5.89 0.92,0.55 1.49,1.92 1.71,3.98 0.29,2.77 -0.58,5.44 -2.46,7.93 -1.89,2.49 -4.19,3.88 -6.81,4.16 -3.2,0.34 -6.94,-1.21 -11.24,-4.56 -6.11,-4.95 -10.12,-10.99 -11.94,-18.04 -0.75,-3.01 -1.85,-8.7 -3.29,-16.94 -11.79,27.71 -24.18,42.28 -37.37,43.66 -7.59,0.8 -14.07,-2.89 -19.59,-11 -3.65,-5.35 -5.8,-11.58 -6.57,-18.82 -2.26,-21.57 3.39,-44.18 16.91,-67.7 13.48,-23.29 29.23,-35.85 47.32,-37.75 4.97,-0.52 10.32,0.63 15.94,3.56zm-5.23 17.84c-4.04,-2.23 -7.44,-3.23 -10.21,-2.94 -11.7,1.23 -22.02,9.56 -31.02,24.92 -11.8,20.1 -16.8,38.78 -14.98,56.09 0.22,2.13 0.85,4 1.9,5.75 2,3.31 4.73,4.74 8.06,4.39 4.9,-0.51 10.29,-5.82 16.32,-15.99 7.98,-13.47 15.09,-29.06 21.32,-46.93 2.16,-6.11 4.24,-12.21 6.32,-18.31 0,0 0.42,-1.41 1.36,-4.16l0.92 -2.82zm110.79 -41.91c11.28,-1.18 17.69,5.17 19.14,19 1.93,18.38 -4.13,42.61 -18.12,72.63 -15.3,32.52 -31.57,49.72 -48.81,51.54 -8.02,0.84 -14.3,-2.3 -18.77,-9.36 -2.31,-3.56 -3.77,-7.92 -4.33,-13.17 -1.86,-17.74 2.22,-37.61 12.16,-59.67 9.26,-20.41 21.03,-36.78 35.23,-49.03 8.35,-7.19 16.19,-11.17 23.49,-11.94zm-13.24 80.8c-3.77,-2.47 -5.7,-4.42 -5.86,-5.91 -0.12,-1.13 1.76,-4.41 5.64,-9.84 11.01,-15.36 16.07,-27.3 15.16,-35.88 -0.12,-1.13 -0.58,-2.16 -1.41,-3.22 -1.28,-1.95 -3.17,-2.82 -5.51,-2.58 -4.4,0.46 -10.47,5.47 -18.15,14.96 -9.9,12.23 -17.15,24.54 -21.73,36.93 -5.39,14.19 -7.63,25.69 -6.7,34.56 0.25,2.41 1.11,4.4 2.5,6.05 2.1,2.29 4.51,3.33 7.27,3.04 6.67,-0.7 13.24,-6.41 19.85,-17.22 2.9,-4.54 5.14,-9.08 6.73,-13.77 1.59,-4.61 2.34,-7.06 2.19,-7.11zm77.52 -24c1.6,-1.82 3.2,-3.71 4.66,-5.51 25.89,-31.41 43.7,-47.63 53.49,-48.66 5.39,-0.57 8.4,2.13 9.03,8.09 0.44,4.19 -1.46,9.33 -5.69,15.51 -23.14,33.71 -33.48,62.27 -31,85.82 0.81,7.66 3.62,14.68 8.54,21.2 2.25,2.99 3.51,5.37 3.7,7.21 0.17,1.63 -0.52,3.28 -1.98,5.01 -1.65,2.11 -3.67,3.33 -6.15,3.59 -5.61,0.59 -10.74,-2.53 -15.39,-9.29 -4.4,-6.42 -7.11,-14.46 -8.14,-24.18 -1.97,-18.73 2.81,-40.17 14.32,-64.34 -17.46,14.03 -32.67,37.22 -45.63,69.49 -3.41,7.82 -7.49,11.98 -12.17,12.47 -2.41,0.25 -4.42,-0.4 -6.15,-1.86 -2.12,-1.78 -3.38,-4.16 -3.7,-7.22 -0.78,-7.45 5.66,-27.99 19.43,-61.5 7.35,-18.13 13.27,-31.38 17.71,-39.66 4.52,-8.15 8.59,-12.45 12.35,-12.85 1.85,-0.19 3.64,0.48 5.51,1.93 2.13,1.78 3.35,3.88 3.61,6.36 0.32,3.05 -1.2,7.66 -4.65,13.76 -4.92,9.13 -8.8,17.28 -11.69,24.61zm90.4 22.06l0.39 3.69c0.32,3.05 1.38,5.59 3.09,7.64 4.01,4.67 9.95,6.63 17.83,5.8 17.38,-1.83 35.99,-17.27 55.89,-46.26 3.57,-4.97 6.74,-7.59 9.5,-7.88 1.49,-0.16 2.98,0.4 4.35,1.84 0.97,1.05 1.5,2 1.6,2.99 0.57,5.39 -5.14,15.24 -17.05,29.55 -9.37,11.17 -19.56,20.63 -30.67,28.26 -11.11,7.62 -21.7,11.96 -31.84,13.03 -10.43,1.09 -18.97,-1.67 -25.75,-8.2 -4.57,-4.54 -7.27,-11.14 -8.17,-19.73 -2.46,-23.41 6.13,-47.48 25.83,-72.22 15.89,-20.1 30.54,-30.89 43.8,-32.29 3.62,-0.38 7,0.41 10.14,2.3 3.92,2.53 6.1,6.18 6.59,10.86 0.77,7.31 -1.69,16.68 -7.31,28.1 -11.65,23.6 -31.04,41.14 -58.24,52.53zm2.98 -16.67c9.3,-4.35 16.57,-8.91 21.66,-13.68 8.86,-8.46 15.63,-17.78 20.31,-27.82 1.71,-3.55 2.46,-6.64 2.18,-9.26 -0.29,-2.77 -1.79,-4.04 -4.41,-3.77 -3.55,0.37 -8.37,3.6 -14.47,9.77 -10.84,10.82 -19.32,25.7 -25.28,44.76zm243.18 -104.17c-7.54,14.92 -14.33,31.56 -20.17,49.68 -8.39,25.91 -11.99,44.94 -10.71,57.14 0.37,3.48 1.35,6.03 3.04,7.71 1.61,1.63 3.9,2.32 6.81,2.01 6.95,-0.73 14.71,-8.15 23.2,-22.16 5.39,-8.74 10.09,-17.34 14.14,-25.87 2.14,-4.89 4.81,-7.46 7.86,-7.78 1.85,-0.19 3.47,0.28 4.81,1.36 1.27,1.16 1.97,2.37 2.1,3.58 0.54,5.11 -5,17.31 -16.61,36.46 -13.88,22.91 -27.44,35.09 -40.78,36.49 -7.1,0.74 -13.33,-1.9 -18.7,-7.93 -3.34,-3.81 -5.46,-9.61 -6.26,-17.2 -1.77,-16.81 1.08,-36.84 8.52,-60.22 1.76,-5.78 6.95,-19.88 15.43,-42.22 -3.65,1.46 -6.5,2.26 -8.49,2.47 -2.98,0.31 -5.61,-0.13 -8.02,-1.24 -3.33,-1.66 -5.15,-3.91 -5.45,-6.82 -0.37,-3.48 1.33,-6.45 5.16,-8.93 1.07,-0.69 6.16,-2.08 15.18,-4.32 3.28,-0.92 8.03,-2.71 14.2,-5.44 3.97,-9.31 10.74,-22 20.24,-38.13 5.23,-8.94 8.91,-14.85 10.99,-17.58 2.97,-3.83 5.7,-5.83 8.18,-6.1 1.84,-0.19 3.72,0.61 5.7,2.34 1.89,1.6 2.93,3.35 3.12,5.13 0.38,3.62 -2.77,11.12 -9.39,22.57 -4.45,7.5 -7.62,13.5 -9.73,18.02 14.76,-5.64 25.47,-8.77 32,-9.46 7.52,-0.79 11.62,2.01 12.29,8.39 0.34,3.19 -0.69,5.67 -3.15,7.5 -1.34,0.93 -4.81,2.01 -10.57,3.19 -2.36,0.11 -12.44,3.82 -30.33,11.01 -4.94,2.1 -9.82,4.19 -14.61,6.34zm83.47 40.72c9.17,-11.72 18.51,-21.81 28.11,-30.07 12.23,-10.54 21.19,-16.14 26.93,-16.75 2.34,-0.25 4.79,0.5 7.19,2.18 2.71,1.94 4.26,4.36 4.57,7.27 0.39,3.76 -1.98,9.89 -7.11,18.39 -9.9,16.39 -17.17,31.14 -21.83,44.18 -4.12,11.33 -5.98,18.92 -5.56,22.82 0.39,3.76 2.36,5.42 5.98,5.04 7.52,-0.79 18.68,-15.45 33.62,-43.92 3.05,-5.77 6.03,-8.81 8.94,-9.12 2.91,-0.31 4.58,1.24 4.93,4.57 0.57,5.39 -3.67,16.24 -12.57,32.6 -7.75,14.3 -16.25,25.52 -25.43,33.73 -6.58,5.64 -12.72,8.73 -18.39,9.32 -6.03,0.63 -10.56,-1.47 -13.79,-6.3 -1.97,-3.02 -3.19,-6.48 -3.59,-10.31 -1.3,-12.34 1.62,-26.85 8.69,-43.52 1.73,-3.99 6.86,-15.28 15.44,-33.97 -26.88,17.24 -47.62,50.62 -62.22,100.07 -1.28,5.59 -3.76,8.57 -7.59,8.98 -2.62,0.28 -4.92,-0.42 -6.74,-2.02 -1.9,-1.74 -3.01,-4.06 -3.3,-6.83 -0.48,-4.54 2.56,-17.99 9.18,-40.27 12.3,-41.32 24.17,-76.49 35.54,-105.45 11.34,-29.24 24.15,-59.63 38.4,-91.26 3.43,-7.61 6.18,-12.84 8.26,-15.57 2.15,-2.74 4.5,-4.28 7.2,-4.56 2.48,-0.26 4.82,0.85 6.87,3.29 1.62,1.77 2.57,3.96 2.83,6.44 0.41,3.9 -1.24,9.31 -5.03,16.31 -12.47,24.69 -24.7,51.66 -36.61,80.96 -12.78,31.32 -20.44,52.57 -22.92,63.74zm148.69 35.44c-3.69,8.56 -7.52,15.78 -11.33,21.85 -7.59,11.7 -15.68,18 -24.26,18.9 -7.52,0.79 -13.71,-2.14 -18.57,-8.81 -3.1,-4.26 -5.02,-9.51 -5.67,-15.76 -1.62,-15.39 1.43,-32.86 9.19,-52.46 8.68,-21.86 20.07,-39.05 34.15,-51.79 9.18,-8.21 18.45,-12.84 27.74,-13.82 5.82,-0.61 10.9,0.65 15.18,3.85 3.67,2.84 5.68,6.29 6.11,10.33 0.32,3.05 -0.44,7.43 -2.21,13.07 2.43,2.68 3.69,5.13 3.93,7.4 0.31,2.91 -1.11,7.86 -4.31,14.94 -3.26,7.23 -6.35,16.66 -9.14,28.36 -3.07,12.37 -4.2,22.17 -3.44,29.41 0.61,5.82 2.81,10.39 6.69,13.79 1.1,0.89 4.1,2.15 9.02,3.93 3.65,1.27 5.73,3.99 6.17,8.17 0.28,2.63 -0.49,4.86 -2.23,6.76 -1.94,2 -4.26,3.17 -7.02,3.47 -7.52,0.79 -14.34,-1.94 -20.51,-8.1 -5.04,-4.92 -8.02,-11.5 -8.88,-19.65 -0.29,-2.77 -0.49,-7.41 -0.59,-13.85zm18.83 -71.27c-1.95,-2.88 -4.04,-4.96 -6.1,-6.18 -2.14,-1.28 -4.28,-1.77 -6.47,-1.54 -10.57,1.11 -21.09,11.54 -31.49,31.36 -11.48,21.87 -16.47,39.82 -14.98,54.01 0.37,3.48 1.28,6.03 2.82,7.74 1.46,1.64 3.55,2.35 6.24,2.07 6.67,-0.7 13.66,-8.61 21.11,-23.74 4.15,-8.25 9.12,-20.4 14.91,-36.28 3.86,-10.38 6.72,-17.28 8.58,-20.77 0.96,-1.75 2.74,-3.95 5.4,-6.66zm96.14 -41.38c-7.54,14.92 -14.33,31.56 -20.17,49.68 -8.39,25.91 -11.99,44.94 -10.71,57.15 0.37,3.47 1.35,6.03 3.04,7.71 1.61,1.62 3.9,2.31 6.81,2.01 6.95,-0.73 14.71,-8.14 23.2,-22.16 5.39,-8.74 10.08,-17.34 14.14,-25.87 2.14,-4.89 4.81,-7.46 7.86,-7.78 1.85,-0.19 3.47,0.28 4.81,1.36 1.27,1.16 1.97,2.37 2.1,3.58 0.54,5.11 -5,17.31 -16.61,36.46 -13.87,22.91 -27.44,35.09 -40.78,36.49 -7.1,0.75 -13.33,-1.9 -18.7,-7.93 -3.34,-3.81 -5.45,-9.61 -6.26,-17.2 -1.77,-16.81 1.08,-36.84 8.52,-60.22 1.76,-5.78 6.95,-19.88 15.43,-42.22 -3.65,1.46 -6.5,2.26 -8.49,2.47 -2.98,0.31 -5.61,-0.13 -8.02,-1.24 -3.33,-1.66 -5.15,-3.91 -5.45,-6.82 -0.37,-3.47 1.33,-6.45 5.16,-8.93 1.07,-0.69 6.16,-2.08 15.18,-4.32 3.28,-0.92 8.03,-2.71 14.2,-5.44 3.97,-9.31 10.74,-22 20.24,-38.13 5.23,-8.94 8.91,-14.85 10.99,-17.58 2.97,-3.83 5.7,-5.83 8.18,-6.1 1.84,-0.19 3.72,0.61 5.7,2.34 1.89,1.6 2.94,3.35 3.12,5.12 0.38,3.62 -2.78,11.12 -9.39,22.57 -4.45,7.5 -7.62,13.5 -9.73,18.02 14.76,-5.64 25.47,-8.77 32,-9.46 7.52,-0.79 11.62,2.01 12.29,8.39 0.34,3.19 -0.69,5.67 -3.15,7.5 -1.34,0.93 -4.81,2.01 -10.57,3.19 -2.36,0.11 -12.44,3.82 -30.33,11.01 -4.94,2.1 -9.82,4.19 -14.61,6.34zm171.19 -147.68c3.05,-0.32 5.52,0.71 7.49,3.01 1.56,1.92 2.52,4.19 2.79,6.81 0.6,5.67 -2.46,16.83 -9.12,33.31 -27.34,67.5 -52.52,124.09 -75.48,169.75 -3.65,7.56 -5.93,12.53 -6.82,14.99 -2.9,7.19 -6.3,10.99 -10.13,11.4 -2.77,0.29 -5.42,-1.08 -7.82,-4.06 -2.05,-2.44 -3.27,-5.18 -3.59,-8.23 -0.4,-3.83 1.01,-9.5 4.33,-16.81 0.93,-2.11 4.96,-10.13 12.16,-24.23 8.99,-19.52 18,-38.9 26.89,-58.06 2.96,-6.62 11.75,-27.42 26.29,-62.44 5.09,-12.3 9.23,-21.99 12.3,-29.05 3.57,-8.34 6.97,-16.94 10.05,-25.8 2.4,-6.56 5.97,-10.1 10.65,-10.59zm-109.2 261.09c3.05,-0.32 5.75,0.83 8.17,3.37 1.54,1.63 2.48,3.83 2.77,6.59 0.69,6.53 -0.37,13.6 -3.23,21.14 -2.96,7.98 -7.53,12.34 -13.63,12.98 -6.39,0.67 -9.96,-2.61 -10.71,-9.78 -0.76,-7.23 0.67,-14.78 4.35,-22.76 3.33,-7.16 7.37,-11.03 12.27,-11.55z"/>
  <rect class="fil1" x="487.65" y="65.34" width="1238.81" height="1238.81" rx="123.88" ry="123.88"/>
  <path class="fil0" d="M301.35 1853.44c0,-18.6 -3.14,-36.04 -9.42,-52.32 -6.28,-16.28 -14.88,-30.34 -25.81,-42.2 -10.93,-11.86 -23.72,-21.28 -38.37,-28.25 -14.65,-6.98 -30.34,-10.46 -47.09,-10.46 -16.74,0 -32.44,3.49 -47.08,10.46 -14.65,6.98 -27.44,16.51 -38.37,28.6 -10.93,12.09 -19.65,26.16 -26.16,42.2 -6.51,16.04 -9.77,33.37 -9.77,51.97 0,18.6 3.25,36.04 9.77,52.32 6.51,16.27 15.35,30.57 26.51,42.9 11.16,12.32 24.07,21.97 38.72,28.95 14.65,6.98 30.11,10.46 46.39,10.46 16.74,0 32.44,-3.49 47.09,-10.46 14.65,-6.98 27.44,-16.51 38.37,-28.6 10.93,-12.09 19.53,-26.27 25.81,-42.55 6.28,-16.28 9.42,-33.95 9.42,-53.02zm59.3 0c0,26.97 -4.77,51.97 -14.3,74.99 -9.53,23.02 -22.44,43.02 -38.72,59.99 -16.28,16.98 -35.34,30.23 -57.2,39.76 -21.86,9.53 -45.11,14.3 -69.76,14.3 -25.58,0 -49.29,-4.88 -71.15,-14.65 -21.86,-9.77 -40.92,-23.14 -57.2,-40.11 -16.28,-16.98 -29.06,-36.97 -38.37,-59.99 -9.3,-23.02 -13.95,-47.78 -13.95,-74.29l0 -338.32 57.2 0 0 211.36c14.88,-18.6 33.02,-33.37 54.41,-44.3 21.39,-10.93 44.65,-16.39 69.76,-16.39 25.11,0 48.48,4.77 70.11,14.3 21.62,9.53 40.58,22.67 56.85,39.41 16.28,16.74 29.07,36.5 38.37,59.29 9.3,22.79 13.95,47.67 13.95,74.64zm86.8 180.67l-59.29 0 0 -359.25 59.29 0 0 359.25zm-59.29 -413.66l0 -44.65c0,-7.91 2.9,-14.65 8.72,-20.23 5.82,-5.58 12.67,-8.37 20.58,-8.37 8.37,0 15.46,2.79 21.28,8.37 5.81,5.58 8.72,12.32 8.72,20.23l0 44.65 -59.29 0zm167.72 413.66l-59.29 0 0 -218.34c0,-22.79 3.84,-43.37 11.51,-61.73 7.67,-18.37 18.14,-34.07 31.39,-47.09 13.25,-13.02 29.06,-23.14 47.44,-30.35 18.37,-7.21 38.25,-10.81 59.64,-10.81 21.39,0 41.27,3.6 59.64,10.81 18.37,7.21 34.18,17.32 47.43,30.35 13.25,13.02 23.6,28.72 31.04,47.09 7.44,18.37 11.16,38.95 11.16,61.73l0 218.34 -59.29 0 0 -220.43c0,-26.97 -8.02,-49.18 -24.18,-66.62 -16.16,-17.44 -38.13,-26.16 -65.8,-26.16 -27.67,0 -49.76,8.72 -66.15,26.16 -16.39,17.44 -24.53,39.65 -24.53,66.62l0 220.43zm421.63 0c-20.93,2.33 -40.11,1.16 -57.55,-3.49 -17.44,-4.65 -32.32,-12.67 -44.65,-24.07 -12.32,-11.39 -21.97,-25.81 -28.95,-43.25 -6.98,-17.44 -10.46,-37.55 -10.46,-60.34l0 -304.84 59.29 0 0 76.73 80.92 0 0 56.51 -80.92 0 0 171.6c0,15.81 2.21,28.83 6.63,39.07 4.3,10.23 10.35,18.25 17.91,24.07 7.67,5.81 16.39,9.77 26.27,11.86 10,2.09 20.46,2.67 31.51,1.74l0 54.41zm317 0l-59.3 0 0 -218.34c0,-27.9 -7.32,-50.81 -21.86,-68.71 -14.65,-17.9 -36.5,-26.86 -65.69,-26.86 -13.49,0 -25.81,2.44 -37.2,7.32 -11.28,4.88 -21.16,11.51 -29.53,19.88 -8.37,8.37 -14.88,18.25 -19.76,29.65 -4.88,11.4 -7.32,23.83 -7.32,37.32l0 219.73 -59.29 0 0 -518.99 59.29 0 -0.7 196.02c12.09,-13.95 26.97,-25 44.64,-33.14 17.67,-8.14 36.97,-12.21 57.9,-12.21 22.32,0 42.09,3.72 59.3,11.16 17.21,7.44 31.74,17.9 43.6,31.39 11.86,13.49 20.81,29.53 26.86,48.13 6.04,18.6 9.07,39.06 9.07,61.39l0 216.24zm81.92 -179.97c0,8.83 0.7,16.97 2.09,24.42l221.83 -93.47c-11.16,-19.53 -25.93,-34.99 -44.3,-46.39 -18.37,-11.39 -37.78,-17.09 -58.25,-17.09 -14.42,0 -28.83,3.02 -43.25,9.07 -14.42,6.04 -27.44,14.76 -39.07,26.16 -11.62,11.39 -21.04,25.34 -28.25,41.85 -7.21,16.51 -10.81,34.99 -10.81,55.46zm295.77 68.36c-13.95,38.6 -35.46,68.24 -64.52,88.94 -29.06,20.69 -64.53,31.04 -106.38,31.04 -26.04,0 -50.23,-4.88 -72.55,-14.65 -22.32,-9.77 -41.74,-23.02 -58.25,-39.76 -16.51,-16.74 -29.53,-36.5 -39.06,-59.29 -9.53,-22.79 -14.3,-47.43 -14.3,-73.94 0,-26.04 4.77,-50.57 14.3,-73.59 9.53,-23.02 22.44,-43.02 38.71,-59.99 16.28,-16.98 35.34,-30.46 57.2,-40.46 21.86,-10 45.34,-15 70.45,-15 19.53,0 38.6,3.37 57.2,10.12 18.6,6.74 35.81,16.39 51.62,28.95 15.81,12.56 29.53,28.02 41.16,46.39 11.62,18.37 20,39.18 25.11,62.43l-275.54 116.49c11.63,18.14 26.62,32.09 44.99,41.86 18.37,9.77 38.02,14.65 58.95,14.65 25.58,0 47.32,-5.46 65.22,-16.39 17.9,-10.93 32.67,-26.86 44.3,-47.78l61.38 0zm23.33 -101.84c0,-26.97 4.53,-50.69 13.6,-71.15 9.07,-20.46 21.39,-37.2 36.97,-50.23 15.58,-13.02 33.71,-22.21 54.41,-27.55 20.7,-5.35 42.9,-6.63 66.62,-3.84l0 55.11c-34.65,-3.25 -62.08,3.26 -82.2,19.53 -20.11,16.28 -30.11,41.85 -30.11,76.73l0 214.85 -59.29 0 0 -213.45zm222.13 33.48c0,8.83 0.7,16.97 2.09,24.42l221.83 -93.47c-11.16,-19.53 -25.93,-34.99 -44.3,-46.39 -18.37,-11.39 -37.78,-17.09 -58.25,-17.09 -14.42,0 -28.83,3.02 -43.25,9.07 -14.42,6.04 -27.44,14.76 -39.07,26.16 -11.62,11.39 -21.04,25.34 -28.25,41.85 -7.21,16.51 -10.81,34.99 -10.81,55.46zm295.77 68.36c-13.95,38.6 -35.46,68.24 -64.52,88.94 -29.06,20.69 -64.53,31.04 -106.38,31.04 -26.04,0 -50.23,-4.88 -72.55,-14.65 -22.32,-9.77 -41.74,-23.02 -58.25,-39.76 -16.51,-16.74 -29.53,-36.5 -39.06,-59.29 -9.53,-22.79 -14.3,-47.43 -14.3,-73.94 0,-26.04 4.77,-50.57 14.3,-73.59 9.53,-23.02 22.44,-43.02 38.71,-59.99 16.28,-16.98 35.34,-30.46 57.2,-40.46 21.86,-10 45.34,-15 70.45,-15 19.53,0 38.6,3.37 57.2,10.12 18.6,6.74 35.81,16.39 51.62,28.95 15.81,12.56 29.53,28.02 41.16,46.39 11.62,18.37 20,39.18 25.11,62.43l-275.54 116.49c11.63,18.14 26.62,32.09 44.99,41.86 18.37,9.77 38.02,14.65 58.95,14.65 25.58,0 47.32,-5.46 65.22,-16.39 17.9,-10.93 32.67,-26.86 44.3,-47.78l61.38 0z"/>
  <g id="_1052434944">
   <path class="fil2" d="M1267.24 660.77c71.34,11.91 37.09,-28.71 20.55,-55.47 -8.02,-12.97 -17.33,-26.05 -25.09,-39.01 -8.48,-14.16 -14.14,-30.91 -4.96,-48.87 7.35,-14.36 57.96,-46.96 79.03,-47.69 34.69,-1.2 47.18,32.15 64.6,59.5 35.24,55.33 70.95,107.34 30.79,186.7 -13.52,26.72 -36.45,50.58 -61.71,64.02 -45.17,24.02 -55.69,12.67 -103.22,19.98 -8.03,22.73 -11.56,38.26 -36.66,43.38 -34.03,6.95 -62.17,-35.38 -93.2,-63.46 -41.62,-37.66 -42.91,-59.9 -1.09,-97.69l40.59 -39.61c12.05,-10.97 26.42,-31.41 55.18,-24.77 23.09,5.33 27.58,20.93 35.17,43zm-463.97 -120.47c-5.93,-8 -10.65,-9.98 -15.38,-20.93 -12.46,-28.79 1.09,-52.22 37.81,-62.1 27.77,-7.47 90.02,-30.48 115.17,-18.62 30.07,14.18 33.26,67.8 41.51,105.85 12.2,56.29 -6.67,77.31 -63.22,66.93 -6.61,18.65 -22.95,26.61 -13.89,47.17 64.79,20.82 155.63,-38.1 155.47,68.92 -0.03,23.11 3.34,65.64 -40.56,70.92 -24.43,2.94 -82.52,1.41 -108.71,0.18 -68.86,-3.22 -111.23,-44.68 -133.3,-90.23 -31.22,-64.42 -4.27,-122.9 25.12,-168.1zm294.37 -219.26c-48.48,61.75 -51.83,131.63 -124.22,90.4 -23.8,-13.56 -58.35,-25.99 -49.85,-64.98 3.06,-14.04 33.64,-60.58 42.52,-75.22 17.67,-29.13 29.82,-45.61 56.85,-63.5 83.76,-55.44 195.88,-13.34 227.57,73.82 57.85,-11 74.65,18.97 57.43,72.12 -6.22,19.21 -11.71,37.45 -17.87,57.05 -23.79,75.66 -63.78,47.21 -144.19,18.2 -52,-18.76 -50.51,-53.59 -16.38,-85.43 -3.43,-6.76 -8.32,-14.7 -13.92,-22.94l-17.95 0.49zm132.16 617.68c30.03,-25.42 63.92,-26.63 135.32,-105.22 168.74,-185.74 133.61,-501.66 -83.65,-644.51 -9.43,-6.2 -41.36,-23.39 -48.99,-31.41 -12.16,-8.92 -77.45,-18.19 -97.33,-19.58 -228.07,-15.98 -436.41,161.61 -439.13,404.97 -1.7,151.93 78.25,268.03 157.44,328.2 77.61,58.97 169.76,92.36 274.74,86.78 22.47,-1.2 87.03,-9.7 101.61,-19.23z"/>
   <path class="fil3" d="M1320.76 1212.37c28.23,4.21 72.6,21.05 82.46,42.11 -6.02,23.22 -50.57,34.54 -78.63,44.35 -17.31,2.18 -42.47,10.09 -63.74,13.51 -69,11.12 -143.44,13.43 -212.94,9.94 -58.78,-2.95 -226.22,-23.34 -237.62,-67.8 3.16,-33.11 177.09,-67.97 192.14,-61.16 29.67,31.39 44.62,84.62 104.32,84.61 59.9,-0.01 74.7,-54.17 104.32,-84.69 22.85,-0.4 91.93,10.58 109.69,19.14zm-175.79 157.12l-77.47 0c-63.93,-2.19 -126.17,-9.83 -178.49,-22.99 -48.62,-12.23 -124.63,-34.38 -124.63,-94.7 0,-68.1 162.69,-101.64 205.96,-101.64l-53.11 -72.6c-4.28,-5.7 -9.37,-13.69 -13.9,-18.2 -8.28,-8.25 -39.21,-17.98 -61.92,-31.7 -66.06,-39.91 -122.31,-82.85 -168.36,-144.59 -27.82,-37.3 -50.45,-70.91 -68.79,-115.77 -34.23,-83.75 -45.84,-136.78 -45.84,-232.34 0,-84.42 24.31,-157.34 50.05,-217.43 28.68,-66.98 86.55,-140.33 143.33,-188.35 38.24,-32.34 74.74,-54.64 120.44,-77.5 80.59,-40.32 158.23,-51.68 255.92,-51.68 165.9,0 338.31,100.49 430.14,235.88 85.5,126.07 120.26,286.51 81.83,439.25 -16.37,65.07 -39.88,120.82 -75.94,175.49l-40.54 53.09c-5.67,7.02 -6.88,9.1 -13.64,15.78 -53.69,53.08 -68.79,66.92 -139.57,109.18 -21.96,13.11 -46.33,21.18 -54.25,26 -11.61,7.07 -63.85,81.8 -73.01,95.5 32.32,0 96.17,17.48 126.72,28.42 45.52,16.3 79.24,36.61 79.24,83.92 0,45.21 -89.36,75.2 -124.64,83.99 -52.66,13.12 -115.27,20.8 -179.52,23zm124.96 -348.44c-16.59,8.82 -48.68,15.16 -69.51,19.47 -30.29,6.26 -35.4,33.29 -9.9,44.93 15.36,3.76 30.06,-2.84 45.08,-5.29 -5.58,12.44 -23.87,34.26 -32.41,46.09 -10.6,14.68 -20.46,27.47 -31.74,43.16 -21.32,29.66 -49.08,81.46 -84.3,56.04 -12.55,-8.64 -45.28,-56.35 -56.27,-71.68 -10.79,-15.04 -47.53,-61.67 -52.88,-73.71 18.12,2.89 44.81,13.93 56.34,-2.38 12.84,-18.16 1.42,-32.98 -25.45,-38.04 -37.4,-7.04 -73.64,-19.06 -105.7,-33.59 -69.45,-31.44 -77.18,-42.5 -127.52,-81.17 -32.02,-24.6 -72.7,-76.68 -95.56,-113.13 -215.99,-344.41 54.29,-798.93 468.17,-764.78 28.45,2.35 89.83,11.73 110.95,23.04 45.99,9.38 106.62,45.75 139.26,68.84 122.77,86.82 207.84,233.58 210.35,401.42 1.96,130.91 -42.7,225.65 -100.33,308.14 -46.51,66.57 -161.08,157.26 -238.58,172.62z"/>
   <path class="fil3" d="M1229.81 938.73c-14.58,9.53 -79.14,18.03 -101.61,19.23 -104.98,5.58 -197.13,-27.81 -274.74,-86.78 -79.18,-60.16 -159.14,-176.26 -157.44,-328.2 2.72,-243.36 211.06,-420.95 439.13,-404.97 19.88,1.39 85.17,10.66 97.33,19.58 37.35,7.9 89.55,38.21 114.44,56.95 190.33,143.24 227.79,397.56 82.55,586.95 -44.67,58.26 -130.15,123.29 -199.67,137.25zm304.91 -232.3c5.21,-22.71 14.49,-43.83 19.38,-69.13 5.01,-25.89 8.02,-50.68 8.72,-78.27 2.16,-84.78 -12.36,-95.74 -22.31,-154.83 -11.22,-23.28 -19.43,-47.25 -31.27,-71.08 -29.57,-59.51 -90.84,-127 -147.09,-163.27 -320.04,-206.33 -702.36,21.37 -711.61,364.98 -6.42,238.65 164.53,420.01 365.42,460.23 121.21,24.27 249.87,-5.89 334.53,-61.27 23.38,-15.29 39.95,-29.07 59.72,-44.62 9.5,-7.47 15.99,-17.39 25.27,-25.52 39.04,-34.15 77.22,-102.9 99.22,-157.24z"/>
   <path class="fil4" d="M1087.16 1225.46c11.36,-6.69 18.06,-21.26 27.16,-32.99 9.32,-12.02 17.98,-23.84 26.2,-35.29 9.64,-13.43 46.6,-59.91 50.01,-71.72 -25.5,-11.64 -20.39,-38.67 9.9,-44.93 20.83,-4.31 52.91,-10.65 69.51,-19.47 3.19,-4 63.61,-37.86 88.79,-57.59 76.65,-60.05 145.34,-148.85 175.95,-244.45 0.13,-0.39 1.51,-5.71 1.52,-5.81 0.53,-7.63 1.56,-2.34 -1.48,-6.77 -22,54.34 -60.18,123.09 -99.22,157.24 -9.29,8.12 -15.77,18.05 -25.27,25.52 -19.77,15.55 -36.34,29.33 -59.72,44.62 -84.67,55.38 -213.32,85.54 -334.53,61.27 -200.9,-40.23 -371.84,-221.58 -365.42,-460.23 9.25,-343.61 391.56,-571.31 711.61,-364.98 56.25,36.26 117.52,103.75 147.09,163.27 11.84,23.83 20.05,47.8 31.27,71.08 8.17,-9.62 -34.41,-94.19 -40.97,-106.82 -19.11,-36.82 -39.58,-63.12 -63.34,-91.82 -34.37,-41.5 -78.87,-78.06 -125.88,-106.88l-51.08 -28.65c-21.12,-11.31 -82.5,-20.69 -110.95,-23.04 -413.88,-34.14 -684.17,420.38 -468.17,764.78 22.85,36.44 63.54,88.53 95.56,113.13 50.34,38.67 58.07,49.72 127.52,81.17 32.07,14.52 68.3,26.55 105.7,33.59 26.87,5.05 38.29,19.88 25.45,38.04 -11.53,16.31 -38.22,5.28 -56.34,2.38 5.36,12.04 42.09,58.67 52.88,73.71 10.99,15.32 43.72,63.04 56.27,71.68z"/>
   <path class="fil3" d="M907.34 705.59l107.46 1.14c3.71,12.96 3.18,34.12 0.53,47.08 -16.3,1.77 -105.7,4.83 -112.94,-3.19 -28,0.05 -56.35,-21.83 -66.84,-35.36 -46.97,-60.52 -21.26,-102.38 5.68,-148.96 4.96,-8.58 16.53,-23.63 16.8,-34.09 0.56,-21.4 -15.5,-19.2 -24.9,-30.07l87.57 -22.76 19.96 88.02c-34.69,-12.6 -32.1,-31.59 -76.17,48.96 -22.79,41.65 3.35,85.92 42.86,89.24zm-104.07 -165.28c-29.38,45.2 -56.33,103.68 -25.12,168.1 22.07,45.54 64.45,87.01 133.3,90.23 26.19,1.23 84.28,2.76 108.71,-0.18 43.9,-5.28 40.52,-47.81 40.56,-70.92 0.16,-107.03 -90.68,-48.1 -155.47,-68.92 -9.06,-20.56 7.29,-28.52 13.89,-47.17 56.55,10.38 75.42,-10.64 63.22,-66.93 -8.25,-38.05 -11.44,-91.67 -41.51,-105.85 -25.16,-11.86 -87.41,11.16 -115.17,18.62 -36.72,9.88 -50.27,33.31 -37.81,62.1 4.74,10.95 9.46,12.93 15.38,20.93z"/>
   <path class="fil3" d="M1306.17 534.54c8.54,-5.79 22.28,-14.68 33.67,-18.19 25.27,45.98 65.76,86.33 63.44,136.31 -2.57,55.48 -44.89,93.57 -98.13,100.32 -18.01,0.25 -45.41,-1.44 -62.08,0.51 -24.83,2.9 -20.38,18.25 -23.16,41.72 -1.23,-1.49 -60.86,-55.24 -67.11,-65 7.05,-9.01 59.38,-59.86 67.94,-63.94 0,51.13 16.67,41.49 65.36,41.32 43.13,-0.15 48.13,-12.12 67.11,-36.24 4.96,-23.7 5.01,-24.68 0.05,-48.12 -4.11,-4.07 -50.46,-78.63 -53.6,-86.1l6.54 -2.6zm-38.92 126.24c-7.58,-22.07 -12.07,-37.67 -35.17,-43 -28.77,-6.64 -43.13,13.8 -55.18,24.77l-40.59 39.61c-41.82,37.79 -40.53,60.03 1.09,97.69 31.03,28.08 59.16,70.42 93.2,63.46 25.1,-5.13 28.62,-20.65 36.66,-43.38 47.53,-7.32 58.05,4.04 103.22,-19.98 25.26,-13.44 48.19,-37.3 61.71,-64.02 40.16,-79.35 4.45,-131.37 -30.79,-186.7 -17.42,-27.35 -29.92,-60.7 -64.6,-59.5 -21.07,0.73 -71.69,33.32 -79.03,47.69 -9.19,17.96 -3.52,34.71 4.96,48.87 7.76,12.96 17.07,26.05 25.09,39.01 16.54,26.76 50.79,67.38 -20.55,55.47z"/>
   <path class="fil3" d="M1092.48 231.27c15.04,-13 60.74,6.63 73.31,14.58 19.23,12.16 32.92,29.57 43.1,54.17 6.2,7.1 12.43,18.53 14,27.11 23.35,10.88 20.85,5.94 45.85,-1.01l-27.96 88.03 -41.27 -16.36c-9.9,0.17 -33.59,-9.17 -43.47,-14.25 24.36,-19.21 42.82,-8.52 13.62,-61.22 -12.91,-23.3 -23.55,-45.17 -57.45,-47.8 -36.13,-2.8 -52.01,18.01 -65.28,40.15 -7.36,12.28 -31.23,55.08 -39.41,63.02l-37.87 -21.95c4.36,-11.95 15.88,-28.18 22.72,-39.47 18.35,-30.24 46.74,-87.23 100.12,-85.01zm5.16 89.78l17.95 -0.49c5.6,8.25 10.5,16.18 13.92,22.94 -34.13,31.84 -35.62,66.68 16.38,85.43 80.41,29.01 120.4,57.46 144.19,-18.2 6.16,-19.59 11.65,-37.84 17.87,-57.05 17.22,-53.15 0.42,-83.12 -57.43,-72.12 -31.69,-87.16 -143.81,-129.26 -227.57,-73.82 -27.03,17.89 -39.18,34.37 -56.85,63.5 -8.88,14.63 -39.47,61.18 -42.52,75.22 -8.5,38.99 26.04,51.42 49.85,64.98 72.4,41.23 75.74,-28.65 124.22,-90.4z"/>
   <path class="fil5" d="M1324.59 1298.82c9.59,-14.88 33.92,-16.05 33.12,-44.18 -0.67,-23.68 -26.07,-34.27 -36.95,-42.27 -17.76,-8.55 -86.84,-19.54 -109.69,-19.14 -29.62,30.52 -44.42,84.69 -104.32,84.69 -59.69,0 -74.65,-53.22 -104.32,-84.61 -15.05,-6.81 -188.98,28.05 -192.14,61.16 11.4,44.46 178.83,64.84 237.62,67.8 69.5,3.49 143.93,1.18 212.94,-9.94 21.27,-3.43 46.43,-11.33 63.74,-13.51z"/>
   <path class="fil6" d="M1540.52 404.21c9.95,59.09 24.47,70.05 22.31,154.83 -0.7,27.6 -3.71,52.38 -8.72,78.27 -4.89,25.29 -14.17,46.41 -19.38,69.13 3.04,4.43 2.01,-0.86 1.48,6.77 -0.01,0.1 -1.39,5.42 -1.52,5.81 -30.61,95.61 -99.31,184.4 -175.95,244.45 -25.18,19.73 -85.6,53.59 -88.79,57.59 77.5,-15.36 192.07,-106.05 238.58,-172.62 57.63,-82.49 102.29,-177.23 100.33,-308.14 -2.5,-167.84 -87.58,-314.6 -210.35,-401.42 -32.65,-23.09 -93.27,-59.46 -139.26,-68.84l51.08 28.65c47.01,28.82 91.52,65.38 125.88,106.88 23.77,28.7 44.23,54.99 63.34,91.82 6.56,12.64 49.14,97.21 40.97,106.82z"/>
   <path class="fil7" d="M1229.81 938.73c69.51,-13.96 154.99,-78.99 199.67,-137.25 145.24,-189.39 107.78,-443.71 -82.55,-586.95 -24.89,-18.73 -77.1,-49.05 -114.44,-56.95 7.63,8.02 39.56,25.21 48.99,31.41 217.27,142.85 252.4,458.77 83.65,644.51 -71.4,78.59 -105.29,79.8 -135.32,105.22z"/>
   <path class="fil8" d="M902.39 750.62c37.03,1.49 74.31,1.36 111.93,1.36l-0.1 -42.73c-16.75,0 -99.73,3.23 -106.88,-3.65 -39.51,-3.32 -65.65,-47.59 -42.86,-89.24 44.07,-80.55 41.49,-61.55 76.17,-48.96l-19.96 -88.02 -87.57 22.76c9.4,10.87 25.46,8.67 24.9,30.07 -0.27,10.46 -11.84,25.51 -16.8,34.09 -26.94,46.58 -52.65,88.44 -5.68,148.96 10.5,13.53 38.84,35.41 66.84,35.36z"/>
   <path class="fil8" d="M1199.51 397.79c8.26,-8.57 22.32,-59.28 23.38,-70.66 -1.57,-8.58 -7.79,-20.01 -14,-27.11 -19.21,-0.34 -19.6,6.16 -36.02,10.64 -5.2,-15.54 -31.9,-60.69 -47.22,-72.84 -12.53,-9.93 -17.12,-2.08 -33.17,-6.55 -53.38,-2.22 -81.77,54.77 -100.12,85.01 -6.85,11.29 -18.36,27.52 -22.72,39.47l37.87 21.95c8.18,-7.94 32.05,-50.75 39.41,-63.02 13.27,-22.13 29.15,-42.95 65.28,-40.15 33.91,2.63 44.54,24.5 57.45,47.8 29.2,52.7 10.74,42.01 -13.62,61.22 9.88,5.08 33.57,14.42 43.47,14.25z"/>
   <path class="fil8" d="M1305.14 752.98c6.78,-9.13 11.05,-9.93 17.93,-17.79 4.84,-5.54 10.57,-12.41 15.08,-19.76 3.89,-6.32 20.93,-37.71 15.04,-44.07 -18.97,24.11 -23.97,36.09 -67.11,36.24 -48.69,0.17 -65.36,9.81 -65.36,-41.32 -8.56,4.09 -60.89,54.93 -67.94,63.94 6.25,9.75 65.88,63.5 67.11,65 2.78,-23.47 -1.66,-38.81 23.16,-41.72 16.68,-1.95 44.07,-0.26 62.08,-0.51z"/>
   <path class="fil9" d="M1306.17 534.54c10.02,5.72 11.32,12.08 17.28,21.91 4.23,6.97 9.45,14.19 13.57,21.15 3.66,6.19 22.54,38.84 16.21,45.65 4.96,23.44 4.92,24.42 -0.05,48.12 5.9,6.36 -11.15,37.76 -15.04,44.07 -4.52,7.35 -10.24,14.22 -15.08,19.76 -6.87,7.86 -11.15,8.66 -17.93,17.79 53.24,-6.75 95.56,-44.84 98.13,-100.32 2.32,-49.98 -38.17,-90.33 -63.44,-136.31 -11.39,3.51 -25.13,12.4 -33.67,18.19z"/>
   <path class="fil6" d="M1190.53 1085.46c-3.41,11.81 -40.37,58.28 -50.01,71.72 -8.22,11.45 -16.88,23.27 -26.2,35.29 -9.1,11.73 -15.8,26.3 -27.16,32.99 35.23,25.42 62.98,-26.38 84.3,-56.04 11.28,-15.69 21.14,-28.48 31.74,-43.16 8.54,-11.83 26.84,-33.65 32.41,-46.09 -15.02,2.46 -29.72,9.05 -45.08,5.29z"/>
   <path class="fil9" d="M1199.51 397.79l41.27 16.36 27.96 -88.03c-25,6.95 -22.5,11.88 -45.85,1.01 -1.06,11.38 -15.12,62.09 -23.38,70.66z"/>
   <path class="fil9" d="M1208.89 300.02c-10.17,-24.6 -23.87,-42.01 -43.1,-54.17 -12.56,-7.95 -58.27,-27.57 -73.31,-14.58 16.05,4.47 20.64,-3.39 33.17,6.55 15.32,12.15 42.02,57.3 47.22,72.84 16.42,-4.48 16.81,-10.97 36.02,-10.64z"/>
   <path class="fil10" d="M1324.59 1298.82c28.06,-9.81 72.61,-21.13 78.63,-44.35 -9.86,-21.05 -54.23,-37.9 -82.46,-42.11 10.89,8 36.28,18.59 36.95,42.27 0.8,28.13 -23.54,29.3 -33.12,44.18z"/>
   <path class="fil8" d="M1353.24 623.24c6.32,-6.81 -12.55,-39.46 -16.21,-45.65 -4.12,-6.96 -9.34,-14.18 -13.57,-21.15 -5.96,-9.83 -7.27,-16.19 -17.28,-21.91l-6.54 2.6c3.15,7.47 49.5,82.03 53.6,86.1z"/>
   <path class="fil11" d="M902.39 750.62c7.24,8.03 96.64,4.96 112.94,3.19 2.66,-12.96 3.18,-34.12 -0.53,-47.08l-107.46 -1.14c7.14,6.88 90.12,3.65 106.88,3.65l0.1 42.73c-37.62,0 -74.9,0.14 -111.93,-1.36z"/>
  </g>
 </g>
</svg>
