<?xml version="1.0" encoding="UTF-8"?>
<!DOCTYPE svg PUBLIC "-//W3C//DTD SVG 1.1//EN" "http://www.w3.org/Graphics/SVG/1.1/DTD/svg11.dtd">
<!-- Creator: CorelDRAW 2019 (64-Bit) -->
<svg xmlns="http://www.w3.org/2000/svg" xml:space="preserve" width="167.316mm" height="51.3403mm" version="1.1" style="shape-rendering:geometricPrecision; text-rendering:geometricPrecision; image-rendering:optimizeQuality; fill-rule:evenodd; clip-rule:evenodd"
viewBox="0 0 93365.79 28648.97"
 xmlns:xlink="http://www.w3.org/1999/xlink"
 xmlns:xodm="http://www.corel.com/coreldraw/odm/2003">
 <defs>
  <style type="text/css">
   <![CDATA[
    .fil3 {fill:black}
    .fil11 {fill:#345C0C}
    .fil10 {fill:#35464D}
    .fil0 {fill:#39CF17}
    .fil9 {fill:#539214}
    .fil5 {fill:#5F7A89}
    .fil8 {fill:#60A817}
    .fil6 {fill:#C81E1E}
    .fil4 {fill:#F34235}
    .fil7 {fill:#FEC108}
    .fil2 {fill:#FFDB00}
    .fil1 {fill:black;fill-rule:nonzero}
   ]]>
  </style>
 </defs>
 <g id="Layer_x0020_1">
  <metadata id="CorelCorpID_0Corel-Layer"/>
  <rect class="fil0" x="0.02" y="1366.91" width="93365.76" height="25915.26" rx="9336.59" ry="2591.53"/>
  <path class="fil1" d="M39622.78 13648.8c0,-423.26 -71.43,-820.01 -214.28,-1190.37 -142.85,-370.3 -338.55,-690.38 -587.21,-960.19 -248.65,-269.86 -539.66,-484.08 -872.97,-642.84 -333.25,-158.7 -690.38,-238.05 -1071.29,-238.05 -380.91,0 -738.04,79.35 -1071.34,238.05 -333.25,158.76 -624.26,375.66 -872.91,650.76 -248.65,275.1 -447.03,595.19 -595.19,960.19 -148.1,365.06 -222.15,759.19 -222.15,1182.45 0,423.2 74.05,820.01 222.15,1190.31 148.15,370.36 349.21,695.74 603.11,976.09 253.96,280.41 547.59,499.99 880.89,658.69 333.31,158.7 685.08,238.05 1055.44,238.05 380.91,0 738.04,-79.35 1071.29,-238.05 333.31,-158.7 624.31,-375.66 872.97,-650.71 248.65,-275.1 444.35,-597.86 587.21,-968.17 142.85,-370.36 214.28,-772.41 214.28,-1206.22zm1349.07 0c0,613.66 -108.48,1182.39 -325.38,1706.15 -216.9,523.76 -510.53,978.71 -880.84,1364.92 -370.36,386.21 -804.16,687.76 -1301.47,904.66 -497.31,216.96 -1026.31,325.38 -1587.12,325.38 -581.96,0 -1121.57,-111.1 -1618.87,-333.31 -497.31,-222.2 -931.11,-526.38 -1301.47,-912.59 -370.3,-386.21 -661.31,-841.16 -872.91,-1364.92 -211.6,-523.76 -317.4,-1087.19 -317.4,-1690.3l0 -7697.62 1301.42 0 0 4809.02c338.61,-423.26 751.26,-759.19 1237.97,-1007.84 486.71,-248.65 1015.77,-372.98 1587.12,-372.98 571.41,0 1103.1,108.48 1595.1,325.38 492.01,216.9 923.19,515.83 1293.49,896.74 370.36,380.91 661.31,830.56 872.91,1349.07 211.66,518.46 317.46,1084.51 317.46,1698.23zm2337.05 4110.66l-1349.07 0 0 -8173.72 1349.07 0 0 8173.72zm-1349.07 -9411.69l0 -1015.77c0,-179.91 66.13,-333.31 198.43,-460.26 132.25,-127.01 288.33,-190.51 468.18,-190.51 190.45,0 351.83,63.5 484.08,190.51 132.25,126.95 198.38,280.35 198.38,460.26l0 1015.77 -1349.07 0zm4178.13 9411.69l-1349.07 0 0 -4967.73c0,-518.46 87.27,-986.69 261.88,-1404.59 174.55,-417.96 412.66,-775.09 714.21,-1071.34 301.55,-296.25 661.31,-526.38 1079.27,-690.38 417.9,-164 870.23,-246.03 1357,-246.03 486.71,0 939.04,82.03 1357,246.03 417.9,164 777.66,394.13 1079.21,690.38 301.55,296.25 536.98,653.39 706.29,1071.34 169.3,417.9 253.96,886.14 253.96,1404.59l0 4967.73 -1349.07 0 0 -5015.33c0,-613.71 -182.53,-1118.94 -550.21,-1515.75 -367.68,-396.75 -867.61,-595.13 -1497.17,-595.13 -629.56,0 -1132.17,198.38 -1505.15,595.13 -372.98,396.81 -558.13,902.04 -558.13,1515.75l0 5015.33zm9955.26 0c-476.1,52.9 -912.59,26.45 -1309.34,-79.35 -396.81,-105.8 -735.42,-288.33 -1015.77,-547.59 -280.41,-259.2 -499.99,-587.21 -658.69,-984.01 -158.7,-396.75 -238.05,-854.39 -238.05,-1372.84l0 -6935.81 1349.07 0 0 1745.88 1841.08 0 0 1285.57 -1841.08 0 0 3904.36c0,359.76 50.22,656.01 150.78,888.76 97.88,232.81 235.43,415.34 407.36,547.59 174.55,132.25 372.98,222.2 597.81,269.8 227.51,47.6 465.56,60.82 716.83,39.68l0 1237.97zm7574.58 0l-1349.02 0 0 -4967.73c0,-634.86 -166.68,-1155.94 -497.31,-1563.35 -333.31,-407.36 -830.61,-611.03 -1494.55,-611.03 -306.86,0 -587.26,55.58 -846.52,166.68 -256.58,111.05 -481.4,261.82 -671.86,452.33 -190.45,190.45 -338.61,415.28 -449.71,674.48 -111.1,259.26 -166.63,542.28 -166.63,849.14l0 4999.48 -1349.07 0 0 -11808.28 1349.07 0 -15.9 4459.87c275.1,-317.46 613.71,-568.74 1015.77,-753.89 402.11,-185.21 841.22,-277.78 1317.32,-277.78 507.91,0 957.62,84.65 1349.07,253.96 391.51,169.3 722.19,407.36 991.99,714.21 269.8,306.86 473.48,671.86 611.03,1095.12 137.55,423.26 206.3,888.82 206.3,1396.67l0 4920.13zm2226 -4094.81c0,201.05 15.85,386.21 47.6,555.51l5047.08 -2126.79c-253.96,-444.35 -589.88,-796.18 -1007.84,-1055.44 -417.9,-259.2 -859.69,-388.83 -1325.24,-388.83 -328,0 -656.01,68.75 -984.01,206.3 -328,137.55 -624.26,335.98 -888.82,595.19 -264.5,259.26 -478.78,576.66 -642.78,952.32 -164,375.6 -245.98,796.18 -245.98,1261.74zm6729.45 1555.37c-317.46,878.21 -806.84,1552.75 -1468.1,2023.61 -661.31,470.86 -1468.1,706.29 -2420.42,706.29 -592.51,0 -1142.72,-111.1 -1650.63,-333.31 -507.85,-222.2 -949.64,-523.76 -1325.24,-904.66 -375.6,-380.91 -671.86,-830.61 -888.82,-1349.07 -216.9,-518.46 -325.33,-1079.21 -325.33,-1682.32 0,-592.56 108.42,-1150.7 325.33,-1674.45 216.96,-523.76 510.53,-978.71 880.89,-1364.92 370.3,-386.21 804.16,-693.06 1301.42,-920.57 497.31,-227.45 1031.67,-341.23 1603.03,-341.23 444.41,0 878.21,76.73 1301.47,230.13 423.2,153.46 814.71,372.98 1174.47,658.69 359.76,285.65 671.86,637.48 936.42,1055.44 264.5,417.96 454.95,891.44 571.36,1420.5l-6269.2 2650.49c264.56,412.66 605.79,730.11 1023.75,952.26 417.9,222.2 864.99,333.31 1341.09,333.31 581.96,0 1076.59,-124.33 1484,-372.98 407.36,-248.65 743.28,-611.03 1007.79,-1087.19l1396.73 0zm892.72 -2317.18c0,-613.71 103.18,-1153.32 309.48,-1618.87 206.36,-465.56 486.71,-846.46 841.16,-1142.77 354.51,-296.25 767.17,-505.23 1237.97,-626.88 470.86,-121.7 976.09,-150.78 1515.75,-87.33l0 1253.87c-788.32,-74.11 -1412.57,74.05 -1870.21,444.41 -457.63,370.3 -685.08,952.26 -685.08,1745.82l0 4888.38 -1349.07 0 0 -4856.62zm5416.1 761.81c0,201.05 15.85,386.21 47.6,555.51l5047.08 -2126.79c-253.96,-444.35 -589.88,-796.18 -1007.84,-1055.44 -417.9,-259.2 -859.69,-388.83 -1325.24,-388.83 -328,0 -656.01,68.75 -984.01,206.3 -328,137.55 -624.26,335.98 -888.82,595.19 -264.5,259.26 -478.78,576.66 -642.78,952.32 -164,375.6 -245.98,796.18 -245.98,1261.74zm6729.45 1555.37c-317.46,878.21 -806.84,1552.75 -1468.1,2023.61 -661.31,470.86 -1468.1,706.29 -2420.42,706.29 -592.51,0 -1142.72,-111.1 -1650.63,-333.31 -507.85,-222.2 -949.64,-523.76 -1325.24,-904.66 -375.6,-380.91 -671.86,-830.61 -888.82,-1349.07 -216.9,-518.46 -325.33,-1079.21 -325.33,-1682.32 0,-592.56 108.42,-1150.7 325.33,-1674.45 216.96,-523.76 510.53,-978.71 880.89,-1364.92 370.3,-386.21 804.16,-693.06 1301.42,-920.57 497.31,-227.45 1031.67,-341.23 1603.03,-341.23 444.41,0 878.21,76.73 1301.47,230.13 423.2,153.46 814.71,372.98 1174.47,658.69 359.76,285.65 671.86,637.48 936.42,1055.44 264.5,417.96 454.95,891.44 571.36,1420.5l-6269.2 2650.49c264.56,412.66 605.79,730.11 1023.75,952.26 417.9,222.2 864.99,333.31 1341.09,333.31 581.96,0 1076.59,-124.33 1484,-372.98 407.36,-248.65 743.28,-611.03 1007.79,-1087.19l1396.73 0z"/>
  <path class="fil1" d="M63476.56 22899.28c260.48,-733.69 513.38,-1374.85 756.73,-1924.95 234.98,-531.96 396.86,-869.23 487.65,-1010.35 97.88,-155.74 198.21,-238.94 297.48,-249.38 53.12,-5.58 105.13,11.44 152.4,49.78 45.81,40.18 69.47,84.43 74.66,134.09 8.15,77.01 -34.71,213.11 -128.85,404.79 -404.01,833.63 -763.99,1674.68 -1085.02,2523.82 -375.88,986.47 -539.89,1715.24 -490.72,2182.7 19.98,190.01 73.44,336.71 158.59,438.6 14.51,22.71 80.02,69.47 196.7,142.02 22.15,13.28 36.05,46.43 41.24,96.09 7.03,66.8 -13.89,131.3 -59.49,191.51 -45.65,60.15 -100.95,93.69 -164.28,100.33 -77.06,8.09 -167.52,-29.13 -271.25,-109.99 -147.6,-119.53 -244.25,-265.17 -288.16,-435.42 -17.97,-72.49 -44.53,-209.98 -79.29,-408.81 -284.65,668.68 -583.47,1020.34 -901.99,1053.82 -183.2,19.25 -339.72,-69.86 -472.76,-265.34 -88.06,-129.24 -140.23,-279.57 -158.59,-454.23 -54.69,-520.58 81.86,-1066.38 408.25,-1633.83 325.21,-562.21 705.34,-865.32 1141.99,-911.25 119.86,-12.61 249.16,15.4 384.7,85.99zm-126.11 430.46c-97.37,-53.79 -179.63,-78.07 -246.37,-71.04 -282.53,29.69 -531.46,230.69 -748.7,601.49 -284.87,485.26 -405.46,935.91 -361.54,1353.7 5.41,51.39 20.54,96.54 45.81,138.89 48.16,79.74 114.12,114.34 194.58,105.86 118.19,-12.39 248.43,-140.34 393.96,-385.87 192.63,-324.94 364.28,-701.38 514.61,-1132.62 52.01,-147.37 102.34,-294.64 152.62,-441.9 0,0 10.27,-33.98 32.7,-100.39l22.32 -68.13zm2673.87 -1011.64c272.31,-28.57 426.89,124.83 461.99,458.69 46.59,443.46 -99.61,1028.43 -437.21,1752.91 -369.35,784.97 -761.98,1200.14 -1178.09,1243.88 -193.47,20.37 -345.14,-55.47 -453.06,-225.89 -55.75,-85.88 -91.07,-191.29 -104.35,-317.96 -45.03,-428.06 53.46,-907.57 293.52,-1440.03 223.49,-492.62 507.41,-887.76 850.26,-1183.45 201.61,-173.54 390.61,-269.58 566.95,-288.16zm-319.58 1950.06c-91.07,-59.71 -137.61,-106.75 -141.35,-142.74 -2.9,-27.34 42.47,-106.58 136.05,-237.61 265.73,-370.69 387.77,-658.74 366.01,-865.94 -2.9,-27.4 -14.12,-52.17 -34.15,-77.79 -30.91,-46.93 -76.39,-68.13 -132.92,-62.16 -106.14,11.16 -252.73,132.14 -438.1,361.1 -239.06,295.19 -413.88,592.28 -524.37,891.27 -130.19,342.57 -184.15,620.02 -161.66,834.07 6.14,58.26 26.79,106.3 60.43,146.03 50.78,55.24 108.81,80.3 175.55,73.27 160.99,-16.91 319.63,-154.74 479.17,-415.67 69.81,-109.43 124.1,-219.02 162.38,-332.08 38.56,-111.38 56.58,-170.42 52.96,-171.76zm1871.1 -579.28c38.67,-43.86 77.17,-89.51 112.39,-132.98 624.98,-758.18 1054.72,-1149.52 1290.98,-1174.36 130.07,-13.67 202.73,51.34 217.85,195.2 10.66,101.06 -35.16,225.27 -137.22,374.54 -558.52,813.48 -808.01,1502.75 -748.25,2071.21 19.42,184.87 87.39,354.34 206.08,511.54 54.35,72.15 84.6,129.57 89.28,174.1 4.13,39.4 -12.5,79.24 -47.88,121.03 -39.62,50.89 -88.5,80.3 -148.43,86.6 -135.26,14.17 -259.2,-61.1 -371.47,-224.1 -106.36,-155.02 -171.76,-348.99 -196.42,-583.58 -47.49,-452 67.74,-969.67 345.75,-1552.86 -421.42,338.61 -788.48,898.25 -1101.31,1677.3 -82.31,188.67 -180.8,289.05 -293.8,300.94 -58.2,6.08 -106.64,-9.6 -148.43,-45.03 -51.28,-43.02 -81.53,-100.44 -89.28,-174.1 -18.92,-179.79 136.72,-675.65 468.91,-1484.45 177.34,-437.54 320.3,-757.23 427.39,-957.17 109.2,-196.76 207.36,-300.55 298.09,-310.09 44.47,-4.69 87.78,11.55 132.98,46.59 51.28,43.14 80.86,93.64 87.11,153.57 7.76,73.66 -29.02,184.87 -112.22,332.08 -118.8,220.25 -212.38,417.06 -282.08,594.01zm2181.86 532.41l9.37 89c7.7,73.66 33.26,135.04 74.77,184.31 96.65,112.78 240.12,159.98 430.18,140.01 419.46,-44.08 868.5,-416.73 1348.96,-1116.38 86.1,-119.86 162.55,-183.31 229.29,-190.34 35.94,-3.74 71.98,9.82 105.08,44.36 23.44,25.28 36.22,48.16 38.73,72.15 13.67,130.13 -124.05,367.9 -411.48,713.15 -226.11,269.58 -472.2,498.03 -740.21,682.01 -268.07,183.98 -523.65,288.72 -768.51,314.44 -251.72,26.45 -457.8,-40.12 -621.47,-197.76 -110.21,-109.6 -175.44,-268.97 -197.26,-476.1 -59.37,-565.05 147.88,-1146.06 623.59,-1743.03 383.47,-485.26 736.98,-745.74 1057.11,-779.39 87.39,-9.21 169.02,9.93 244.8,55.63 94.7,60.99 147.21,148.99 159.09,261.99 18.53,176.39 -40.79,402.44 -176.28,678.11 -281.13,569.68 -749.14,992.78 -1405.77,1267.82zm71.98 -402.28c224.44,-104.96 399.82,-215.12 522.7,-330.18 214,-204.29 377.33,-429.17 490.39,-671.3 41.18,-85.71 59.26,-160.32 52.62,-223.65 -7.03,-66.8 -43.14,-97.65 -106.47,-90.96 -85.6,8.98 -202,87.05 -349.15,235.76 -261.66,261.27 -466.28,620.3 -610.08,1080.33zm5798.68 -2506.8c-181.97,360.15 -345.81,761.7 -486.82,1198.91 -202.56,625.49 -289.39,1084.74 -258.42,1379.2 8.82,83.87 32.64,145.48 73.27,186.21 38.73,39.17 94.14,55.86 164.34,48.49 167.85,-17.69 355.07,-196.59 560.09,-534.92 130.13,-211.1 243.41,-418.57 341.23,-624.48 51.62,-117.97 116.07,-180.13 189.73,-187.83 44.47,-4.69 83.76,6.7 115.96,32.76 30.64,27.96 47.54,57.36 50.61,86.44 13,123.32 -120.53,417.79 -400.88,880.05 -334.87,552.78 -662.32,846.91 -984.18,880.78 -171.2,17.97 -321.64,-45.87 -451.22,-191.51 -80.69,-91.96 -131.75,-231.97 -151,-415.22 -42.63,-405.79 26,-889.09 205.63,-1453.31 42.47,-139.45 167.69,-479.84 372.48,-1018.95 -88.11,35.21 -157.03,54.57 -205.02,59.6 -71.87,7.59 -135.32,-3.01 -193.52,-29.85 -80.41,-40.01 -124.22,-94.31 -131.58,-164.5 -8.82,-83.81 32.14,-155.69 124.55,-215.56 25.89,-16.57 148.77,-50.33 366.4,-104.35 79.02,-22.15 193.97,-65.4 342.85,-131.25 95.81,-224.72 259.26,-531.01 488.38,-920.34 126.22,-215.84 215.12,-358.47 265.28,-424.37 71.65,-92.35 137.55,-140.79 197.48,-147.09 44.47,-4.69 89.79,14.79 137.5,56.53 45.59,38.45 70.87,80.8 75.33,123.66 9.21,87.27 -66.96,268.46 -226.61,544.91 -107.42,180.91 -183.92,325.72 -234.82,434.92 356.18,-136.1 614.83,-211.77 772.41,-228.34 181.47,-19.08 280.35,48.49 296.53,202.62 8.09,77.01 -16.8,136.77 -76.17,181.08 -32.25,22.43 -116.12,48.55 -255.07,77.01 -56.86,2.51 -300.22,92.19 -732.07,265.67 -119.3,50.61 -236.94,101.06 -352.67,153.07zm2014.51 982.73c221.26,-282.92 446.7,-526.49 678.5,-725.71 295.25,-254.35 511.31,-389.55 650.04,-404.12 56.47,-5.97 115.51,12.11 173.43,52.73 65.46,46.76 102.84,105.19 110.21,175.39 9.54,90.73 -47.65,238.72 -171.54,443.91 -238.83,395.53 -414.33,751.6 -526.72,1066.32 -99.33,273.6 -144.14,456.63 -134.2,550.82 9.54,90.73 56.97,130.74 144.36,121.54 181.47,-19.08 450.71,-372.81 811.25,-1059.91 73.66,-139.28 145.59,-212.66 215.79,-220.03 70.2,-7.42 110.49,29.97 118.91,110.43 13.73,130.13 -88.61,391.9 -303.34,786.64 -187.05,345.14 -392.29,616.06 -613.82,814.15 -158.81,136.16 -306.8,210.54 -443.74,224.94 -145.59,15.29 -254.79,-35.55 -332.86,-152 -47.43,-72.93 -77.01,-156.36 -86.72,-248.82 -31.3,-297.93 39.23,-648.09 209.87,-1050.36 41.85,-96.15 165.51,-368.85 372.65,-819.96 -648.81,416.17 -1149.24,1221.84 -1501.63,2415.28 -30.8,134.82 -90.73,206.91 -183.2,216.62 -63.39,6.7 -118.8,-9.99 -162.66,-48.72 -45.98,-41.91 -72.65,-97.93 -79.63,-164.73 -11.55,-109.6 61.72,-434.08 221.59,-971.96 296.81,-997.18 583.24,-1846.16 857.79,-2544.97 273.77,-705.67 582.69,-1439.25 926.65,-2202.51 82.81,-183.53 149.16,-309.98 199.33,-375.83 51.95,-66.07 108.65,-103.18 173.71,-109.99 59.93,-6.31 116.46,20.65 165.9,79.52 39.06,42.63 62,95.59 68.3,155.52 9.88,94.19 -30.08,224.72 -121.37,393.63 -300.94,595.97 -596.08,1246.73 -883.57,1953.85 -308.31,756.06 -493.29,1268.88 -553.28,1538.3zm3588.58 855.45c-89.06,206.69 -181.52,380.91 -273.49,527.27 -183.25,282.41 -378.45,434.53 -585.7,456.29 -181.47,19.08 -330.85,-51.78 -448.2,-212.55 -74.83,-102.95 -121.03,-229.68 -136.88,-380.35 -39.01,-371.53 34.37,-793 221.81,-1266.26 209.43,-527.55 484.31,-942.5 824.25,-1249.97 221.48,-198.15 445.19,-309.98 669.51,-333.53 140.4,-14.79 263.05,15.62 366.4,93.02 88.56,68.64 137.16,151.78 147.43,249.44 7.7,73.6 -10.6,179.4 -53.46,315.51 58.76,64.79 89.23,123.88 94.98,178.68 7.42,70.25 -26.84,189.78 -104.02,360.65 -78.63,174.44 -153.4,402.17 -220.7,684.47 -74.22,298.65 -101.23,535.25 -82.87,709.86 14.73,140.4 67.86,250.83 161.32,332.75 26.51,21.43 98.94,51.95 217.68,94.81 88.06,30.58 138.28,96.31 148.88,197.32 6.64,63.34 -11.94,117.24 -53.85,163.22 -46.87,48.16 -102.73,76.56 -169.53,83.54 -181.52,19.08 -345.97,-46.71 -494.85,-195.53 -121.59,-118.8 -193.63,-277.39 -214.34,-474.32 -7.03,-66.74 -11.89,-178.79 -14.4,-334.31zm454.56 -1720.1c-47.1,-69.53 -97.43,-119.58 -147.26,-148.99 -51.73,-30.91 -103.12,-42.8 -156.25,-37.22 -255.13,26.84 -509.08,278.56 -760.08,756.73 -276.95,527.72 -397.59,961.08 -361.6,1303.48 8.82,83.93 30.91,145.7 68.13,186.77 35.32,39.56 85.66,56.75 150.67,49.94 160.93,-16.91 329.57,-207.75 509.36,-572.86 100.28,-199.27 220.08,-492.29 359.81,-875.7 93.08,-250.44 162.16,-416.95 206.97,-501.27 23.21,-42.3 66.13,-95.31 130.24,-160.88zm2320.36 -998.69c-181.97,360.2 -345.81,761.75 -486.82,1198.96 -202.56,625.49 -289.39,1084.68 -258.42,1379.15 8.82,83.93 32.64,145.53 73.27,186.21 38.73,39.23 94.14,55.91 164.34,48.49 167.85,-17.63 355.07,-196.53 560.09,-534.86 130.13,-211.1 243.41,-418.57 341.23,-624.48 51.62,-117.97 116.07,-180.13 189.73,-187.89 44.47,-4.63 83.76,6.75 115.96,32.81 30.64,27.96 47.54,57.36 50.61,86.44 13,123.32 -120.53,417.79 -400.88,880 -334.87,552.83 -662.32,846.96 -984.18,880.78 -171.2,18.02 -321.64,-45.87 -451.22,-191.46 -80.69,-91.96 -131.75,-231.97 -151,-415.22 -42.63,-405.79 26,-889.09 205.63,-1453.31 42.47,-139.45 167.69,-479.84 372.48,-1019 -88.11,35.27 -157.03,54.63 -205.02,59.65 -71.87,7.59 -135.32,-3.07 -193.52,-29.85 -80.41,-40.07 -124.22,-94.31 -131.58,-164.5 -8.82,-83.87 32.14,-155.69 124.55,-215.56 25.89,-16.57 148.77,-50.33 366.4,-104.35 79.02,-22.15 193.97,-65.4 342.85,-131.25 95.81,-224.77 259.26,-531.01 488.38,-920.34 126.22,-215.84 215.12,-358.47 265.28,-424.37 71.65,-92.35 137.55,-140.79 197.48,-147.09 44.47,-4.69 89.79,14.79 137.5,56.53 45.59,38.45 70.87,80.8 75.33,123.66 9.21,87.27 -66.96,268.46 -226.61,544.91 -107.42,180.91 -183.92,325.72 -234.82,434.92 356.18,-136.1 614.83,-211.77 772.41,-228.34 181.47,-19.08 280.35,48.49 296.53,202.56 8.09,77.06 -16.8,136.77 -76.17,181.13 -32.25,22.43 -116.12,48.55 -255.07,77.01 -56.86,2.51 -300.22,92.19 -732.07,265.67 -119.3,50.61 -236.94,101 -352.67,153.01zm4131.64 -3564.19c73.6,-7.76 133.37,17.13 180.74,72.77 37.72,46.2 60.82,100.95 67.52,164.28 14.34,136.99 -59.54,406.18 -220.2,803.94 -659.75,1629.09 -1267.6,2994.79 -1821.72,4096.93 -88.17,182.36 -143.02,302.45 -164.5,361.82 -70.03,173.54 -152.12,265.28 -244.64,274.99 -66.74,7.03 -130.86,-26.06 -188.56,-97.88 -49.5,-58.87 -78.96,-125.05 -86.66,-198.66 -9.77,-92.46 24.33,-229.29 104.52,-405.68 22.32,-50.84 119.64,-244.58 293.41,-584.81 217.07,-471.19 434.53,-938.98 649.03,-1401.25 71.54,-159.87 283.64,-661.7 634.47,-1507.05 122.93,-296.81 222.99,-530.68 296.81,-701.15 86.21,-201.22 168.24,-408.92 242.74,-622.7 57.7,-158.48 143.97,-243.69 257.02,-255.57zm-2635.59 6301.51c73.6,-7.76 138.84,20.03 197.26,81.36 37.05,39.45 59.93,92.41 66.96,159.15 16.57,157.59 -8.82,328.17 -77.96,510.25 -71.54,192.74 -181.64,297.82 -328.95,313.27 -154.01,16.24 -240.28,-63 -258.48,-235.93 -18.36,-174.66 16.24,-356.58 104.96,-549.43 80.52,-172.93 178.06,-266.29 296.2,-278.68z"/>
  <g id="_180318688">
   <path class="fil2" d="M19692.84 13823.02c1492.32,249.21 775.82,-600.54 429.9,-1160.4 -167.69,-271.31 -362.43,-545.02 -524.82,-816.16 -177.39,-296.2 -295.86,-646.52 -103.68,-1022.29 153.73,-300.49 1212.52,-982.34 1653.36,-997.63 725.59,-25.11 987.03,672.53 1351.42,1244.67 737.15,1157.5 1484.22,2245.53 644.12,3905.59 -282.86,558.91 -762.54,1058.18 -1290.98,1339.25 -945.01,502.55 -1165.09,264.95 -2159.32,418.01 -168.02,475.55 -241.85,800.31 -766.83,907.57 -711.92,145.48 -1300.47,-740.21 -1949.61,-1327.59 -870.62,-787.81 -897.69,-1253.09 -22.77,-2043.7l849.14 -828.66c252.11,-229.51 552.66,-657.13 1154.43,-518.23 483.08,111.49 576.99,437.88 735.64,899.59zm-9705.99 -2520.08c-123.99,-167.35 -222.71,-208.76 -321.81,-437.77 -260.65,-602.27 22.82,-1092.38 790.99,-1299.02 580.84,-156.19 1883.1,-637.65 2409.37,-389.55 629,296.64 695.74,1418.27 868.28,2214.34 255.18,1177.48 -139.62,1617.31 -1322.62,1400.07 -138.22,390.17 -480.18,556.57 -290.67,986.69 1355.32,435.59 3255.61,-797.13 3252.31,1441.81 -0.73,483.47 69.92,1373.07 -848.47,1483.55 -511.09,61.49 -1726.35,29.52 -2274.21,3.85 -1440.42,-67.41 -2326.84,-934.74 -2788.6,-1887.51 -653.05,-1347.62 -89.23,-2570.97 525.43,-3516.48zm6158.15 -4586.71c-1014.2,1291.76 -1084.18,2753.61 -2598.65,1891.08 -497.98,-283.59 -1220.56,-543.62 -1042.77,-1359.34 64.01,-293.63 703.83,-1267.38 889.6,-1573.51 369.74,-609.41 623.87,-954.1 1189.37,-1328.37 1752.24,-1159.74 4097.66,-279.07 4760.7,1544.21 1210.24,-230.13 1561.62,396.75 1201.48,1508.72 -130.13,401.78 -244.92,783.52 -373.76,1193.38 -497.7,1582.83 -1334.34,987.59 -3016.38,380.79 -1087.81,-392.4 -1056.61,-1121.12 -342.68,-1787.23 -71.71,-141.4 -174.1,-307.47 -291.29,-479.95l-375.6 10.21zm2764.77 12921.53c628.22,-531.85 1337.13,-557.13 2830.78,-2201.17 3530.04,-3885.56 2795.13,-10494.42 -1750.01,-13482.85 -197.32,-129.8 -865.27,-489.27 -1024.86,-657.07 -254.46,-186.55 -1620.21,-380.46 -2036.11,-409.59 -4771.14,-334.31 -9129.5,3380.83 -9186.42,8471.76 -35.55,3178.32 1637.01,5607.05 3293.5,6865.67 1623.62,1233.67 3551.36,1932.2 5747.45,1815.47 470.08,-25 1820.6,-202.84 2125.67,-402.22z"/>
   <path class="fil3" d="M20812.45 25362.05c590.55,88.06 1518.77,440.45 1725.01,880.84 -125.89,485.7 -1057.9,722.47 -1644.93,927.71 -362.04,45.59 -888.48,210.99 -1333.34,282.64 -1443.49,232.53 -3000.59,280.91 -4454.51,207.92 -1229.71,-61.77 -4732.35,-488.21 -4970.8,-1418.27 66.13,-692.62 3704.65,-1421.89 4019.43,-1279.49 620.69,656.73 933.51,1770.1 2182.25,1770.04 1253.09,-0.11 1562.68,-1133.23 2182.25,-1771.72 478,-8.43 1923.11,221.42 2294.64,400.32zm-3677.53 3286.91l-1620.55 0c-1337.35,-45.87 -2639.33,-205.74 -3733.83,-480.96 -1017.1,-255.74 -2607.24,-719.29 -2607.24,-1981.09 0,-1424.63 3403.43,-2126.28 4308.54,-2126.28l-1111.02 -1518.82c-89.45,-119.3 -196.03,-286.49 -290.73,-380.74 -173.27,-172.48 -820.35,-376.11 -1295.33,-663.15 -1381.88,-834.91 -2558.64,-1733.16 -3522.06,-3024.64 -582.02,-780.34 -1055.33,-1483.5 -1438.97,-2421.92 -716.11,-1751.91 -958.96,-2861.36 -958.96,-4860.36 0,-1765.91 508.64,-3291.38 1046.96,-4548.54 599.98,-1401.08 1810.67,-2935.58 2998.3,-3940.13 799.98,-676.6 1563.57,-1142.94 2519.46,-1621.22 1685.95,-843.56 3310.18,-1081.11 5353.71,-1081.11 3470.56,0 7077.21,2102.12 8998.2,4934.52 1788.62,2637.21 2515.73,5993.7 1711.84,9188.76 -342.46,1361.18 -834.19,2527.39 -1588.63,3671.16l-847.97 1110.52c-118.58,146.87 -144.03,190.29 -285.43,330.07 -1123.18,1110.46 -1438.97,1400.02 -2919.73,2284.04 -459.31,274.21 -969.23,443.01 -1134.79,543.85 -242.96,147.93 -1335.62,1711.28 -1527.42,1997.72 676.15,0 2011.83,365.62 2650.88,594.46 952.32,341.06 1657.6,765.77 1657.6,1755.65 0,945.68 -1869.37,1573.17 -2607.41,1757.1 -1101.53,274.43 -2411.43,435.09 -3755.43,481.13zm2614.16 -7289.15c-347.09,184.59 -1018.28,317.23 -1454.04,407.36 -633.63,131.02 -740.49,696.41 -207.03,939.99 321.25,78.57 628.89,-59.37 943.06,-110.77 -116.63,260.21 -499.32,716.67 -678.05,964.2 -221.65,307.08 -427.95,574.59 -663.93,902.88 -445.97,620.46 -1026.65,1704.08 -1763.57,1172.4 -262.55,-180.74 -947.18,-1178.82 -1177.15,-1499.4 -225.72,-314.61 -994.23,-1290.03 -1106.28,-1541.92 379.01,60.55 937.31,291.4 1178.6,-49.83 268.63,-379.84 29.63,-689.99 -532.46,-795.68 -782.46,-147.21 -1540.42,-398.82 -2211.27,-702.6 -1452.75,-657.8 -1614.58,-889.09 -2667.62,-1697.95 -669.74,-514.55 -1520.94,-1604.2 -1999,-2366.57 -4518.46,-7204.83 1135.8,-16713.06 9793.94,-15998.85 595.19,49.11 1879.19,245.31 2320.98,481.96 962.08,196.2 2230.35,957.12 2913.32,1440.14 2568.18,1816.14 4347.99,4886.42 4400.39,8397.43 40.9,2738.49 -893.28,4720.47 -2098.88,6446.04 -973.02,1392.6 -3369.67,3289.87 -4991,3611.18z"/>
   <path class="fil3" d="M18909.77 19637.76c-305.07,199.38 -1655.59,377.22 -2125.67,402.22 -2196.09,116.74 -4123.83,-581.79 -5747.45,-1815.47 -1656.49,-1258.62 -3329.04,-3687.35 -3293.5,-6865.67 56.92,-5090.94 4415.29,-8806.07 9186.42,-8471.76 415.89,29.13 1781.65,223.04 2036.11,409.59 781.29,165.17 1873.33,799.42 2394.08,1191.32 3981.65,2996.46 4765.22,8316.63 1726.91,12278.64 -934.52,1218.66 -2722.75,2579.17 -4176.9,2871.13zm6378.51 -4859.64c109.04,-475.15 303.17,-917 405.51,-1446.06 104.74,-541.67 167.69,-1060.13 182.42,-1637.46 45.14,-1773.5 -258.59,-2002.74 -466.67,-3238.87 -234.65,-486.93 -406.41,-988.37 -654.11,-1486.9 -618.62,-1245 -1900.4,-2656.79 -3077.1,-3415.42 -6695.08,-4316.4 -14692.97,447.03 -14886.38,7635.12 -134.32,4992.5 3441.82,8786.26 7644.44,9627.82 2535.7,507.8 5227.09,-123.16 6998.25,-1281.66 488.99,-319.8 835.69,-608.13 1249.3,-933.4 198.77,-156.3 334.42,-363.89 528.72,-533.8 816.72,-714.32 1615.36,-2152.57 2075.61,-3289.37z"/>
   <path class="fil4" d="M15925.53 25635.88c237.55,-140.01 377.89,-444.69 568.18,-690.16 194.97,-251.56 376.22,-498.7 548.14,-738.32 201.61,-281.02 974.81,-1253.2 1046.18,-1500.24 -533.47,-243.58 -426.61,-808.96 207.03,-939.99 435.76,-90.12 1106.95,-222.76 1454.04,-407.36 66.68,-83.59 1330.66,-792 1857.48,-1204.77 1603.42,-1256.22 3040.49,-3113.76 3680.87,-5113.82 2.62,-8.15 31.64,-119.47 31.75,-121.48 11.16,-159.65 32.7,-48.94 -30.91,-141.63 -460.26,1136.8 -1258.9,2575.04 -2075.61,3289.37 -194.3,169.92 -329.96,377.5 -528.72,533.8 -413.61,325.27 -760.3,613.6 -1249.3,933.4 -1771.16,1158.51 -4462.55,1789.46 -6998.25,1281.66 -4202.62,-841.55 -7778.76,-4635.31 -7644.44,-9627.82 193.41,-7188.09 8191.3,-11951.53 14886.38,-7635.12 1176.7,758.63 2458.47,2170.42 3077.1,3415.42 247.71,498.54 419.46,999.97 654.11,1486.9 170.92,-201.22 -719.85,-1970.37 -857.06,-2234.71 -399.82,-770.35 -827.94,-1320.33 -1325.13,-1920.76 -718.95,-868.22 -1650.01,-1632.99 -2633.41,-2235.93l-1068.67 -599.31c-441.79,-236.66 -1725.79,-432.86 -2320.98,-481.96 -8658.14,-714.21 -14312.4,8794.02 -9793.94,15998.85 478.06,762.37 1329.26,1852.02 1999,2366.57 1053.04,808.85 1214.87,1040.15 2667.62,1697.95 670.85,303.79 1428.81,555.4 2211.27,702.6 562.09,105.69 801.09,415.84 532.46,795.68 -241.29,341.23 -799.59,110.38 -1178.6,49.83 112.05,251.89 880.56,1227.31 1106.28,1541.92 229.96,320.58 914.6,1318.66 1177.15,1499.4z"/>
   <path class="fil3" d="M12163.91 14760.49l2247.99 23.83c77.68,271.2 66.63,713.71 11.05,984.91 -341.01,36.94 -2211.16,101.11 -2362.66,-66.8 -585.81,0.95 -1178.76,-456.74 -1398.34,-739.71 -982.62,-1266.04 -444.69,-2141.8 118.8,-3116.16 103.79,-179.52 345.81,-494.35 351.5,-713.1 11.66,-447.7 -324.32,-401.72 -520.97,-629.11l1831.93 -476.22 417.57 1841.3c-725.59,-263.5 -671.58,-660.81 -1593.48,1024.19 -476.72,871.29 70.14,1797.39 896.63,1866.86zm-2177.06 -3457.55c-614.66,945.51 -1178.48,2168.86 -525.43,3516.48 461.76,952.77 1348.18,1820.1 2788.6,1887.51 547.87,25.67 1763.12,57.64 2274.21,-3.85 918.39,-110.49 847.75,-1000.09 848.47,-1483.55 3.29,-2238.95 -1896.99,-1006.22 -3252.31,-1441.81 -189.5,-430.12 152.45,-596.52 290.67,-986.69 1183,217.24 1577.8,-222.59 1322.62,-1400.07 -172.54,-796.07 -239.28,-1917.69 -868.28,-2214.34 -526.27,-248.1 -1828.52,233.36 -2409.37,389.55 -768.17,206.64 -1051.65,696.75 -790.99,1299.02 99.1,229.01 197.82,270.42 321.81,437.77z"/>
   <path class="fil3" d="M20507.1 11182.18c178.57,-121.15 466.06,-307.02 704.33,-380.46 528.67,961.92 1375.58,1806.03 1327.14,2851.6 -53.79,1160.68 -939.15,1957.48 -2052.9,2098.66 -376.78,5.25 -949.86,-30.08 -1298.74,10.77 -519.35,60.77 -426.38,381.69 -484.53,872.69 -25.72,-31.25 -1273.18,-1155.66 -1403.93,-1359.73 147.54,-188.56 1242.21,-1252.14 1421.22,-1337.63 0,1069.67 348.76,867.95 1367.26,864.43 902.32,-3.07 1006.89,-253.62 1403.81,-758.07 103.85,-495.75 104.8,-516.28 0.95,-1006.61 -85.88,-85.1 -1055.5,-1644.99 -1121.34,-1801.18l136.72 -54.46zm-814.26 2640.83c-158.65,-461.71 -252.56,-788.09 -735.64,-899.59 -601.77,-138.89 -902.32,288.72 -1154.43,518.23l-849.14 828.66c-874.92,790.6 -847.86,1255.88 22.77,2043.7 649.15,587.37 1237.69,1473.06 1949.61,1327.59 524.99,-107.25 598.81,-432.02 766.83,-907.57 994.23,-153.07 1214.31,84.54 2159.32,-418.01 528.45,-281.08 1008.12,-780.34 1290.98,-1339.25 840.1,-1660.06 93.02,-2748.09 -644.12,-3905.59 -364.39,-572.14 -625.82,-1269.78 -1351.42,-1244.67 -440.84,15.29 -1499.63,697.14 -1653.36,997.63 -192.18,375.77 -73.71,726.1 103.68,1022.29 162.38,271.14 357.13,544.85 524.82,816.16 345.92,559.86 1062.42,1409.62 -429.9,1160.4z"/>
   <path class="fil3" d="M16036.97 4838.04c314.67,-271.87 1270.73,138.72 1533.55,304.96 402.28,254.4 688.77,618.68 901.59,1133.28 129.8,148.43 260.09,387.55 292.85,567.06 488.49,227.51 436.15,124.27 959.18,-21.09l-584.81 1841.53 -863.37 -342.29c-207.19,3.57 -702.66,-191.79 -909.41,-298.04 509.64,-401.89 895.79,-178.29 284.93,-1280.66 -270.08,-487.43 -492.57,-944.95 -1201.92,-999.92 -755.78,-58.59 -1087.92,376.83 -1365.59,839.82 -154.01,256.8 -653.33,1152.31 -824.53,1318.44l-792.22 -459.08c91.24,-250.05 332.13,-589.6 475.38,-825.7 383.86,-632.52 977.76,-1824.73 2094.36,-1778.3zm108.03 1878.19l375.6 -10.21c117.18,172.48 219.58,338.55 291.29,479.95 -713.93,666.11 -745.13,1394.83 342.68,1787.23 1682.04,606.79 2518.68,1202.03 3016.38,-380.79 128.85,-409.87 243.63,-791.61 373.76,-1193.38 360.15,-1111.97 8.76,-1738.85 -1201.48,-1508.72 -663.04,-1823.28 -3008.46,-2703.95 -4760.7,-1544.21 -565.5,374.26 -819.62,718.95 -1189.37,1328.37 -185.77,306.13 -825.59,1279.88 -889.6,1573.51 -177.79,815.72 544.8,1075.75 1042.77,1359.34 1514.47,862.53 1584.44,-599.31 2598.65,-1891.08z"/>
   <path class="fil5" d="M20892.53 27170.6c200.55,-311.38 709.69,-335.71 692.95,-924.25 -14.12,-495.36 -545.3,-717 -773.03,-884.3 -371.53,-178.9 -1816.64,-408.75 -2294.64,-400.32 -619.57,638.49 -929.16,1771.61 -2182.25,1771.72 -1248.74,0.06 -1561.57,-1113.31 -2182.25,-1770.04 -314.78,-142.41 -3953.3,586.87 -4019.43,1279.49 238.44,930.05 3741.08,1356.49 4970.8,1418.27 1453.92,72.99 3011.03,24.61 4454.51,-207.92 444.85,-71.65 971.29,-237.05 1333.34,-282.64z"/>
   <path class="fil6" d="M25409.54 8455.75c208.09,1236.13 511.82,1465.36 466.67,3238.87 -14.73,577.33 -77.68,1095.79 -182.42,1637.46 -102.34,529.06 -296.48,970.9 -405.51,1446.06 63.61,92.69 42.07,-18.02 30.91,141.63 -0.11,2.01 -29.13,113.33 -31.75,121.48 -640.38,2000.06 -2077.46,3857.6 -3680.87,5113.82 -526.83,412.77 -1790.8,1121.18 -1857.48,1204.77 1621.33,-321.31 4017.97,-2218.58 4991,-3611.18 1205.6,-1725.57 2139.79,-3707.55 2098.88,-6446.04 -52.4,-3511.01 -1832.21,-6581.3 -4400.39,-8397.43 -682.96,-483.02 -1951.23,-1243.94 -2913.32,-1440.14l1068.67 599.31c983.4,602.94 1914.46,1367.71 2633.41,2235.93 497.2,600.43 925.31,1150.42 1325.13,1920.76 137.22,264.33 1027.99,2033.48 857.06,2234.71z"/>
   <path class="fil7" d="M18909.77 19637.76c1454.15,-291.96 3242.38,-1652.47 4176.9,-2871.13 3038.31,-3962 2254.74,-9282.18 -1726.91,-12278.64 -520.75,-391.9 -1612.79,-1026.14 -2394.08,-1191.32 159.59,167.8 827.55,527.27 1024.86,657.07 4545.14,2988.43 5280.05,9597.29 1750.01,13482.85 -1493.65,1644.04 -2202.56,1669.32 -2830.78,2201.17z"/>
   <path class="fil8" d="M12060.28 15702.43c774.64,31.19 1554.53,28.35 2341.51,28.35l-2.12 -893.95c-350.49,0 -2086.33,67.63 -2235.77,-76.34 -826.48,-69.47 -1373.35,-995.57 -896.63,-1866.86 921.91,-1685 867.89,-1287.69 1593.48,-1024.19l-417.57 -1841.3 -1831.93 476.22c196.65,227.39 532.63,181.41 520.97,629.11 -5.69,218.74 -247.71,533.58 -351.5,713.1 -563.49,974.36 -1101.42,1850.12 -118.8,3116.16 219.58,282.97 812.53,740.66 1398.34,739.71z"/>
   <path class="fil8" d="M18275.97 8321.49c172.71,-179.24 466.84,-1240.15 488.99,-1478.14 -32.76,-179.52 -163.05,-418.63 -292.85,-567.06 -401.83,-7.09 -410.03,128.79 -753.44,222.48 -108.7,-325.1 -667.28,-1269.67 -987.81,-1523.73 -262.05,-207.81 -358.08,-43.58 -693.9,-136.99 -1116.6,-46.43 -1710.5,1145.78 -2094.36,1778.3 -143.24,236.1 -384.14,575.65 -475.38,825.7l792.22 459.08c171.2,-166.12 670.52,-1061.63 824.53,-1318.44 277.67,-462.99 609.81,-898.41 1365.59,-839.82 709.36,54.97 931.84,512.49 1201.92,999.92 610.87,1102.37 224.72,878.77 -284.93,1280.66 206.75,106.25 702.21,301.61 909.41,298.04z"/>
   <path class="fil8" d="M20485.68 15751.98c141.79,-190.95 231.24,-207.75 374.99,-372.2 101.28,-115.96 221.03,-259.7 315.56,-413.38 81.3,-132.14 437.88,-788.93 314.56,-921.96 -396.92,504.45 -501.49,755 -1403.81,758.07 -1018.5,3.52 -1367.26,205.24 -1367.26,-864.43 -179.01,85.49 -1273.68,1149.08 -1421.22,1337.63 130.74,204.07 1378.2,1328.48 1403.93,1359.73 58.15,-491 -34.82,-811.92 484.53,-872.69 348.87,-40.85 921.96,-5.52 1298.74,-10.77z"/>
   <path class="fil9" d="M20507.1 11182.18c209.54,119.64 236.77,252.73 361.54,458.36 88.45,145.76 197.76,296.81 283.92,442.4 76.62,129.46 471.47,812.48 339.17,954.89 103.85,490.33 102.9,510.87 -0.95,1006.61 123.32,133.03 -233.25,789.82 -314.56,921.96 -94.53,153.68 -214.28,297.43 -315.56,413.38 -143.75,164.45 -233.2,181.25 -374.99,372.2 1113.75,-141.18 1999.11,-937.98 2052.9,-2098.66 48.44,-1045.56 -798.47,-1889.68 -1327.14,-2851.6 -238.27,73.44 -525.77,259.31 -704.33,380.46z"/>
   <path class="fil6" d="M18088.03 22707.16c-71.37,247.04 -844.56,1219.22 -1046.18,1500.24 -171.93,239.61 -353.17,486.76 -548.14,738.32 -190.29,245.47 -330.63,550.15 -568.18,690.16 736.92,531.68 1317.6,-551.94 1763.57,-1172.4 235.99,-328.28 442.29,-595.8 663.93,-902.88 178.73,-247.54 561.42,-704 678.05,-964.2 -314.17,51.39 -621.8,189.34 -943.06,110.77z"/>
   <path class="fil9" d="M18275.97 8321.49l863.37 342.29 584.81 -1841.53c-523.03,145.36 -470.69,248.6 -959.18,21.09 -22.15,238 -316.29,1298.91 -488.99,1478.14z"/>
   <path class="fil9" d="M18472.11 6276.29c-212.83,-514.61 -499.32,-878.88 -901.59,-1133.28 -262.83,-166.23 -1218.89,-576.83 -1533.55,-304.96 335.82,93.41 431.85,-70.81 693.9,136.99 320.53,254.07 879.11,1198.63 987.81,1523.73 343.41,-93.69 351.61,-229.57 753.44,-222.48z"/>
   <path class="fil10" d="M20892.53 27170.6c587.04,-205.24 1519.04,-442.01 1644.93,-927.71 -206.24,-440.39 -1134.46,-792.78 -1725.01,-880.84 227.73,167.29 758.91,388.94 773.03,884.3 16.74,588.54 -492.4,612.87 -692.95,924.25z"/>
   <path class="fil8" d="M21491.73 13037.83c132.31,-142.41 -262.55,-825.42 -339.17,-954.89 -86.16,-145.59 -195.47,-296.64 -283.92,-442.4 -124.77,-205.63 -152,-338.72 -361.54,-458.36l-136.72 54.46c65.85,156.19 1035.46,1716.08 1121.34,1801.18z"/>
   <path class="fil11" d="M12060.28 15702.43c151.5,167.91 2021.65,103.74 2362.66,66.8 55.58,-271.2 66.63,-713.71 -11.05,-984.91l-2247.99 -23.83c149.44,143.97 1885.27,76.34 2235.77,76.34l2.12 893.95c-786.98,0 -1566.87,2.85 -2341.51,-28.35z"/>
  </g>
 </g>
</svg>
