<?xml version="1.0" encoding="UTF-8"?>
<!DOCTYPE svg PUBLIC "-//W3C//DTD SVG 1.1//EN" "http://www.w3.org/Graphics/SVG/1.1/DTD/svg11.dtd">
<!-- Creator: CorelDRAW 2019 (64-Bit) -->
<svg xmlns="http://www.w3.org/2000/svg" xml:space="preserve" width="46.4414mm" height="51.3403mm" version="1.1" style="shape-rendering:geometricPrecision; text-rendering:geometricPrecision; image-rendering:optimizeQuality; fill-rule:evenodd; clip-rule:evenodd"
viewBox="0 0 731.21 808.34"
 xmlns:xlink="http://www.w3.org/1999/xlink"
 xmlns:xodm="http://www.corel.com/coreldraw/odm/2003">
 <defs>
  <style type="text/css">
   <![CDATA[
    .fil2 {fill:black}
    .fil10 {fill:#345C0C}
    .fil9 {fill:#35464D}
    .fil0 {fill:#39CF17}
    .fil8 {fill:#539214}
    .fil4 {fill:#5F7A89}
    .fil7 {fill:#60A817}
    .fil5 {fill:#C81E1E}
    .fil3 {fill:#F34235}
    .fil6 {fill:#FEC108}
    .fil1 {fill:#FFDB00}
   ]]>
  </style>
 </defs>
 <g id="Layer_x0020_1">
  <g id="_1063956496">
   <path class="fil1" d="M460.15 390.02c42.11,7.03 21.89,-16.94 12.13,-32.74 -4.73,-7.66 -10.23,-15.38 -14.81,-23.03 -5.01,-8.36 -8.35,-18.24 -2.93,-28.84 4.34,-8.48 34.21,-27.72 46.65,-28.15 20.47,-0.71 27.85,18.98 38.13,35.12 20.8,32.66 41.88,63.36 18.17,110.2 -7.98,15.77 -21.52,29.86 -36.43,37.79 -26.66,14.18 -32.87,7.48 -60.93,11.79 -4.74,13.42 -6.82,22.58 -21.64,25.61 -20.09,4.1 -36.69,-20.89 -55.01,-37.46 -24.57,-22.23 -25.33,-35.36 -0.64,-57.66l23.96 -23.38c7.11,-6.48 15.59,-18.54 32.57,-14.62 13.63,3.15 16.28,12.35 20.76,25.38zm-273.86 -71.11c-3.5,-4.72 -6.28,-5.89 -9.08,-12.35 -7.35,-16.99 0.64,-30.82 22.32,-36.65 16.39,-4.41 53.13,-17.99 67.98,-10.99 17.75,8.37 19.63,40.02 24.5,62.48 7.2,33.22 -3.94,45.63 -37.32,39.5 -3.9,11.01 -13.55,15.7 -8.2,27.84 38.24,12.29 91.86,-22.49 91.77,40.68 -0.02,13.64 1.97,38.74 -23.94,41.86 -14.42,1.74 -48.71,0.83 -64.17,0.11 -40.64,-1.9 -65.65,-26.37 -78.68,-53.26 -18.43,-38.02 -2.52,-72.54 14.83,-99.22zm173.75 -129.42c-28.62,36.45 -30.59,77.69 -73.32,53.36 -14.05,-8 -34.44,-15.34 -29.42,-38.35 1.81,-8.28 19.86,-35.76 25.1,-44.4 10.43,-17.19 17.6,-26.92 33.56,-37.48 49.44,-32.72 115.62,-7.87 134.33,43.57 34.15,-6.49 44.06,11.19 33.9,42.57 -3.67,11.34 -6.91,22.11 -10.55,33.67 -14.04,44.66 -37.65,27.87 -85.11,10.74 -30.69,-11.07 -29.81,-31.63 -9.67,-50.43 -2.02,-3.99 -4.91,-8.68 -8.22,-13.54l-10.6 0.29zm78.01 364.59c17.73,-15.01 37.73,-15.72 79.87,-62.11 99.6,-109.63 78.87,-296.1 -49.38,-380.42 -5.57,-3.66 -24.41,-13.81 -28.92,-18.54 -7.18,-5.26 -45.72,-10.73 -57.45,-11.56 -134.62,-9.43 -257.59,95.39 -259.2,239.03 -1,89.68 46.19,158.21 92.93,193.72 45.81,34.81 100.2,54.52 162.17,51.22 13.26,-0.71 51.37,-5.72 59.98,-11.35z"/>
   <path class="fil2" d="M491.74 715.6c16.66,2.48 42.85,12.43 48.67,24.85 -3.55,13.7 -29.85,20.38 -46.41,26.18 -10.22,1.29 -25.07,5.95 -37.62,7.97 -40.73,6.56 -84.66,7.93 -125.69,5.87 -34.7,-1.74 -133.53,-13.78 -140.25,-40.02 1.87,-19.54 104.53,-40.12 113.41,-36.1 17.51,18.53 26.34,49.94 61.57,49.94 35.36,-0 44.09,-31.97 61.57,-49.99 13.49,-0.24 54.26,6.25 64.74,11.3zm-103.76 92.74l-45.72 0c-37.73,-1.29 -74.47,-5.81 -105.35,-13.57 -28.7,-7.22 -73.56,-20.3 -73.56,-55.9 0,-40.2 96.03,-59.99 121.57,-59.99l-31.35 -42.85c-2.52,-3.37 -5.53,-8.08 -8.2,-10.74 -4.89,-4.87 -23.15,-10.61 -36.55,-18.71 -38.99,-23.56 -72.19,-48.9 -99.38,-85.34 -16.42,-22.02 -29.78,-41.86 -40.6,-68.34 -20.21,-49.43 -27.06,-80.73 -27.06,-137.14 0,-49.83 14.35,-92.87 29.54,-128.34 16.93,-39.53 51.09,-82.83 84.6,-111.17 22.57,-19.09 44.12,-32.25 71.09,-45.74 47.57,-23.8 93.4,-30.5 151.06,-30.5 97.92,0 199.69,59.31 253.89,139.23 50.47,74.41 70.98,169.11 48.3,259.26 -9.66,38.41 -23.54,71.31 -44.82,103.58l-23.93 31.33c-3.35,4.14 -4.06,5.37 -8.05,9.31 -31.69,31.33 -40.6,39.5 -82.38,64.45 -12.96,7.74 -27.35,12.5 -32.02,15.34 -6.86,4.17 -37.69,48.28 -43.1,56.37 19.08,0 56.76,10.32 74.8,16.77 26.87,9.62 46.77,21.61 46.77,49.54 0,26.68 -52.75,44.39 -73.57,49.58 -31.08,7.74 -68.04,12.28 -105.96,13.58zm73.76 -205.67c-9.79,5.21 -28.73,8.95 -41.03,11.49 -17.88,3.7 -20.89,19.65 -5.84,26.52 9.06,2.22 17.74,-1.68 26.61,-3.13 -3.29,7.34 -14.09,20.22 -19.13,27.21 -6.25,8.66 -12.07,16.21 -18.73,25.48 -12.58,17.51 -28.97,48.08 -49.76,33.08 -7.41,-5.1 -26.73,-33.26 -33.21,-42.31 -6.37,-8.88 -28.05,-36.4 -31.21,-43.51 10.69,1.71 26.45,8.22 33.25,-1.41 7.58,-10.72 0.84,-19.47 -15.02,-22.45 -22.08,-4.15 -43.46,-11.25 -62.39,-19.82 -40.99,-18.56 -45.56,-25.09 -75.27,-47.91 -18.9,-14.52 -42.91,-45.26 -56.4,-66.77 -127.49,-203.29 32.05,-471.57 276.34,-451.41 16.79,1.39 53.02,6.92 65.49,13.6 27.15,5.54 62.93,27.01 82.2,40.63 72.46,51.24 122.68,137.87 124.16,236.94 1.15,77.27 -25.2,133.19 -59.22,181.88 -27.45,39.29 -95.08,92.83 -140.82,101.89z"/>
   <path class="fil2" d="M438.06 554.09c-8.61,5.63 -46.71,10.64 -59.98,11.35 -61.96,3.29 -116.36,-16.42 -162.17,-51.22 -46.74,-35.51 -93.93,-104.04 -92.93,-193.72 1.61,-143.64 124.58,-248.47 259.2,-239.03 11.73,0.82 50.27,6.29 57.45,11.56 22.04,4.66 52.86,22.56 67.55,33.61 112.34,84.55 134.45,234.66 48.73,346.45 -26.37,34.39 -76.82,72.77 -117.85,81.01zm179.97 -137.12c3.08,-13.41 8.55,-25.87 11.44,-40.8 2.96,-15.28 4.73,-29.91 5.15,-46.2 1.27,-50.04 -7.3,-56.51 -13.17,-91.39 -6.62,-13.74 -11.47,-27.89 -18.46,-41.95 -17.45,-35.13 -53.62,-74.96 -86.82,-96.37 -188.9,-121.79 -414.57,12.61 -420.03,215.43 -3.79,140.87 97.11,247.91 215.69,271.65 71.55,14.33 147.48,-3.47 197.46,-36.16 13.8,-9.02 23.58,-17.16 35.25,-26.34 5.61,-4.41 9.44,-10.27 14.92,-15.06 23.04,-20.15 45.58,-60.74 58.56,-92.81z"/>
   <path class="fil3" d="M353.86 723.33c6.7,-3.95 10.66,-12.55 16.03,-19.47 5.5,-7.1 10.62,-14.07 15.47,-20.83 5.69,-7.93 27.5,-35.36 29.52,-42.33 -15.05,-6.87 -12.04,-22.83 5.84,-26.52 12.3,-2.54 31.23,-6.29 41.03,-11.49 1.88,-2.36 37.55,-22.35 52.41,-33.99 45.24,-35.44 85.79,-87.86 103.86,-144.29 0.07,-0.23 0.89,-3.37 0.9,-3.43 0.31,-4.5 0.92,-1.38 -0.87,-4 -12.99,32.08 -35.52,72.66 -58.56,92.81 -5.48,4.79 -9.31,10.65 -14.92,15.06 -11.67,9.18 -21.45,17.31 -35.25,26.34 -49.97,32.69 -125.91,50.49 -197.46,36.16 -118.58,-23.74 -219.48,-130.79 -215.69,-271.65 5.46,-202.82 231.12,-337.22 420.03,-215.43 33.2,21.41 69.37,61.24 86.82,96.37 6.99,14.07 11.84,28.21 18.46,41.95 4.82,-5.68 -20.31,-55.59 -24.18,-63.05 -11.28,-21.74 -23.36,-37.25 -37.39,-54.2 -20.29,-24.5 -46.56,-46.08 -74.3,-63.09l-30.15 -16.91c-12.47,-6.68 -48.69,-12.21 -65.49,-13.6 -244.29,-20.15 -403.83,248.13 -276.34,451.41 13.49,21.51 37.51,52.26 56.4,66.77 29.71,22.82 34.28,29.35 75.27,47.91 18.93,8.57 40.31,15.67 62.39,19.82 15.86,2.98 22.6,11.73 15.02,22.45 -6.81,9.63 -22.56,3.11 -33.25,1.41 3.16,7.11 24.85,34.63 31.21,43.51 6.49,9.05 25.81,37.21 33.21,42.31z"/>
   <path class="fil2" d="M247.72 416.47l63.43 0.67c2.19,7.65 1.88,20.14 0.31,27.79 -9.62,1.04 -62.39,2.85 -66.66,-1.88 -16.53,0.03 -33.26,-12.89 -39.45,-20.87 -27.73,-35.72 -12.55,-60.43 3.35,-87.92 2.93,-5.07 9.76,-13.95 9.92,-20.12 0.33,-12.63 -9.15,-11.33 -14.7,-17.75l51.69 -13.44 11.78 51.95c-20.47,-7.43 -18.95,-18.64 -44.96,28.9 -13.45,24.58 1.98,50.71 25.3,52.67zm-61.43 -97.56c-17.34,26.68 -33.25,61.2 -14.83,99.22 13.03,26.88 38.04,51.35 78.68,53.26 15.46,0.72 49.75,1.63 64.17,-0.11 25.91,-3.12 23.92,-28.22 23.94,-41.86 0.09,-63.17 -53.52,-28.39 -91.77,-40.68 -5.35,-12.14 4.3,-16.83 8.2,-27.84 33.38,6.13 44.52,-6.28 37.32,-39.5 -4.87,-22.46 -6.75,-54.11 -24.5,-62.48 -14.85,-7 -51.59,6.58 -67.98,10.99 -21.67,5.83 -29.67,19.66 -22.32,36.65 2.8,6.46 5.58,7.63 9.08,12.35z"/>
   <path class="fil2" d="M483.13 315.51c5.04,-3.42 13.15,-8.66 19.87,-10.73 14.92,27.14 38.81,50.96 37.45,80.46 -1.52,32.75 -26.5,55.23 -57.92,59.21 -10.63,0.15 -26.8,-0.85 -36.64,0.3 -14.65,1.71 -12.03,10.77 -13.67,24.62 -0.73,-0.88 -35.92,-32.61 -39.61,-38.37 4.16,-5.32 35.05,-35.33 40.1,-37.74 0,30.18 9.84,24.49 38.58,24.39 25.46,-0.09 28.41,-7.16 39.61,-21.39 2.93,-13.99 2.96,-14.57 0.03,-28.4 -2.42,-2.4 -29.78,-46.41 -31.64,-50.82l3.86 -1.54zm-22.97 74.51c-4.48,-13.03 -7.13,-22.24 -20.76,-25.38 -16.98,-3.92 -25.46,8.15 -32.57,14.62l-23.96 23.38c-24.69,22.31 -23.92,35.44 0.64,57.66 18.32,16.57 34.92,41.56 55.01,37.46 14.81,-3.03 16.9,-12.19 21.64,-25.61 28.05,-4.32 34.26,2.39 60.93,-11.79 14.91,-7.93 28.44,-22.02 36.43,-37.79 23.7,-46.84 2.62,-77.54 -18.17,-110.2 -10.28,-16.14 -17.66,-35.83 -38.13,-35.12 -12.44,0.43 -42.31,19.67 -46.65,28.15 -5.42,10.6 -2.08,20.49 2.93,28.84 4.58,7.65 10.08,15.37 14.81,23.03 9.76,15.8 29.98,39.77 -12.13,32.74z"/>
   <path class="fil2" d="M357 136.51c8.88,-7.67 35.85,3.91 43.27,8.6 11.35,7.18 19.43,17.46 25.44,31.98 3.66,4.19 7.34,10.93 8.26,16 13.78,6.42 12.31,3.51 27.06,-0.6l-16.5 51.96 -24.36 -9.66c-5.85,0.1 -19.83,-5.41 -25.66,-8.41 14.38,-11.34 25.28,-5.03 8.04,-36.13 -7.62,-13.75 -13.9,-26.66 -33.91,-28.21 -21.32,-1.65 -30.7,10.63 -38.53,23.7 -4.35,7.25 -18.43,32.51 -23.26,37.2l-22.35 -12.95c2.57,-7.06 9.37,-16.64 13.41,-23.3 10.83,-17.85 27.59,-51.49 59.09,-50.18zm3.05 52.99l10.6 -0.29c3.31,4.87 6.2,9.55 8.22,13.54 -20.14,18.79 -21.02,39.36 9.67,50.43 47.46,17.12 71.07,33.92 85.11,-10.74 3.64,-11.56 6.87,-22.34 10.55,-33.67 10.16,-31.37 0.25,-49.06 -33.9,-42.57 -18.71,-51.44 -84.88,-76.29 -134.33,-43.57 -15.96,10.56 -23.13,20.29 -33.56,37.48 -5.24,8.64 -23.29,36.11 -25.1,44.4 -5.02,23.02 15.37,30.35 29.42,38.35 42.73,24.34 44.71,-16.91 73.32,-53.36z"/>
   <path class="fil4" d="M494 766.63c5.66,-8.79 20.02,-9.47 19.55,-26.08 -0.4,-13.98 -15.39,-20.23 -21.81,-24.95 -10.48,-5.05 -51.26,-11.53 -64.74,-11.3 -17.48,18.02 -26.22,49.99 -61.57,49.99 -35.23,0 -44.06,-31.41 -61.57,-49.94 -8.88,-4.02 -111.54,16.56 -113.41,36.1 6.73,26.24 105.56,38.27 140.25,40.02 41.02,2.06 84.96,0.69 125.69,-5.87 12.55,-2.02 27.41,-6.69 37.62,-7.97z"/>
   <path class="fil5" d="M621.45 238.58c5.87,34.88 14.44,41.35 13.17,91.39 -0.42,16.29 -2.19,30.92 -5.15,46.2 -2.89,14.93 -8.37,27.39 -11.44,40.8 1.79,2.62 1.19,-0.51 0.87,4 -0,0.06 -0.82,3.2 -0.9,3.43 -18.07,56.43 -58.62,108.84 -103.86,144.29 -14.86,11.65 -50.53,31.63 -52.41,33.99 45.75,-9.07 113.37,-62.6 140.82,-101.89 34.02,-48.69 60.38,-104.61 59.22,-181.88 -1.48,-99.06 -51.7,-185.69 -124.16,-236.94 -19.27,-13.63 -55.05,-35.1 -82.2,-40.63l30.15 16.91c27.75,17.01 54.02,38.59 74.3,63.09 14.03,16.94 26.11,32.46 37.39,54.2 3.87,7.46 29.01,57.38 24.18,63.05z"/>
   <path class="fil6" d="M438.06 554.09c41.03,-8.24 91.49,-46.63 117.85,-81.01 85.73,-111.79 63.62,-261.9 -48.73,-346.45 -14.69,-11.06 -45.51,-28.95 -67.55,-33.61 4.5,4.73 23.35,14.88 28.92,18.54 128.24,84.32 148.98,270.79 49.38,380.42 -42.14,46.39 -62.15,47.1 -79.87,62.11z"/>
   <path class="fil7" d="M244.8 443.05c21.86,0.88 43.86,0.8 66.07,0.8l-0.06 -25.22c-9.89,0 -58.87,1.91 -63.08,-2.15 -23.32,-1.96 -38.75,-28.09 -25.3,-52.67 26.01,-47.54 24.49,-36.33 44.96,-28.9l-11.78 -51.95 -51.69 13.44c5.55,6.42 15.03,5.12 14.7,17.75 -0.16,6.17 -6.99,15.06 -9.92,20.12 -15.9,27.49 -31.08,52.2 -3.35,87.92 6.2,7.98 22.93,20.9 39.45,20.87z"/>
   <path class="fil7" d="M420.18 234.79c4.87,-5.06 13.17,-34.99 13.8,-41.71 -0.92,-5.07 -4.6,-11.81 -8.26,-16 -11.34,-0.2 -11.57,3.63 -21.26,6.28 -3.07,-9.17 -18.83,-35.82 -27.87,-42.99 -7.39,-5.86 -10.1,-1.23 -19.58,-3.87 -31.51,-1.31 -48.26,32.33 -59.09,50.18 -4.04,6.66 -10.84,16.24 -13.41,23.3l22.35 12.95c4.83,-4.69 18.92,-29.95 23.26,-37.2 7.83,-13.06 17.21,-25.35 38.53,-23.7 20.01,1.55 26.29,14.46 33.91,28.21 17.24,31.1 6.34,24.79 -8.04,36.13 5.83,3 19.81,8.51 25.66,8.41z"/>
   <path class="fil7" d="M482.52 444.45c4,-5.39 6.52,-5.86 10.58,-10.5 2.86,-3.27 6.24,-7.33 8.9,-11.66 2.29,-3.73 12.35,-22.26 8.88,-26.01 -11.2,14.23 -14.15,21.3 -39.61,21.39 -28.74,0.1 -38.58,5.79 -38.58,-24.39 -5.05,2.41 -35.94,32.42 -40.1,37.74 3.69,5.76 38.89,37.48 39.61,38.37 1.64,-13.85 -0.98,-22.91 13.67,-24.62 9.84,-1.15 26.01,-0.16 36.64,-0.3z"/>
   <path class="fil8" d="M483.13 315.51c5.91,3.38 6.68,7.13 10.2,12.93 2.5,4.11 5.58,8.37 8.01,12.48 2.16,3.65 13.3,22.92 9.57,26.94 2.93,13.83 2.9,14.41 -0.03,28.4 3.48,3.75 -6.58,22.29 -8.88,26.01 -2.67,4.34 -6.05,8.39 -8.9,11.66 -4.06,4.64 -6.58,5.11 -10.58,10.5 31.43,-3.98 56.41,-26.47 57.92,-59.21 1.37,-29.5 -22.53,-53.32 -37.45,-80.46 -6.72,2.07 -14.83,7.32 -19.87,10.73z"/>
   <path class="fil5" d="M414.87 640.69c-2.01,6.97 -23.83,34.4 -29.52,42.33 -4.85,6.76 -9.96,13.73 -15.47,20.83 -5.37,6.93 -9.33,15.52 -16.03,19.47 20.79,15 37.18,-15.57 49.76,-33.08 6.66,-9.26 12.48,-16.81 18.73,-25.48 5.04,-6.98 15.84,-19.86 19.13,-27.21 -8.86,1.45 -17.54,5.34 -26.61,3.13z"/>
   <path class="fil8" d="M420.18 234.79l24.36 9.66 16.5 -51.96c-14.76,4.1 -13.28,7.01 -27.06,0.6 -0.63,6.72 -8.92,36.65 -13.8,41.71z"/>
   <path class="fil8" d="M425.71 177.09c-6.01,-14.52 -14.09,-24.8 -25.44,-31.98 -7.42,-4.69 -34.39,-16.28 -43.27,-8.6 9.48,2.64 12.18,-2 19.58,3.87 9.04,7.17 24.8,33.82 27.87,42.99 9.69,-2.64 9.92,-6.48 21.26,-6.28z"/>
   <path class="fil9" d="M494 766.63c16.56,-5.79 42.86,-12.47 46.41,-26.18 -5.82,-12.43 -32.01,-22.37 -48.67,-24.85 6.43,4.72 21.41,10.97 21.81,24.95 0.47,16.61 -13.89,17.29 -19.55,26.08z"/>
   <path class="fil7" d="M510.91 367.87c3.73,-4.02 -7.41,-23.29 -9.57,-26.94 -2.43,-4.11 -5.52,-8.37 -8.01,-12.48 -3.52,-5.8 -4.29,-9.56 -10.2,-12.93l-3.86 1.54c1.86,4.41 29.22,48.42 31.64,50.82z"/>
   <path class="fil10" d="M244.8 443.05c4.27,4.74 57.04,2.93 66.66,1.88 1.57,-7.65 1.88,-20.14 -0.31,-27.79l-63.43 -0.67c4.22,4.06 53.19,2.15 63.08,2.15l0.06 25.22c-22.2,0 -44.21,0.08 -66.07,-0.8z"/>
  </g>
 </g>
</svg>
