<?xml version="1.0" encoding="UTF-8"?>
<!DOCTYPE svg PUBLIC "-//W3C//DTD SVG 1.1//EN" "http://www.w3.org/Graphics/SVG/1.1/DTD/svg11.dtd">
<!-- Creator: CorelDRAW 2019 (64-Bit) -->
<svg xmlns="http://www.w3.org/2000/svg" xml:space="preserve" width="24px" height="24px" version="1.1" style="shape-rendering:geometricPrecision; text-rendering:geometricPrecision; image-rendering:optimizeQuality; fill-rule:evenodd; clip-rule:evenodd"
viewBox="0 0 78.14 78.14"
 xmlns:xlink="http://www.w3.org/1999/xlink"
 xmlns:xodm="http://www.corel.com/coreldraw/odm/2003">
 <defs>
  <style type="text/css">
   <![CDATA[
    .fil0 {fill:#E6E6E6}
   ]]>
  </style>
 </defs>
 <g id="Layer_x0020_1">
  <metadata id="CorelCorpID_0Corel-Layer"/>
  <path class="fil0" d="M2.49 2.49l0 0c3.31,-3.32 8.73,-3.32 12.05,0l24.53 24.53 24.54 -24.53c3.31,-3.32 8.73,-3.32 12.05,0l0 0c3.31,3.31 3.31,8.73 0,12.05l-24.54 24.53 24.54 24.54c3.31,3.31 3.31,8.73 0,12.05l0 0c-3.32,3.31 -8.74,3.31 -12.05,0l-24.54 -24.54 -24.53 24.54c-3.32,3.31 -8.74,3.31 -12.05,0l0 0c-3.32,-3.32 -3.32,-8.74 0,-12.05l24.53 -24.54 -24.53 -24.53c-3.32,-3.32 -3.32,-8.74 0,-12.05z"/>
 </g>
</svg>
