<?xml version="1.0" encoding="UTF-8"?>
<!DOCTYPE svg PUBLIC "-//W3C//DTD SVG 1.1//EN" "http://www.w3.org/Graphics/SVG/1.1/DTD/svg11.dtd">
<!-- Creator: CorelDRAW 2019 (64-Bit) -->
<svg xmlns="http://www.w3.org/2000/svg" xml:space="preserve" width="72px" height="48px" version="1.1" style="shape-rendering:geometricPrecision; text-rendering:geometricPrecision; image-rendering:optimizeQuality; fill-rule:evenodd; clip-rule:evenodd"
viewBox="0 0 4.46 2.99"
 xmlns:xlink="http://www.w3.org/1999/xlink"
 xmlns:xodm="http://www.corel.com/coreldraw/odm/2003">
 <defs>
  <style type="text/css">
   <![CDATA[
    .fil0 {fill:#5F7A89;fill-rule:nonzero}
   ]]>
  </style>
 </defs>
 <g id="Layer_x0020_1">
  <metadata id="CorelCorpID_0Corel-Layer"/>
  <path class="fil0" d="M4.4 1.25c0.02,0 0.04,0.01 0.05,0.02 0,0.01 0.01,0.03 0.01,0.04 0,0.04 -0.02,0.1 -0.06,0.19 -0.18,0.38 -0.35,0.7 -0.49,0.95 -0.03,0.04 -0.04,0.07 -0.05,0.08 -0.02,0.04 -0.04,0.06 -0.06,0.07 -0.02,0 -0.03,-0.01 -0.04,-0.03 -0.02,-0.01 -0.02,-0.03 -0.02,-0.05 0,-0.02 0.01,-0.05 0.03,-0.09 0,-0.02 0.03,-0.06 0.08,-0.14 0.05,-0.11 0.11,-0.22 0.17,-0.32 0.02,-0.04 0.08,-0.16 0.17,-0.35 0.04,-0.07 0.06,-0.13 0.08,-0.16 0.03,-0.05 0.05,-0.1 0.07,-0.15 0.02,-0.04 0.04,-0.06 0.06,-0.06zm-0.71 1.46c0.02,0 0.03,0.01 0.04,0.03 0.01,0.01 0.02,0.02 0.02,0.04 0,0.03 -0.01,0.07 -0.03,0.12 -0.02,0.04 -0.05,0.06 -0.08,0.07 -0.04,0 -0.06,-0.02 -0.06,-0.06 0,-0.05 0.01,-0.09 0.03,-0.13 0.03,-0.04 0.05,-0.06 0.08,-0.07z"/>
  <path class="fil0" d="M0.53 0.96c0.05,-0.06 0.09,-0.1 0.12,-0.14 0.06,-0.05 0.1,-0.07 0.12,-0.08 0.01,0 0.02,0.01 0.02,0.01 0.01,0.01 0.02,0.02 0.02,0.02 0,0.02 -0.01,0.04 -0.03,0.06 -0.03,0.05 -0.05,0.08 -0.06,0.11 0.13,-0.15 0.22,-0.23 0.27,-0.23 0.02,0 0.02,0 0.03,0.01 0.01,0 0.02,0.01 0.02,0.02 0,0.02 -0.01,0.04 -0.04,0.07 -0.1,0.13 -0.15,0.23 -0.15,0.31 0.01,0.03 0.01,0.05 0.02,0.06l0.03 0.03c0.01,0 0.01,0.01 0.01,0.02 0,0.01 0,0.02 -0.01,0.03 -0.01,0.01 -0.02,0.01 -0.03,0.01 -0.02,0.01 -0.04,-0.01 -0.06,-0.03 -0.02,-0.03 -0.03,-0.06 -0.04,-0.11 0,-0.05 0.01,-0.11 0.04,-0.17 0.01,-0.02 0.02,-0.05 0.04,-0.08 -0.04,0.04 -0.09,0.1 -0.14,0.17 -0.03,0.05 -0.06,0.11 -0.09,0.16 -0.01,0.03 -0.02,0.05 -0.04,0.05 -0.02,0 -0.03,-0.01 -0.03,-0.03 -0.01,-0.03 0.01,-0.08 0.03,-0.16 0.02,-0.05 0.04,-0.1 0.07,-0.15 -0.1,0.09 -0.17,0.21 -0.21,0.35 -0.01,0.03 -0.03,0.05 -0.05,0.05 -0.01,0 -0.02,0 -0.03,-0.01 0,-0.01 -0.01,-0.02 -0.01,-0.03 0,-0.03 0.01,-0.1 0.05,-0.2 0.03,-0.1 0.07,-0.19 0.12,-0.27 0.03,-0.06 0.06,-0.09 0.08,-0.09 0.01,0 0.02,0 0.03,0.02 0,0.01 -0.01,0.03 -0.03,0.07 -0.04,0.07 -0.06,0.12 -0.07,0.15zm0.72 0.1c-0.01,0.03 -0.03,0.06 -0.05,0.09 -0.03,0.05 -0.07,0.08 -0.11,0.08 -0.03,0 -0.05,-0.01 -0.08,-0.04 -0.01,-0.02 -0.02,-0.04 -0.02,-0.07 0,-0.07 0.01,-0.14 0.05,-0.23 0.04,-0.09 0.09,-0.17 0.15,-0.22 0.04,-0.04 0.09,-0.06 0.13,-0.06 0.02,0 0.04,0.01 0.06,0.02 0.02,0.01 0.03,0.03 0.03,0.05 0,0.01 -0.01,0.03 -0.01,0.05 0.01,0.01 0.01,0.03 0.01,0.04 0,0.01 0,0.03 -0.02,0.06 -0.01,0.03 -0.03,0.07 -0.04,0.12 -0.02,0.06 -0.02,0.1 -0.02,0.13 0,0.03 0.01,0.05 0.03,0.06 0,0.01 0.02,0.01 0.04,0.02 0.01,0.01 0.02,0.02 0.02,0.04 0,0.01 0,0.02 -0.01,0.03 -0.01,0 -0.02,0.01 -0.03,0.01 -0.03,0 -0.06,-0.01 -0.09,-0.04 -0.02,-0.02 -0.03,-0.05 -0.03,-0.08 -0.01,-0.02 -0.01,-0.04 -0.01,-0.06zm0.1 -0.31c-0.01,-0.02 -0.02,-0.03 -0.03,-0.03 -0.01,-0.01 -0.02,-0.01 -0.03,-0.01 -0.04,0 -0.09,0.05 -0.14,0.13 -0.05,0.1 -0.08,0.18 -0.07,0.24 0,0.01 0,0.02 0.01,0.03 0.01,0.01 0.02,0.01 0.03,0.01 0.03,0 0.06,-0.03 0.09,-0.1 0.02,-0.03 0.04,-0.09 0.07,-0.16 0.02,-0.04 0.03,-0.07 0.04,-0.09 0.01,0 0.01,-0.01 0.03,-0.02zm0.36 -0.17c-0.03,0.07 -0.07,0.14 -0.09,0.22 -0.04,0.11 -0.06,0.19 -0.06,0.24 0,0.02 0.01,0.03 0.01,0.04 0.01,0.01 0.02,0.01 0.03,0.01 0.03,0 0.07,-0.04 0.11,-0.1 0.02,-0.03 0.04,-0.07 0.06,-0.11 0.01,-0.02 0.02,-0.03 0.04,-0.03 0.01,0 0.01,0 0.02,0.01 0,0 0.01,0.01 0.01,0.01 0,0.02 -0.03,0.08 -0.08,0.16 -0.06,0.1 -0.12,0.15 -0.18,0.15 -0.03,0.01 -0.06,-0.01 -0.08,-0.03 -0.02,-0.02 -0.02,-0.05 -0.03,-0.08 0,-0.07 0.01,-0.16 0.05,-0.26 0.01,-0.03 0.03,-0.09 0.07,-0.18 -0.02,0 -0.03,0.01 -0.04,0.01 -0.01,0 -0.02,0 -0.03,-0.01 -0.02,-0.01 -0.02,-0.02 -0.03,-0.03 0,-0.02 0.01,-0.03 0.03,-0.04 0,0 0.02,-0.01 0.06,-0.02 0.02,0 0.04,-0.01 0.07,-0.02 0.02,-0.04 0.05,-0.09 0.09,-0.16 0.02,-0.04 0.04,-0.07 0.05,-0.08 0.01,-0.01 0.03,-0.02 0.04,-0.02 0,0 0.01,0 0.02,0.01 0.01,0.01 0.01,0.01 0.01,0.02 0.01,0.02 -0.01,0.05 -0.04,0.1 -0.02,0.03 -0.03,0.06 -0.04,0.08 0.06,-0.03 0.11,-0.04 0.14,-0.04 0.03,0 0.05,0.01 0.05,0.04 0,0.01 0,0.02 -0.02,0.03 0,0 -0.02,0.01 -0.04,0.01 -0.01,0 -0.06,0.02 -0.14,0.05 -0.02,0 -0.04,0.01 -0.06,0.02zm0.39 -0.01c0.05,0 0.08,0.02 0.08,0.07 0,0.05 -0.01,0.09 -0.04,0.14 -0.03,0.04 -0.05,0.06 -0.07,0.06 -0.01,0 -0.02,-0.01 -0.03,-0.03 0,-0.01 0.01,-0.02 0.01,-0.02 0,-0.01 0.01,-0.01 0.02,-0.03 0.01,-0.01 0.02,-0.02 0.03,-0.05 0.01,-0.01 0.01,-0.02 0.01,-0.03 0,-0.01 -0.01,-0.02 -0.02,-0.01 -0.01,0 -0.03,0.01 -0.05,0.03 -0.04,0.04 -0.08,0.09 -0.12,0.16 -0.03,0.08 -0.05,0.13 -0.05,0.18 0,0.01 0.01,0.02 0.02,0.03 0.01,0.02 0.03,0.02 0.05,0.02 0.03,0 0.08,-0.03 0.13,-0.08 0.04,-0.05 0.07,-0.09 0.1,-0.13 0.01,-0.03 0.02,-0.04 0.04,-0.04 0,0 0.01,0 0.02,0.01 0,0 0,0.01 0,0.02 0.01,0.02 -0.02,0.06 -0.07,0.13 -0.09,0.11 -0.17,0.17 -0.24,0.18 -0.04,0 -0.08,-0.01 -0.11,-0.04 -0.01,-0.03 -0.03,-0.05 -0.03,-0.09 0,-0.06 0.02,-0.13 0.06,-0.22 0.05,-0.09 0.1,-0.15 0.16,-0.21 0.04,-0.03 0.07,-0.04 0.1,-0.05zm0.36 0.17c0.04,-0.05 0.08,-0.09 0.12,-0.13 0.06,-0.04 0.1,-0.07 0.12,-0.07 0.01,0 0.03,0 0.04,0.01 0.01,0.01 0.01,0.02 0.01,0.03 0.01,0.02 -0.01,0.05 -0.03,0.08 -0.04,0.07 -0.08,0.14 -0.1,0.19 -0.02,0.05 -0.03,0.09 -0.03,0.1 0.01,0.02 0.01,0.03 0.03,0.03 0.03,-0.01 0.08,-0.07 0.15,-0.19 0.02,-0.03 0.03,-0.04 0.04,-0.04 0.01,0 0.02,0 0.02,0.02 0,0.02 -0.02,0.07 -0.06,0.14 -0.03,0.06 -0.07,0.11 -0.11,0.14 -0.03,0.03 -0.06,0.04 -0.08,0.04 -0.03,0 -0.05,0 -0.06,-0.03 -0.01,-0.01 -0.02,-0.03 -0.02,-0.04 0,-0.06 0.01,-0.12 0.05,-0.19 0,-0.02 0.03,-0.07 0.07,-0.15 -0.12,0.07 -0.22,0.22 -0.29,0.43 0,0.03 -0.01,0.04 -0.03,0.04 -0.01,0 -0.02,0 -0.03,-0.01 -0.01,-0.01 -0.01,-0.02 -0.01,-0.03 0,-0.02 0.01,-0.08 0.04,-0.17 0.06,-0.18 0.12,-0.33 0.17,-0.46 0.05,-0.13 0.11,-0.26 0.18,-0.39 0.01,-0.04 0.03,-0.06 0.04,-0.07 0.01,-0.01 0.02,-0.02 0.03,-0.02 0.01,0 0.02,0 0.03,0.02 0,0 0.01,0.01 0.01,0.02 0,0.02 -0.01,0.04 -0.02,0.07 -0.06,0.11 -0.12,0.23 -0.17,0.35 -0.06,0.14 -0.1,0.23 -0.11,0.28z"/>
  <path class="fil0" d="M0.98 1.6c-0.04,0.06 -0.07,0.1 -0.09,0.13 -0.05,0.05 -0.09,0.08 -0.13,0.08 -0.01,0 -0.03,0 -0.04,-0.01 -0.01,-0.01 -0.01,-0.03 -0.01,-0.04 -0.01,-0.05 0.02,-0.13 0.08,-0.22 0.05,-0.1 0.1,-0.14 0.12,-0.15 0.01,0 0.02,0.01 0.03,0.01 0,0.01 0.01,0.01 0.01,0.02 0,0.01 -0.01,0.02 -0.01,0.03 -0.01,0.01 -0.02,0.03 -0.04,0.06 -0.03,0.03 -0.05,0.06 -0.07,0.1 -0.03,0.04 -0.04,0.07 -0.04,0.09 0,0.01 0.01,0.01 0.02,0.01 0.02,0 0.05,-0.03 0.1,-0.09 0.04,-0.04 0.06,-0.07 0.08,-0.09 0,-0.01 0.02,-0.03 0.04,-0.08 0.03,-0.04 0.04,-0.06 0.05,-0.07 0.01,-0.02 0.03,-0.03 0.04,-0.03 0.01,0 0.02,0.01 0.02,0.01 0.01,0.01 0.01,0.02 0.01,0.02 0,0.02 0,0.04 -0.02,0.08 -0.02,0.04 -0.04,0.08 -0.06,0.12 -0.02,0.06 -0.04,0.11 -0.06,0.15 0.03,-0.02 0.06,-0.04 0.08,-0.07 0.04,-0.05 0.07,-0.08 0.08,-0.11 0,-0.02 0.01,-0.03 0.02,-0.03 0.02,0 0.02,0.01 0.02,0.02 0.01,0.03 -0.01,0.07 -0.05,0.12 -0.05,0.07 -0.11,0.13 -0.19,0.18 -0.03,0.1 -0.06,0.19 -0.1,0.26 -0.06,0.12 -0.12,0.19 -0.2,0.2 -0.03,0 -0.05,-0.01 -0.07,-0.03 -0.02,-0.02 -0.03,-0.04 -0.03,-0.07 -0.01,-0.08 0.04,-0.16 0.14,-0.25 0.03,-0.03 0.08,-0.06 0.14,-0.1 0.02,-0.02 0.04,-0.03 0.06,-0.04 0,-0.02 0.01,-0.05 0.03,-0.09 0.02,-0.05 0.03,-0.08 0.04,-0.12zm-0.11 0.31c-0.05,0.03 -0.1,0.07 -0.15,0.12 -0.05,0.06 -0.08,0.11 -0.07,0.15 0,0.01 0,0.02 0.01,0.03 0,0 0.01,0.01 0.03,0.01 0.03,-0.01 0.07,-0.05 0.11,-0.13 0.01,-0.01 0.02,-0.06 0.05,-0.13 0.01,-0.02 0.01,-0.04 0.02,-0.05zm0.58 -0.62c0.04,0 0.06,0.02 0.06,0.07 0.01,0.07 -0.02,0.15 -0.07,0.26 -0.06,0.11 -0.12,0.17 -0.18,0.18 -0.03,0 -0.05,-0.01 -0.06,-0.04 -0.01,-0.01 -0.02,-0.02 -0.02,-0.04 0,-0.07 0.01,-0.14 0.05,-0.21 0.04,-0.08 0.08,-0.13 0.13,-0.18 0.03,-0.02 0.06,-0.03 0.09,-0.04zm-0.06 0.29c-0.01,-0.01 -0.02,-0.02 -0.02,-0.02 0,-0.01 0.01,-0.02 0.02,-0.04 0.04,-0.05 0.06,-0.09 0.06,-0.12 0,-0.01 0,-0.01 0,-0.01 -0.01,-0.01 -0.02,-0.01 -0.02,-0.01 -0.02,0 -0.04,0.01 -0.07,0.05 -0.04,0.04 -0.06,0.08 -0.08,0.13 -0.02,0.05 -0.03,0.09 -0.03,0.12 0,0.01 0,0.02 0.01,0.02 0.01,0.01 0.02,0.01 0.03,0.01 0.02,0 0.04,-0.02 0.07,-0.06 0.01,-0.01 0.02,-0.03 0.02,-0.04 0.01,-0.02 0.01,-0.03 0.01,-0.03zm0.31 0.06c-0.02,0.03 -0.04,0.06 -0.05,0.08 -0.03,0.03 -0.05,0.05 -0.08,0.05 -0.03,0 -0.05,-0.01 -0.06,-0.03 -0.01,-0.01 -0.02,-0.03 -0.02,-0.05 0,-0.06 0.02,-0.14 0.07,-0.23 0.02,-0.04 0.04,-0.07 0.06,-0.09 0.02,-0.02 0.04,-0.03 0.05,-0.03 0.01,0 0.01,0 0.02,0.01 0,0 0.01,0.01 0.01,0.01 0,0.01 -0.01,0.03 -0.03,0.05 -0.03,0.05 -0.06,0.1 -0.08,0.14 -0.02,0.05 -0.03,0.09 -0.03,0.12 0,0.01 0.01,0.01 0.01,0.02 0,0 0.01,0 0.01,0 0.03,0 0.06,-0.04 0.1,-0.12 0.02,-0.04 0.04,-0.08 0.05,-0.13 0.01,-0.02 0.02,-0.04 0.03,-0.07 0.01,-0.01 0.03,-0.02 0.04,-0.02 0.01,-0.01 0.01,0 0.02,0 0.01,0.01 0.01,0.02 0.01,0.03 0,0.01 -0.01,0.06 -0.04,0.12 -0.02,0.05 -0.03,0.08 -0.03,0.11 0,0.03 0.01,0.06 0.03,0.08 0.01,0 0.02,0.01 0.05,0.02 0.01,0.01 0.01,0.02 0.01,0.03 0.01,0.01 0,0.02 0,0.03 -0.01,0 -0.02,0.01 -0.03,0.01 -0.03,0 -0.05,-0.01 -0.07,-0.03 -0.02,-0.01 -0.04,-0.04 -0.04,-0.07 0,0 -0.01,-0.02 -0.01,-0.04zm0.27 -0.15c0.04,-0.06 0.09,-0.11 0.15,-0.17 0.02,-0.02 0.05,-0.03 0.07,-0.05 0.01,-0.01 0.02,-0.01 0.02,-0.02 0.01,0 0.02,0.01 0.03,0.02 0,0 0.01,0.01 0.01,0.02 0,0 -0.01,0.02 -0.03,0.03 -0.05,0.05 -0.07,0.08 -0.07,0.1 0,0.01 0.01,0.02 0.02,0.02 0.02,-0.01 0.06,-0.03 0.11,-0.07 0.01,0 0.01,-0.01 0.02,-0.01 0,0 0.01,0.01 0.01,0.01 0.01,0 0.01,0.01 0.01,0.01 0,0.02 -0.02,0.04 -0.06,0.08 -0.04,0.03 -0.08,0.05 -0.12,0.05 -0.01,0.01 -0.03,0 -0.04,0 -0.01,-0.01 -0.02,-0.02 -0.02,-0.04 0,-0.01 0,-0.03 0.01,-0.04 -0.04,0.03 -0.08,0.08 -0.13,0.15 -0.02,0.04 -0.05,0.1 -0.08,0.16 -0.01,0.02 -0.02,0.04 -0.04,0.04 -0.02,0 -0.02,-0.01 -0.03,-0.02 0,-0.02 0.01,-0.07 0.04,-0.14 0.03,-0.12 0.07,-0.2 0.11,-0.27 0.03,-0.04 0.05,-0.06 0.07,-0.06 0.01,0 0.01,0 0.02,0.01 0,0 0.01,0.01 0.01,0.01 0,0.01 -0.01,0.02 -0.01,0.04 -0.01,0 -0.02,0.02 -0.04,0.05 -0.02,0.03 -0.03,0.06 -0.04,0.09z"/>
  <path class="fil0" d="M0.5 2.58c-0.07,0.11 -0.13,0.19 -0.17,0.23 -0.04,0.06 -0.08,0.1 -0.12,0.13 -0.04,0.03 -0.07,0.05 -0.11,0.05 -0.03,0 -0.06,-0.02 -0.07,-0.05 -0.02,-0.02 -0.03,-0.05 -0.03,-0.08 0,-0.1 0.05,-0.25 0.17,-0.43 0.1,-0.17 0.18,-0.26 0.23,-0.26 0.02,0 0.03,0 0.04,0.02 0.01,0.01 0.02,0.02 0.02,0.03 0,0.03 -0.02,0.06 -0.05,0.09 -0.08,0.09 -0.14,0.18 -0.19,0.28 -0.05,0.08 -0.07,0.14 -0.07,0.16 0,0.02 0.01,0.03 0.03,0.03 0.05,0 0.17,-0.13 0.35,-0.39 0.06,-0.08 0.09,-0.13 0.1,-0.14 0.03,-0.02 0.05,-0.04 0.08,-0.04 0.02,0 0.03,0.01 0.04,0.02 0.01,0 0.02,0.01 0.02,0.02 0,0.02 -0.02,0.06 -0.06,0.15 -0.1,0.19 -0.14,0.31 -0.14,0.37 0,0.03 0.01,0.04 0.03,0.04 0.03,0 0.08,-0.04 0.14,-0.12 0.05,-0.08 0.1,-0.18 0.14,-0.29 0.02,-0.05 0.03,-0.12 0.05,-0.2 0.01,-0.09 0.05,-0.14 0.11,-0.14 0.03,0 0.04,0.01 0.05,0.05 0,0.12 -0.06,0.3 -0.19,0.52 -0.13,0.23 -0.25,0.35 -0.35,0.36 -0.07,0 -0.11,-0.04 -0.11,-0.13 0,-0.08 0.02,-0.17 0.06,-0.28zm0.93 0.12c-0.02,0.05 -0.05,0.1 -0.08,0.14 -0.06,0.08 -0.11,0.12 -0.17,0.12 -0.05,0 -0.09,-0.02 -0.13,-0.07 -0.01,-0.03 -0.03,-0.06 -0.03,-0.11 0,-0.1 0.03,-0.22 0.09,-0.35 0.06,-0.14 0.15,-0.25 0.25,-0.34 0.06,-0.05 0.13,-0.07 0.19,-0.08 0.04,0 0.08,0.01 0.1,0.03 0.03,0.03 0.04,0.05 0.04,0.08 0,0.02 -0.01,0.05 -0.02,0.08 0.02,0.02 0.02,0.04 0.02,0.06 0,0.02 -0.01,0.05 -0.03,0.1 -0.03,0.04 -0.05,0.11 -0.07,0.18 -0.03,0.09 -0.04,0.15 -0.04,0.2 0,0.04 0.02,0.07 0.04,0.1 0.01,0 0.03,0.01 0.06,0.03 0.02,0.01 0.04,0.03 0.04,0.06 0,0.01 -0.01,0.03 -0.02,0.04 -0.01,0.01 -0.03,0.02 -0.05,0.02 -0.05,0 -0.1,-0.02 -0.13,-0.06 -0.04,-0.04 -0.05,-0.08 -0.06,-0.14 0,-0.02 0,-0.05 0,-0.09zm0.16 -0.48c-0.01,-0.02 -0.02,-0.03 -0.04,-0.04 -0.01,-0.01 -0.03,-0.02 -0.04,-0.01 -0.07,0 -0.15,0.07 -0.23,0.2 -0.08,0.14 -0.12,0.26 -0.12,0.36 0,0.02 0.01,0.04 0.02,0.05 0,0.01 0.02,0.02 0.04,0.02 0.04,-0.01 0.09,-0.06 0.15,-0.16 0.03,-0.05 0.07,-0.13 0.12,-0.24 0.03,-0.07 0.05,-0.11 0.06,-0.13 0.01,-0.02 0.02,-0.03 0.04,-0.05zm0.7 -0.27c0.06,0 0.11,0.01 0.14,0.03 0.03,0.02 0.04,0.05 0.05,0.09 0,0.06 -0.02,0.11 -0.06,0.17 -0.04,0.05 -0.09,0.09 -0.17,0.12 -0.05,0.02 -0.08,0.03 -0.11,0.03 -0.04,0 -0.06,-0.01 -0.06,-0.05 0,-0.02 0.01,-0.04 0.03,-0.05 0,-0.01 0.04,-0.02 0.09,-0.03 0.04,-0.01 0.07,-0.03 0.1,-0.06 0.02,-0.02 0.03,-0.04 0.03,-0.07 0,-0.02 0,-0.03 -0.02,-0.04 -0.01,-0.01 -0.03,-0.02 -0.05,-0.01 -0.05,0 -0.11,0.02 -0.18,0.07 -0.07,0.05 -0.11,0.11 -0.1,0.18 0,0.05 0.03,0.11 0.08,0.18 0.06,0.08 0.09,0.15 0.09,0.2 0.01,0.09 -0.03,0.15 -0.1,0.2 -0.04,0.04 -0.09,0.05 -0.15,0.05 -0.09,0.01 -0.16,-0.02 -0.21,-0.08 -0.04,-0.05 -0.06,-0.1 -0.06,-0.16 0,-0.08 0.01,-0.14 0.05,-0.19 0.02,-0.04 0.05,-0.05 0.07,-0.06 0.03,0 0.04,0.01 0.04,0.03 0,0.01 0,0.02 -0.01,0.04 -0.02,0.04 -0.03,0.09 -0.03,0.14 0,0.05 0.02,0.09 0.06,0.12 0.03,0.02 0.06,0.04 0.1,0.03 0.04,0 0.06,-0.01 0.08,-0.04 0.02,-0.02 0.03,-0.05 0.03,-0.08 -0.01,-0.04 -0.03,-0.09 -0.08,-0.15 -0.06,-0.08 -0.1,-0.16 -0.1,-0.23 -0.01,-0.1 0.04,-0.18 0.14,-0.26 0.1,-0.07 0.2,-0.11 0.31,-0.12zm0.52 0.01c-0.06,0.09 -0.11,0.2 -0.16,0.32 -0.06,0.18 -0.1,0.3 -0.09,0.39 0,0.02 0,0.04 0.02,0.05 0.01,0.01 0.02,0.02 0.04,0.02 0.05,-0.01 0.1,-0.05 0.17,-0.14 0.04,-0.06 0.07,-0.12 0.1,-0.17 0.02,-0.04 0.04,-0.05 0.06,-0.05 0.01,0 0.02,0 0.03,0.01 0.01,0.01 0.01,0.01 0.01,0.02 0.01,0.04 -0.04,0.12 -0.12,0.24 -0.11,0.15 -0.2,0.23 -0.29,0.23 -0.05,0.01 -0.09,-0.01 -0.13,-0.06 -0.02,-0.02 -0.03,-0.06 -0.03,-0.12 -0.01,-0.11 0.02,-0.25 0.08,-0.4 0.01,-0.04 0.05,-0.13 0.12,-0.28 -0.03,0.01 -0.04,0.01 -0.06,0.01 -0.02,0 -0.04,0 -0.05,-0.01 -0.02,-0.01 -0.04,-0.03 -0.04,-0.05 0,-0.02 0.02,-0.04 0.04,-0.06 0.01,0 0.04,-0.01 0.11,-0.02 0.02,0 0.05,-0.01 0.1,-0.03 0.03,-0.06 0.08,-0.14 0.15,-0.25 0.04,-0.06 0.06,-0.1 0.08,-0.11 0.02,-0.03 0.04,-0.04 0.06,-0.04 0.01,0 0.02,0 0.03,0.02 0.02,0.01 0.02,0.02 0.02,0.03 0,0.03 -0.02,0.08 -0.07,0.15 -0.03,0.05 -0.06,0.09 -0.07,0.12 0.1,-0.03 0.17,-0.05 0.22,-0.05 0.05,0 0.08,0.02 0.08,0.06 0,0.02 -0.01,0.04 -0.03,0.05 -0.01,0 -0.03,0.01 -0.07,0.02 -0.01,0 -0.08,0.02 -0.21,0.06 -0.03,0.01 -0.07,0.02 -0.1,0.04zm0.24 0.63l0 0.02c0,0.02 0,0.04 0.01,0.05 0.03,0.04 0.07,0.05 0.12,0.05 0.12,0 0.25,-0.1 0.4,-0.29 0.03,-0.03 0.05,-0.05 0.07,-0.05 0.01,0 0.02,0 0.03,0.01 0,0.01 0.01,0.02 0.01,0.03 0,0.03 -0.04,0.1 -0.13,0.19 -0.07,0.07 -0.14,0.13 -0.22,0.18 -0.08,0.05 -0.15,0.07 -0.22,0.07 -0.07,0.01 -0.13,-0.01 -0.17,-0.06 -0.03,-0.03 -0.05,-0.08 -0.05,-0.14 -0.01,-0.16 0.06,-0.32 0.2,-0.48 0.12,-0.13 0.22,-0.2 0.31,-0.2 0.03,0 0.05,0.01 0.07,0.02 0.03,0.02 0.04,0.04 0.04,0.08 0,0.05 -0.02,0.11 -0.06,0.18 -0.09,0.16 -0.23,0.27 -0.41,0.34zm0.02 -0.11c0.07,-0.03 0.12,-0.06 0.15,-0.09 0.07,-0.05 0.12,-0.11 0.15,-0.18 0.02,-0.02 0.02,-0.04 0.02,-0.06 0,-0.02 -0.01,-0.03 -0.03,-0.03 -0.02,0 -0.05,0.02 -0.1,0.06 -0.08,0.07 -0.14,0.17 -0.19,0.3z"/>
 </g>
</svg>
