<?xml version="1.0" encoding="UTF-8"?>
<!DOCTYPE svg PUBLIC "-//W3C//DTD SVG 1.1//EN" "http://www.w3.org/Graphics/SVG/1.1/DTD/svg11.dtd">
<!-- Creator: CorelDRAW 2019 (64-Bit) -->
<svg xmlns="http://www.w3.org/2000/svg" xml:space="preserve" width="20px" height="24px" version="1.1" style="shape-rendering:geometricPrecision; text-rendering:geometricPrecision; image-rendering:optimizeQuality; fill-rule:evenodd; clip-rule:evenodd"
viewBox="0 0 4.44 5.22"
 xmlns:xlink="http://www.w3.org/1999/xlink"
 xmlns:xodm="http://www.corel.com/coreldraw/odm/2003">
 <defs>
  <style type="text/css">
   <![CDATA[
    .fil0 {fill:#333333}
    .fil1 {fill:#B3B3B3}
   ]]>
  </style>
 </defs>
 <g id="Layer_x0020_1">
  <metadata id="CorelCorpID_0Corel-Layer"/>
  <g id="_1072424784">
   <path class="fil0" d="M0.31 1.51c0.03,0 0.05,0 0.08,0 0.06,0.72 -0.06,2.19 0.01,2.78 0.05,0.4 0.3,0.69 0.58,0.82 0.33,0.16 0.9,0.11 1.3,0.1 0.41,0 0.98,0.06 1.3,-0.1 0.78,-0.37 0.59,-1.34 0.59,-2.21 0,-0.43 -0.03,-0.97 0,-1.39l-3.86 0z"/>
   <path class="fil1" d="M1.39 2.13c-0.2,0.06 -0.15,0.26 -0.15,0.48l0 1.23c0,0.2 0.02,0.43 0.27,0.35 0.17,-0.05 0.13,-0.28 0.13,-0.48l0 -1.22c0,-0.2 -0.02,-0.43 -0.25,-0.36z"/>
   <path class="fil1" d="M3.07 2.14c-0.19,0.06 -0.15,0.23 -0.15,0.47l0 1.23c0,0.2 0.02,0.42 0.26,0.36 0.19,-0.05 0.14,-0.28 0.14,-0.49l0 -1.22c0,-0.2 -0.02,-0.43 -0.25,-0.35z"/>
   <path class="fil1" d="M2.28 4.2c0.23,-0.04 0.2,-0.19 0.2,-0.41l0 -1.23c0,-0.23 0.05,-0.4 -0.2,-0.44 -0.23,0.04 -0.2,0.19 -0.19,0.41l0 1.23c-0.01,0.24 -0.04,0.4 0.19,0.44z"/>
   <path class="fil0" d="M0.99 1.14c-0.42,0.06 -1.11,-0.05 -0.97,0.34 0.03,0.11 0.12,0.12 0.25,0.12l3.84 -0.31c0.5,-0.04 0.31,-0.38 0.14,-0.4 -0.19,-0.02 -0.62,0.05 -0.85,0.06 -0.03,-0.42 -0.06,-0.64 -0.32,-0.83 -0.28,-0.19 -0.58,-0.11 -0.96,-0.08 -0.37,0.03 -0.71,0.01 -0.94,0.23 -0.23,0.23 -0.22,0.44 -0.19,0.87zm0.4 -0.03c-0.02,-0.26 -0.07,-0.45 0.1,-0.58 0.14,-0.09 0.47,-0.08 0.66,-0.1 0.75,-0.06 0.81,-0.12 0.86,0.55l-1.62 0.13z"/>
  </g>
 </g>
</svg>
