<?xml version="1.0" encoding="UTF-8"?>
<!DOCTYPE svg PUBLIC "-//W3C//DTD SVG 1.1//EN" "http://www.w3.org/Graphics/SVG/1.1/DTD/svg11.dtd">
<!-- Creator: CorelDRAW 2019 (64-Bit) -->
<svg xmlns="http://www.w3.org/2000/svg" xml:space="preserve" width="21px" height="24px" version="1.1" style="shape-rendering:geometricPrecision; text-rendering:geometricPrecision; image-rendering:optimizeQuality; fill-rule:evenodd; clip-rule:evenodd"
viewBox="0 0 34.28 39.53"
 xmlns:xlink="http://www.w3.org/1999/xlink"
 xmlns:xodm="http://www.corel.com/coreldraw/odm/2003">
 <defs>
  <style type="text/css">
   <![CDATA[
    .fil0 {fill:#333333}
    .fil1 {fill:#B3B3B3}
   ]]>
  </style>
 </defs>
 <g id="Layer_x0020_1">
  <metadata id="CorelCorpID_0Corel-Layer"/>
  <g id="_1055874016">
   <path class="fil0" d="M28.54 10.89c0.22,6.04 0.02,12.45 0.03,18.53 0,3.47 -0.38,5.38 -2.85,6.52 -1.83,0.84 -6.28,0.49 -8.61,0.49 -7.72,0 -11.45,1.12 -11.44,-7.2 0,-3.32 -0.17,-16.15 0.04,-18.35l22.83 0.01zm-17.68 -3.07c0,-1.99 -0.27,-3.51 1.13,-4.37 1.1,-0.67 3.64,-0.36 5.13,-0.37 5.81,-0.03 6.26,-0.42 6.26,4.75l-12.52 -0.01zm-3.06 -0.03c-3.3,0.21 -8.52,-1.05 -7.72,2.06 0.26,1 1.19,1.03 2.45,1.03 0.47,5.59 -0.45,16.91 0.11,21.46 0.38,3.05 2.25,5.28 4.45,6.34 2.5,1.19 6.9,0.8 10.03,0.78 3.13,-0.02 7.51,0.42 10.02,-0.79 6.02,-2.89 4.51,-10.36 4.51,-17.02 0,-3.34 -0.22,-7.54 0.04,-10.78 3.86,0 2.62,-2.73 1.29,-3 -1.41,-0.28 -4.82,0.04 -6.55,-0.08 0,-3.24 -0.06,-4.94 -2.01,-6.53 -2.02,-1.65 -4.34,-1.19 -7.3,-1.21 -2.85,-0.01 -5.47,-0.4 -7.34,1.19 -1.91,1.63 -1.98,3.26 -1.98,6.55z"/>
   <path class="fil1" d="M5.63 23.1c0.02,2.63 0.04,4.97 0.04,6.13 -0.01,8.32 3.72,7.2 11.44,7.2 2.33,0 6.78,0.35 8.61,-0.49 2.47,-1.14 2.85,-3.05 2.85,-6.52 -0.01,-2.08 0.02,-4.2 0.04,-6.32 -10.7,1.52 -13.58,-1.26 -22.98,0z"/>
   <path class="fil0" d="M10.25 15.69c-1.53,0.45 -1.16,2.04 -1.16,3.69l0 9.47c-0.01,1.54 0.12,3.32 2.05,2.75 1.33,-0.4 1.03,-2.16 1.03,-3.7l0 -9.47c0.01,-1.5 -0.19,-3.26 -1.92,-2.74z"/>
   <path class="fil0" d="M23.21 15.74c-1.51,0.5 -1.15,1.81 -1.15,3.64l0 9.47c-0.01,1.53 0.1,3.25 1.97,2.76 1.46,-0.39 1.11,-2.14 1.11,-3.71l0 -9.47c0.01,-1.5 -0.18,-3.28 -1.93,-2.69z"/>
   <path class="fil0" d="M17.11 31.68c1.73,-0.31 1.53,-1.47 1.52,-3.21l0 -9.47c0,-1.78 0.36,-3.08 -1.52,-3.38 -1.82,0.29 -1.52,1.46 -1.51,3.19l0 9.47c0,1.79 -0.28,3.08 1.51,3.4z"/>
  </g>
 </g>
</svg>
