<?xml version="1.0" encoding="UTF-8"?>
<!DOCTYPE svg PUBLIC "-//W3C//DTD SVG 1.1//EN" "http://www.w3.org/Graphics/SVG/1.1/DTD/svg11.dtd">
<!-- Creator: CorelDRAW 2019 (64-Bit) -->
<svg xmlns="http://www.w3.org/2000/svg" xml:space="preserve" width="46px" height="28px" version="1.1" style="shape-rendering:geometricPrecision; text-rendering:geometricPrecision; image-rendering:optimizeQuality; fill-rule:evenodd; clip-rule:evenodd"
viewBox="0 0 12.21 7.41"
 xmlns:xlink="http://www.w3.org/1999/xlink"
 xmlns:xodm="http://www.corel.com/coreldraw/odm/2003">
 <defs>
  <style type="text/css">
   <![CDATA[
    .fil0 {fill:#333333}
    .fil1 {fill:#B3B3B3}
    .fil2 {fill:#C0C4FC}
   ]]>
  </style>
 </defs>
 <g id="Layer_x0020_1">
  <metadata id="CorelCorpID_0Corel-Layer"/>
  <g id="_1072461872">
   <g>
    <path class="fil0" d="M1.2 3.15c-0.56,0.31 -0.86,1.07 -1.05,1.65 -0.08,0.25 -0.15,0.57 -0.15,0.85 0.02,0.21 0.01,0.32 0.13,0.51 0.17,0.25 0.42,0.34 0.7,0.36l0.26 0c0.16,-0.01 0.32,-0.04 0.47,-0.06 0.39,-0.08 0.92,-0.08 1.32,-0.01 0.15,0.03 0.31,0.06 0.48,0.07l0.22 0c0.11,-0.01 0.22,-0.03 0.32,-0.06 0.13,-0.04 0.18,-0.07 0.27,-0.15 0.07,-0.06 0.13,-0.12 0.18,-0.22 0.09,-0.17 0.09,-0.24 0.09,-0.38l0 -0.09c0,-0.65 -0.4,-1.58 -0.79,-2.1 -0.13,-0.19 -0.22,-0.25 -0.42,-0.39 -0.07,-0.04 -0.29,-0.15 -0.38,-0.16 0.01,-0.06 0.02,-0.05 0.06,-0.1 0.03,-0.03 0.05,-0.05 0.07,-0.09 0.04,-0.07 0.08,-0.14 0.11,-0.23 0.05,-0.15 0.1,-0.38 -0.06,-0.47 -0.14,-0.09 -0.27,0 -0.53,-0.13 -0.2,-0.11 -0.23,-0.25 -0.4,-0.25 -0.29,0 -0.2,0.3 -0.38,0.44 -0.03,0.03 -0.05,0.03 -0.08,0.06 -0.1,0.07 -0.17,0.14 -0.18,0.27 -0.01,0.12 0.03,0.2 0.08,0.29 0.05,0.09 0.1,0.12 0.14,0.18 -0.11,0.01 -0.39,0.16 -0.48,0.21z"/>
    <path class="fil1" d="M3.08 4.78c0,0.19 0.17,0.12 0.34,0.12 0.42,0 0.74,0.33 0.78,0.77 0.01,0.18 -0.09,0.41 -0.28,0.5 -0.06,0.04 -0.11,0.05 -0.19,0.07 -0.46,0.1 -0.86,-0.1 -1.4,-0.1 -0.63,0 -0.54,0.03 -1.08,0.11 -0.26,0.04 -0.61,0.03 -0.8,-0.11 -0.44,-0.33 -0.06,-1.28 0.1,-1.68 0.16,-0.4 0.49,-0.99 0.9,-1.16 0.06,-0.02 0.11,-0.05 0.18,-0.07 0.13,-0.05 0.47,-0.17 0.6,-0.17 0.27,0.02 0.94,0.26 1.14,0.52 0.18,0.23 0.22,0.28 0.37,0.55 0.03,0.07 0.05,0.09 0.08,0.16 0.06,0.15 0.18,0.41 0.22,0.57 -0.19,-0.1 -0.33,-0.22 -0.64,-0.22 -0.04,0 -0.17,0.01 -0.2,0.02 -0.07,0.02 -0.12,0.05 -0.12,0.12z"/>
    <path class="fil1" d="M2.26 2.81c-0.3,0 -0.24,0.07 -0.37,-0.03 -0.12,-0.09 -0.21,-0.26 -0.12,-0.37 0.02,-0.02 0.3,-0.15 0.33,-0.45 0.09,0.06 0.09,0.11 0.29,0.21 0.18,0.09 0.28,0.11 0.49,0.11 0,0.07 -0.04,0.19 -0.06,0.25 -0.03,0.08 -0.07,0.14 -0.12,0.2 -0.18,0.24 -0.18,0.08 -0.44,0.08z"/>
    <path class="fil0" d="M1.84 3.49c0,0.1 0.08,0.15 0.22,0.11 0.21,-0.06 0.24,-0.04 0.24,-0.19 0,-0.04 -0.07,-0.1 -0.1,-0.1 -0.05,0 -0.28,0.05 -0.31,0.09 -0.03,0.01 -0.05,0.06 -0.05,0.09z"/>
    <path class="fil0" d="M0.49 5.61c0,0.05 -0.02,0.2 0.12,0.2 0.17,0 0.12,-0.24 0.19,-0.55 0.09,-0.42 0.36,-1.03 0.65,-1.37 0.05,-0.05 0.07,-0.05 0.07,-0.14 0,-0.12 -0.15,-0.16 -0.24,-0.05l-0.23 0.31c-0.25,0.4 -0.56,1.1 -0.56,1.6z"/>
   </g>
   <path class="fil2" d="M4.69 2.63c-0.24,0.07 -0.18,0.33 -0.18,0.59l-0.01 1.52c0,0.24 0.02,0.53 0.33,0.44 0.22,-0.07 0.17,-0.35 0.17,-0.59l0 -1.52c0,-0.24 -0.03,-0.52 -0.31,-0.44z"/>
   <path class="fil2" d="M6.77 2.64c-0.25,0.08 -0.19,0.29 -0.19,0.58l0 1.52c0,0.24 0.02,0.52 0.32,0.44 0.23,-0.06 0.18,-0.34 0.18,-0.59l0 -1.52c0,-0.24 -0.03,-0.53 -0.31,-0.43z"/>
   <path class="fil2" d="M5.79 5.19c0.28,-0.05 0.24,-0.23 0.24,-0.51l0 -1.52c0,-0.29 0.06,-0.49 -0.24,-0.54 -0.29,0.04 -0.24,0.23 -0.24,0.51l0 1.52c0,0.28 -0.05,0.49 0.24,0.54z"/>
   <g>
    <path class="fil0" d="M3.36 1.86c0.03,0 0.06,0 0.09,0 0.08,0.9 -0.07,2.71 0.02,3.44 0.06,0.49 0.36,0.84 0.72,1.01 0.4,0.19 1.1,0.13 1.6,0.13 0.5,-0.01 1.2,0.06 1.61,-0.13 0.96,-0.46 0.72,-1.66 0.72,-2.73 0,-0.53 -0.04,-1.2 0,-1.72l-4.76 0z"/>
    <path class="fil1" d="M4.69 2.63c-0.24,0.07 -0.18,0.33 -0.18,0.59l-0.01 1.52c0,0.24 0.02,0.53 0.33,0.44 0.22,-0.07 0.17,-0.35 0.17,-0.59l0 -1.52c0,-0.24 -0.03,-0.52 -0.31,-0.44z"/>
    <path class="fil1" d="M6.77 2.64c-0.25,0.08 -0.19,0.29 -0.19,0.58l0 1.52c0,0.24 0.02,0.52 0.32,0.44 0.23,-0.06 0.18,-0.34 0.18,-0.59l0 -1.52c0,-0.24 -0.03,-0.53 -0.31,-0.43z"/>
    <path class="fil1" d="M5.79 5.19c0.28,-0.05 0.24,-0.23 0.24,-0.51l0 -1.52c0,-0.29 0.06,-0.49 -0.24,-0.54 -0.29,0.04 -0.24,0.23 -0.24,0.51l0 1.52c0,0.28 -0.05,0.49 0.24,0.54z"/>
    <path class="fil0" d="M4.2 1.4c-0.52,0.08 -1.37,-0.06 -1.2,0.43 0.04,0.13 0.15,0.15 0.3,0.14l4.75 -0.37c0.62,-0.05 0.39,-0.47 0.17,-0.5 -0.23,-0.03 -0.77,0.07 -1.05,0.07 -0.04,-0.52 -0.07,-0.79 -0.4,-1.02 -0.34,-0.24 -0.71,-0.13 -1.18,-0.1 -0.45,0.04 -0.88,0.01 -1.15,0.28 -0.29,0.29 -0.28,0.55 -0.24,1.07zm0.49 -0.03c-0.02,-0.32 -0.09,-0.56 0.13,-0.71 0.16,-0.12 0.57,-0.1 0.81,-0.12 0.93,-0.08 0.99,-0.15 1.06,0.67l-2 0.16z"/>
   </g>
   <g>
    <path class="fil0" d="M8.37 3.42c-0.67,0.37 -1.02,1.27 -1.24,1.96 -0.1,0.3 -0.18,0.67 -0.18,1 0.02,0.25 0.01,0.38 0.15,0.6 0.2,0.3 0.5,0.41 0.83,0.43l0.3 0c0.19,-0.01 0.39,-0.04 0.56,-0.08 0.47,-0.08 1.09,-0.08 1.56,0 0.19,0.04 0.38,0.07 0.57,0.08l0.27 0c0.13,-0.01 0.25,-0.03 0.38,-0.07 0.14,-0.05 0.21,-0.09 0.31,-0.17 0.09,-0.08 0.16,-0.16 0.22,-0.27 0.1,-0.2 0.11,-0.28 0.11,-0.45l0 -0.1c0,-0.77 -0.48,-1.87 -0.94,-2.49 -0.16,-0.22 -0.26,-0.3 -0.5,-0.46 -0.08,-0.05 -0.34,-0.18 -0.45,-0.19 0.01,-0.08 0.03,-0.06 0.08,-0.12 0.02,-0.03 0.05,-0.07 0.07,-0.11 0.06,-0.08 0.1,-0.16 0.13,-0.26 0.06,-0.18 0.12,-0.45 -0.07,-0.57 -0.16,-0.1 -0.32,0 -0.62,-0.16 -0.24,-0.12 -0.27,-0.29 -0.48,-0.29 -0.34,0 -0.23,0.36 -0.45,0.53 -0.04,0.03 -0.05,0.03 -0.09,0.06 -0.12,0.09 -0.2,0.17 -0.21,0.33 -0.01,0.14 0.03,0.23 0.1,0.34 0.05,0.1 0.1,0.14 0.16,0.22 -0.14,0.01 -0.46,0.18 -0.57,0.24z"/>
    <path class="fil1" d="M10.6 5.35c0,0.22 0.2,0.14 0.39,0.14 0.5,0 0.89,0.4 0.93,0.91 0.01,0.22 -0.11,0.49 -0.33,0.6 -0.08,0.04 -0.13,0.06 -0.22,0.08 -0.55,0.12 -1.02,-0.12 -1.66,-0.12 -0.75,0 -0.64,0.04 -1.28,0.13 -0.31,0.05 -0.72,0.03 -0.94,-0.13 -0.52,-0.39 -0.08,-1.51 0.11,-1.99 0.19,-0.48 0.57,-1.17 1.06,-1.37 0.07,-0.03 0.13,-0.06 0.21,-0.09 0.16,-0.06 0.57,-0.2 0.71,-0.19 0.33,0.02 1.12,0.3 1.36,0.61 0.21,0.28 0.26,0.33 0.43,0.65 0.04,0.08 0.06,0.1 0.1,0.2 0.07,0.17 0.22,0.48 0.26,0.66 -0.22,-0.12 -0.4,-0.26 -0.75,-0.26 -0.06,0 -0.21,0.02 -0.25,0.03 -0.08,0.02 -0.13,0.05 -0.13,0.14z"/>
    <path class="fil1" d="M9.62 3.02c-0.35,0 -0.28,0.09 -0.44,-0.04 -0.14,-0.11 -0.25,-0.31 -0.13,-0.43 0.02,-0.03 0.35,-0.18 0.38,-0.54 0.11,0.08 0.11,0.13 0.35,0.25 0.21,0.11 0.33,0.13 0.58,0.13 0,0.09 -0.04,0.23 -0.07,0.3 -0.04,0.1 -0.09,0.16 -0.15,0.24 -0.21,0.28 -0.21,0.09 -0.52,0.09z"/>
    <path class="fil0" d="M9.12 3.83c0,0.12 0.1,0.17 0.27,0.12 0.24,-0.07 0.28,-0.05 0.28,-0.22 0,-0.05 -0.09,-0.12 -0.12,-0.12 -0.06,0 -0.32,0.06 -0.37,0.1 -0.03,0.02 -0.06,0.08 -0.06,0.12z"/>
    <path class="fil0" d="M7.53 6.33c0,0.06 -0.02,0.24 0.14,0.24 0.2,0 0.15,-0.28 0.22,-0.65 0.11,-0.5 0.43,-1.22 0.78,-1.62 0.05,-0.06 0.08,-0.06 0.08,-0.16 0,-0.15 -0.18,-0.2 -0.29,-0.07l-0.27 0.37c-0.29,0.47 -0.66,1.3 -0.66,1.89z"/>
   </g>
  </g>
 </g>
</svg>
