<?xml version="1.0" encoding="UTF-8"?>
<!DOCTYPE svg PUBLIC "-//W3C//DTD SVG 1.1//EN" "http://www.w3.org/Graphics/SVG/1.1/DTD/svg11.dtd">
<!-- Creator: CorelDRAW 2019 (64-Bit) -->
<svg xmlns="http://www.w3.org/2000/svg" xml:space="preserve" width="21px" height="24px" version="1.1" style="shape-rendering:geometricPrecision; text-rendering:geometricPrecision; image-rendering:optimizeQuality; fill-rule:evenodd; clip-rule:evenodd"
viewBox="0 0 3.67 4.23"
 xmlns:xlink="http://www.w3.org/1999/xlink"
 xmlns:xodm="http://www.corel.com/coreldraw/odm/2003">
 <defs>
  <style type="text/css">
   <![CDATA[
    .fil0 {fill:#333333}
   ]]>
  </style>
 </defs>
 <g id="Layer_x0020_1">
  <metadata id="CorelCorpID_0Corel-Layer"/>
  <g id="_1055883168">
   <path class="fil0" d="M3.06 1.17c0.02,0.64 0,1.33 0,1.98 0,0.37 -0.04,0.58 -0.31,0.7 -0.19,0.09 -0.67,0.05 -0.92,0.05 -0.82,0 -1.22,0.12 -1.22,-0.77 0,-0.35 -0.02,-1.73 0,-1.96l2.45 0zm-1.9 -0.33c0,-0.22 -0.03,-0.38 0.12,-0.47 0.12,-0.07 0.39,-0.04 0.55,-0.04 0.63,0 0.67,-0.05 0.67,0.51l-1.34 0zm-0.32 -0.01c-0.36,0.03 -0.92,-0.11 -0.83,0.22 0.03,0.11 0.13,0.12 0.26,0.12 0.05,0.59 -0.05,1.81 0.01,2.29 0.04,0.33 0.24,0.57 0.48,0.68 0.27,0.13 0.74,0.09 1.07,0.09 0.34,-0.01 0.81,0.04 1.08,-0.09 0.64,-0.31 0.48,-1.11 0.48,-1.82 0,-0.36 -0.02,-0.81 0,-1.16 0.42,0 0.28,-0.29 0.14,-0.32 -0.15,-0.03 -0.51,0.01 -0.7,-0.01 0,-0.34 -0.01,-0.52 -0.21,-0.69 -0.22,-0.18 -0.47,-0.13 -0.79,-0.13 -0.3,-0.01 -0.58,-0.05 -0.78,0.12 -0.21,0.18 -0.21,0.35 -0.21,0.7z"/>
   <path class="fil0" d="M1.1 1.68c-0.17,0.05 -0.13,0.22 -0.13,0.4l0 1.01c0,0.17 0.02,0.36 0.22,0.29 0.15,-0.04 0.11,-0.23 0.11,-0.39l0 -1.02c0,-0.16 -0.02,-0.34 -0.2,-0.29z"/>
   <path class="fil0" d="M2.49 1.69c-0.17,0.05 -0.13,0.19 -0.13,0.39l0 1.01c0,0.16 0.01,0.35 0.21,0.3 0.16,-0.05 0.12,-0.23 0.12,-0.4l0 -1.02c0,-0.16 -0.02,-0.35 -0.2,-0.28z"/>
   <path class="fil0" d="M1.83 3.39c0.19,-0.03 0.17,-0.15 0.17,-0.34l0 -1.02c0,-0.19 0.03,-0.33 -0.17,-0.36 -0.19,0.03 -0.16,0.16 -0.16,0.34l0 1.02c0,0.19 -0.03,0.33 0.16,0.36z"/>
  </g>
 </g>
</svg>
