<?xml version="1.0" encoding="UTF-8"?>
<!DOCTYPE svg PUBLIC "-//W3C//DTD SVG 1.1//EN" "http://www.w3.org/Graphics/SVG/1.1/DTD/svg11.dtd">
<!-- Creator: CorelDRAW 2019 (64-Bit) -->
<svg xmlns="http://www.w3.org/2000/svg" xml:space="preserve" width="48px" height="56px" version="1.1" style="shape-rendering:geometricPrecision; text-rendering:geometricPrecision; image-rendering:optimizeQuality; fill-rule:evenodd; clip-rule:evenodd"
viewBox="0 0 4.99 5.81"
 xmlns:xlink="http://www.w3.org/1999/xlink"
 xmlns:xodm="http://www.corel.com/coreldraw/odm/2003">
 <defs>
  <style type="text/css">
   <![CDATA[
    .fil0 {fill:#DCBA72}
    .fil1 {fill:#FDE4A2}
   ]]>
  </style>
 </defs>
 <g id="Layer_x0020_1">
  <metadata id="CorelCorpID_0Corel-Layer"/>
  <path class="fil0" d="M2.49 5.81c0.39,0 0.69,-0.85 0.95,-1.02 0.04,-0.02 0.15,-0.06 0.25,-0.11 0.32,-0.2 0.39,-0.26 0.63,-0.5 0.04,-0.03 0.04,-0.04 0.07,-0.07l0.18 -0.24c0.16,-0.25 0.27,-0.51 0.35,-0.8 0.17,-0.7 0.01,-1.43 -0.38,-2 -0.41,-0.61 -1.2,-1.07 -1.95,-1.07 -0.44,0 -0.8,0.05 -1.16,0.23 -0.21,0.11 -0.38,0.21 -0.55,0.36 -0.26,0.22 -0.52,0.55 -0.65,0.85 -0.12,0.28 -0.23,0.61 -0.23,0.99 0,0.44 0.05,0.68 0.21,1.06 0.08,0.2 0.18,0.35 0.31,0.52 0.21,0.28 0.47,0.48 0.77,0.66 0.1,0.06 0.24,0.11 0.28,0.14 0.02,0.02 0.04,0.06 0.06,0.09 0.15,0.2 0.58,0.91 0.86,0.91z"/>
  <path class="fil1" d="M2.92 4.73c-0.14,0.03 -0.16,0.15 -0.05,0.2 0.07,0.02 0.14,-0.01 0.21,-0.02 -0.03,0.06 -0.11,0.15 -0.15,0.21 -0.38,0.52 -0.38,0.69 -0.78,0.12 -0.05,-0.06 -0.22,-0.28 -0.24,-0.33 0.08,0.01 0.2,0.06 0.25,-0.01 0.06,-0.08 0.01,-0.15 -0.11,-0.18 -0.17,-0.03 -0.34,-0.08 -0.48,-0.15 -0.32,-0.14 -0.35,-0.19 -0.58,-0.37 -0.15,-0.11 -0.33,-0.35 -0.44,-0.51 -0.98,-1.57 0.25,-3.63 2.13,-3.48 0.13,0.01 0.41,0.06 0.5,0.11 0.21,0.04 0.49,0.21 0.64,0.31 0.56,0.4 0.94,1.06 0.95,1.83 0.01,0.59 -0.19,1.02 -0.45,1.4 -0.33,0.46 -0.85,0.76 -1.4,0.87z"/>
  <g id="_1450157136">
   <path class="fil0" d="M2.02 2.22l0 1.38 0.94 0 0 -1.38 -0.94 0zm0.09 -0.18l0 -0.39c0,-0.01 0,-0.02 0.01,-0.02 0,-0.01 0.01,-0.01 0.02,-0.01l0.09 0 0 0.44 -0.12 0 0 -0.02zm0 0.79l0 -0.53c0,-0.03 0.02,-0.04 0.05,-0.04 0,0 0.01,0.01 0.02,0.01 0.01,0 0.02,0 0.03,0l0.02 0 0 0.59 -0.02 0c-0.01,0 -0.02,0 -0.03,0.01 -0.01,0 -0.02,0 -0.02,0 -0.03,0 -0.05,-0.01 -0.05,-0.04zm-0.09 0.77l0 0c0,0 0,0 0,0zm0 0l0 0c0,0 0,0 0,0zm0 0l0 0 0 0 0 0zm0.94 -2.15l-0.94 0 0 0.66 0.94 0 0 -0.66zm-1.05 2.21l0 -2.26c0,-0.02 0.01,-0.03 0.02,-0.04 0.01,-0.01 0.02,-0.02 0.04,-0.02l1.05 0c0.01,0 0.03,0.01 0.04,0.02 0.01,0.01 0.01,0.02 0.01,0.04l0 2.26c0,0.04 -0.03,0.05 -0.07,0.05l-0.01 0 0 0.08 -0.11 0 0 -0.08 -0.77 0 0 0.08 -0.12 0 0 -0.08 -0.01 0c-0.03,0 -0.07,-0.01 -0.07,-0.05z"/>
   <path class="fil0" d="M4.24 3.02l-0.2 0 0 0.58 0.2 0 0 -0.58zm-0.16 0.11c0,0 0,-0.01 0,-0.03 0,-0.02 0.01,-0.03 0.04,-0.03 0.01,0 0.02,0 0.03,0 0,0 0.02,0 0.03,0l0.02 0 0 0.02c0,0.01 0,0.02 0,0.03 0,0.01 0,0.02 0,0.02 0,0.03 -0.01,0.05 -0.03,0.05 -0.02,0 -0.03,0 -0.03,0 -0.03,0 -0.04,0 -0.05,-0.01 -0.01,-0.01 -0.01,-0.02 -0.01,-0.05zm0 0.17c0,-0.01 0,-0.02 0,-0.04 0,-0.02 0.01,-0.03 0.04,-0.03 0.01,0 0.02,0 0.03,0 0,0 0.02,0 0.03,0l0.02 0 0 0.12 -0.02 0c-0.02,0 -0.03,0 -0.04,0 -0.03,0 -0.04,0 -0.05,-0.01 -0.01,-0.01 -0.01,-0.02 -0.01,-0.04zm0.06 0.19c0,0 0,0 0,0l0 0 0 0 0 0c0,0 0,0 0,0zm-0.03 0.07c-0.03,-0.01 -0.05,-0.03 -0.05,-0.07 0,-0.03 0.02,-0.06 0.05,-0.07 0.01,0 0.02,0 0.03,0 0.01,0 0.02,0 0.03,0 0.03,0.01 0.04,0.03 0.04,0.07 0,0.04 -0.01,0.06 -0.04,0.07 -0.01,0.01 -0.02,0.01 -0.03,0.01 -0.01,0 -0.02,0 -0.03,-0.01zm-0.35 -0.37l-0.37 0 0 0.25 0.37 0 0 -0.25zm-0.48 0.3l0 -0.37c0,-0.01 0,-0.02 0.01,-0.03 0.01,-0.01 0.03,-0.02 0.04,-0.02l0.49 0c0.01,0 0.03,0.01 0.04,0.02 0.01,0.01 0.02,0.03 0.02,0.04l0 0.36c0,0.01 -0.01,0.03 -0.02,0.04 -0.01,0.01 -0.02,0.02 -0.03,0.02l-0.5 0c-0.01,0 -0.03,-0.01 -0.04,-0.02 -0.01,-0.01 -0.01,-0.02 -0.01,-0.04zm0.64 -0.47l-0.69 0 0 0.58 0.69 0 0 -0.58zm-0.8 0.64l0 -0.69c0,-0.02 0,-0.03 0.01,-0.04 0.01,-0.01 0.02,-0.02 0.04,-0.02l1.13 0c0.02,0 0.03,0.01 0.04,0.02 0.01,0.01 0.02,0.02 0.02,0.04l0 0.69c0,0.01 -0.01,0.02 -0.02,0.03 -0.01,0.01 -0.02,0.02 -0.04,0.02l-1.13 0c-0.02,0 -0.03,-0.01 -0.04,-0.02 -0.01,-0.01 -0.01,-0.02 -0.01,-0.03z"/>
   <path class="fil0" d="M1.75 2.62l-1.01 0 0 0.98 1.01 0 0 -0.98zm-0.72 -0.16l-0.08 0 0 -0.11 0.11 0 0 0.08c0,0.01 0,0.02 -0.01,0.03 0,0 -0.01,0 -0.02,0zm0.16 0l-0.08 0 0 -0.11 0.11 0 0 0.08c0,0.01 0,0.02 -0.01,0.03 0,0 -0.01,0 -0.02,0zm-0.35 0c-0.01,0 -0.02,0 -0.04,0l-0.02 0 0 -0.11 0.02 0c0.01,0 0.03,0 0.04,0 0,0 0.01,-0.01 0.02,-0.01 0.03,0 0.04,0.01 0.04,0.04 0,0.01 0,0.02 0,0.03 0,0.02 0,0.04 -0.01,0.05 -0.01,0.01 -0.02,0 -0.05,0zm0.59 0c0,-0.01 0,-0.02 0,-0.03l0 -0.08 0.27 0 0 0.11 -0.24 0c-0.01,0 -0.02,0 -0.03,0zm0.05 0.78c0.02,0.02 0.03,0.04 0.05,0.05 0,-0.01 0,-0.01 0,-0.01 0.01,-0.01 0.01,-0.01 0.01,-0.02 0.03,-0.05 0.05,-0.11 0.05,-0.17 0,-0.06 -0.02,-0.12 -0.05,-0.17 0,-0.01 0,-0.01 -0.01,-0.02 0,0 0,-0.01 -0.01,-0.01 0,0 0,0.01 0,0.01 -0.01,0 -0.01,0 -0.01,0.01 -0.02,0.02 -0.04,0.03 -0.05,0.04 -0.02,0.02 -0.03,0.03 -0.04,0.05 0,0.01 0,0.03 0,0.08 0,0.03 0,0.06 0,0.1 0,0 0.03,0.03 0.06,0.06zm-0.17 -0.03l0 -0.24c0,-0.02 0.01,-0.04 0.02,-0.05l-0.01 0c0,0 -0.01,0 -0.02,-0.01 -0.02,0 -0.04,-0.01 -0.07,0 -0.03,0 -0.05,0.01 -0.07,0.02l-0.05 0.03c-0.04,0.04 -0.05,0.09 -0.05,0.13 0,0.02 0.01,0.05 0.02,0.08 0.01,0.02 0.03,0.04 0.05,0.06 0.03,0.03 0.06,0.04 0.1,0.04 0.06,0 0.07,0 0.08,-0.01 0,0 0.01,-0.01 0.01,-0.01 0,-0.01 -0.01,-0.02 -0.01,-0.04zm-0.02 0.17c-0.02,0.01 -0.03,0.01 -0.06,0.01 -0.03,0 -0.07,-0.01 -0.1,-0.03 -0.04,-0.01 -0.08,-0.03 -0.1,-0.06 -0.06,-0.06 -0.09,-0.13 -0.09,-0.21 0,-0.04 0.01,-0.08 0.03,-0.12 0.01,-0.04 0.04,-0.07 0.07,-0.1 0.04,-0.05 0.11,-0.08 0.19,-0.08 0.04,0 0.07,0 0.1,0.01 0.03,0.01 0.05,0.02 0.08,0.04 0.01,0 0.01,-0.01 0.02,-0.01 0,-0.01 0.01,-0.02 0.01,-0.02l0 0c-0.04,-0.03 -0.18,-0.12 -0.36,-0.02 -0.03,0.01 -0.05,0.03 -0.07,0.05 -0.06,0.05 -0.09,0.11 -0.11,0.18 -0.01,0.08 0,0.16 0.04,0.23 0.01,0.02 0.03,0.05 0.05,0.08 0.03,0.02 0.07,0.05 0.11,0.07 0.04,0.02 0.08,0.03 0.12,0.03l0.05 0c0.07,0 0.13,-0.03 0.16,-0.05l0.01 -0.01c0,-0.01 -0.01,-0.01 -0.01,-0.02 -0.01,0 -0.02,-0.01 -0.02,-0.01l-0.01 0c-0.02,0.01 -0.03,0.02 -0.05,0.03 -0.02,0.01 -0.04,0.01 -0.06,0.01zm-0.47 -0.12c-0.02,-0.05 -0.04,-0.11 -0.04,-0.19 0,-0.04 0.02,-0.1 0.03,-0.14 0.02,-0.05 0.05,-0.1 0.08,-0.14 0.01,0 0.01,0 0.01,-0.01 0.01,0 0.01,-0.01 0.02,-0.01 0.06,-0.07 0.15,-0.12 0.24,-0.13 0.1,-0.02 0.19,-0.01 0.28,0.03 0.02,0.01 0.05,0.03 0.07,0.05 0.03,0.01 0.05,0.03 0.06,0.05 0.02,0.02 0.04,0.04 0.05,0.06 0.02,0.02 0.03,0.04 0.04,0.07 0.05,0.09 0.06,0.19 0.03,0.28 -0.02,0.1 -0.07,0.19 -0.15,0.26 -0.02,0.01 -0.03,0.03 -0.05,0.04 -0.02,0.01 -0.03,0.02 -0.05,0.02 -0.06,0.03 -0.13,0.05 -0.2,0.05 -0.07,0 -0.13,-0.02 -0.19,-0.05 -0.03,-0.01 -0.05,-0.02 -0.08,-0.04 -0.02,-0.02 -0.04,-0.03 -0.05,-0.05 -0.05,-0.05 -0.08,-0.1 -0.1,-0.15zm0.93 -0.96l-1.01 0 0 0.21 1.01 0 0 -0.21zm-1.13 1.36l0 -1.42c0,-0.02 0.01,-0.03 0.02,-0.04 0.01,-0.01 0.03,-0.01 0.03,-0.01l1.15 0c0,0 0.02,0 0.03,0.01 0.01,0.01 0.01,0.02 0.01,0.04l0 1.42c0,0.04 -0.03,0.05 -0.06,0.05l-0.02 0 0 0.08 -0.11 0 0 -0.08 -0.85 0 0 0.08 -0.12 0 0 -0.08 -0.01 0c-0.03,0 -0.07,-0.01 -0.07,-0.05z"/>
  </g>
 </g>
</svg>
