<?xml version="1.0" encoding="UTF-8"?>
<!DOCTYPE svg PUBLIC "-//W3C//DTD SVG 1.1//EN" "http://www.w3.org/Graphics/SVG/1.1/DTD/svg11.dtd">
<!-- Creator: CorelDRAW 2019 (64-Bit) -->
<svg xmlns="http://www.w3.org/2000/svg" xml:space="preserve" width="48px" height="56px" version="1.1" style="shape-rendering:geometricPrecision; text-rendering:geometricPrecision; image-rendering:optimizeQuality; fill-rule:evenodd; clip-rule:evenodd"
viewBox="0 0 5.64 6.56"
 xmlns:xlink="http://www.w3.org/1999/xlink"
 xmlns:xodm="http://www.corel.com/coreldraw/odm/2003">
 <defs>
  <style type="text/css">
   <![CDATA[
    .fil1 {fill:#232981}
    .fil0 {fill:#C0C4FC}
   ]]>
  </style>
 </defs>
 <g id="Layer_x0020_1">
  <metadata id="CorelCorpID_0Corel-Layer"/>
  <path class="fil0" d="M2.82 6.56c0.44,0 0.77,-0.96 1.07,-1.14 0.04,-0.03 0.17,-0.07 0.28,-0.14 0.36,-0.21 0.44,-0.29 0.72,-0.56 0.03,-0.03 0.04,-0.04 0.07,-0.08l0.21 -0.27c0.18,-0.28 0.3,-0.57 0.39,-0.9 0.19,-0.79 0.01,-1.61 -0.43,-2.26 -0.47,-0.69 -1.35,-1.21 -2.2,-1.21 -0.51,0 -0.9,0.06 -1.32,0.27 -0.23,0.11 -0.42,0.23 -0.62,0.39 -0.29,0.25 -0.59,0.63 -0.73,0.97 -0.14,0.31 -0.26,0.68 -0.26,1.12 0,0.49 0.06,0.76 0.24,1.19 0.09,0.23 0.21,0.4 0.35,0.6 0.24,0.31 0.52,0.53 0.86,0.74 0.12,0.07 0.28,0.12 0.32,0.16 0.02,0.02 0.05,0.06 0.07,0.09 0.17,0.23 0.66,1.03 0.98,1.03z"/>
  <path class="fil1" d="M3.3 5.34c-0.16,0.04 -0.18,0.17 -0.05,0.23 0.08,0.02 0.15,-0.01 0.23,-0.02 -0.03,0.06 -0.12,0.17 -0.17,0.23 -0.43,0.6 -0.42,0.79 -0.88,0.15 -0.06,-0.08 -0.25,-0.32 -0.28,-0.38 0.1,0.01 0.23,0.07 0.29,-0.02 0.07,-0.09 0.01,-0.16 -0.13,-0.19 -0.19,-0.04 -0.37,-0.1 -0.54,-0.17 -0.36,-0.16 -0.4,-0.22 -0.65,-0.42 -0.17,-0.13 -0.38,-0.39 -0.5,-0.58 -1.1,-1.77 0.28,-4.1 2.41,-3.93 0.15,0.01 0.46,0.06 0.57,0.12 0.24,0.05 0.55,0.23 0.71,0.35 0.63,0.45 1.07,1.2 1.08,2.06 0.01,0.68 -0.21,1.16 -0.51,1.59 -0.37,0.53 -0.96,0.86 -1.58,0.98z"/>
  <g id="_1358899024">
   <path class="fil0" d="M2.51 3.43l1.05 0c0.14,0 0.1,-0.11 0.17,-0.19l0 0.9 -1.22 0 0 -0.71zm1.35 0.68l0 -1.01c0.04,0.04 0.08,0.08 0.11,0.13 0.02,0.01 0.02,0.02 0.03,0.03 0.03,0.03 0.07,0.09 0.11,0.09 0.01,0 0.3,-0.13 0.32,-0.15l0 0.64c-0.11,0.06 -0.31,0.14 -0.42,0.2 -0.05,0.03 -0.1,0.04 -0.15,0.07zm-0.3 -0.81l-1.21 0c0.01,-0.05 0.13,-0.27 0.14,-0.3l1.2 0c0,0.03 -0.02,0.05 -0.03,0.07l-0.07 0.15c-0.01,0.03 -0.02,0.05 -0.03,0.08zm0.57 -0.1c-0.03,-0.02 -0.04,-0.03 -0.06,-0.06 -0.01,-0.01 -0.01,-0.01 -0.02,-0.03 -0.02,-0.01 -0.02,-0.02 -0.03,-0.03 -0.04,-0.04 -0.08,-0.09 -0.11,-0.13 0.02,-0.01 0.05,-0.02 0.07,-0.03 0.02,-0.01 0.05,-0.02 0.07,-0.03l0.21 -0.1c0.06,-0.02 0.18,-0.09 0.22,-0.1 0.02,0.02 0.03,0.04 0.05,0.06 0.03,0.03 0.15,0.16 0.16,0.19l-0.56 0.26zm-1.39 -0.33c0.03,-0.02 0.26,-0.12 0.28,-0.13 0.02,-0.01 0.12,-0.06 0.14,-0.06l1.03 0c0,0 0,0 0,0l-0.42 0.19c-0.04,0.01 -0.94,0 -1.03,0zm-0.56 0.48c0,0.1 0.11,0.08 0.2,0.08l0 0.78c0,0.05 0.04,0.06 0.08,0.06l1.34 0c0.03,0 0.43,-0.19 0.49,-0.22 0.03,-0.01 0.05,-0.02 0.08,-0.03 0.24,-0.12 0.2,-0.02 0.2,-0.4 0,-0.16 0,-0.32 0,-0.48l0.16 -0.07c0.08,-0.04 0.2,-0.07 0.1,-0.17l-0.23 -0.27c-0.02,-0.03 -0.05,-0.09 -0.1,-0.09l-1.35 0c-0.02,0 -0.32,0.15 -0.38,0.17l-0.23 0.11c-0.18,0.08 -0.13,0.06 -0.18,0.15l-0.18 0.38z"/>
   <path class="fil0" d="M2.48 1.51l0.2 0.19 -0.2 0 0 -0.19zm-1.37 -0.15l0 2.08c0,0.02 0.04,0.05 0.07,0.05l0.83 0c0.09,0 0.09,-0.13 0,-0.13l-0.78 0 0 -1.93 1.12 0 0 0.32c0,0.04 0.02,0.08 0.06,0.08l0.38 0 0 0.59c0,0.02 0.01,0.03 0.02,0.04 0.04,0.06 0.11,0.02 0.11,-0.06l0 -0.63c0,-0.05 -0.06,-0.09 -0.11,-0.13 -0.04,-0.04 -0.08,-0.09 -0.13,-0.12 -0.05,-0.04 -0.22,-0.22 -0.27,-0.22l-1.22 0c-0.05,0 -0.08,0.02 -0.08,0.06z"/>
   <path class="fil0" d="M1.47 1.99l0.27 0 0 0.27 -0.27 0 0 -0.27zm-0.13 -0.04l0 0.35c0,0.06 0.02,0.1 0.08,0.1l0.39 0c0.03,0 0.07,-0.04 0.07,-0.07l0 -0.4c0,-0.04 -0.04,-0.07 -0.07,-0.07l-0.39 0c-0.06,0 -0.08,0.03 -0.08,0.09z"/>
   <path class="fil0" d="M2.13 2.04l0.49 0c0.08,0 0.11,-0.14 -0.02,-0.14l-0.45 0c-0.12,0 -0.1,0.14 -0.02,0.14z"/>
   <path class="fil0" d="M2.15 2.35l0.45 0c0.13,0 0.1,-0.13 0.02,-0.13l-0.49 0c-0.08,0 -0.1,0.13 0.02,0.13z"/>
   <path class="fil0" d="M1.34 3c0,0.02 0,0.08 0.07,0.08l0.49 0c0.09,0 0.07,-0.13 0.02,-0.13l-0.53 0c-0.02,0 -0.05,0.03 -0.05,0.05z"/>
   <path class="fil0" d="M1.34 2.69c0,0.02 0.01,0.07 0.05,0.07l0.51 0c0.08,0 0.08,-0.12 0,-0.12l-0.49 0c-0.03,0 -0.07,0.02 -0.07,0.05z"/>
  </g>
 </g>
</svg>
