<?xml version="1.0" encoding="UTF-8"?>
<!DOCTYPE svg PUBLIC "-//W3C//DTD SVG 1.1//EN" "http://www.w3.org/Graphics/SVG/1.1/DTD/svg11.dtd">
<!-- Creator: CorelDRAW 2019 (64-Bit) -->
<svg xmlns="http://www.w3.org/2000/svg" xml:space="preserve" width="48px" height="56px" version="1.1" style="shape-rendering:geometricPrecision; text-rendering:geometricPrecision; image-rendering:optimizeQuality; fill-rule:evenodd; clip-rule:evenodd"
viewBox="0 0 59.31 69.08"
 xmlns:xlink="http://www.w3.org/1999/xlink"
 xmlns:xodm="http://www.corel.com/coreldraw/odm/2003">
 <defs>
  <style type="text/css">
   <![CDATA[
    .fil1 {fill:#E32A0C}
    .fil0 {fill:#FFD5CF}
   ]]>
  </style>
 </defs>
 <g id="Layer_x0020_1">
  <metadata id="CorelCorpID_0Corel-Layer"/>
  <path class="fil0" d="M29.64 69.08c4.63,0 8.16,-10.14 11.32,-12.07 0.43,-0.26 1.75,-0.69 2.93,-1.4 3.83,-2.29 4.65,-3.04 7.55,-5.91 0.36,-0.36 0.43,-0.47 0.74,-0.85l2.19 -2.87c1.95,-2.95 3.22,-5.97 4.1,-9.48 2.08,-8.26 0.2,-16.93 -4.42,-23.75 -4.96,-7.32 -14.28,-12.75 -23.25,-12.75 -5.28,0 -9.48,0.61 -13.84,2.79 -2.47,1.24 -4.44,2.44 -6.51,4.19 -3.07,2.6 -6.19,6.56 -7.74,10.18 -1.4,3.25 -2.71,7.2 -2.71,11.76 0,5.16 0.63,8.03 2.48,12.56 0.99,2.42 2.21,4.24 3.72,6.26 2.49,3.33 5.53,5.65 9.1,7.81 1.23,0.74 2.9,1.27 3.34,1.72 0.25,0.24 0.52,0.67 0.76,0.98 1.76,2.41 6.88,10.83 10.24,10.83z"/>
  <path class="fil1" d="M34.7 56.25c-1.63,0.34 -1.91,1.8 -0.53,2.43 0.83,0.2 1.62,-0.16 2.44,-0.29 -0.3,0.67 -1.29,1.85 -1.76,2.49 -4.51,6.25 -4.47,8.24 -9.31,1.49 -0.58,-0.81 -2.57,-3.33 -2.86,-3.98 0.98,0.15 2.42,0.75 3.05,-0.13 0.69,-0.98 0.07,-1.79 -1.38,-2.06 -2.02,-0.38 -3.98,-1.03 -5.71,-1.81 -3.76,-1.7 -4.18,-2.3 -6.9,-4.39 -1.73,-1.33 -3.93,-4.15 -5.16,-6.12 -11.68,-18.62 2.93,-43.19 25.31,-41.34 1.53,0.13 4.85,0.63 5.99,1.25 2.49,0.5 5.77,2.47 7.53,3.72 6.64,4.69 11.24,12.62 11.37,21.7 0.11,7.07 -2.31,12.19 -5.42,16.65 -3.89,5.57 -10.12,9.04 -16.66,10.39z"/>
  <path class="fil0" d="M26.23 43.67c-0.35,0.32 0.07,0.64 0.31,0.64l16.65 0c0.57,0 0.57,-0.76 0,-0.76l-16.65 0c-0.11,0 -0.22,0.05 -0.31,0.12zm8.53 -4.05c-0.42,0.42 -0.28,1.79 -0.28,2.59l8.11 0 0 -2.86 -7 0c-0.38,0 -0.65,0.09 -0.83,0.27zm-8.95 2.35l-9.93 0 1.94 2.11c0.26,0.16 0.61,0.23 1.18,0.23l5.79 0c-0.15,-0.85 0.26,-1.73 0.93,-1.91 0.06,-0.02 0.08,-0.03 0.09,-0.43zm7.34 0.24c0,-1.5 -0.24,-2.66 0.64,-3.55 0.4,-0.39 0.92,-0.64 1.47,-0.64l7.33 0 0 -0.77 -15.45 0 0 4.96 6.01 0zm-6.92 -6.92c-0.35,0.31 0.07,0.63 0.31,0.63l16.65 0c0.57,0 0.57,-0.76 0,-0.76l-16.65 0c-0.11,0 -0.22,0.05 -0.31,0.13zm-1.31 1.02c-0.56,-1.26 0.37,-2.49 1.42,-2.49l4.19 0 0 -5.28c-1.01,1.21 -1.33,1.75 -2.84,2.87 -3.27,2.43 -6.41,2.21 -8.66,4.23 -0.22,0.2 -3.64,3.81 -3.87,4.27 -0.08,0.15 -0.08,0.33 -0.08,0.73l10.73 0 0 -3.46c0,-0.16 -0.58,-0.17 -0.89,-0.87zm14.44 -12.56c-0.35,2.82 -0.08,7.48 1.61,9.64 2.1,2.69 4.8,-7.97 1.92,-13.8 -1.45,-2.93 -2.71,0.28 -3.12,1.88 -0.17,0.69 -0.31,1.48 -0.41,2.28zm-24.28 11.67l0 2.42c0.84,-0.99 1.43,-1.86 2.5,-2.76 4.18,-3.52 6.15,-2.21 9.42,-4.87 0.41,-0.35 3.13,-3.11 3.44,-3.75 0.16,-0.33 0.09,-2.17 0.09,-2.64 -1.19,1.42 -1.86,2.31 -3.69,3.46 -3.14,1.96 -4.86,1.38 -7.82,3.65 -1.29,1 -2.58,2.66 -3.6,3.95 -0.18,0.23 -0.31,0.24 -0.34,0.54zm0 -14.42l0 12.12c1.25,-1.47 1.78,-2.37 3.68,-3.69 3.76,-2.6 6.68,-1.4 10.5,-6.2l1.24 -1.56 0.03 -0.67 -15.45 0zm14.15 -2.1l-12.85 0 -0.61 0.76 14.07 0 -0.61 -0.76zm-0.28 -2.09l-12.29 0 0 0.76 12.29 0 0 -0.76zm-4.52 -1.34l2.27 0c0.08,-0.25 0.4,-0.74 -0.27,-1.15 -0.68,-0.43 -1.37,0.46 -2,1.15zm-10.68 25.84l0 -20.98c0,-0.53 1.41,-1.93 1.55,-2.33l0.01 -1.67c0.01,-0.76 0.14,-0.87 1.14,-0.86l5.38 0.01c1.92,0.03 1.96,-2.63 4.32,-2.63 1.26,0 2.28,1.21 2,2.62 2.31,-0.01 2.19,-0.31 2.13,2.39 -0.01,0.43 1.58,1.87 1.58,2.47l0 13.49 7.74 0c-0.93,-1.62 -1.3,-2.75 -1.56,-4.79 -0.36,-2.93 -0.26,-8.23 1.62,-10.76 1.24,-1.68 2.85,-1.64 4.08,0.04 2.33,3.21 2.24,11.61 0.34,14.93 -0.1,0.17 -0.21,0.37 -0.35,0.63 1.65,0.53 1.58,2.61 0.28,3.21 -0.05,0.02 -0.09,0.04 -0.09,0.1l0 5.11c0,0.13 1.4,0.55 0.99,2.09 -0.19,0.7 -0.75,1.26 -1.52,1.26l-24.98 0c-1.2,0 -1.88,-0.82 -2.48,-1.53 -0.52,-0.6 -2.18,-2.29 -2.18,-2.8z"/>
 </g>
</svg>
