<?xml version="1.0" encoding="UTF-8"?>
<!DOCTYPE svg PUBLIC "-//W3C//DTD SVG 1.1//EN" "http://www.w3.org/Graphics/SVG/1.1/DTD/svg11.dtd">
<!-- Creator: CorelDRAW 2019 (64-Bit) -->
<svg xmlns="http://www.w3.org/2000/svg" xml:space="preserve" width="48px" height="56px" version="1.1" style="shape-rendering:geometricPrecision; text-rendering:geometricPrecision; image-rendering:optimizeQuality; fill-rule:evenodd; clip-rule:evenodd"
viewBox="0 0 10.46 12.19"
 xmlns:xlink="http://www.w3.org/1999/xlink"
 xmlns:xodm="http://www.corel.com/coreldraw/odm/2003">
 <defs>
  <style type="text/css">
   <![CDATA[
    .fil1 {fill:#706F6D}
    .fil0 {fill:#C9C9C7}
   ]]>
  </style>
 </defs>
 <g id="Layer_x0020_1">
  <metadata id="CorelCorpID_0Corel-Layer"/>
  <path class="fil0" d="M5.23 12.19c0.82,0 1.44,-1.79 2,-2.13 0.07,-0.05 0.3,-0.12 0.51,-0.25 0.68,-0.4 0.82,-0.53 1.34,-1.04l0.51 -0.66c0.35,-0.52 0.57,-1.05 0.73,-1.67 0.36,-1.46 0.03,-2.99 -0.78,-4.19 -0.88,-1.29 -2.52,-2.25 -4.11,-2.25 -0.93,0 -1.67,0.11 -2.44,0.49 -0.43,0.22 -0.78,0.43 -1.15,0.74 -0.54,0.46 -1.09,1.16 -1.36,1.8 -0.25,0.57 -0.48,1.27 -0.48,2.07 0,0.91 0.11,1.42 0.44,2.22 0.17,0.43 0.39,0.75 0.65,1.1 0.44,0.59 0.98,1 1.61,1.38 0.22,0.13 0.51,0.22 0.59,0.3 0.24,0.25 1.27,2.09 1.94,2.09z"/>
  <path class="fil1" d="M6.13 9.93c-0.29,0.06 -0.34,0.32 -0.1,0.43 0.15,0.03 0.29,-0.03 0.43,-0.05 -0.05,0.11 -0.22,0.32 -0.3,0.44 -0.8,1.1 -0.79,1.45 -1.65,0.26 -0.1,-0.15 -0.45,-0.59 -0.5,-0.71 0.17,0.03 0.43,0.14 0.54,-0.02 0.12,-0.17 0.01,-0.31 -0.25,-0.36 -0.35,-0.07 -0.7,-0.18 -1.01,-0.32 -0.66,-0.3 -0.73,-0.41 -1.21,-0.77 -0.31,-0.24 -0.7,-0.74 -0.91,-1.08 -2.06,-3.29 0.51,-7.62 4.46,-7.3 0.27,0.02 0.86,0.11 1.06,0.22 0.44,0.09 1.02,0.44 1.33,0.66 1.17,0.83 1.98,2.23 2,3.83 0.02,1.25 -0.4,2.15 -0.95,2.94 -0.69,0.98 -1.79,1.59 -2.94,1.83z"/>
  <g id="_1459226928">
   <path class="fil0" d="M4.29 6.88l1.27 0 0 0.49 -1.27 0 0 -0.49zm-1.59 0l1.26 0 0 0.49 -1.26 0 0 -0.49zm0.81 -0.82l1.25 0 0 0.49 -1.25 0 0 -0.49zm-1.61 0l1.27 0 0 0.49 -1.27 0 0 -0.49zm2.39 -0.83l1.27 0 0 0.49 -1.27 0 0 -0.49zm-1.59 0l1.26 0 0 0.49 -1.26 0 0 -0.49zm0.81 -0.8l1.25 0 0 0.49 -1.25 0 0 -0.49zm-0.34 -0.15l0 0.64 -0.66 0c-0.06,0 -0.14,0.1 -0.14,0.18l0 0.62c-0.22,0 -0.78,-0.06 -0.78,0.14l0 0.88c0,0.2 0.56,0.14 0.78,0.14l0 0.63c0,0.07 0.08,0.17 0.14,0.17l3.21 0c0.07,0 0.16,-0.05 0.16,-0.12l0 -0.9c0,-0.06 -0.09,-0.11 -0.16,-0.11l-0.63 0 0 -0.49 0.63 0c0.07,0 0.16,-0.06 0.16,-0.12l0 -0.9c0,-0.06 -0.09,-0.12 -0.16,-0.12l-0.63 0 0 -0.64c0,-0.1 -0.08,-0.18 -0.17,-0.18l-1.57 0c-0.1,0 -0.18,0.08 -0.18,0.18z"/>
   <path class="fil0" d="M5.82 2.83c-0.05,-0.04 -0.15,-0.17 -0.19,-0.22 -0.22,-0.27 -0.22,-0.25 -0.53,-0.05 -0.33,0.22 -0.22,0.19 -0.68,0.11 -0.13,-0.02 -0.25,0.01 -0.25,0.18l0 0.72c0,0.29 0.34,0.27 0.34,0.04l0 -0.59c0.39,0 0.23,0.17 0.74,-0.16 0.04,-0.03 0.07,-0.05 0.12,-0.07 0.03,0.05 0.31,0.45 0.43,0.45 0.12,0 0.15,-0.11 0.26,-0.21 0.08,-0.09 0.13,-0.18 0.23,-0.24 0,0.11 -0.02,1.37 0.02,1.45 0.07,0.13 0.29,0.06 0.29,-0.06l0 -1.82c0,-0.14 -0.09,-0.16 -0.2,-0.16 -0.07,0 -0.36,0.37 -0.44,0.46 -0.07,0.07 -0.09,0.08 -0.14,0.17z"/>
   <g>
    <path class="fil0" d="M7.48 4.92c0,0.39 0.57,0.06 0.81,0.72 0.14,0.4 0.04,0.39 0.08,0.67 0.02,0.13 0.07,0.17 0.1,0.27 0.06,0.17 -0.08,0.2 0.06,0.72 0.04,0.14 0.04,0.22 -0.08,0.29 -0.32,0.17 -1.34,0.16 -1.74,0.08 -0.6,-0.13 -0.21,-0.42 -0.25,-0.79 0,-0.05 -0.02,-0.13 -0.02,-0.2 0,-0.12 0.08,-0.21 0.1,-0.33 0.03,-0.16 0.02,-0.26 0.02,-0.43 0.01,-0.21 0.17,-0.51 0.3,-0.61 0.33,-0.27 0.55,-0.04 0.55,-0.43 0,-0.11 -0.29,-0.25 -0.36,-0.33l0.05 -0.06c0.09,0.02 0.29,0.28 0.5,-0.12 0.05,0.03 0.19,0.09 0.24,0.1 -0.1,0.15 -0.36,0.33 -0.36,0.45zm-0.17 -0.7c-0.41,-0.22 -0.61,0.25 -0.61,0.33 0,0.25 0.2,0.23 0.24,0.35 -0.25,0.02 -0.51,0.39 -0.61,0.64 -0.18,0.44 -0.04,0.63 -0.13,0.82 -0.15,0.29 -0.06,0.28 -0.06,0.56 0,0.13 -0.04,0.21 -0.07,0.31 -0.21,0.81 0.87,0.82 1.47,0.82 0.29,0 0.64,-0.03 0.86,-0.1 0.74,-0.23 0.4,-0.73 0.4,-0.99 0,-0.13 0.03,-0.26 0.01,-0.35 -0.02,-0.13 -0.06,-0.17 -0.1,-0.27 -0.05,-0.16 0.1,-0.64 -0.32,-1.17 -0.08,-0.1 -0.31,-0.28 -0.45,-0.29 0.03,-0.13 0.44,-0.32 0.2,-0.59 -0.09,-0.1 -0.45,-0.25 -0.6,-0.25 -0.12,0 -0.18,0.1 -0.23,0.18z"/>
    <path class="fil0" d="M6.74 6.37c0,0.44 0.33,0.32 0.33,0.1 0.01,-0.17 -0.01,-0.23 0.04,-0.36 0.08,-0.22 0.3,-0.33 0.3,-0.56 0,-0.09 -0.17,-0.19 -0.28,-0.07 -0.2,0.23 -0.39,0.57 -0.39,0.89z"/>
    <path class="fil0" d="M7.5 5.59c0,0.16 0.36,0.35 0.36,0.82 0,0.06 -0.01,0.14 0.02,0.18 0.06,0.11 0.29,0.1 0.29,-0.08 0,-0.33 0.02,-0.45 -0.17,-0.73 -0.17,-0.25 -0.18,-0.35 -0.36,-0.35 -0.06,0 -0.14,0.09 -0.14,0.16z"/>
   </g>
  </g>
 </g>
</svg>
