<?xml version="1.0" encoding="UTF-8"?>
<!DOCTYPE svg PUBLIC "-//W3C//DTD SVG 1.1//EN" "http://www.w3.org/Graphics/SVG/1.1/DTD/svg11.dtd">
<!-- Creator: CorelDRAW 2019 (64-Bit) -->
<svg xmlns="http://www.w3.org/2000/svg" xml:space="preserve" width="48px" height="56px" version="1.1" style="shape-rendering:geometricPrecision; text-rendering:geometricPrecision; image-rendering:optimizeQuality; fill-rule:evenodd; clip-rule:evenodd"
viewBox="0 0 14.21 16.55"
 xmlns:xlink="http://www.w3.org/1999/xlink"
 xmlns:xodm="http://www.corel.com/coreldraw/odm/2003">
 <defs>
  <style type="text/css">
   <![CDATA[
    .fil1 {fill:#CCCC33}
    .fil2 {fill:#FF6600}
    .fil0 {fill:#FFFFCC}
   ]]>
  </style>
 </defs>
 <g id="Layer_x0020_1">
  <metadata id="CorelCorpID_0Corel-Layer"/>
  <path class="fil0" d="M7.1 16.55c1.11,0 1.95,-2.43 2.71,-2.9 0.1,-0.06 0.42,-0.16 0.7,-0.33 0.92,-0.55 1.11,-0.73 1.81,-1.42 0.09,-0.08 0.1,-0.11 0.18,-0.2l0.52 -0.69c0.47,-0.7 0.77,-1.43 0.98,-2.27 0.5,-1.98 0.05,-4.05 -1.05,-5.69 -1.19,-1.75 -3.43,-3.05 -5.57,-3.05 -1.27,0 -2.27,0.15 -3.32,0.67 -0.59,0.3 -1.06,0.58 -1.56,1 -0.73,0.62 -1.48,1.57 -1.85,2.44 -0.34,0.78 -0.65,1.72 -0.65,2.82 0,1.23 0.15,1.92 0.59,3 0.24,0.58 0.53,1.02 0.89,1.5 0.6,0.8 1.33,1.36 2.18,1.87 0.3,0.18 0.7,0.31 0.81,0.42 0.05,0.05 0.12,0.16 0.18,0.23 0.42,0.58 1.65,2.6 2.45,2.6z"/>
  <path class="fil1" d="M8.31 13.47c-0.39,0.08 -0.46,0.43 -0.13,0.58 0.2,0.05 0.39,-0.03 0.59,-0.07 -0.07,0.17 -0.31,0.45 -0.42,0.6 -1.08,1.5 -1.07,1.98 -2.23,0.36 -0.14,-0.2 -0.62,-0.8 -0.69,-0.96 0.24,0.04 0.58,0.18 0.73,-0.03 0.17,-0.23 0.02,-0.42 -0.33,-0.49 -0.48,-0.09 -0.95,-0.25 -1.37,-0.43 -0.9,-0.41 -1,-0.55 -1.65,-1.06 -0.41,-0.31 -0.94,-0.99 -1.23,-1.46 -2.8,-4.46 0.7,-10.34 6.06,-9.9 0.37,0.03 1.16,0.15 1.43,0.3 0.6,0.12 1.38,0.59 1.81,0.89 1.59,1.12 2.69,3.02 2.72,5.2 0.03,1.69 -0.55,2.92 -1.3,3.98 -0.93,1.34 -2.42,2.17 -3.99,2.49z"/>
  <g id="_1358898096">
   <path class="fil2" d="M8.91 4.55c0,-0.08 0.06,-0.14 0.15,-0.14l0.74 0c0.19,0 0.15,0.2 0.15,0.39l-1.04 0 0 -0.25zm0.14 0.51l0 0.36c-0.01,0.14 -0.2,0.15 -0.32,0.24 -0.3,0.2 -0.58,0.58 -0.58,0.95 0.85,0 1.71,0 2.56,0 -0.04,-0.4 -0.24,-0.72 -0.55,-0.93 -0.4,-0.27 -0.34,-0.01 -0.34,-0.62l-0.77 0zm-0.26 0.25l0 -0.25c-0.2,0 -0.14,-0.2 -0.14,-0.55 0,-0.18 0.18,-0.36 0.36,-0.36l0.84 0c0.18,0 0.36,0.18 0.36,0.36 0,0.34 0.05,0.53 -0.13,0.55l0 0.27c0.2,0.05 0.48,0.32 0.62,0.5 0.13,0.19 0.29,0.52 0.29,0.83 0,1.26 0,2.51 0,3.76 0,0.13 -0.09,0.26 -0.15,0.32 -0.07,0.07 -0.2,0.15 -0.32,0.15 -0.38,0 -0.3,0.03 -0.57,-0.16 -0.09,0.06 -0.19,0.16 -0.34,0.16 -0.49,0 -0.4,0.04 -0.7,-0.16 -0.27,0.19 -0.19,0.16 -0.57,0.16 -0.22,0 -0.47,-0.24 -0.47,-0.47l0 -3.76c0,-0.34 0.18,-0.68 0.33,-0.88 0.12,-0.15 0.38,-0.38 0.59,-0.47zm1.94 3.9l-2.6 0 0 1.12c0,0.2 0.11,0.3 0.31,0.3 0.47,0 0.25,-0.38 0.44,-0.38 0.22,0 0.12,0.12 0.2,0.26 0.09,0.17 0.61,0.18 0.7,-0.01 0.07,-0.15 -0.02,-0.25 0.2,-0.25 0.19,0 -0.01,0.38 0.41,0.38 0.36,0 0.34,-0.19 0.34,-0.48 0,-0.32 0,-0.63 0,-0.94zm0 -2.34c-0.87,0 -1.73,0 -2.6,0l0 2.08 2.6 0 0 -2.08z"/>
   <path class="fil2" d="M4.76 7.78l2.59 0 0 0.26 -2.59 0 0 -0.26zm0.27 0.52c0.08,0.78 0.16,1.56 0.23,2.33l1.59 0c0,-0.21 0.08,-0.91 0.11,-1.17l0.09 -0.88c0,-0.08 0.03,-0.2 0.03,-0.28l-2.05 0zm-0.27 0l-0.13 0c-0.08,0 -0.13,-0.05 -0.13,-0.13l0 -0.55c0,-0.05 0.07,-0.1 0.13,-0.1l1.3 0 0 -0.65c0,-0.1 0.45,-0.52 0.48,-0.52 0.14,0 0.17,0.03 0.17,0.17 0,0.08 -0.39,0.35 -0.39,0.43l0 0.57 1.29 0c0.08,0 0.13,0.05 0.13,0.13 0,0.68 0.06,0.65 -0.27,0.65 0,0.26 -0.07,0.73 -0.1,1.02 -0.04,0.45 -0.1,0.92 -0.13,1.36 -0.01,0.11 -0.03,0.21 -0.15,0.21l-1.81 0c-0.17,0 -0.15,-0.27 -0.18,-0.52 -0.07,-0.69 -0.14,-1.38 -0.21,-2.07z"/>
   <path class="fil2" d="M7.87 3.37l0.78 0 0 0.26 -0.78 0 0 -0.26zm-4.67 1.1l0 6.04c0,0.19 0.17,0.38 0.36,0.38l1.1 0c0.1,0 0.18,-0.25 -0.04,-0.26l-0.75 0c-0.18,0 -0.36,0.04 -0.4,-0.1 -0.03,-0.11 -0.01,-5.62 -0.01,-6.64l0.78 0 0 1.2c0,0.18 0.18,0.36 0.36,0.36l0.58 0c0.14,0 0.26,-0.11 0.31,-0.2 0.08,-0.14 0.01,-0.32 0.19,-0.32l0.75 0c0.19,0 0.12,0.18 0.19,0.31 0.05,0.1 0.17,0.21 0.31,0.21l0.59 0c0.17,0 0.35,-0.18 0.35,-0.36l0 -1.2 0.91 0c0.08,0 0.13,-0.05 0.13,-0.13l0 -0.52c0,-0.08 -0.05,-0.13 -0.13,-0.13l-1.04 0c-0.17,0 -0.13,0.23 -0.13,0.46l0 1.2c0,0.47 0.07,0.42 -0.63,0.42 -0.18,0 -0.12,-0.2 -0.19,-0.32 -0.05,-0.1 -0.17,-0.2 -0.31,-0.2l-0.84 0c-0.15,0 -0.26,0.1 -0.31,0.19 -0.08,0.14 -0.01,0.33 -0.2,0.33l-0.48 0c-0.1,0 -0.14,-0.06 -0.15,-0.15 -0.01,-0.08 0,-0.2 0,-0.29l0 -1.46c0,-0.11 -0.02,-0.18 -0.13,-0.18l-1.04 0c-0.08,0 -0.13,0.05 -0.13,0.13l0 1.23zm0.26 -1.1l0.78 0 0 0.26 -0.78 0 0 -0.26z"/>
  </g>
 </g>
</svg>
