<?xml version="1.0" encoding="UTF-8"?>
<!DOCTYPE svg PUBLIC "-//W3C//DTD SVG 1.1//EN" "http://www.w3.org/Graphics/SVG/1.1/DTD/svg11.dtd">
<!-- Creator: CorelDRAW 2019 (64-Bit) -->
<svg xmlns="http://www.w3.org/2000/svg" xml:space="preserve" width="48px" height="56px" version="1.1" style="shape-rendering:geometricPrecision; text-rendering:geometricPrecision; image-rendering:optimizeQuality; fill-rule:evenodd; clip-rule:evenodd"
viewBox="0 0 8.07 9.4"
 xmlns:xlink="http://www.w3.org/1999/xlink"
 xmlns:xodm="http://www.corel.com/coreldraw/odm/2003">
 <defs>
  <style type="text/css">
   <![CDATA[
    .fil1 {fill:#008131}
    .fil0 {fill:#70D697}
   ]]>
  </style>
 </defs>
 <g id="Layer_x0020_1">
  <metadata id="CorelCorpID_0Corel-Layer"/>
  <path class="fil0" d="M4.03 9.4c0.63,0 1.11,-1.38 1.54,-1.64 0.06,-0.04 0.24,-0.1 0.4,-0.2 0.52,-0.31 0.63,-0.41 1.03,-0.8 0.05,-0.05 0.06,-0.06 0.1,-0.11l0.3 -0.39c0.26,-0.41 0.43,-0.82 0.55,-1.3 0.29,-1.12 0.03,-2.3 -0.6,-3.23 -0.67,-0.99 -1.94,-1.73 -3.16,-1.73 -0.72,0 -1.29,0.08 -1.88,0.38 -0.34,0.17 -0.61,0.33 -0.89,0.57 -0.42,0.35 -0.84,0.89 -1.05,1.39 -0.19,0.44 -0.37,0.97 -0.37,1.59 0,0.71 0.09,1.1 0.34,1.71 0.13,0.33 0.3,0.58 0.5,0.85 0.34,0.46 0.76,0.77 1.24,1.07 0.17,0.1 0.4,0.17 0.46,0.23 0.03,0.03 0.07,0.09 0.1,0.13 0.24,0.33 0.94,1.48 1.39,1.48z"/>
  <path class="fil1" d="M4.72 7.65c-0.22,0.05 -0.26,0.25 -0.07,0.33 0.11,0.03 0.22,-0.02 0.33,-0.04 -0.04,0.1 -0.18,0.26 -0.24,0.34 -0.61,0.85 -0.61,1.12 -1.27,0.21 -0.07,-0.12 -0.34,-0.46 -0.38,-0.55 0.13,0.02 0.33,0.11 0.41,-0.01 0.09,-0.14 0.01,-0.25 -0.19,-0.28 -0.27,-0.06 -0.54,-0.14 -0.77,-0.25 -0.52,-0.23 -0.57,-0.31 -0.94,-0.6 -0.24,-0.18 -0.54,-0.56 -0.71,-0.83 -1.58,-2.53 0.4,-5.88 3.45,-5.62 0.21,0.01 0.66,0.08 0.81,0.17 0.34,0.06 0.79,0.33 1.03,0.5 0.9,0.64 1.53,1.72 1.54,2.95 0.02,0.97 -0.31,1.66 -0.73,2.27 -0.53,0.76 -1.38,1.23 -2.27,1.41z"/>
  <g id="_1190202448">
   <path class="fil0" d="M1.9 5.35l1.21 0 0 0.69 -1.21 0 0 -0.69zm0.36 -3.73l0.46 0c0.12,0.02 0.1,0.07 0.1,0.23l0 0.92c0,0.17 -0.03,0.21 0.07,0.24 0.24,0.09 0.38,0.28 0.38,0.54l0 2.56c0,0.03 -0.03,0.08 -0.06,0.08l-1.39 0c-0.05,0 -0.07,-0.03 -0.07,-0.07l0 -2.63c0,-0.08 0.04,-0.19 0.07,-0.23 0.06,-0.11 0.13,-0.16 0.23,-0.22 0.1,-0.05 0.15,-0.01 0.15,-0.15l0 -1.04c0,-0.04 -0.02,-0.23 0.06,-0.23zm-0.36 2.52l1.21 0 0 1.06 -1.21 0 0 -1.06zm0 -0.55c0,-0.09 0.01,-0.18 0.05,-0.24 0.03,-0.07 0.08,-0.12 0.14,-0.15 0.11,-0.06 0.27,-0.05 0.27,-0.32l0 -0.8 0.3 0 0 0.85c0,0.2 0.19,0.23 0.24,0.26 0.11,0.05 0.21,0.18 0.21,0.3l0 0.49 -1.21 0 0 -0.39zm0.46 -1.82l0.3 0 0 0.16 -0.3 0 0 -0.16z"/>
   <path class="fil0" d="M4.95 3.12c0,-0.23 0.15,-0.47 0.33,-0.61 0.16,-0.12 0.12,-0.17 0.12,-0.43l0.3 0c0,0.23 -0.03,0.32 0.12,0.43 0.07,0.05 0.13,0.11 0.18,0.18 0.13,0.17 0.16,0.36 0.16,0.58l0 2.77 -1.21 0 0 -2.92zm0.45 -1.35l0.3 0 0 0.16 -0.3 0 0 -0.16zm-0.16 0.57c-0.14,0.1 -0.23,0.19 -0.32,0.34 -0.09,0.15 -0.13,0.34 -0.13,0.53l0 2.9c0,0.03 0.03,0.08 0.06,0.08l1.39 0c0.05,0 0.07,-0.03 0.07,-0.07l0 -3c0,-0.14 -0.04,-0.27 -0.1,-0.39 -0.07,-0.13 -0.18,-0.26 -0.29,-0.35 -0.09,-0.06 -0.06,-0.08 -0.06,-0.31 0,-0.08 0,-0.17 0,-0.25 0,-0.05 0.02,-0.2 -0.06,-0.2l-0.48 0c-0.11,0 -0.08,0.18 -0.08,0.32 0,0.14 0,0.27 0,0.4z"/>
   <path class="fil0" d="M3.5 3.97c0,-0.18 0.06,-0.32 0.13,-0.47 0.1,-0.21 0.25,-0.39 0.25,-0.74l0 -0.68 0.3 0 0 0.68c0,0.35 0.14,0.53 0.25,0.74 0.07,0.14 0.13,0.29 0.13,0.47l0 2.07 -1.06 0 0 -2.07zm0.38 -2.2l0.3 0 0 0.16 -0.3 0 0 -0.16zm-0.54 2.23l0 2.11c0,0.04 0.03,0.08 0.07,0.08l1.24 0c0.04,0 0.07,-0.04 0.07,-0.08l0 -2.11c0,-0.26 -0.09,-0.48 -0.21,-0.67 -0.07,-0.12 -0.13,-0.25 -0.15,-0.39 -0.04,-0.23 -0.03,-0.9 -0.03,-1.21 0,-0.07 -0.01,-0.11 -0.07,-0.11l-0.46 0c-0.1,0 -0.07,0.14 -0.07,0.28 0,0.29 0.01,0.81 -0.03,1.04 -0.06,0.38 -0.36,0.53 -0.36,1.06z"/>
   <path class="fil0" d="M5.25 3.75l0.61 0 0 1.82 -0.61 0 0 -1.82zm-0.16 -0.05l0 1.94c0,0.05 0.03,0.1 0.08,0.1l0.76 0c0.05,0 0.08,-0.04 0.08,-0.09l0 -1.98c0,-0.02 -0.02,-0.07 -0.07,-0.07l-0.79 0c-0.03,0 -0.06,0.06 -0.06,0.1z"/>
   <path class="fil0" d="M3.81 4.67c0,-0.31 0.44,-0.31 0.44,0 0,0.29 -0.44,0.29 -0.44,0zm-0.16 -0.01c0,0.21 0.18,0.39 0.35,0.39 0.14,0 0.21,-0.03 0.3,-0.12 0.11,-0.11 0.14,-0.27 0.08,-0.41 -0.08,-0.2 -0.31,-0.29 -0.5,-0.21 -0.14,0.06 -0.23,0.21 -0.23,0.35z"/>
  </g>
 </g>
</svg>
