<?xml version="1.0" encoding="UTF-8"?>
<!DOCTYPE svg PUBLIC "-//W3C//DTD SVG 1.1//EN" "http://www.w3.org/Graphics/SVG/1.1/DTD/svg11.dtd">
<!-- Creator: CorelDRAW 2019 (64-Bit) -->
<svg xmlns="http://www.w3.org/2000/svg" xml:space="preserve" width="48px" height="56px" version="1.1" style="shape-rendering:geometricPrecision; text-rendering:geometricPrecision; image-rendering:optimizeQuality; fill-rule:evenodd; clip-rule:evenodd"
viewBox="0 0 6.74 7.84"
 xmlns:xlink="http://www.w3.org/1999/xlink"
 xmlns:xodm="http://www.corel.com/coreldraw/odm/2003">
 <defs>
  <style type="text/css">
   <![CDATA[
    .fil2 {fill:#232981}
    .fil1 {fill:#539BED}
    .fil0 {fill:#B8D9FF}
   ]]>
  </style>
 </defs>
 <g id="Layer_x0020_1">
  <metadata id="CorelCorpID_0Corel-Layer"/>
  <path class="fil0" d="M3.37 7.84c0.52,0 0.92,-1.15 1.28,-1.37 0.05,-0.03 0.2,-0.07 0.33,-0.16 0.44,-0.25 0.53,-0.34 0.86,-0.67 0.04,-0.04 0.05,-0.05 0.09,-0.09l0.24 -0.33c0.23,-0.33 0.37,-0.68 0.47,-1.08 0.24,-0.93 0.02,-1.92 -0.5,-2.69 -0.57,-0.83 -1.62,-1.45 -2.64,-1.45 -0.6,0 -1.08,0.07 -1.57,0.32 -0.28,0.14 -0.51,0.27 -0.74,0.47 -0.35,0.3 -0.71,0.75 -0.88,1.16 -0.16,0.37 -0.31,0.82 -0.31,1.33 0,0.59 0.07,0.92 0.28,1.43 0.11,0.28 0.25,0.48 0.42,0.71 0.29,0.38 0.63,0.64 1.04,0.89 0.14,0.08 0.33,0.14 0.38,0.19 0.03,0.03 0.06,0.08 0.08,0.11 0.2,0.28 0.78,1.23 1.17,1.23z"/>
  <path class="fil1" d="M3.94 6.39c-0.18,0.04 -0.22,0.2 -0.06,0.27 0.09,0.03 0.18,-0.01 0.28,-0.03 -0.04,0.08 -0.15,0.21 -0.2,0.28 -0.51,0.71 -0.51,0.94 -1.06,0.17 -0.07,-0.09 -0.29,-0.38 -0.32,-0.45 0.11,0.02 0.27,0.09 0.34,-0.01 0.08,-0.12 0.01,-0.21 -0.15,-0.24 -0.23,-0.04 -0.46,-0.12 -0.65,-0.2 -0.43,-0.2 -0.48,-0.27 -0.79,-0.5 -0.19,-0.15 -0.44,-0.47 -0.58,-0.7 -1.33,-2.11 0.33,-4.9 2.87,-4.69 0.18,0.01 0.55,0.07 0.68,0.14 0.28,0.06 0.66,0.28 0.86,0.42 0.75,0.54 1.27,1.44 1.29,2.47 0.01,0.8 -0.26,1.38 -0.62,1.89 -0.44,0.63 -1.15,1.02 -1.89,1.18z"/>
  <g id="_1481509360">
   <path class="fil2" d="M3.65 4.91l-1.33 0c-0.06,0 -0.15,0.01 -0.2,-0.03 -0.04,-0.04 -0.05,-0.11 0,-0.15 0.05,-0.06 0.32,-0.04 0.4,-0.04 0.1,0 0.87,0 0.9,0.01 0.02,0 0.08,0.08 0.11,0.11 0.04,0.03 0.09,0.07 0.12,0.1zm1.86 -1.01l0 0.1c-0.02,0.32 -0.16,0.64 -0.45,0.87 -0.25,0.2 -0.49,0.25 -0.8,0.25l-1.07 0 -0.01 0 -0.95 0c-0.06,0 -0.1,0 -0.12,-0.01 -0.31,-0.07 -0.32,-0.52 -0.03,-0.61l-0.01 -0.89c-0.03,-0.02 -0.05,-0.02 -0.07,-0.04 -0.08,-0.06 -0.12,-0.14 -0.13,-0.23l0 -0.07c0.01,-0.1 0.08,-0.2 0.2,-0.26l0.01 -0.01 0 -0.9c-0.12,-0.02 -0.2,-0.16 -0.21,-0.28l0 -0.05c0,0 0,-0.01 0,-0.01 0.02,-0.14 0.15,-0.26 0.29,-0.28l2.22 0c0.14,0.02 0.26,0.14 0.27,0.28 0.02,0.14 -0.06,0.31 -0.21,0.34 0,0.18 0,0.36 0,0.54 0,0.16 -0.03,0.13 0.12,0.16 0.06,0.01 0.14,0.03 0.2,0.05 0.47,0.19 0.73,0.61 0.75,1.05zm-0.22 0.08c-0.01,0.15 -0.03,0.25 -0.09,0.39 -0.17,0.33 -0.53,0.56 -0.9,0.53 -0.27,-0.01 -0.47,-0.11 -0.66,-0.3 -0.37,-0.36 -0.36,-0.97 0.04,-1.35 0.17,-0.16 0.45,-0.27 0.69,-0.26 0.24,0.02 0.5,0.11 0.66,0.3 0.18,0.2 0.28,0.42 0.26,0.69zm-2.01 0.5l-0.98 0 0 -0.85 0.9 0c-0.07,0.3 -0.07,0.55 0.08,0.85zm0 -1.06l-1.02 0c-0.05,0 -0.1,0 -0.14,-0.03 -0.03,-0.04 -0.05,-0.09 -0.02,-0.13 0.04,-0.08 0.2,-0.06 0.28,-0.06l1.04 0c0,0.01 -0.1,0.14 -0.14,0.22zm-0.98 -0.43l-0.01 -0.87 1.94 0 0 0.66c-0.04,0.01 -0.12,0.01 -0.22,0.04 -0.07,0.02 -0.14,0.05 -0.2,0.08 -0.04,0.02 -0.14,0.09 -0.17,0.09 -0.07,0.01 -1.21,0 -1.34,0zm-0.22 -1.18c0,-0.12 0.13,-0.11 0.21,-0.11l1.93 0c0.08,0 0.21,-0.02 0.22,0.1 0.01,0.12 -0.12,0.11 -0.2,0.11l-1.93 0c-0.08,0 -0.22,0.02 -0.23,-0.1z"/>
   <path class="fil2" d="M4.34 3.51c0.05,0.05 0.25,0.43 0.28,0.52 0.15,0.4 -0.34,0.6 -0.54,0.31 -0.08,-0.1 -0.07,-0.19 -0.03,-0.31 0.03,-0.08 0.23,-0.47 0.29,-0.52zm-0.04 -0.3c-0.06,0.02 -0.11,0.12 -0.14,0.18 -0.11,0.18 -0.27,0.42 -0.33,0.63 -0.11,0.36 0.17,0.7 0.55,0.67 0.31,-0.01 0.6,-0.35 0.44,-0.74 -0.06,-0.15 -0.13,-0.28 -0.21,-0.42 -0.04,-0.07 -0.08,-0.13 -0.13,-0.2 -0.04,-0.07 -0.08,-0.15 -0.18,-0.12z"/>
  </g>
 </g>
</svg>
