<?xml version="1.0" encoding="UTF-8"?>
<!DOCTYPE svg PUBLIC "-//W3C//DTD SVG 1.1//EN" "http://www.w3.org/Graphics/SVG/1.1/DTD/svg11.dtd">
<!-- Creator: CorelDRAW 2019 (64-Bit) -->
<svg xmlns="http://www.w3.org/2000/svg" xml:space="preserve" width="48px" height="56px" version="1.1" style="shape-rendering:geometricPrecision; text-rendering:geometricPrecision; image-rendering:optimizeQuality; fill-rule:evenodd; clip-rule:evenodd"
viewBox="0 0 27.29 31.78"
 xmlns:xlink="http://www.w3.org/1999/xlink"
 xmlns:xodm="http://www.corel.com/coreldraw/odm/2003">
 <defs>
  <style type="text/css">
   <![CDATA[
    .fil1 {fill:#9A4C2F}
    .fil0 {fill:#EBC7B2}
   ]]>
  </style>
 </defs>
 <g id="Layer_x0020_1">
  <metadata id="CorelCorpID_0Corel-Layer"/>
  <path class="fil0" d="M13.64 31.78c2.12,0 3.75,-4.67 5.2,-5.55 0.2,-0.12 0.81,-0.32 1.35,-0.65 1.76,-1.05 2.14,-1.39 3.47,-2.71 0.17,-0.17 0.2,-0.22 0.34,-0.4l1.01 -1.32c0.9,-1.36 1.48,-2.74 1.89,-4.36 0.95,-3.8 0.09,-7.79 -2.04,-10.92 -2.28,-3.37 -6.57,-5.87 -10.69,-5.87 -2.43,0 -4.36,0.28 -6.37,1.29 -1.13,0.56 -2.04,1.12 -2.99,1.92 -1.41,1.2 -2.85,3.02 -3.57,4.69 -0.64,1.49 -1.24,3.3 -1.24,5.4 0,2.38 0.29,3.7 1.14,5.78 0.46,1.12 1.02,1.95 1.71,2.88 1.15,1.54 2.54,2.6 4.19,3.6 0.56,0.34 1.33,0.58 1.54,0.78 0.11,0.12 0.24,0.31 0.34,0.46 0.81,1.1 3.17,4.98 4.72,4.98z"/>
  <path class="fil1" d="M15.98 25.89c-0.75,0.15 -0.88,0.82 -0.24,1.11 0.38,0.1 0.74,-0.07 1.12,-0.13 -0.14,0.31 -0.6,0.85 -0.81,1.15 -2.08,2.87 -2.06,3.79 -4.28,0.68 -0.27,-0.37 -1.19,-1.53 -1.32,-1.83 0.45,0.07 1.11,0.35 1.4,-0.06 0.32,-0.45 0.04,-0.82 -0.63,-0.94 -0.93,-0.18 -1.83,-0.48 -2.63,-0.84 -1.73,-0.78 -1.92,-1.06 -3.17,-2.02 -0.8,-0.61 -1.81,-1.91 -2.38,-2.81 -5.37,-8.57 1.35,-19.87 11.64,-19.02 0.71,0.06 2.24,0.29 2.76,0.57 1.15,0.24 2.66,1.14 3.47,1.71 3.05,2.16 5.17,5.81 5.23,9.99 0.05,3.25 -1.06,5.61 -2.5,7.66 -1.79,2.56 -4.65,4.15 -7.66,4.78z"/>
  <path class="fil0" d="M7.96 14.37c-0.39,0 -0.69,-0.1 -0.86,-0.11 0.28,-0.58 0.2,-0.48 0.56,-1.03 0.39,-0.59 1.02,-1.17 1.6,-1.57l0.5 -0.31c0.23,-0.14 0.42,-0.15 0.42,-0.43 0,-0.14 -0.12,-0.27 -0.29,-0.27 -0.18,0 -0.76,0.39 -0.97,0.53l-0.63 0.49c-0.29,0.26 -0.5,0.44 -0.76,0.77l-0.77 1.13c0,-0.76 0.07,-1.14 0.33,-1.65 0.15,-0.31 0.38,-0.61 0.61,-0.86 0.73,-0.8 2.17,-1.24 3.23,-1.24l0.38 0c0,0.59 -0.14,1.21 -0.27,1.69 -0.25,0.93 -0.66,1.92 -1.51,2.45 -0.36,0.22 -1,0.41 -1.57,0.41zm-1.79 -1.1c0,0.7 0.21,1.22 0.21,1.26 0,0.33 -0.55,1.55 0.11,1.55 0.33,0 0.26,-0.46 0.35,-0.93 0.02,-0.09 0.07,-0.25 0.08,-0.35 0.17,0.08 0.85,0.16 1.12,0.16 2.02,0 3.12,-1.52 3.56,-3.27 0.21,-0.88 0.3,-1.22 0.3,-2.16 0,-0.39 -0.52,-0.3 -0.89,-0.3 -1.16,0 -2.51,0.41 -3.35,1.09 -0.88,0.71 -1.49,1.76 -1.49,2.95z"/>
  <path class="fil0" d="M14.3 18.58c0.43,-0.49 1.02,-1.53 1.04,-2.11 0.11,0.09 0.27,0.48 0.35,0.61 0.13,0.22 0.26,0.39 0.41,0.59 0.68,0.87 1.86,1.68 2.92,2.03 0.11,0.04 0.23,0.08 0.37,0.12 0.11,0.03 0.32,0.07 0.4,0.11 0.12,0.08 0.09,0.2 -0.01,0.27 -0.13,0.08 -1.18,0.18 -1.33,0.17 -0.54,-0.01 -1.17,-0.11 -1.7,-0.26 -0.78,-0.23 -2.04,-0.91 -2.45,-1.53zm-6.22 1.18c-0.06,-0.03 -0.06,-0.17 0,-0.21 0.39,-0.27 1.45,-0.14 3.14,-1.47 0.3,-0.24 0.56,-0.49 0.79,-0.78 0.68,-0.86 1,-1.55 1.22,-2.65 0.14,-0.68 -0.09,-1.57 0.89,-1.57 0.86,0 0.79,1.47 0.79,2.14 0,0.88 -0.29,1.8 -0.61,2.36 -0.76,1.31 -2.09,2.07 -3.6,2.34 -0.85,0.15 -1.18,0.11 -2.02,-0.01 -0.23,-0.03 -0.42,-0.04 -0.6,-0.15zm7.54 -4.36c0,-0.13 0.34,0.13 0.47,0.18 0.15,0.06 0.33,0.12 0.51,0.16 1.11,0.28 2.27,0.14 3.34,-0.17 0.23,-0.07 0.44,-0.15 0.65,-0.2 -0.07,0.31 -0.8,1.14 -1.08,1.38 -0.6,0.5 -1.47,0.99 -2.31,1.09 -0.13,0.02 -0.14,0.01 -0.34,-0.21 -0.06,-0.07 -0.09,-0.1 -0.16,-0.16 -0.44,-0.45 -1.05,-1.37 -1.08,-2.07zm-1.21 -2.9c-0.31,0 -0.21,-0.08 -0.57,0 0.01,-0.2 0.02,-0.4 0.03,-0.6 0.19,0 0.38,0 0.57,0 0,0.19 -0.03,0.39 -0.03,0.6zm-6.94 7.08c0.01,0.21 0.03,0.45 0.11,0.61 0.11,0.21 0.48,0.4 2.36,0.4 1.04,0 2.32,-0.4 3.16,-0.96 0.22,-0.14 0.64,-0.43 0.77,-0.62 0.15,0.1 0.27,0.25 0.4,0.39 0.88,0.89 2.64,1.54 4.03,1.54 0.5,0 1.61,-0.02 1.94,-0.35 0.31,-0.32 0.32,-0.97 -0.25,-1.22 -0.29,-0.09 -0.57,-0.18 -0.85,-0.26 -0.3,-0.11 -1.28,-0.56 -1.44,-0.78 0.38,-0.01 1.25,-0.45 1.64,-0.71 0.5,-0.33 0.87,-0.7 1.26,-1.17 0.19,-0.23 0.6,-0.78 0.6,-1.08 0,-0.31 -0.24,-0.54 -0.52,-0.6 -0.19,-0.03 -0.66,0.17 -0.89,0.22 -1.35,0.34 -2.53,0.5 -3.83,-0.1 -0.17,-0.08 -0.34,-0.24 -0.48,-0.28 0,-0.66 -0.11,-1.62 -0.5,-1.88 0.06,-0.27 0.03,-0.48 0.03,-0.8 0.02,-0.77 -0.18,-0.63 -0.92,-0.64 -0.72,-0.02 -0.77,-0.08 -0.82,0.57 -0.07,0.79 0.2,0.63 -0.23,1.1 -0.63,0.7 0.07,1.78 -1.28,3.69 -0.46,0.66 -1.19,1.28 -1.95,1.66 -1.02,0.51 -1.81,0.58 -1.99,0.69 -0.17,0.11 -0.36,0.34 -0.35,0.58z"/>
  <path class="fil0" d="M18.27 10.26l-0.59 -0.88 0.39 -0.26 0.6 0.88 -0.4 0.26zm0.24 2.12c-0.2,0.29 -0.38,0.38 -0.61,0.47 0.81,0.35 1.51,0.1 1.93,-0.43 0.29,-0.38 0.46,-0.04 0.99,-0.62 0.29,-0.32 0.38,-0.78 0.39,-1.2 -0.55,0.57 -1,0.4 -1.05,0.44 -0.04,0.04 -0.29,0.88 -1.32,0.99 -0.02,0 -0.16,0.02 -0.16,0.01 -0.01,0.05 -0.04,0.15 -0.17,0.34zm-2.99 -3.57c-0.09,0.06 -0.16,0.14 -0.22,0.22 2.03,-0.34 3.23,1.79 2.29,3.43 0.35,-0.07 0.59,-0.32 0.68,-0.68 0.11,-0.46 0.68,0.07 1.25,-0.56 0.37,-0.42 0.16,-0.72 0.57,-0.66 0.37,0.05 0.65,-0.08 0.87,-0.39 -2.34,0.19 -3.23,-2.01 -2.34,-3.4 -0.27,0.05 -0.55,0.34 -0.64,0.64 -0.16,0.58 -0.45,-0.07 -1.13,0.5 -0.53,0.44 -0.25,0.83 -0.68,0.77 -0.22,-0.04 -0.45,0 -0.65,0.13zm2.34 -2.1c0.17,-0.19 0.36,-0.28 0.5,-0.33 -0.64,-0.26 -1.45,-0.22 -1.9,0.39 -0.28,0.37 -0.42,0.11 -0.91,0.55 -0.36,0.32 -0.52,0.84 -0.51,1.31 0.28,-0.3 0.51,-0.42 1.04,-0.42 0.25,-0.59 0.81,-1.06 1.49,-1.02 0.08,-0.2 0.09,-0.26 0.29,-0.48zm-3.65 -0.63c0.34,0.5 1,0.85 1.54,0.49 0.07,-0.05 -0.12,-1.3 -1.8,-0.98l0.26 0.49zm-0.13 0.59c-0.26,-0.26 -0.8,-1.12 -0.6,-1.38 0.18,-0.23 1.34,-0.41 2.08,0.1 -0.01,-0.35 0.2,-0.85 0.53,-1.07l0.28 0.35c-0.49,0.4 -0.36,1.13 -0.14,1.65 0.74,-0.77 1.72,-0.66 2.58,-0.24 1.09,0.54 0.17,0.39 -0.06,1.7 -0.16,0.91 0.68,1.97 1.92,1.95 0.73,-0.02 0.95,-0.4 1,0.58 0.04,1.08 -0.35,2.14 -1.47,2.39 -0.19,0.31 -0.68,0.63 -1.02,0.72 -0.87,0.23 -2.12,-0.35 -2.24,-0.61 -0.14,-0.31 0.82,-0.91 0.43,-2.12 -0.33,-1.02 -1.3,-1.42 -2.24,-1.15 -0.34,0.09 -0.43,0.15 -0.51,-0.33 -0.13,-0.71 -0.03,-1.48 0.43,-2.05 -0.38,-0.08 -0.69,-0.21 -0.97,-0.49z"/>
 </g>
</svg>
