<?xml version="1.0" encoding="UTF-8"?>
<!DOCTYPE svg PUBLIC "-//W3C//DTD SVG 1.1//EN" "http://www.w3.org/Graphics/SVG/1.1/DTD/svg11.dtd">
<!-- Creator: CorelDRAW 2019 (64-Bit) -->
<svg xmlns="http://www.w3.org/2000/svg" xml:space="preserve" width="64px" height="64px" version="1.1" style="shape-rendering:geometricPrecision; text-rendering:geometricPrecision; image-rendering:optimizeQuality; fill-rule:evenodd; clip-rule:evenodd"
viewBox="0 0 10.96 10.96"
 xmlns:xlink="http://www.w3.org/1999/xlink"
 xmlns:xodm="http://www.corel.com/coreldraw/odm/2003">
 <defs>
  <style type="text/css">
   <![CDATA[
    .fil0 {fill:#726E6E}
   ]]>
  </style>
 </defs>
 <g id="Layer_x0020_1">
  <metadata id="CorelCorpID_0Corel-Layer"/>
  <path class="fil0" d="M5.48 10.96c3.03,0 5.48,-2.45 5.48,-5.48 0,-3.03 -2.45,-5.48 -5.48,-5.48 -3.03,0 -5.48,2.45 -5.48,5.48 0,3.03 2.45,5.48 5.48,5.48zm-2.19 -7.4c0,0.92 0.39,1.65 1.24,2.07 0.57,0.29 1.32,0.29 1.89,0.01 0.71,-0.35 1.25,-1.06 1.25,-1.89 0,-0.93 -0.41,-1.66 -1.24,-2.08 -0.57,-0.28 -1.32,-0.28 -1.89,0 -0.71,0.35 -1.25,1.06 -1.25,1.89zm2.19 2.93c1.54,0 2.94,0.63 3.93,1.66 0.01,-0.01 0.01,-0.01 0.01,-0.02 0.51,-0.75 0.81,-1.67 0.81,-2.65 0,-2.62 -2.13,-4.75 -4.75,-4.75 -2.62,0 -4.75,2.13 -4.75,4.75 0,0.99 0.3,1.91 0.82,2.67 1,-1.03 2.39,-1.66 3.93,-1.66z"/>
 </g>
</svg>
