<?xml version="1.0" encoding="UTF-8"?>
<!DOCTYPE svg PUBLIC "-//W3C//DTD SVG 1.1//EN" "http://www.w3.org/Graphics/SVG/1.1/DTD/svg11.dtd">
<!-- Creator: CorelDRAW 2019 (64-Bit) -->
<svg xmlns="http://www.w3.org/2000/svg" xml:space="preserve" width="1500px" height="1500px" version="1.1" style="shape-rendering:geometricPrecision; text-rendering:geometricPrecision; image-rendering:optimizeQuality; fill-rule:evenodd; clip-rule:evenodd"
viewBox="0 0 168.57 168.57"
 xmlns:xlink="http://www.w3.org/1999/xlink"
 xmlns:xodm="http://www.corel.com/coreldraw/odm/2003">
 <defs>
  <style type="text/css">
   <![CDATA[
    .fil0 {fill:#726E6E}
    .fil1 {fill:yellow}
   ]]>
  </style>
 </defs>
 <g id="Layer_x0020_1">
  <metadata id="CorelCorpID_0Corel-Layer"/>
  <path class="fil0" d="M84.28 99.74c25.78,0 48.84,11.57 64.3,29.8 -14.23,20.18 -37.72,33.37 -64.3,33.37 -26.57,0 -50.06,-13.19 -64.29,-33.37 15.46,-18.23 38.52,-29.8 64.29,-29.8z"/>
  <path class="fil0" d="M84.28 168.57c46.55,0 84.29,-37.74 84.29,-84.29 0,-46.54 -37.74,-84.28 -84.29,-84.28 -46.54,0 -84.28,37.74 -84.28,84.28 0,46.55 37.74,84.29 84.28,84.29zm0 -11.26c25.23,0 47.47,-12.79 60.59,-32.24 7.85,-11.65 12.44,-25.68 12.44,-40.79 0,-40.33 -32.7,-73.02 -73.03,-73.02 -40.33,0 -73.02,32.69 -73.02,73.02 0,40.33 32.69,73.03 73.02,73.03z"/>
  <path class="fil1" d="M50.57 54.96l-10.9 1.23 10.97 1.23c0.21,3.75 0.87,7.28 2.01,10.55l-9.58 5.29 10.47 -3.02c1.44,3.32 3.42,6.34 5.96,9.02l-6.76 8.47 8.49 -6.78c2.48,2.25 5.65,4.38 9.01,5.97l-3.03 10.48 5.27 -9.54c3.33,1.25 6.95,1.94 10.58,2.07l1.22 10.87 1.23 -10.87c3.65,-0.12 7.26,-0.81 10.58,-2.06l5.27 9.53 -3.03 -10.48c3.23,-1.53 6.31,-3.63 8.94,-6.02l8.56 6.83 -6.81 -8.54c2.51,-2.62 4.6,-5.63 6.14,-8.92l10.34 2.99 -9.41 -5.2c1.26,-3.35 1.93,-6.89 1.91,-10.65l10.9 -1.22 -10.97 -1.24c-0.21,-3.75 -0.89,-7.28 -2.03,-10.53l9.6 -5.31 -10.5 3.03c-1.45,-3.33 -3.43,-6.35 -5.95,-9.01l6.78 -8.49 -8.51 6.79c-2.49,-2.27 -5.64,-4.4 -8.99,-5.98l3.03 -10.48 -5.27 9.54c-3.33,-1.25 -6.95,-1.94 -10.58,-2.06l-1.23 -10.88 -1.22 10.87c-3.65,0.12 -7.26,0.81 -10.58,2.06l-5.27 -9.53 3.03 10.48c-3.23,1.53 -6.31,3.63 -8.93,6.03l-8.57 -6.84 6.82 8.55c-2.51,2.63 -4.6,5.63 -6.14,8.91l-10.35 -2.99 9.42 5.21c-1.29,3.42 -1.94,6.98 -1.92,10.64z"/>
 </g>
</svg>
